<svg viewBox="0 0 26 20" xmlns="http://www.w3.org/2000/svg">

<path d="M19.36 14.848c-.451-1.584-1.393-2.972-2.653-3.907a.384.384 0 00-.458.617c1.125.835 1.967 2.078 2.373 3.5a.384.384 0 10.738-.21zM15.505 10.232a6.2 6.2 0 00-2.575-.558c-1.47 0-2.867.508-4.04 1.47-1.141.938-1.969 2.219-2.392 3.704a.384.384 0 10.739.21c.374-1.315 1.135-2.494 2.141-3.32 1.033-.848 2.261-1.296 3.551-1.296.782 0 1.542.164 2.259.49a.384.384 0 00.317-.7zM18.265 2.004l-5.2-1.959a.384.384 0 00-.52.36V7.343a1.616 1.616 0 00-1.229 1.567v.126a.384.384 0 10.768 0V8.91a.846.846 0 011.69 0v.126a.384.384 0 10.768 0V8.91c0-.758-.524-1.394-1.229-1.567V4.588l4.952-1.865a.384.384 0 000-.72zm-4.952 1.763V.96l3.727 1.403-3.727 1.404zM19.342 15.703h-7.459a.384.384 0 100 .768h7.46c.317 0 .575.259.575.576v.399a.384.384 0 10.768 0v-.399c0-.74-.603-1.344-1.344-1.344zM10.603 15.703H6.516c-.741 0-1.344.603-1.344 1.345v1.23c0 .137.02.273.062.405a.384.384 0 10.733-.23.59.59 0 01-.027-.175v-1.23c0-.318.258-.576.576-.576h4.087a.384.384 0 100-.769z"/><path d="M25.475 19.211c-1.173 0-1.745-.257-2.352-.53-.654-.293-1.33-.596-2.667-.596l-.161.001c-1.232.024-1.879.314-2.505.596-.607.272-1.18.529-2.352.529s-1.745-.257-2.352-.53c-.654-.293-1.33-.597-2.666-.597-1.337 0-2.013.304-2.667.597-.581.261-1.13.508-2.205.528a6.99 6.99 0 01-.146.002c-1.172 0-1.745-.257-2.352-.53-.653-.293-1.33-.597-2.666-.597a.384.384 0 100 .769c1.172 0 1.745.257 2.352.53.653.293 1.33.596 2.666.596.055 0 .109 0 .161-.002 1.231-.023 1.879-.314 2.505-.595.607-.272 1.18-.53 2.352-.53s1.745.258 2.352.53c.653.294 1.33.597 2.666.597 1.337 0 2.013-.303 2.666-.597.582-.26 1.131-.507 2.206-.528a6.96 6.96 0 01.146-.001c1.173 0 1.746.257 2.352.53.654.293 1.33.596 2.667.596a.384.384 0 100-.768z"/>

</svg>