<svg viewBox="0 0 17 20" xmlns="http://www.w3.org/2000/svg">
<path d="M9.253 13.354a.805.805 0 00-.857.078 1.602 1.602 0 01-.086-.184c-.114-.286-.204-.576-.3-.885a17.734 17.734 0 00-.2-.62c-.198-.569-.442-1.155-.875-1.583a1.579 1.579 0 00-.68-.396.295.295 0 00-.059-.01.853.853 0 00-.05-1.077.855.855 0 00.217-.57.865.865 0 00-.63-.828c.022-.093.046-.186.073-.277l.802-2.71a3.334 3.334 0 00-.592-3.022A3.366 3.366 0 003.37 0 3.366 3.366 0 00.723 1.27c-.678.851-.9 1.981-.592 3.023l.802 2.709c.027.09.051.184.073.277a.865.865 0 00-.63.829c0 .218.083.417.218.57a.855.855 0 000 1.138.855.855 0 000 1.14.855.855 0 00-.217.569c0 .418.3.767.699.846a5.123 5.123 0 01-.143.627l-.19.64a.293.293 0 00.284.375.295.295 0 00.283-.21l.19-.64c.074-.253.132-.514.171-.776h.605c-.077.296-.663 2.303-1.055 3.638a2.212 2.212 0 00.393 2.005 2.234 2.234 0 001.755.843c.689 0 1.329-.307 1.756-.843.45-.565.598-1.314.393-2.005a363.73 363.73 0 01-1.055-3.637h.605c.039.261.097.522.172.776l.801 2.708a2.75 2.75 0 01-.488 2.494 2.777 2.777 0 01-2.184 1.048 2.777 2.777 0 01-2.183-1.048 2.75 2.75 0 01-.488-2.494l.28-.943a.296.296 0 00-.567-.165l-.28.943a3.334 3.334 0 00.592 3.023A3.367 3.367 0 003.37 20a3.366 3.366 0 002.646-1.27c.679-.851.9-1.981.592-3.023l-.802-2.709a5.113 5.113 0 01-.142-.627.87.87 0 00.563-.384c.107.268.192.547.281.838.047.152.094.308.145.462.173.523.41 1.24 1.033 1.614a1.436 1.436 0 001.126.137c.35-.103.624-.329.774-.637a.784.784 0 00-.333-1.046zM.967 10.386c0-.153.125-.277.279-.277h4.247c.154 0 .28.124.28.277a.278.278 0 01-.28.277H1.246a.278.278 0 01-.279-.277zm0-1.14c0-.152.125-.276.279-.276h4.247c.154 0 .28.124.28.277a.278.278 0 01-.28.276H1.246a.278.278 0 01-.279-.276zm-.27-5.118a2.75 2.75 0 01.49-2.494A2.777 2.777 0 013.37.586c.856 0 1.651.382 2.183 1.048a2.75 2.75 0 01.488 2.494L5.24 6.837c-.04.134-.075.271-.105.408h-.57c.275-.96.946-3.245.953-3.27a2.212 2.212 0 00-.393-2.005 2.233 2.233 0 00-1.755-.843c-.689 0-1.329.307-1.756.843a2.211 2.211 0 00-.393 2.005c.007.024.678 2.311.952 3.27h-.57a5.719 5.719 0 00-.104-.409L.698 4.128zm2.09 3.117l-.004-.012c-.24-.849-.988-3.397-.996-3.423a1.629 1.629 0 01.29-1.477c.314-.394.786-.62 1.293-.62.507 0 .978.226 1.292.62.332.416.44.968.29 1.478-.008.026-.763 2.596-1 3.434H2.786zm-1.541.586h4.247c.154 0 .28.124.28.277a.278.278 0 01-.28.276H1.246a.278.278 0 01-.279-.276c0-.153.125-.277.279-.277zm3.706 8.359c.15.509.042 1.06-.29 1.476-.314.395-.785.621-1.292.621s-.979-.226-1.293-.62a1.629 1.629 0 01-.29-1.478c1.082-3.68 1.082-3.721 1.082-3.776v-.026H3.87v.026c0 .055 0 .095 1.082 3.777zm.541-4.389H1.246a.278.278 0 01-.279-.276c0-.152.125-.277.279-.277h4.247c.154 0 .28.125.28.277a.278.278 0 01-.28.277zm3.561 2.345a.646.646 0 01-.41.33.832.832 0 01-.652-.077c-.436-.261-.618-.81-.778-1.294-.049-.148-.095-.301-.14-.45-.117-.38-.238-.775-.413-1.151-.06-.13-.197-.32-.296-.443a2.492 2.492 0 00-.16-.181.853.853 0 00.155-.432c.057.037.11.08.158.127.348.344.559.857.735 1.36.069.197.132.402.193.6.094.306.192.622.316.93.073.182.178.402.353.544a.294.294 0 00.142.088.298.298 0 00.415-.068.292.292 0 00.086-.135.215.215 0 01.219-.021c.104.054.12.184.077.273zM14.334 6.996V.883a.867.867 0 00-.868-.862c-.48 0-.87.386-.87.862v3.16c0 .162.133.293.296.293a.294.294 0 00.295-.293V.883c0-.152.125-.277.279-.277.153 0 .278.125.278.277v6.04l-.03-.001h-.527V5.215a.294.294 0 00-.295-.293.294.294 0 00-.295.293v1.749c0 .01 0 .022.002.033a2.583 2.583 0 00-1.35.827 2.54 2.54 0 00-.616 1.598.58.58 0 00-.249.555l.37 2.706a.574.574 0 00.455.488c.192.756.71 1.365 1.39 1.686a.289.289 0 00-.002.037v4.232c0 .475.39.862.869.862s.869-.387.869-.862V15.03a2.574 2.574 0 001.965-2.49V9.487a2.573 2.573 0 00-1.966-2.49zm-3.364 2.91c.005 0 .01 0 .015-.002l1.108-.15.368 2.691-1.123.152-.368-2.69zm2.077 2.468l-.37-2.705a.574.574 0 00-.224-.383l-.02-.014a.807.807 0 01.784-.593h.498c.449 0 .813.363.813.808v3.053a.811.811 0 01-.813.807.809.809 0 01-.773-.556.57.57 0 00.105-.417zm.697 6.752a.278.278 0 01-.278.276.278.278 0 01-.279-.276V15.05c.17.035.347.054.528.054h.03v4.02zm1.965-6.586a1.99 1.99 0 01-1.994 1.98c-.89 0-1.652-.573-1.906-1.395l.597-.08c.205.528.717.888 1.309.888a1.4 1.4 0 001.404-1.393V9.487a1.4 1.4 0 00-1.404-1.394h-.498c-.412 0-.802.18-1.07.49a1.389 1.389 0 00-.303.614l-.61.082c.04-.394.2-.768.464-1.075.38-.443.933-.697 1.519-.697h.498c1.1 0 1.994.888 1.994 1.98v3.053z"/>
</svg>