<svg viewBox="0 0 20 20" xmlns="http://www.w3.org/2000/svg"><path d="M8.726 14.517a.585.585 0 10-.828.827.585.585 0 00.828-.827zM7.895 8.717a.585.585 0 10-.829.828.598.598 0 00.828 0 .585.585 0 000-.828zM19.478 7.083l-.958-.957a3.514 3.514 0 00-.664-4.05 3.512 3.512 0 00-4.05-.664l-.898-.899a1.76 1.76 0 00-2.486.001l-.378.378 1.183 1.184a.586.586 0 11-.828.829L9.215 1.72 7.602 3.378l9.055 9.055 1.613-1.657-1.242-1.243a.586.586 0 11.828-.828L19.1 9.947l.379-.378a1.76 1.76 0 000-2.486zM13.713 5.39a.586.586 0 01-.828 0l-.83-.828a.586.586 0 11.83-.829l.829.829c.228.228.228.6 0 .828zM16.2 7.876a.586.586 0 01-.829 0l-.828-.829a.586.586 0 11.829-.828l.828.829c.229.228.229.6 0 .828z"/><path d="M6.772 4.207l-6.25 6.25a1.76 1.76 0 000 2.486l.924.924a3.54 3.54 0 00.71 3.952 3.54 3.54 0 003.965.704l1.012.983a1.765 1.765 0 002.468-.018l6.226-6.226-9.055-9.055zm-.533 3.681c.664-.664 1.823-.663 2.486 0a1.757 1.757 0 11-2.486 0zm3.314 8.286a1.76 1.76 0 01-2.485.001 1.76 1.76 0 010-2.487c.664-.664 1.823-.663 2.486 0a1.76 1.76 0 010 2.486zM11.69 12.2l-7.458.828a.586.586 0 11-.129-1.165l7.457-.828a.586.586 0 01.13 1.165z"/></svg>