<svg viewBox="0 0 25 20" xmlns="http://www.w3.org/2000/svg">
<path d="M7.304 6.363l.565-.573 4.392 4.455-.565.573-4.392-4.455zM10.898 7.578l.565-.573 1.996 2.025-.564.573-1.997-2.025zM6.505 7.982l.565-.572.799.81-.565.572-.799-.81z"/><path d="M22.666 4.104C21.709 2.054 19.08 0 12.38 0c-1.054 0-2.047.052-2.952.154-4.563.514-6.525 2.251-7.324 3.948L0 4.529v5.525l.799.162v1.53c0 7.402 3.503 8.507 5.591 8.507 1.777 0 3.097-.675 4.061-1.167.87-.445 1.134-.548 1.47-.492.59.1 1.12.317 1.735.57 1.379.564 3.094 1.267 5.484.575 4.823-1.398 4.823-6.188 4.823-7.992v-1.531l.799-.162V4.529l-2.096-.425zm1.297 2.377v1.62h-.799v-1.62h.8zM14.594.896L14.09 2.43h-3.418L10.168.896A27.313 27.313 0 0112.38.81c.8 0 1.534.03 2.213.086zm-4.498 2.345h4.57l.249-.759c2.414.262 5.853 1.127 5.853 3.931V8.17c0 3.466-5.255 3.983-8.387 3.983-3.132 0-8.387-.517-8.387-3.983V6.414c0-2.804 3.439-3.67 5.853-3.931l.25.758zM9.353.98l.236.717c-4.13.481-6.394 2.14-6.394 4.716V8.17c0 3.09 3.262 4.793 9.186 4.793 5.924 0 9.186-1.703 9.186-4.793V6.414c0-2.576-2.264-4.236-6.394-4.717L15.41.98c5.972.724 6.957 3.625 6.957 5.45v1.722c0 2.099-1.298 5.62-9.985 5.62s-9.985-3.521-9.985-5.62V6.43c0-2.11 1.215-4.755 6.957-5.45zm11.394 11.703c-.086 1.76-.518 3.37-2.485 3.94-1.333.386-2.25.01-3.411-.465-.688-.282-1.468-.602-2.405-.76-1.412-.239-2.439.287-3.433.794-.825.422-1.605.82-2.623.82-1.44 0-2.235-1.458-2.372-4.327 1.593 1.098 4.186 1.897 8.363 1.897 4.18 0 6.773-.8 8.366-1.9zM.8 8.1v-1.62h.799v1.62h-.8zm0-2.908l.981-.2c-.06.233-.104.46-.133.678H.8v-.478zm.847 3.718c.029.22.071.446.13.677L.8 9.389v-.478h.847zm21.518 2.836c0 1.636 0 5.983-4.244 7.213-2.124.616-3.634-.003-4.967-.549-.657-.269-1.223-.501-1.9-.615-.611-.105-1.068.11-1.961.567-.893.455-2.115 1.08-3.702 1.08-4.17 0-4.792-4.822-4.792-7.696v-1.37l.498.102c.245.524.598 1.05 1.102 1.54.063 4.786 1.762 5.804 3.192 5.804 1.208 0 2.11-.462 2.983-.908.959-.49 1.787-.913 2.942-.718.85.144 1.555.433 2.236.712 1.2.491 2.333.956 3.93.493 2.927-.848 3.077-3.677 3.085-5.386a5.214 5.214 0 001.1-1.537l.498-.101v1.369zm.8-2.358l-.979.199c.06-.23.102-.457.13-.677h.848v.478zm-.848-3.718a5.54 5.54 0 00-.13-.677l.977.199v.478h-.847z"/>
</svg>