<svg viewBox="0 0 24 30" xmlns="http://www.w3.org/2000/svg">><path d="M16.312.173a.736.736 0 00-.526-.232H3.973c-2.18 0-3.98 1.776-3.98 3.935v22.13c0 2.16 1.8 3.936 3.98 3.936h16.033c2.18 0 3.979-1.776 3.979-3.936V8.434a.776.776 0 00-.212-.507L16.313.173zm.212 2.326l4.996 5.196h-3.247a1.734 1.734 0 01-1.749-1.725V2.5zm3.482 25.993H3.973c-1.368 0-2.516-1.123-2.516-2.486V3.877c0-1.355 1.14-2.485 2.516-2.485H15.06v4.58c0 1.76 1.434 3.173 3.212 3.173h4.25v16.863c0 1.362-1.142 2.485-2.517 2.485z"/><path d="M18.01 23.492H5.97a.73.73 0 00-.732.725c0 .398.33.725.732.725h12.047a.73.73 0 00.731-.725.732.732 0 00-.739-.725zM11.455 20.89a.74.74 0 00.534.233.74.74 0 00.534-.232l4.287-4.558a.717.717 0 00-.037-1.022.734.734 0 00-1.031.036l-3.021 3.21v-7.913a.73.73 0 00-.732-.724.73.73 0 00-.731.724v7.913l-3.014-3.21a.734.734 0 00-1.031-.036.718.718 0 00-.037 1.022l4.28 4.558z"/></svg>