<svg viewBox="0 0 20 20" xmlns="http://www.w3.org/2000/svg">
<path d="M9.152.573L8.288.86A3.623 3.623 0 015.02.331L4.58 0l-.442.33c-.92.691-2.176.895-3.269.531L.004.573l.584 3.793c.317 2.063.537 4.152.66 6.244l-1.168.876v2.186l.643.963v1.51A3.86 3.86 0 004.578 20a3.86 3.86 0 003.856-3.855v-1.51l.642-.963v-2.186l-1.168-.876a67.2 67.2 0 01.661-6.244L9.152.573zM.722 11.807l.565-.423c.045.945.07 1.89.075 2.833h-.146l-.493-.74v-1.67zm7.07 4.338a3.216 3.216 0 01-3.214 3.212 3.216 3.216 0 01-3.213-3.212v-1.286h6.426v1.286zm-5.546-1.928l1.643-2.818a.8.8 0 01.69-.395.8.8 0 01.688.396l1.643 2.817H2.247zm6.188-2.41v1.67l-.493.74h-.147c.005-.943.03-1.888.075-2.833l.565.423zm-.5-7.54a67.81 67.81 0 00-.774 9.102l-1.338-2.293a1.445 1.445 0 00-1.244-.715c-.51 0-.987.274-1.244.715l-1.337 2.293a67.76 67.76 0 00-.775-9.101L.8 1.513c.6.178 1.235.209 1.852.111v5.203h.642V1.471c.44-.14.86-.348 1.23-.627l.055-.04.055.04c.46.346.994.582 1.552.714v5.27h.642V1.662a4.176 4.176 0 001.53-.15l-.423 2.755z"/><path d="M4.578 18.715a2.573 2.573 0 002.57-2.57v-.643h-5.14v.643a2.573 2.573 0 002.57 2.57zm1.928-2.57a1.93 1.93 0 01-1.928 1.927 1.93 1.93 0 01-1.927-1.927h3.855zM4.257 12.932h-.642v.642h.642v-.642zM5.542 12.932H4.9v.642h.642v-.642zM19.171 4.366l.584-3.793-.864.288a3.623 3.623 0 01-3.27-.53L15.181 0l-.441.33c-.92.691-2.177.895-3.27.531l-.864-.288.584 3.793c.317 2.063.537 4.152.66 6.244l-1.167.876v2.186l.642.963v1.51A3.86 3.86 0 0015.181 20a3.86 3.86 0 003.855-3.855v-1.51l.643-.963v-2.186l-1.168-.876a67.18 67.18 0 01.66-6.244zm-7.77-2.853a4.21 4.21 0 001.852.11v5.204h.643V1.471c.44-.14.858-.348 1.23-.627l.055-.04.055.04c.46.346.993.582 1.551.714v5.27h.643V1.662a4.176 4.176 0 001.53-.15l-.424 2.755a67.804 67.804 0 00-.774 9.101l-1.337-2.293a1.445 1.445 0 00-1.244-.715c-.51 0-.987.274-1.244.715l-1.338 2.293a67.76 67.76 0 00-.774-9.101L11.4 1.513zm6.112 12.704h-4.665l1.644-2.818a.8.8 0 01.689-.395.8.8 0 01.689.396l1.643 2.817zm-6.188-2.41l.565-.423c.044.945.07 1.89.075 2.833h-.147l-.493-.74v-1.67zm7.069 4.338a3.216 3.216 0 01-3.213 3.212 3.217 3.217 0 01-3.213-3.212v-1.286h6.425v1.286zm.642-4.338v1.67l-.493.74h-.146c.004-.943.03-1.888.075-2.833l.564.423z"/><path d="M15.18 18.715a2.573 2.573 0 002.57-2.57v-.643h-5.14v.643a2.573 2.573 0 002.57 2.57zm1.928-2.57a1.93 1.93 0 01-1.927 1.927 1.93 1.93 0 01-1.928-1.927h3.855zM14.86 12.932h-.643v.642h.642v-.642zM16.145 12.932h-.643v.642h.643v-.642z"/>
</svg>