<svg height="65" version="1.1" width="237.75906250000003" xmlns="http://www.w3.org/2000/svg" xmlns:xlink="http://www.w3.org/1999/xlink" style="overflow: hidden; position: relative; top: -0.796875px;" viewBox="105.27999999999997 182.0625 237.75906250000003 65" preserveAspectRatio="xMinYMin" id="main_svg"><desc style="-webkit-tap-highlight-color: rgba(0, 0, 0, 0);">Created with Logotizer</desc><defs style="-webkit-tap-highlight-color: rgba(0, 0, 0, 0);"></defs><path fill="#ffffff" stroke="none" d="M-79.43,-10.43L-79.38,-10.57L-72.73,-10.57Q-72.73,-7.52,-70.86,-6.11Q-69,-4.69,-65.67,-4.69Q-62.88,-4.69,-61.41,-5.84Q-59.93,-6.98,-59.93,-8.91Q-59.93,-10.88,-61.32,-12.07Q-62.72,-13.27,-66.21,-14.32Q-72.3,-16.08,-75.42,-18.49Q-78.54,-20.91,-78.54,-25.1Q-78.54,-29.3,-74.96,-31.96Q-71.39,-34.62,-65.84,-34.62Q-60.21,-34.64,-56.67,-31.64Q-53.25,-28.76,-53.25,-24.54Q-53.25,-24.4,-53.25,-24.26L-53.3,-24.12L-59.93,-24.12Q-59.93,-26.48,-61.51,-27.95Q-63.09,-29.41,-65.95,-29.41Q-68.7,-29.41,-70.2,-28.2Q-71.7,-26.98,-71.7,-25.08Q-71.7,-23.34,-70.09,-22.23Q-68.48,-21.12,-64.55,-19.88Q-58.9,-18.3,-55.99,-15.73Q-53.09,-13.15,-53.09,-8.95Q-53.09,-4.57,-56.54,-2.04Q-60,0.49,-65.67,0.49Q-71.25,0.47,-75.4,-2.39Q-79.43,-5.18,-79.43,-10.15Q-79.43,-10.29,-79.43,-10.43ZM-49.8,-7.15Q-49.8,-10.88,-46.93,-12.93Q-44.06,-14.98,-38.55,-14.98L-34.73,-14.98L-34.73,-16.99Q-34.73,-18.82,-35.7,-19.83Q-36.66,-20.84,-38.53,-20.84Q-40.2,-20.84,-41.1,-20.03Q-42,-19.22,-42,-17.79L-48.61,-17.81L-48.63,-17.95Q-48.63,-18.12,-48.63,-18.28Q-48.63,-21.28,-45.84,-23.48Q-42.89,-25.83,-38.09,-25.83Q-33.54,-25.83,-30.7,-23.52Q-27.87,-21.21,-27.87,-16.95L-27.87,-6.47Q-27.87,-4.69,-27.6,-3.12Q-27.33,-1.55,-26.74,0L-33.59,0Q-33.96,-0.87,-34.23,-1.83Q-34.5,-2.79,-34.62,-3.8Q-35.67,-1.95,-37.39,-0.73Q-39.12,0.49,-41.51,0.49Q-45.49,0.49,-47.65,-1.56Q-49.8,-3.61,-49.8,-7.15M-42.98,-7.38Q-42.98,-6.12,-42.14,-5.34Q-41.3,-4.57,-39.84,-4.57Q-38.04,-4.57,-36.63,-5.46Q-35.23,-6.35,-34.73,-7.52L-34.73,-11.11L-38.55,-11.11Q-40.73,-11.11,-41.86,-10.02Q-42.98,-8.93,-42.98,-7.38ZM-22.69,0L-22.69,-25.36L-16.34,-25.36L-16.05,-22.01Q-14.84,-23.84,-13,-24.83Q-11.16,-25.83,-8.74,-25.83Q-6.3,-25.83,-4.57,-24.75Q-2.84,-23.67,-1.95,-21.49Q-0.77,-23.53,1.1,-24.68Q2.98,-25.83,5.51,-25.83Q9.26,-25.83,11.43,-23.24Q13.59,-20.65,13.59,-15.35L13.59,0L6.75,0L6.75,-15.38Q6.75,-18.26,5.81,-19.38Q4.88,-20.51,3.02,-20.51Q1.57,-20.51,0.5,-19.86Q-0.56,-19.22,-1.2,-18.07Q-1.2,-17.63,-1.17,-17.31Q-1.15,-16.99,-1.15,-16.66L-1.15,0L-7.97,0L-7.97,-15.38Q-7.97,-18.19,-8.91,-19.35Q-9.84,-20.51,-11.72,-20.51Q-13.1,-20.51,-14.14,-19.98Q-15.19,-19.45,-15.87,-18.49L-15.87,0L-22.69,0ZM18.84,9.75L18.84,-25.36L25.01,-25.36L25.41,-22.36Q26.53,-24.02,28.11,-24.93Q29.7,-25.83,31.8,-25.83Q36.52,-25.83,39.12,-22.15Q41.72,-18.47,41.72,-12.47L41.72,-11.98Q41.72,-6.35,39.12,-2.93Q36.52,0.49,31.85,0.49Q29.86,0.49,28.31,-0.25Q26.77,-0.98,25.66,-2.41L25.66,9.75L18.84,9.75M25.66,-6.96Q26.3,-5.88,27.39,-5.32Q28.48,-4.76,30.07,-4.76Q32.55,-4.76,33.71,-6.7Q34.88,-8.65,34.88,-11.98L34.88,-12.47Q34.88,-16.05,33.68,-18.28Q32.48,-20.51,30.02,-20.51Q28.48,-20.51,27.39,-19.88Q26.3,-19.24,25.66,-18.07L25.66,-6.96ZM46.29,0L46.29,-36.56L53.13,-36.56L53.13,0L46.29,0ZM57.94,-11.95L57.94,-12.89Q57.96,-18.54,61.05,-22.2Q64.15,-25.83,69.3,-25.83Q69.33,-25.83,69.38,-25.83Q74.51,-25.83,77.34,-22.73Q80.18,-19.64,80.18,-14.37L80.18,-10.64L65.04,-10.64L64.99,-10.5Q65.18,-7.99,66.67,-6.38Q68.16,-4.76,70.71,-4.76Q72.98,-4.76,74.48,-5.21Q75.98,-5.67,77.77,-6.66L79.62,-2.44Q78.07,-1.17,75.56,-0.34Q73.05,0.49,69.98,0.49Q64.5,0.49,61.22,-3.02Q57.94,-6.54,57.94,-11.95M65.02,-15.28L65.09,-15.16L73.48,-15.16L73.48,-15.77Q73.48,-17.95,72.46,-19.25Q71.44,-20.55,69.38,-20.55Q67.48,-20.55,66.38,-19.1Q65.27,-17.65,65.02,-15.28Z" transform="matrix(1,0,0,1,261.5,233.0625)" style="-webkit-tap-highlight-color: rgba(0, 0, 0, 0);" stroke-width="1"></path><path fill="#ffffff" stroke="none" d="M0.4,50L30,10H130L160,50L80.4,150L0.4,50Z" stroke-width="0" opacity="1" transform="matrix(0.4,0,0,0.4,105.12,187)" style="-webkit-tap-highlight-color: rgba(0, 0, 0, 0); opacity: 1;"></path></svg>