<svg viewBox="0 0 71 61" xmlns="http://www.w3.org/2000/svg"><path d="M69.612 12.307L36.192.19a2.026 2.026 0 00-1.384 0L1.388 12.307A2.135 2.135 0 000 14.321a2.135 2.135 0 001.383 2.017l33.42 12.21a2.028 2.028 0 001.394 0l33.42-12.21A2.135 2.135 0 0071 14.32a2.135 2.135 0 00-1.388-2.014zM66.005 40.844V22.196l-4.16 1.52v17.128a4.313 4.313 0 00-2.098 3.722c0 1.593.844 2.982 2.097 3.723v10.506c0 1.181.932 2.138 2.08 2.138 1.15 0 2.08-.957 2.08-2.138V48.29a4.313 4.313 0 002.098-3.722 4.313 4.313 0 00-2.097-3.723z" fill="#1B498E"/><path d="M35.5 32.948a6.072 6.072 0 01-2.09-.37l-18.788-6.865v9.408c0 2.301 2.336 4.248 6.944 5.785 4.016 1.34 8.965 2.077 13.934 2.077 4.97 0 9.918-.738 13.934-2.077 4.608-1.537 6.944-3.484 6.944-5.785v-9.408L37.59 32.577a6.073 6.073 0 01-2.09.371z" fill="#1B498E"/></svg>