<svg viewBox="0 0 78 61" xmlns="http://www.w3.org/2000/svg"><path d="M11.932.013h-.007a2.72 2.72 0 00-1.955.83c-.53.54-.822 1.26-.822 2.026v42.825c0 1.57 1.254 2.851 2.795 2.855 6.497.016 17.382 1.402 24.89 9.442V13.174c0-.532-.132-1.033-.383-1.446C30.287 1.572 18.444.029 11.932.013zM68.852 45.694V2.87c0-.766-.292-1.486-.822-2.027a2.72 2.72 0 00-1.955-.83h-.007c-6.51.017-18.354 1.56-24.518 11.715-.25.414-.383.914-.383 1.447V57.99c7.509-8.04 18.394-9.426 24.89-9.442 1.541-.004 2.795-1.285 2.795-2.855z" fill="#1B498E"/><path d="M75.209 9.89h-2.024v35.804c0 4.01-3.193 7.28-7.118 7.29-5.51.013-14.597 1.115-21.032 7.347 11.13-2.788 22.862-.975 29.549.584a2.737 2.737 0 002.366-.552 2.865 2.865 0 001.05-2.23V12.744c0-1.575-1.253-2.856-2.791-2.856zM4.814 45.694V9.89H2.791C1.252 9.89 0 11.17 0 12.745V58.13c0 .874.382 1.687 1.049 2.23.668.546 1.53.748 2.366.553 6.687-1.56 18.42-3.372 29.549-.584-6.435-6.231-15.521-7.334-21.032-7.347-3.925-.01-7.118-3.28-7.118-7.289z" fill="#1B498E"/></svg>