<svg viewBox="0 0 16 20" xmlns="http://www.w3.org/2000/svg">

<path d="M5.703 11.563h-3.75v4.374h3.75v-4.374zm-.625 3.75h-2.5v-3.126h2.5v3.126z"/><path d="M4.453 12.813h-1.25v.624h1.25v-.624zM4.453 14.063h-1.25v.624h1.25v-.624zM12.578 11.563h-3.75v4.374h3.75v-4.374zm-.625 3.75h-2.5v-3.126h2.5v3.126z"/><path d="M11.328 12.813h-1.25v.624h1.25v-.624zM11.328 14.063h-1.25v.624h1.25v-.624z"/><path d="M12.496 3.75h2.582v-2.5h-2.582A2.184 2.184 0 009.175.937H6.641v.625H3.828a.939.939 0 00-.937.938v2.813h-.625A2.19 2.19 0 00.078 7.5v10a2.19 2.19 0 002.188 2.188H5.39c.796 0 1.492-.43 1.875-1.067a2.187 2.187 0 001.875 1.067h3.125a2.19 2.19 0 002.187-2.188v-10a2.19 2.19 0 00-2.187-2.188h-.625v-.839c.343-.164.638-.413.855-.723zm1.957-1.875v1.25h-1.655a2.173 2.173 0 000-1.25h1.655zm-3.75-.938c.862 0 1.563.701 1.563 1.563s-.701 1.563-1.563 1.563c-.861 0-1.562-.701-1.562-1.563S9.84.937 10.703.937zm1.875 6.44v1.686h-3.75V7.377c0-.572.273-1.102.73-1.44h2.291c.457.338.73.868.73 1.44zm-9.895-1.44h2.291c.457.338.73.868.73 1.44v1.686h-3.75V7.377c0-.572.272-1.102.729-1.44zm5.52 3.125h-.625V7.5a1.56 1.56 0 011.034-1.464 2.413 2.413 0 00-.409 1.34v1.686zm-1.25 0h-.625V7.377c0-.486-.147-.95-.408-1.341.6.218 1.033.789 1.033 1.464v1.563zm0 .626v.624H.703v-.624h6.25zm.625 0h6.25v.624h-6.25v-.624zm1.563-4.376c-.797 0-1.493.43-1.875 1.067A2.187 2.187 0 005.39 5.313h-.625V3.438H6.64v.624h2.534c.172.168.371.307.59.411v.84h-.624zm-1.875-3.75H8.73a2.168 2.168 0 000 1.875H7.266V1.563zm-.625 1.25h-.625v-.624h.625v.624zM3.516 2.5c0-.172.14-.313.312-.313h1.563v.626H4.14v2.5h-.625V2.5zm-1.78 3.536a2.413 2.413 0 00-.408 1.34v1.686H.703V7.5a1.56 1.56 0 011.034-1.464zm3.655 13.027H2.266c-.862 0-1.563-.701-1.563-1.563v-.313h4.375v-.625H.703v-5.625h6.25v5.626h-1.25v.625h1.25v.312c0 .862-.7 1.563-1.562 1.563zm6.875 0H9.14c-.862 0-1.563-.701-1.563-1.563v-.313h4.375v-.625H7.578v-5.625h6.25v5.626h-1.25v.625h1.25v.312c0 .862-.7 1.563-1.562 1.563zM13.828 7.5v1.563h-.625V7.377c0-.486-.147-.95-.408-1.341.6.218 1.033.789 1.033 1.464zm-2.812-2.188h-.625v-.65c.102.015.206.026.312.026.106 0 .21-.01.313-.026v.65z"/><path d="M11.64 2.188h-.624v-.626h-.625v1.25h1.25v-.624z"/>

</svg>