<svg viewBox="0 0 13 20" fill="none" xmlns="http://www.w3.org/2000/svg"><path d="M10.67 13.856l-4.435-3.374-4.348 3.372c-.363.279-.575.711-.575 1.169v1.862h9.946v-1.851a1.492 1.492 0 00-.588-1.178zM.083 0h12.238c.046 0 .083.037.083.083v2.184a.083.083 0 01-.083.083H.083A.083.083 0 010 2.267V.083C0 .037.037 0 .083 0zM.083 17.65h12.238c.046 0 .083.038.083.083v2.184a.083.083 0 01-.083.083H.083A.083.083 0 010 19.917v-2.184c0-.046.037-.083.083-.083zM1.258 4.825c0 .45.205.876.558 1.156l4.413 3.53 4.416-3.53c.352-.28.558-.705.558-1.156v-1.71H1.258v1.71z"/></svg>