<svg width="164" height="810" viewBox="0 0 164 810" fill="none" xmlns="http://www.w3.org/2000/svg">
<path d="M38 37H61.5" stroke="#C6D2E4" stroke-linecap="square"/>
<path d="M38 69H61.5" stroke="#C6D2E4" stroke-linecap="square"/>
<path d="M38 101H61.5" stroke="#C6D2E4" stroke-linecap="square"/>
<path d="M38 165H61.5" stroke="#C6D2E4" stroke-linecap="square"/>
<path d="M38 197H61.5" stroke="#C6D2E4" stroke-linecap="square"/>
<path d="M38 229H61.5" stroke="#C6D2E4" stroke-linecap="square"/>
<path d="M38 293H61.5" stroke="#C6D2E4" stroke-linecap="square"/>
<path d="M88 261L38 261" stroke="#C6D2E4" stroke-linecap="square"/>
<path d="M38 325H61.5" stroke="#C6D2E4" stroke-linecap="square"/>
<path d="M38 357H61.5" stroke="#C6D2E4" stroke-linecap="square"/>
<path d="M38 421H61.5" stroke="#C6D2E4" stroke-linecap="square"/>
<path d="M38 549H61.5" stroke="#C6D2E4" stroke-linecap="square"/>
<path d="M38 677H61.5" stroke="#C6D2E4" stroke-linecap="square"/>
<path d="M38 389H103" stroke="#C6D2E4" stroke-linecap="square"/>
<path d="M38 517H120" stroke="#C6D2E4" stroke-linecap="square"/>
<path d="M38 645H148" stroke="#C6D2E4" stroke-linecap="square"/>
<path d="M38 773H163" stroke="#C6D2E4" stroke-linecap="square"/>
<path d="M38 453H61.5" stroke="#C6D2E4" stroke-linecap="square"/>
<path d="M38 581H61.5" stroke="#C6D2E4" stroke-linecap="square"/>
<path d="M38 709H61.5" stroke="#C6D2E4" stroke-linecap="square"/>
<path d="M38 485H61.5" stroke="#C6D2E4" stroke-linecap="square"/>
<path d="M38 613H61.5" stroke="#C6D2E4" stroke-linecap="square"/>
<path d="M38 741H61.5" stroke="#C6D2E4" stroke-linecap="square"/>
<path d="M73 133H38" stroke="#C6D2E4" stroke-linecap="square"/>
<rect x="48" width="1" height="810" fill="#C6D2E4"/>
<path d="M16.9285 137.04V138H9.56352V137.235L13.9285 132.96C14.4785 132.42 14.8485 131.955 15.0385 131.565C15.2385 131.165 15.3385 130.765 15.3385 130.365C15.3385 129.745 15.1235 129.265 14.6935 128.925C14.2735 128.575 13.6685 128.4 12.8785 128.4C11.6485 128.4 10.6935 128.79 10.0135 129.57L9.24852 128.91C9.65852 128.43 10.1785 128.06 10.8085 127.8C11.4485 127.54 12.1685 127.41 12.9685 127.41C14.0385 127.41 14.8835 127.665 15.5035 128.175C16.1335 128.675 16.4485 129.365 16.4485 130.245C16.4485 130.785 16.3285 131.305 16.0885 131.805C15.8485 132.305 15.3935 132.88 14.7235 133.53L11.1535 137.04H16.9285ZM21.0439 131.805C22.5639 131.805 23.6689 132.08 24.3589 132.63C25.0589 133.17 25.4089 133.93 25.4089 134.91C25.4089 135.52 25.2639 136.065 24.9739 136.545C24.6939 137.025 24.2689 137.405 23.6989 137.685C23.1289 137.955 22.4289 138.09 21.5989 138.09C20.8489 138.09 20.1339 137.97 19.4539 137.73C18.7839 137.48 18.2439 137.15 17.8339 136.74L18.3589 135.885C18.7089 136.245 19.1689 136.54 19.7389 136.77C20.3089 136.99 20.9239 137.1 21.5839 137.1C22.4539 137.1 23.1239 136.905 23.5939 136.515C24.0739 136.125 24.3139 135.605 24.3139 134.955C24.3139 134.235 24.0439 133.69 23.5039 133.32C22.9739 132.95 22.0739 132.765 20.8039 132.765H18.5689L19.1089 127.5H24.8539V128.46H20.0539L19.6939 131.805H21.0439Z" fill="white"/>
<path d="M11.1123 259.805C12.6323 259.805 13.7373 260.08 14.4273 260.63C15.1273 261.17 15.4773 261.93 15.4773 262.91C15.4773 263.52 15.3323 264.065 15.0423 264.545C14.7623 265.025 14.3373 265.405 13.7673 265.685C13.1973 265.955 12.4973 266.09 11.6673 266.09C10.9173 266.09 10.2023 265.97 9.52227 265.73C8.85227 265.48 8.31227 265.15 7.90227 264.74L8.42727 263.885C8.77727 264.245 9.23727 264.54 9.80727 264.77C10.3773 264.99 10.9923 265.1 11.6523 265.1C12.5223 265.1 13.1923 264.905 13.6623 264.515C14.1423 264.125 14.3823 263.605 14.3823 262.955C14.3823 262.235 14.1123 261.69 13.5723 261.32C13.0423 260.95 12.1423 260.765 10.8723 260.765H8.63727L9.17727 255.5H14.9223V256.46H10.1223L9.76227 259.805H11.1123ZM21.0334 266.09C20.2234 266.09 19.4984 265.875 18.8584 265.445C18.2284 265.015 17.7334 264.4 17.3734 263.6C17.0234 262.79 16.8484 261.84 16.8484 260.75C16.8484 259.66 17.0234 258.715 17.3734 257.915C17.7334 257.105 18.2284 256.485 18.8584 256.055C19.4984 255.625 20.2234 255.41 21.0334 255.41C21.8434 255.41 22.5634 255.625 23.1934 256.055C23.8334 256.485 24.3334 257.105 24.6934 257.915C25.0534 258.715 25.2334 259.66 25.2334 260.75C25.2334 261.84 25.0534 262.79 24.6934 263.6C24.3334 264.4 23.8334 265.015 23.1934 265.445C22.5634 265.875 21.8434 266.09 21.0334 266.09ZM21.0334 265.1C21.6434 265.1 22.1784 264.93 22.6384 264.59C23.1084 264.25 23.4734 263.755 23.7334 263.105C23.9934 262.455 24.1234 261.67 24.1234 260.75C24.1234 259.83 23.9934 259.045 23.7334 258.395C23.4734 257.745 23.1084 257.25 22.6384 256.91C22.1784 256.57 21.6434 256.4 21.0334 256.4C20.4234 256.4 19.8834 256.57 19.4134 256.91C18.9534 257.25 18.5934 257.745 18.3334 258.395C18.0734 259.045 17.9434 259.83 17.9434 260.75C17.9434 261.67 18.0734 262.455 18.3334 263.105C18.5934 263.755 18.9534 264.25 19.4134 264.59C19.8834 264.93 20.4234 265.1 21.0334 265.1Z" fill="white"/>
<path d="M17.1392 383.5V384.265L12.7442 394H11.5742L15.8942 384.46H10.4942V386.425H9.42922V383.5H17.1392ZM21.0439 387.805C22.5639 387.805 23.6689 388.08 24.3589 388.63C25.0589 389.17 25.4089 389.93 25.4089 390.91C25.4089 391.52 25.2639 392.065 24.9739 392.545C24.6939 393.025 24.2689 393.405 23.6989 393.685C23.1289 393.955 22.4289 394.09 21.5989 394.09C20.8489 394.09 20.1339 393.97 19.4539 393.73C18.7839 393.48 18.2439 393.15 17.8339 392.74L18.3589 391.885C18.7089 392.245 19.1689 392.54 19.7389 392.77C20.3089 392.99 20.9239 393.1 21.5839 393.1C22.4539 393.1 23.1239 392.905 23.5939 392.515C24.0739 392.125 24.3139 391.605 24.3139 390.955C24.3139 390.235 24.0439 389.69 23.5039 389.32C22.9739 388.95 22.0739 388.765 20.8039 388.765H18.5689L19.1089 383.5H24.8539V384.46H20.0539L19.6939 387.805H21.0439Z" fill="white"/>
<path d="M4.4068 511.5V522H3.3268V512.46H0.851797V511.5H4.4068ZM11.1017 522.09C10.2917 522.09 9.56672 521.875 8.92672 521.445C8.29672 521.015 7.80172 520.4 7.44172 519.6C7.09172 518.79 6.91672 517.84 6.91672 516.75C6.91672 515.66 7.09172 514.715 7.44172 513.915C7.80172 513.105 8.29672 512.485 8.92672 512.055C9.56672 511.625 10.2917 511.41 11.1017 511.41C11.9117 511.41 12.6317 511.625 13.2617 512.055C13.9017 512.485 14.4017 513.105 14.7617 513.915C15.1217 514.715 15.3017 515.66 15.3017 516.75C15.3017 517.84 15.1217 518.79 14.7617 519.6C14.4017 520.4 13.9017 521.015 13.2617 521.445C12.6317 521.875 11.9117 522.09 11.1017 522.09ZM11.1017 521.1C11.7117 521.1 12.2467 520.93 12.7067 520.59C13.1767 520.25 13.5417 519.755 13.8017 519.105C14.0617 518.455 14.1917 517.67 14.1917 516.75C14.1917 515.83 14.0617 515.045 13.8017 514.395C13.5417 513.745 13.1767 513.25 12.7067 512.91C12.2467 512.57 11.7117 512.4 11.1017 512.4C10.4917 512.4 9.95172 512.57 9.48172 512.91C9.02172 513.25 8.66172 513.745 8.40172 514.395C8.14172 515.045 8.01172 515.83 8.01172 516.75C8.01172 517.67 8.14172 518.455 8.40172 519.105C8.66172 519.755 9.02172 520.25 9.48172 520.59C9.95172 520.93 10.4917 521.1 11.1017 521.1ZM21.0334 522.09C20.2234 522.09 19.4984 521.875 18.8584 521.445C18.2284 521.015 17.7334 520.4 17.3734 519.6C17.0234 518.79 16.8484 517.84 16.8484 516.75C16.8484 515.66 17.0234 514.715 17.3734 513.915C17.7334 513.105 18.2284 512.485 18.8584 512.055C19.4984 511.625 20.2234 511.41 21.0334 511.41C21.8434 511.41 22.5634 511.625 23.1934 512.055C23.8334 512.485 24.3334 513.105 24.6934 513.915C25.0534 514.715 25.2334 515.66 25.2334 516.75C25.2334 517.84 25.0534 518.79 24.6934 519.6C24.3334 520.4 23.8334 521.015 23.1934 521.445C22.5634 521.875 21.8434 522.09 21.0334 522.09ZM21.0334 521.1C21.6434 521.1 22.1784 520.93 22.6384 520.59C23.1084 520.25 23.4734 519.755 23.7334 519.105C23.9934 518.455 24.1234 517.67 24.1234 516.75C24.1234 515.83 23.9934 515.045 23.7334 514.395C23.4734 513.745 23.1084 513.25 22.6384 512.91C22.1784 512.57 21.6434 512.4 21.0334 512.4C20.4234 512.4 19.8834 512.57 19.4134 512.91C18.9534 513.25 18.5934 513.745 18.3334 514.395C18.0734 515.045 17.9434 515.83 17.9434 516.75C17.9434 517.67 18.0734 518.455 18.3334 519.105C18.5934 519.755 18.9534 520.25 19.4134 520.59C19.8834 520.93 20.4234 521.1 21.0334 521.1Z" fill="white"/>
<path d="M9.24859 639.5V650H8.16859V640.46H5.69359V639.5H9.24859ZM18.9285 649.04V650H11.5635V649.235L15.9285 644.96C16.4785 644.42 16.8485 643.955 17.0385 643.565C17.2385 643.165 17.3385 642.765 17.3385 642.365C17.3385 641.745 17.1235 641.265 16.6935 640.925C16.2735 640.575 15.6685 640.4 14.8785 640.4C13.6485 640.4 12.6935 640.79 12.0135 641.57L11.2485 640.91C11.6585 640.43 12.1785 640.06 12.8085 639.8C13.4485 639.54 14.1685 639.41 14.9685 639.41C16.0385 639.41 16.8835 639.665 17.5035 640.175C18.1335 640.675 18.4485 641.365 18.4485 642.245C18.4485 642.785 18.3285 643.305 18.0885 643.805C17.8485 644.305 17.3935 644.88 16.7235 645.53L13.1535 649.04H18.9285ZM23.0439 643.805C24.5639 643.805 25.6689 644.08 26.3589 644.63C27.0589 645.17 27.4089 645.93 27.4089 646.91C27.4089 647.52 27.2639 648.065 26.9739 648.545C26.6939 649.025 26.2689 649.405 25.6989 649.685C25.1289 649.955 24.4289 650.09 23.5989 650.09C22.8489 650.09 22.1339 649.97 21.4539 649.73C20.7839 649.48 20.2439 649.15 19.8339 648.74L20.3589 647.885C20.7089 648.245 21.1689 648.54 21.7389 648.77C22.3089 648.99 22.9239 649.1 23.5839 649.1C24.4539 649.1 25.1239 648.905 25.5939 648.515C26.0739 648.125 26.3139 647.605 26.3139 646.955C26.3139 646.235 26.0439 645.69 25.5039 645.32C24.9739 644.95 24.0739 644.765 22.8039 644.765H20.5689L21.1089 639.5H26.8539V640.46H22.0539L21.6939 643.805H23.0439Z" fill="white"/>
<path d="M7.84234 767.5V778H6.76234V768.46H4.28734V767.5H7.84234ZM13.1123 771.805C14.6323 771.805 15.7373 772.08 16.4273 772.63C17.1273 773.17 17.4773 773.93 17.4773 774.91C17.4773 775.52 17.3323 776.065 17.0423 776.545C16.7623 777.025 16.3373 777.405 15.7673 777.685C15.1973 777.955 14.4973 778.09 13.6673 778.09C12.9173 778.09 12.2023 777.97 11.5223 777.73C10.8523 777.48 10.3123 777.15 9.90227 776.74L10.4273 775.885C10.7773 776.245 11.2373 776.54 11.8073 776.77C12.3773 776.99 12.9923 777.1 13.6523 777.1C14.5223 777.1 15.1923 776.905 15.6623 776.515C16.1423 776.125 16.3823 775.605 16.3823 774.955C16.3823 774.235 16.1123 773.69 15.5723 773.32C15.0423 772.95 14.1423 772.765 12.8723 772.765H10.6373L11.1773 767.5H16.9223V768.46H12.1223L11.7623 771.805H13.1123ZM23.0334 778.09C22.2234 778.09 21.4984 777.875 20.8584 777.445C20.2284 777.015 19.7334 776.4 19.3734 775.6C19.0234 774.79 18.8484 773.84 18.8484 772.75C18.8484 771.66 19.0234 770.715 19.3734 769.915C19.7334 769.105 20.2284 768.485 20.8584 768.055C21.4984 767.625 22.2234 767.41 23.0334 767.41C23.8434 767.41 24.5634 767.625 25.1934 768.055C25.8334 768.485 26.3334 769.105 26.6934 769.915C27.0534 770.715 27.2334 771.66 27.2334 772.75C27.2334 773.84 27.0534 774.79 26.6934 775.6C26.3334 776.4 25.8334 777.015 25.1934 777.445C24.5634 777.875 23.8434 778.09 23.0334 778.09ZM23.0334 777.1C23.6434 777.1 24.1784 776.93 24.6384 776.59C25.1084 776.25 25.4734 775.755 25.7334 775.105C25.9934 774.455 26.1234 773.67 26.1234 772.75C26.1234 771.83 25.9934 771.045 25.7334 770.395C25.4734 769.745 25.1084 769.25 24.6384 768.91C24.1784 768.57 23.6434 768.4 23.0334 768.4C22.4234 768.4 21.8834 768.57 21.4134 768.91C20.9534 769.25 20.5934 769.745 20.3334 770.395C20.0734 771.045 19.9434 771.83 19.9434 772.75C19.9434 773.67 20.0734 774.455 20.3334 775.105C20.5934 775.755 20.9534 776.25 21.4134 776.59C21.8834 776.93 22.4234 777.1 23.0334 777.1Z" fill="white"/>
</svg>
