<svg viewBox="0 0 61 61" xmlns="http://www.w3.org/2000/svg"><path d="M34.074 43.129c-4.927 0-8.935 4.009-8.935 8.936 0 4.926 4.008 8.935 8.935 8.935 4.927 0 8.936-4.009 8.936-8.935 0-4.927-4.009-8.936-8.936-8.936zm1.787 10.723h-3.574v-3.575h3.574v3.575zM43.01 0H28.712c-6.31 0-11.99 3.853-14.637 9.495 2.16-1.31 4.783-2.108 7.488-2.108h28.594c2.705 0 5.328.798 7.488 2.108C54.999 3.853 49.319 0 43.009 0zM50.158 10.96H21.564c-5.912 0-10.841 4.81-10.841 10.724 0 5.912 4.929 10.722 10.841 10.722h3.575c3.783 0 7.216-1.979 9.186-5.295l1.536-2.588 1.536 2.588c1.97 3.316 5.403 5.295 9.187 5.295h3.574c5.913 0 10.842-4.81 10.842-10.722 0-5.913-4.929-10.723-10.842-10.723z" fill="#1B498E"/><path d="M35.862 31.071a14.095 14.095 0 01-7.351 4.475c1.637 2.446 4.326 4.009 7.35 4.009 3.025 0 5.714-1.563 7.352-4.009a14.09 14.09 0 01-7.351-4.475zM22.148 48.49h-2.37c-6.91 0-12.63-5.6-12.63-12.51v-3.574H0v3.575c0 10.856 8.92 19.658 19.777 19.658h2.37c-.342-1.14-.582-2.324-.582-3.575 0-1.25.24-2.434.583-3.574zM7.148 25.258H0v3.574h7.148v-3.574zM7.148 0H0v21.684h7.148V0z" fill="#1B498E"/></svg>