<svg viewBox="0 0 17 20" xmlns="http://www.w3.org/2000/svg">
<path d="M13.427 13.003v-1.698c0-.895-.618-1.648-1.455-1.87.094-.33.147-.678.147-1.037V7.182a2.552 2.552 0 00.322-3.723C12.391 1.544 10.801 0 8.85 0H7.541C5.589 0 3.999 1.544 3.949 3.46a2.552 2.552 0 00.322 3.722v1.216c0 1.293.647 2.437 1.635 3.142v.798l-2.557.561c-1.96.43-3.33 2.116-3.33 4.1v3.027H16.37v-3.028c0-1.85-1.191-3.44-2.943-3.995zm-.654-1.698v1.535l-2.289-.502v-.798a3.908 3.908 0 001.259-1.496c.588.126 1.03.643 1.03 1.26zM7.541.646h1.308c1.39 0 2.556.959 2.862 2.241a2.624 2.624 0 00-1.227-.303H5.906c-.443 0-.861.11-1.227.303A2.939 2.939 0 017.54.646zM3.944 5.168c0-1.069.88-1.938 1.962-1.938h4.578c1.082 0 1.962.87 1.962 1.938 0 1.069-.88 1.938-1.962 1.938h-.391c-.26 0-.5-.128-.645-.34a1.431 1.431 0 00-1.189-.63H8.13c-.478 0-.923.236-1.188.63a.775.775 0 01-.645.34h-.391c-1.082 0-1.962-.87-1.962-1.938zm.98 3.23v-.836c.304.121.635.19.982.19h.391c.48 0 .923-.235 1.19-.628a.776.776 0 01.644-.341h.129c.26 0 .5.127.644.34.266.394.71.629 1.189.629h.391c.347 0 .678-.069.981-.19v.836c0 .337-.053.663-.15.969H9.783a1.303 1.303 0 00-1.262-.97h-.654c-.721 0-1.308.58-1.308 1.293 0 .712.587 1.292 1.308 1.292h.654c.608 0 1.115-.413 1.262-.97h1.239a3.276 3.276 0 01-2.828 1.616c-1.803 0-3.27-1.449-3.27-3.23zM9.177 9.69a.65.65 0 01-.654.646h-.654a.65.65 0 01-.654-.646.65.65 0 01.654-.646h.654c.36 0 .654.29.654.646zM.674 16.998c0-1.678 1.158-3.104 2.816-3.468l1.435-.315v1.643a.65.65 0 01-.654.646h-.654c-.722 0-1.308.58-1.308 1.292a.65.65 0 01-.654.646H.674v-.444zm15.042 2.382H13.1v-1.292h-.654v1.292H3.944v-1.292H3.29v1.292H.674v-1.292h.98c.722 0 1.309-.58 1.309-1.292a.65.65 0 01.654-.646h.654c.721 0 1.308-.58 1.308-1.292V13.07l.98-.215v-.939a3.938 3.938 0 001.636.357c.584 0 1.137-.13 1.635-.357v.939l.981.215v1.787c0 .712.587 1.292 1.308 1.292h.654c.36 0 .654.29.654.646 0 .712.587 1.292 1.308 1.292h.981v1.292zm0-1.938h-.98a.65.65 0 01-.655-.646c0-.713-.586-1.292-1.308-1.292h-.654a.65.65 0 01-.654-.646v-1.643l1.435.315c1.658.364 2.816 1.79 2.816 3.468v.444z"/><path d="M9.503 3.553H5.579v.646h3.924v-.646zM10.811 3.553h-.654v.646h.654v-.646z"/>
</svg>