<svg viewBox="0 0 20 20" xmlns="http://www.w3.org/2000/svg"><path d="M19.701 5.653l-1.314-1.576V1.935h-.645V0H13.87v.645h-2.903V0H9.032v.88a2.573 2.573 0 00-4.328.74A4.195 4.195 0 00.645 5.806v5.484H0v2.904c0 .889.724 1.612 1.613 1.612.89 0 1.613-.723 1.613-1.612V11.29H2.58V5.806c0-1.2.943-2.183 2.127-2.251a2.573 2.573 0 004.324.727v.88h1.936v-.646h1.892l-.948 1.137a1.294 1.294 0 00-.3.826v11.908c0 .89.724 1.613 1.614 1.613h5.161c.89 0 1.613-.724 1.613-1.613V6.48c0-.301-.106-.594-.299-.826zm-.349.799l.003.027v10.295h-7.097V6.48l.003-.027h5.158v-.646h-4.795l1.075-1.29h4.214l1.075 1.29h-.924v.646h1.288zm-1.288 12.903h-.645v-1.936h.645v1.936zm-4.516-1.936h.646v1.936h-.646v-1.936zm1.29 0h1.936v1.936H14.84v-1.936zm2.904-14.838v1.29H13.87v-1.29h3.87zM17.097.645v1.29h-2.58V.645h2.58zM2.58 11.935v.646H.645v-.646h1.936zm-.646 1.936v-.645h.646v.645h-.646zm-1.29 0v-.645h.645v.645H.645zm.968 1.29a.966.966 0 01-.908-.645H2.52a.966.966 0 01-.908.645zm.322-9.355v5.484H1.29V5.806a3.552 3.552 0 013.246-3.533c-.012.101-.02.203-.02.308 0 .114.01.227.025.337a2.907 2.907 0 00-2.606 2.888zM7.42 4.487v-.939h-.645v.94A1.938 1.938 0 015.19 2.902h.939v-.645H5.19A1.938 1.938 0 016.774.674v.939h.645V.674a1.938 1.938 0 011.584 1.584h-.938v.645h.938A1.939 1.939 0 017.42 4.487zm2.904.03h-.646V.644h.646v3.871zm.645-3.227h2.903v.645h-.645v1.936h-2.258v-2.58zm1.29 17.097v-.968h.645v1.877a.967.967 0 01-.645-.909zm6.452.909v-1.877h.645v.968c0 .42-.27.775-.645.909z"/></svg>