<svg viewBox="0 0 15 15" xmlns="http://www.w3.org/2000/svg"><path d="M11.643 14.697a.798.798 0 00.777-.975l-.966-4.251 3.273-2.87a.797.797 0 00-.452-1.395l-4.33-.393L8.233.806a.797.797 0 00-1.466 0L5.055 4.813l-4.33.393A.796.796 0 00.272 6.6l3.273 2.87-.965 4.25a.797.797 0 001.186.861L7.5 12.351l3.734 2.232a.799.799 0 00.409.114zM7.5 11.39a.8.8 0 00-.409.113L3.567 13.61l.91-4.012a.797.797 0 00-.252-.777l-3.09-2.71 4.089-.37a.796.796 0 00.662-.484L7.5 1.477l1.616 3.78c.113.27.366.455.66.482l4.089.371-3.09 2.71a.795.795 0 00-.253.778l.91 4.012-3.523-2.107a.8.8 0 00-.41-.113zm2.478-6.5v.001-.001zm-4.955-.002v.001z" fill="#4F5764"/></svg>