<svg viewBox="0 0 47 61" xmlns="http://www.w3.org/2000/svg"><g clip-path="url(#clip0)" fill="#1B498E"><path d="M-.05 49.862v.002c0 3.293 2.712 5.973 6.046 5.973h3.34v-5.973c0-1.001.82-1.811 1.833-1.811h35.435v-4.164H5.996c-3.334 0-6.047 2.68-6.047 5.973z"/><path d="M25.046 55.837h20.947c.337 0 .61-.27.61-.604v-3.558H25.047v4.162zM7.344 40.268V0H5.996C2.662 0-.051 2.68-.051 5.975v36.384c2.57-2.029 4.79-2.091 7.395-2.091zM11.01 0v40.268h35.594V.604A.607.607 0 0045.993 0H11.01zm29.337 16.751c0 1-.821 1.811-1.833 1.811H19.1a1.822 1.822 0 01-1.833-1.81v-8.93c0-.999.82-1.81 1.833-1.81h19.413c1.012 0 1.833.811 1.833 1.81v8.93zM13.002 60.395c0 .51.602.79 1 .466l2.022-1.65a1.848 1.848 0 012.334 0l2.022 1.65c.399.325 1 .045 1-.466v-8.72h-8.378v8.72z"/><path d="M20.934 9.634H36.68v5.306H20.934V9.634z"/></g><defs><clipPath id="clip0"><path fill="#fff" d="M0 0h46.553v61H0z"/></clipPath></defs></svg>