<svg viewBox="0 0 20 20" xmlns="http://www.w3.org/2000/svg">
<path d="M14.933 2.495c.14.076.32.025.397-.119L16.377.432a.293.293 0 10-.515-.278l-1.048 1.944a.293.293 0 00.119.397zm5.032 1.246a.293.293 0 00-.397-.119L17.623 4.67a.293.293 0 00.278.516l1.945-1.048a.293.293 0 00.119-.397zM6.72 14.68a.501.501 0 00.356-.148l.598-.598a.505.505 0 000-.713l-.896-.897a.5.5 0 00-.714 0l-.598.598a.501.501 0 000 .713l.897.897a.5.5 0 00.357.148zm-.3-1.884l.782.782-.482.482-.782-.781.483-.483zM16.21 3.79c.114.114.3.114.414 0l1.496-1.496a.293.293 0 00-.414-.415L16.21 3.375a.293.293 0 000 .415zm-3.403-2.37a.57.57 0 00-.801 0l-.442.442a.57.57 0 00-.01.79L9.31 4.893a.323.323 0 00-.062.087L7.751 8.247.456 15.542a1.568 1.568 0 000 2.208l1.794 1.794c.608.608 1.599.608 2.208 0l3.675-3.676a.293.293 0 10-.414-.414l-3.676 3.675a.976.976 0 01-1.379 0L.87 17.335a.981.981 0 010-1.379l7.126-7.125 3.172 3.173-2.476 2.477a.293.293 0 00.414.414l2.647-2.647 3.266-1.498c.028-.016.045-.02.087-.061l2.243-2.243c.222.21.572.207.789-.01l.442-.442a.571.571 0 000-.801L12.807 1.42zm-1.161 10.233l-3.3-3.3 1.26-2.745 4.786 4.785-2.746 1.26zm6.091-3.645l-3.932-3.933a.293.293 0 00-.414.415l3.543 3.543-2.037 2.036L9.93 5.103l2.037-2.037.46.46a.293.293 0 00.413-.415l-.848-.849.414-.414 5.746 5.745-.415.415zM4.628 13.97a.501.501 0 00-.356.148l-.598.598a.505.505 0 000 .713l.897.897a.501.501 0 00.713 0l.598-.598a.505.505 0 000-.713l-.897-.897a.501.501 0 00-.357-.148zm.3 1.884l-.782-.782.482-.482.782.781-.483.483z"/>
</svg>