<svg viewBox="0 0 24 20" xmlns="http://www.w3.org/2000/svg">
<path d="M14.44 15.201h.8v.8h-.8v-.8zM12.039 7.199a3.194 3.194 0 00-3.19 3.19c0 1.76 1.43 3.192 3.19 3.192s3.19-1.432 3.19-3.191c0-1.76-1.43-3.191-3.19-3.191zm0 5.581a2.393 2.393 0 01-2.39-2.39A2.393 2.393 0 0112.038 8a2.393 2.393 0 012.39 2.39 2.393 2.393 0 01-2.39 2.39z"/><path d="M11.248 9.59h-.783v.806h.8v-.805h.783v-.8h-.8v.8zM6.464 7.19h.8v.8h-.8v-.8zM6.464 8.79h.8v3.201h-.8v-3.2z"/><path d="M23.565-.02h-4v2.418h.835v6.39h-1.133V6.221L17.803 4.79h-.937V3.198h-5l-1.2 1.592H9.648V3.198H7.246V4.79H6.27L4.864 6.227v2.56H3.6v-6.39h.765V-.02H.364v2.419H1.2v13.594H2V2.398h.8v15.23H2v-.836h-.8v3.228h2.4v-2.4h16.8v2.4h2.4V3.99H22v13.639h-.8V2.398h.8v.791h.8v-.791h.765V-.021zM20.4 15.2h-1.784l.65-.642V11.2H20.4v4.002zm0-5.613v.811h-1.133v-.811H20.4zM8.047 3.998h.801v.792h-.801v-.792zM3.6 11.2h1.264v3.355l.628.647H3.6V11.2zm1.264-1.611v.811H3.6v-.811h1.264zM1.2 1.598h-.036V.78h2.4v.818H1.2zM2 19.22v-.791h.8v.791H2zm1.6-2.4V16H13.64v-.8H6.607l-.942-.971V6.553l.94-.962h6.261v-.8h-1.198l.597-.793h3.801v.792H13.64v.8h3.837l.99.968v7.667l-.991.976H16.04v.8h4.36v.818H3.6zM22 18.428v.791h-.8v-.791h.8zM20.4 1.598h-.036V.78h2.4v.818H20.4z"/>
</svg>