<svg width="34" height="20" viewBox="0 0 34 20" xmlns="http://www.w3.org/2000/svg">
<path d="M16.9948 -0.0197754C10.5007 -0.0197754 4.61155 3.49225 0.265951 9.19672C-0.0886503 9.66407 -0.0886503 10.317 0.265951 10.7843C4.61155 16.4957 10.5007 20.0077 16.9948 20.0077C23.4889 20.0077 29.378 16.4957 33.7236 10.7912C34.0782 10.3239 34.0782 9.67095 33.7236 9.20359C29.378 3.49225 23.4889 -0.0197754 16.9948 -0.0197754ZM17.4606 17.0455C13.1498 17.3136 9.58988 13.8015 9.86104 9.53349C10.0835 6.01459 12.969 3.16235 16.5289 2.94242C20.8398 2.67438 24.3997 6.18641 24.1285 10.4544C23.8991 13.9665 21.0136 16.8187 17.4606 17.0455ZM17.2451 13.7878C14.9228 13.9321 13.0038 12.0421 13.1567 9.74655C13.2749 7.84964 14.8324 6.31699 16.7514 6.19328C19.0737 6.04895 20.9927 7.93899 20.8398 10.2345C20.7146 12.1383 19.1572 13.6709 17.2451 13.7878Z" />
</svg>
