<svg viewBox="0 0 1900 928" fill="none" xmlns="http://www.w3.org/2000/svg"><g clip-path="url(#clip0)"><path d="M1900 0H0v928h1900V0z" fill="url(#paint0_linear)"/><path d="M1717.64 410.192s2.79-2.096 3.49-6.289c1.4-3.494 0-6.988 0-6.988l-6.29 4.193c.7-1.398 2.8-4.892 1.4-8.386-1.4-3.494-8.39-5.59-9.78-5.59-8.39-2.795-13.28 4.193-18.17 4.891-2.1.699-2.8 0-2.8.699s.7.699 2.1 2.097c3.49 3.494 3.49 11.879 12.58 14.674 3.49 1.398 8.38 2.097 11.88 0 2.79-2.096 3.49-5.59 2.09-6.988 1.4.699 3.5 7.687 3.5 7.687z" fill="url(#paint1_linear)"/><path d="M1687.6 385.735c-.7 0-.7 0-1.4.698 0 .699 0 .699.7 1.398.7 0 .7 0 1.4-.699 0-.699-.7-1.397-.7-1.397z" fill="url(#paint2_linear)"/><path d="M1688.28 389.927c0-.698 0-.698-.69-.698-.7 0-.7 0-.7.698 0 .699 0 .699.7.699.69 0 .69 0 .69-.699z" fill="url(#paint3_linear)"/><path d="M1804.98 410.192s2.8-2.096 3.5-6.289c1.4-3.494 0-6.988 0-6.988l-6.29 4.193c.7-1.398 2.79-4.892 1.4-8.386-1.4-3.494-8.39-5.59-9.79-5.59-8.38-2.795-13.27 4.193-18.16 4.891-2.1.699-2.8 0-2.8.699s.7.699 2.1 2.097c3.49 3.494 3.49 11.879 12.57 14.674 3.5 1.398 8.39 2.097 11.88 0 3.5-2.096 3.5-5.59 2.1-6.988.7.699 3.49 7.687 3.49 7.687z" fill="url(#paint4_linear)"/><path d="M1774.24 385.735c-.7 0-.7 0-1.4.698 0 .699 0 .699.7 1.398.7 0 .7 0 1.4-.699 0-.699 0-1.397-.7-1.397z" fill="url(#paint5_linear)"/><path d="M1775.63 389.927c0-.698 0-.698-.7-.698s-.7 0-.7.698c0 .699 0 .699.7.699 0 0 .7 0 .7-.699z" fill="url(#paint6_linear)"/><path d="M1482.84 303.976s2.79-2.097 3.49-6.29c1.4-3.494 0-6.988 0-6.988l-6.29 4.193c.7-1.397 2.8-4.891 1.4-8.385-1.4-3.494-8.39-5.591-9.79-5.591-8.38-2.795-13.27 4.193-18.16 4.892-2.1.699-2.8 0-2.8.699 0 .698.7.698 2.1 2.096 3.49 3.494 3.49 11.88 12.58 14.675 3.49 1.397 8.38 2.096 11.88 0 2.79-2.097 3.49-5.591 2.09-6.988.7.699 3.5 7.687 3.5 7.687z" fill="url(#paint7_linear)"/><path d="M1452.09 279.518c-.7 0-.7 0-1.4.699 0 .699 0 .699.7 1.397.7 0 .7 0 1.4-.698 0-.699 0-1.398-.7-1.398z" fill="url(#paint8_linear)"/><path d="M1453.48 283.711c0-.699 0-.699-.7-.699-.69 0-.69 0-.69.699s0 .699.69.699l.7-.699z" fill="url(#paint9_linear)"/><path d="M1726.02 360.577s2.79-2.096 3.49-6.289c1.4-3.494 0-6.988 0-6.988l-6.29 4.193c.7-1.398 2.8-4.892 1.4-8.386-1.4-3.494-8.38-5.59-9.78-5.59-8.39-2.795-13.28 4.193-18.17 4.891-2.1.699-2.79 0-2.79.699s.69.699 2.09 2.097c3.5 3.494 3.5 11.879 12.58 14.674 3.49 1.398 8.38 2.097 11.88 0 2.79-2.096 3.49-5.59 2.1-6.988.69 1.398 3.49 7.687 3.49 7.687z" fill="url(#paint10_linear)"/><path d="M1695.27 336.12c-.7 0-.7 0-1.39.698 0 .699 0 .699.69 1.398.7 0 .7 0 1.4-.699 0-.699 0-.699-.7-1.397z" fill="url(#paint11_linear)"/><path d="M1696.67 340.312c0-.698 0-.698-.7-.698s-.7 0-.7.698c0 .699 0 .699.7.699l.7-.699z" fill="url(#paint12_linear)"/><path d="M1648.44 413.686s2.8-2.096 3.5-6.289c1.4-3.494 0-6.988 0-6.988l-6.29 4.193c.7-1.398 2.79-4.892 1.4-8.386-1.4-3.494-8.39-5.59-9.79-5.59-8.38-2.795-13.27 4.193-18.16 4.892-2.1.698-2.8 0-2.8.698 0 .699.7.699 2.1 2.097 3.49 3.494 3.49 11.879 12.58 14.674 3.49 1.398 8.38 2.097 11.87 0 2.8-2.096 3.5-5.59 2.1-6.988 1.4.699 3.49 7.687 3.49 7.687z" fill="url(#paint13_linear)"/><path d="M1618.41 389.229c-.7 0-.7 0-1.4.699 0 .698 0 .698.7 1.397.7 0 .7 0 1.39-.699 0-.698-.69-1.397-.69-1.397z" fill="url(#paint14_linear)"/><path d="M1619.09 393.421c0-.698 0-.698-.7-.698-.69 0-.69 0-.69.698 0 .699 0 .699.69.699l.7-.699z" fill="url(#paint15_linear)"/><path d="M1656.83 359.879s2.8-2.096 3.5-6.289c1.39-3.494 0-6.988 0-6.988l-5.59 4.193c.69-1.398 2.79-4.892 1.39-8.386-1.39-3.494-8.38-5.59-9.78-5.59-8.39-2.795-13.28 4.193-18.17 4.891-2.09.699-2.79 0-2.79.699s.7.699 2.09 2.097c3.5 3.494 3.5 11.879 12.58 14.674 3.5 1.398 8.39 2.097 11.88 0 2.8-2.096 3.49-5.59 2.1-6.988 0 .699 2.79 7.687 2.79 7.687z" fill="url(#paint16_linear)"/><path d="M1626.08 335.422c-.7 0-.7 0-1.4.698 0 .699 0 .699.7 1.398.7 0 .7 0 1.4-.699 0-1.397 0-1.397-.7-1.397z" fill="url(#paint17_linear)"/><path d="M1626.78 339.614c-.69-.698-1.39-.698-1.39-.698 0 .698 0 .698.7.698h.69z" fill="url(#paint18_linear)"/><path d="M1622.6 304.674s2.8-2.097 3.5-6.29c1.39-3.494 0-6.988 0-6.988l-5.59 4.193c.69-1.397 2.79-4.891 1.39-8.385-1.39-3.494-8.38-5.591-9.78-5.591-8.39-2.795-13.28 4.193-18.17 4.892-2.09.699-2.79 0-2.79.699 0 .698.7.698 2.09 2.096 3.5 3.494 3.5 11.88 12.58 14.675 3.49 1.397 8.39 2.096 11.88 0 3.49-2.097 3.49-5.591 2.1-6.988 0 .699 2.79 7.687 2.79 7.687z" fill="url(#paint19_linear)"/><path d="M1591.85 280.216c-.7 0-.7 0-1.4.699 0 .699 0 .699.7 1.397.7 0 .7 0 1.4-.698 0-.699 0-1.398-.7-1.398z" fill="url(#paint20_linear)"/><path d="M1593.24 284.409c0-.699 0-.699-.7-.699s-.7 0-.7.699 0 .699.7.699l.7-.699z" fill="url(#paint21_linear)"/><path d="M1580.67 421.373s2.1-2.795 2.8-6.289c.69-3.494-.7-6.988-.7-6.988l-5.59 4.891c.7-1.397 2.09-4.891.7-8.385-2.1-3.494-9.09-4.193-10.49-4.892-9.08-1.397-13.27 5.59-17.47 6.988-2.09.699-2.79 0-2.79.699s.7.699 2.1 2.096c3.49 2.795 4.89 11.181 13.97 13.277 3.49.699 8.39 1.398 11.88-1.397 2.8-2.097 2.8-5.591 1.4-7.687 1.4.699 4.19 7.687 4.19 7.687z" fill="url(#paint22_linear)"/><path d="M1547.82 399.71c-.7 0-.7 0-1.4.699 0 .699 0 .699.7 1.398.7 0 .7 0 1.4-.699 0-.699 0-1.398-.7-1.398z" fill="url(#paint23_linear)"/><path d="M1549.23 403.903c0-.698 0-.698-.7-.698-.7.698-.7 1.397 0 1.397s.7-.699.7-.699z" fill="url(#paint24_linear)"/><path d="M1581.38 364.771s2.09-2.795 2.79-6.289c.7-3.494-.7-6.988-.7-6.988l-5.59 4.892c.7-1.398 2.1-4.892.7-8.386-2.09-3.494-9.08-4.193-10.48-4.891-9.08-1.398-13.28 5.59-17.47 6.988-2.1.698-2.79 0-2.79 1.397 0 .699.69.699 2.09 2.097 3.5 2.795 4.89 11.18 13.98 13.277 3.49.698 8.38 1.397 11.88-1.398 2.79-2.096 2.79-5.59 1.39-7.687.7 0 4.2 6.988 4.2 6.988z" fill="url(#paint25_linear)"/><path d="M1548.53 343.109c-.7 0-.7 0-1.4.699 0 .699 0 .699.7 1.397.7 0 .7 0 1.4-.698 0-.699 0-1.398-.7-1.398z" fill="url(#paint26_linear)"/><path d="M1549.92 347.301c-.7-.699-1.4-.699-1.4 0s0 .699.7.699l.7-.699z" fill="url(#paint27_linear)"/><path d="M1545.73 294.192s2.1-2.795 2.79-6.289c.7-3.494-.69-6.988-.69-6.988l-5.59 4.892c.69-1.398 2.09-4.892.69-8.386-2.09-3.494-9.08-4.192-10.48-4.891-9.08-1.398-13.27 5.59-17.47 6.988-2.09.698-2.79 0-2.79 1.397 0 .699.7.699 2.09 2.097 3.5 2.795 4.9 11.18 13.98 13.277 3.49.699 8.38 1.397 11.88-1.398 2.79-2.096 2.79-5.59 1.4-7.687.7.699 4.19 6.988 4.19 6.988z" fill="url(#paint28_linear)"/><path d="M1512.88 273.228c-.7 0-.7 0-1.4.699 0 .699 0 .699.7 1.397.7 0 .7 0 1.4-.698 0-.699 0-1.398-.7-1.398z" fill="url(#paint29_linear)"/><path d="M1514.27 277.421c0-.699 0-.699-.7-.699-.69 0-.69 0-.69.699h1.39z" fill="url(#paint30_linear)"/><path d="M1508.69 383.638s2.1-2.795 2.8-6.289c.69-3.494-.7-6.988-.7-6.988l-5.59 4.892c.7-1.398 2.09-4.892.7-8.386-2.1-3.494-9.09-4.192-10.49-4.891-9.08-1.398-13.27 5.59-17.47 6.988-2.09.699-2.79 0-2.79 1.397 0 .699.7.699 2.09 2.097 3.5 2.795 4.9 11.18 13.98 13.277 3.49.699 8.39 1.397 11.88-1.398 2.8-2.096 2.8-5.59 1.4-7.687.7 0 4.19 6.988 4.19 6.988z" fill="url(#paint31_linear)"/><path d="M1475.85 361.976c-.7 0-.7 0-.7.699s0 .699.7 1.397c.7 0 .7 0 1.39-.698-.69-.699-.69-1.398-1.39-1.398z" fill="url(#paint32_linear)"/><path d="M1477.25 366.168c-.7-.698-1.39-.698-1.39 0 1.39.699 1.39.699 1.39 0z" fill="url(#paint33_linear)"/><path d="M1120.84 927.817s5.59-23.759 16.77-23.759c10.49 0 9.09 15.373 14.68 0 5.59-15.374 1.4-32.844 10.48-41.928 9.09-8.386 1.4 11.879 6.99 14.675 4.89 2.795 7.69-14.675 13.97-6.988 6.29 7.686 16.08-9.085 20.97-9.784 4.89-.698-.7-6.289 10.48 19.567 10.48 25.855-10.48 18.168-3.49 25.855 7.68 7.687 27.25 16.771 28.65 4.892 1.39-11.88-3.5-14.675-3.5-29.35-.7-14.674 6.99 8.386 11.88 2.796 4.89-5.591 4.89-11.88 4.89-19.567 0-7.686-6.98-20.964 0-29.349 6.99-7.687 6.29-29.35 6.99-29.35.7 0 7.69-5.59 13.28 14.675 5.59 20.265 11.88 41.928 20.26 33.542 8.39-7.686 29.35-12.578 36.34-25.156 6.99-12.579-2.8-18.169 11.18-29.35 13.98-10.482 6.29 7.687 7.69 14.675 1.39 6.988 18.17-2.795 26.55-6.988 8.39-3.494-2.79-16.771 16.07-5.59 19.57 10.482 14.68 24.458 18.87 30.747 4.19 6.988-4.89 27.253-4.89 32.144 0 4.892 9.08 12.579 15.37 14.675 6.29 2.096 6.99.699 15.38-9.084 8.38-9.784 6.98-12.579 10.48-23.061 2.79-10.482 8.38-11.18 10.48 4.892 2.1 16.072 2.79 11.181 6.99 23.06 4.19 11.88-2.8 24.458 3.49 24.458 6.29.699 7.69 11.88 13.28 11.88 5.59 0 10.48-2.097 11.88-8.386 1.39-6.289 6.98-4.193 13.97-13.976 6.99-9.783 9.09-12.578 10.48-20.964 1.4-8.385 10.49-6.289 19.57.699 9.08 6.988 11.18 12.578 24.46 8.386 12.58-4.193 12.58-8.386 17.47-4.193 4.89 4.193 4.19 20.964 13.27 29.349 9.09 8.386 17.47-11.879 23.06-19.566 4.9-7.687 11.19-15.374 14.68-21.663s4.19-9.783 11.88-14.674c8.38-4.892 3.49-2.796 13.28-18.169 9.78-14.675 0-28.651 13.27-32.145 13.28-3.494 3.5 24.458 8.39 27.253 4.89 2.097 12.58 2.097 12.58-8.385s-7.69-10.482 0-14.675c7.68-4.193 9.78.699 10.48 5.59 1.4 5.591 10.48-11.18 10.48-14.674 0-4.193-1.4-8.386-1.4-11.88 0-4.193 7.69-8.385 9.09-21.662 1.39-13.277-4.9-20.265 0-27.253 4.89-6.988 11.88 4.891 13.97 19.566 2.1 14.675 15.38 39.831 18.17 44.723 2.8 4.891 22.36 2.795 31.45 18.168 9.08 15.374 2.79 31.446 11.18 35.639 8.38 4.193 21.66 5.59 22.36-2.096.7-7.687 23.76-10.482 27.25-10.482 3.49 0 12.58 27.253 14.67 32.144 2.1 4.193 13.28 59.398 13.28 59.398l-749.8.699z" fill="#0E6C91"/><path d="M1895.79 700.891c-18.86-9.783-11.87 2.096-24.45-5.59-12.58-7.687-12.58-24.458-24.46-22.362s-6.29 2.096-7.69 9.783c-.7 8.386-2.09 11.88-6.29 18.868-3.49 6.988 3.5 27.253 1.4 30.747-1.4 3.494-3.49 18.168-15.37 19.566-11.18 1.397-23.06-2.795-32.15-5.59-8.38-2.796-16.77-2.097-21.66 11.18-4.89 13.277-9.08 34.94-9.08 39.133 0 4.193-2.8 6.289-4.89 8.385-1.4 2.097-12.58 2.097-18.87 0-6.29-2.096-11.88-11.18-20.27-9.783-8.38 1.398-8.38 6.289-10.48 10.482-2.09 4.193 1.4 17.47 6.29 27.253 4.19 9.084 0 9.084 0 10.482 0 .699 2.1 5.59 4.89 11.88 2.8 6.289.7 9.783-6.99 7.686-7.68-1.397-14.67-13.277-25.15-17.47-10.48-3.494-16.77-4.192-19.57 3.494-2.79 7.687 2.8 7.687.7 18.169-2.1 10.482 3.5 3.494-6.99 15.374-9.78 11.879 27.95 38.433 27.95 38.433h215.93V703.686c0-1.398-1.4-2.096-2.8-2.795z" fill="#0E6C91"/><path d="M1402.46 929.127s15.37-19.567 22.36-19.567 5.59 9.085 9.09 0c3.49-9.084.7-19.566 6.29-25.156 5.59-4.892 1.39 6.988 4.19 8.385 3.49 2.097 4.89-8.385 9.08-4.192 4.2 4.891 9.79-5.591 13.28-6.29 3.49-.698-.7-4.192 6.29 11.88 6.99 15.373-6.99 11.181-2.1 15.373 4.89 4.892 16.77 9.784 17.47 2.796.7-6.988-2.09-8.386-2.09-17.47 0-8.386 4.19 4.891 6.98 1.397 2.8-3.494 2.8-6.988 2.8-11.879 0-4.892-4.19-12.578 0-17.47 4.19-4.892 4.19-17.47 4.19-17.47.7 0 4.89-3.494 8.39 8.386 3.49 11.879 7.68 25.156 12.57 20.265 5.59-4.892 18.17-7.687 22.37-15.374 4.19-7.687-2.1-11.181 6.98-17.47 9.09-6.289 4.2 4.892 4.9 8.386 1.39 4.193 11.18-2.097 16.77-4.193 5.59-2.096-2.1-9.783 9.78-3.494 11.88 6.289 9.08 14.675 11.88 18.868 2.79 4.192-3.5 16.072-2.8 18.867 0 2.795 5.59 7.687 9.79 8.386 4.19 1.397 4.19 0 9.78-5.591 4.89-5.59 4.19-7.687 6.29-13.976 2.09-6.289 5.59-6.988 6.29 2.795 1.4 9.784 1.39 6.988 4.19 13.976 2.8 6.988-2.1 14.675 2.1 14.675 4.19 0 4.89 6.988 8.38 6.988 3.5 0 6.29-1.398 7.69-4.892.7-3.494 4.19-2.795 8.38-8.385 4.2-5.59 5.59-7.687 6.99-12.578 1.4-4.892 6.29-3.494 12.58.698 5.59 4.193 6.99 7.687 15.37 4.892 7.69-2.795 7.69-4.892 11.18-2.096 3.5 2.795 2.8 12.578 8.39 17.469 5.59 4.892 11.18-6.988 13.98-11.879 3.49-4.892 6.98-9.084 9.08-13.277 2.1-4.193 2.79-6.289 7.69-9.085 4.89-2.795 2.09-2.096 8.38-10.481 6.29-9.085 0-17.47 8.39-19.567 8.38-2.096 2.09 14.675 4.89 16.073 2.79 1.397 7.69 1.397 7.69-4.892 0-6.289-4.9-6.289 0-9.084 4.89-2.795 6.28 0 6.98 3.494.7 3.494 6.29-6.988 6.29-9.085 0-2.096-1.4-4.891-1.4-6.988 0-2.096 4.9-4.891 5.59-13.277.7-7.686-2.79-11.879 0-16.771 2.8-4.193 6.99 2.795 8.39 11.88 1.4 9.084 9.78 23.759 11.18 26.554 2.1 2.795 13.98 1.398 19.57 11.181 5.59 9.084 1.39 18.867 6.98 20.963 5.59 2.097 13.28 3.494 13.98-1.397.7-4.892 14.67-6.289 16.77-6.289 2.1 0 35.64-27.253 35.64-27.253v87.349l-496.14 4.892z" fill="#005179"/><path d="M1356.34 910.529c-.7-4.193 32.14-32.844 27.95-55.904-4.89-23.06-11.18-41.928-10.48-52.409 0 0 4.19 13.277 12.58 46.819 4.89 23.759 7.68 33.542 8.38 28.65 0-2.096-.7-3.494-1.4-13.277-1.39-8.385 0-9.084-4.19-22.361-4.89-12.578-7.68-21.663-6.99-21.663-.69 0 9.79 17.47 13.98 37.036 2.1 13.277 1.4 23.061 4.19 23.061.7 0 4.2-8.386-.7-21.663-4.19-13.277-10.48-25.855-11.18-42.627 0-16.771 6.29-24.457 8.39-29.349 4.19-4.892-4.89 4.193-4.89 26.554 4.89 37.735 18.17 44.723 15.37 62.892-.7 6.988.7 6.289 2.1 1.397 1.39-5.59-3.5-20.963-5.59-26.554-2.1-5.59-.7-11.181-.7-11.181s1.4 10.482 6.99 20.964c2.79 4.892 5.59 15.374 2.79 23.759-2.1 8.386 6.29 31.446 4.19 33.543-22.36 17.469-60.09-3.494-60.79-7.687zM1229.85 875.59c-4.89-12.579-8.38-25.856-9.08-25.856 0 0 0 8.386 2.09 15.374 2.8 6.988 6.29 26.554 3.5 33.542-2.1 6.988-4.2 6.988-2.1-1.398 2.1-11.879 0-19.566-2.79-30.747-4.2-10.482-9.09-23.759-26.56-41.927-23.06-21.663-41.23-20.265-32.84-18.868 6.99 2.795 18.17 6.988 32.84 23.759 13.98 16.771 18.87 30.747 23.76 46.121 4.19 15.373-.7 25.855-2.1 25.855-2.79-.699-1.39-11.181-2.09-26.554-1.4-23.759-22.36-37.735-22.36-37.036 0 0 8.38 7.686 14.67 20.964 5.59 13.975 3.5 15.373 4.19 24.457v14.675c0 1.398-.69 4.193-1.39 13.277-.7 6.988-6.29 5.591-6.29 5.591 2.09.698 16.07 4.192 17.47 4.891 2.79 1.398 6.98-2.096 9.78-13.976 3.49-11.879 2.1-25.855-.7-32.144zM1721.09 888.168c-.7-10.482-3.49-24.458-6.29-37.735-3.49-15.374-10.48-33.543-11.18-37.036 0-2.097 7.69 4.192 16.07 34.24 3.5 16.772 10.48 29.35 11.18 25.856 0-2.097-1.39-3.494-2.09-11.88-1.4-6.988 1.39-6.988-4.2-19.566-6.28-11.879-9.08-20.265-9.08-20.265-1.4-.699 13.98 15.374 18.17 34.241 2.1 11.88 1.4 20.964 5.59 23.759 1.4 1.398 6.99-6.289 0-20.964-6.29-13.976-14.68-25.855-14.68-45.421.7-19.567 10.49-30.049 13.98-34.94 6.99-5.591-6.99.699-9.08 29.349 6.29 44.024 26.55 53.109 21.66 74.072-2.1 7.687 1.4 9.085 3.49 3.494 2.8-6.289-4.19-25.855-7.68-32.843-2.8-6.289-.7-13.976-.7-13.976 0 .699 2.09 13.277 11.18 27.253 4.19 6.988 8.38 21.663 3.49 32.844-4.19 11.18-17.47 18.867-20.96 13.277-7.69-6.29-17.47-16.073-18.87-23.759z" fill="#005179"/><path d="M1169.76 927.999s2.79-9.783 7.68-9.783c4.9 0 4.2 6.289 6.99 0 2.8-6.289.7-13.277 4.89-16.771 4.2-3.494.7 4.891 3.5 5.59 2.09 1.398 3.49-5.59 6.99-2.795 2.79 2.795 7.68-3.494 9.78-4.193 2.1 0 0-2.795 4.89 7.687s-4.89 6.988-1.4 10.482c3.5 2.795 13.28 6.289 13.28 2.096.7-4.891-1.4-5.59-1.4-11.879 0-5.591 3.5 3.494 5.59 1.397 2.1-2.096 2.1-4.891 2.1-7.686 0-2.796-3.5-8.386 0-11.88 3.49-2.795 2.79-11.88 3.49-11.88 0 0 3.5-2.096 6.29 5.591 2.8 8.385 5.59 16.771 9.78 13.277 4.2-2.795 13.98-4.892 17.47-9.783 3.5-4.892-1.39-7.687 5.59-11.88 6.99-4.192 2.8 2.795 3.5 5.591.7 2.795 8.38-1.398 12.58-2.796 4.19-1.397-1.4-6.289 7.68-2.096 9.09 4.193 6.99 9.783 9.09 12.578 2.09 2.796-2.1 11.181-2.1 12.579 0 2.096 4.19 4.891 7.69 5.59 2.79.699 3.49 0 6.99-3.494 4.19-4.193 3.49-4.891 4.89-9.084 1.39-4.193 4.19-4.193 4.89 2.096.7 6.289 1.4 4.193 3.49 9.085 2.1 4.891-1.39 9.783 1.4 9.783 2.8 0 3.49 4.891 6.29 4.891 2.79 0 4.89-.699 5.59-3.494.7-2.795 3.49-2.096 6.99-5.59 3.49-4.193 4.19-4.892 4.89-8.386.7-3.494 4.89-2.795 9.08.699 4.2 2.795 5.59 4.892 11.18 3.494 6.29-1.397 6.29-3.494 8.39-1.397 2.1 1.397 2.1 8.385 6.29 11.879 4.19 3.494 8.38-4.892 11.18-7.687 2.1-2.795 5.59-6.289 6.99-9.084 1.39-2.795 2.09-4.193 5.59-5.59 4.19-2.097 1.39-1.398 6.29-6.988 4.89-6.29 0-11.181 6.29-12.579 6.28-1.397 2.09 9.783 4.19 10.482 2.09.699 6.29.699 6.29-3.494 0-4.192-3.5-4.193 0-6.289 3.49-2.096 4.89 0 4.89 2.096.7 2.097 4.89-4.192 4.89-6.289 0-1.397-.7-3.494-.7-4.891 0-1.398 3.5-3.494 4.19-8.386.7-4.891-2.09-8.385 0-11.18 2.1-2.796 5.59 2.096 6.29 7.686.7 6.289 6.99 16.073 8.39 17.47 1.4 2.097 10.48 1.398 15.37 6.988 4.19 6.289 1.4 12.578 5.59 13.976 4.19 1.398 10.48 2.096 10.48-.699.7-2.795 11.18-4.193 13.28-4.193 2.1 0 6.29 11.181 6.99 12.579 1.4 2.096 6.29 23.759 6.29 23.759l-357.08 2.795zM1897.19 793.133c-11.88-5.591-7.69 1.397-15.38-2.796-7.68-4.891-7.68-14.674-15.37-13.277-7.69 1.398-4.19 1.398-4.89 6.289-.7 4.892-1.4 6.988-3.5 11.181-2.09 4.193 2.1 16.072.7 18.169-.7 2.096-2.09 11.181-9.08 11.879-6.99.699-14.68-1.397-20.27-3.494-5.59-1.397-10.48-1.397-13.27 6.988-3.5 7.687-5.59 20.964-5.59 23.759 0 2.097-2.1 3.494-2.8 4.892-.7 1.398-7.69 1.398-11.88 0-3.49-1.398-7.68-6.988-12.58-5.59-5.59.698-5.59 3.494-6.98 6.289-1.4 2.795.69 10.482 3.49 16.072 2.79 5.59 0 5.59 0 6.289 0 .699 1.4 3.494 3.49 6.988 2.1 3.494.7 5.59-4.19 4.892-4.89-.699-9.08-7.687-16.07-10.482-6.99-2.097-10.48-2.795-11.88 2.096-1.4 4.892 1.4 4.892.7 11.181-1.4 6.289 2.09 2.096-4.19 9.084-6.29 6.988 17.47 23.06 17.47 23.06h134.86V795.928c-.7-2.097-1.4-2.795-2.79-2.795z" fill="#005179"/><path d="M1518.45 909.831c-.7-6.29 2.8-8.386 6.29-10.482 3.49-2.097 2.1-6.29.7-5.591-2.1.699-2.1 4.193-4.19 2.795-2.1-1.397-.7-2.795-1.4-7.686 0-4.193-3.5-5.591-6.29-4.892-2.1 1.398-1.4 2.795 1.4 4.892 2.09 2.096 3.49 11.18 1.39 11.879-2.09 1.398-2.79-2.795-6.98-6.289-4.2-3.494-6.29 2.795-2.1 6.988 4.19 3.494 6.29 2.795 6.99 4.892.7 1.397.7 6.289.7 9.783h3.49c.7 0 .7-2.097 0-6.289z" fill="#005179"/><path d="M983.429 743.978c-1.271-2.542-.635-3.813-1.906-5.085-.636-.635-1.907-11.44-1.907-11.44-.635-5.084-2.542-9.533-2.542-10.804 0 0-1.271-2.542-3.178-5.084.636-1.272 1.271-2.543 1.271-4.449 0-1.907 0-3.814-.635-5.72-.636-1.907-1.907-3.814-3.178-5.72-1.271-1.271-3.178-1.907-5.084-2.543-1.271 0-3.178 0-4.449.636.635-.636.635-1.907 0-1.907 0-.635-.636-1.906-1.271-1.906-.636-.636-1.907 0-2.543 0-1.271.635-1.906 1.906-2.542 3.813-.635 0-1.271.636-1.271 1.271 0 0-.635-1.907 0-4.449l.636-.635.635-.636s0-.635.636-.635c.635-.636.635-1.272 1.271-1.907 1.271-2.542 1.271-5.085.635-6.991-1.271-2.543-3.177-3.814-4.448-3.814-3.814-.635-5.72.636-6.991 1.907-1.271 0-1.907-.636-2.543-.636 0 0-2.542 3.814-1.271 6.356-1.271 0-3.177 0-3.813.636-.636.635-1.271 1.271-1.271 1.906 0 .636.635 1.907 1.271 1.907.636 0 .636.636 1.271.636 0 .635.636 1.271 1.271.635h1.271s.636 0 .636-.635v-.636h1.271c0 .635.636.635.636 1.271 1.271 0 1.906.636 2.542.636v1.271c-1.907 1.271-3.814 3.177-6.356 3.177-2.542-3.813-6.991-7.626-10.804-9.533.635-7.627-4.449-12.711-5.084-19.067 0-.635 1.271-1.271 1.271-1.906 0-.636 0-2.542.635-3.178 0-.636.636-.636.636-1.271 0 0 0-.636-.636-.636-.635 0-1.271.636-1.906 1.907 0 1.271-.636 1.271-.636.636v-5.085s0-.635-.636-.635c0 0-.635 0-.635.635 0 1.907 0 3.813-.636 3.813V656.907v-1.271c0-.636-.635-.636-.635-.636-.636 0-.636.636-.636.636v1.906c0 1.907.636 3.178 0 3.178l-1.271-3.178v-.635l-.635-.636-.636.636.636 2.542c.635 1.271.635 1.907.635 1.907l-.635-.636-1.271-2.542s-.636-.636-.636 0l-.636.635s0 .636 1.272 3.178c1.271 2.542.635 3.813 1.906 5.085.636.635 1.907 11.44 1.907 11.44.635 4.448 1.906 9.533 2.542 10.804 0 0 6.355 10.169 10.804 17.796-.635.635-5.084 9.533-4.449 12.711.636 1.906 3.178 2.542 5.72 3.178h1.272v2.542c0 1.271.635 1.906 1.906 2.542v.636c-13.982 21.608-10.169 24.786-12.075 30.506 0 .636-.636 1.271-.636 2.542 0 .636 0 1.272-.635 1.907 0 0 1.906 5.085 8.897 11.44-.635.636-1.906 1.271-2.542 2.542-1.271 1.907-1.907 4.449-1.907 6.356-1.271 2.542-3.177 4.449-6.355 7.627-1.271 1.906-8.262 17.16-9.533 20.337 0 0 .635.636 1.906 1.272 5.085-10.169 9.534-19.703 11.44-22.88 1.907-2.543 2.543-3.178 3.178-3.814 0-.635.636-.635.636-.635l1.271.635 1.271.636c.635 0 .635.635 0 .635 0 .636-.636 1.907-1.271 4.449-.636 3.178-4.449 13.347-9.534 23.516 1.272.635 1.907.635 1.907.635 1.271-3.177 8.262-18.431 8.898-20.973 1.271-4.449 1.906-7.627 2.542-10.804 0-.636.635-1.907 1.271-3.178v-.636l1.907-3.813c0-2.542 0-1.271-.636-3.178v-.636c-.635-1.271-2.542-6.991-5.084-12.711 4.449-6.355 9.533-16.524 11.44-22.244h2.542c.635 3.813 1.907 18.431 5.084 25.422.636.636 1.271 1.907 1.271 3.178v1.271c-1.906 3.813.636 7.627 1.907 12.711 0 .636-.636 1.271-.636 2.542 0 .636.636 2.543 1.271 3.814.636 1.271.636 3.813 1.272 4.449.635 3.177 1.271 6.355 1.906 10.804 0 2.542 6.356 19.067 6.991 22.245 0 0 .636.635 1.907-.636-3.813-10.804-6.991-21.609-7.627-24.787 0-3.178-.635-4.449-.635-4.449 0-.635 0-.635.635-.635l1.271-.636 1.272-.635c.635 0 .635 0 .635.635 0 .636.636 1.907 2.542 4.449 1.907 3.178 5.72 13.347 10.169 24.151 1.271 0 1.907-.635 1.907-.635-1.271-3.178-6.991-19.702-8.262-21.609-2.543-3.813-3.814-5.72-5.085-8.262 0-1.271-.635-4.449-1.271-6.356-1.271-2.542-3.178-3.178-3.178-3.178.636-6.355 1.271-8.898 0-12.711 0-.635-.635-1.271-.635-1.271v-.636c0-.635.635-1.906.635-2.542v-2.542c0-6.356 1.907-9.533-1.271-26.693 1.907 0 3.178-1.271 3.178-2.543l.636-5.72c.635 0 1.271-.635 1.271-.635 0-.636 0-.636-.636-1.271l1.271-8.898c.636 0 1.271-.636 1.907-1.271 1.271 1.271 2.542 1.907 3.813 2.542v.636c0 7.626 4.449 12.711 5.085 18.431 0 .635-1.272 1.271-1.272 1.906 0 .636 0 2.543-.635 3.178 0 0-.636.636-.636 1.271 0 0 0 .636.636.636.635 0 1.271-.636 1.907-1.907 0-1.271.635-1.271.635-.635v5.084s0 .636.636.636c0 0 .635 0 .635-.636 0-1.907 0-3.813.636-3.813v4.449c0 .635.635.635.635.635.636 0 .636-.635.636-.635v-1.907c0-1.907-.636-3.178 0-3.178l1.271 3.178v.636l.635.635.636-.635-.636-2.543c-.635-1.271-.635-1.906-.635-1.906l.635.635 1.272 2.542s.635.636.635 0l.636-.635c-1.271 3.178-1.271 2.542-2.543 0zm-45.123-24.151c-.636.635-.636 1.906-.636 3.178h-.636c-2.542-.636-4.448-1.272-5.084-2.543-.635-2.542 2.542-8.262 3.813-11.44.636.636 1.271 1.907 1.271 2.543.636 1.906 1.271 5.084 1.907 8.262h-.635zm-1.272 58.471c-.635 0-1.271.635-1.271 1.271 0 0-.635 1.271-1.906 2.542 0-.635 0-1.271.635-1.906.636-1.272 1.271-1.907 2.542-1.907zm8.263-82.622c-.636.635-1.907 1.271-3.178.635 1.271-.635 2.542-1.271 3.178-1.907v1.272zm-3.178-7.627h-.636c-.635.635-.635 0-.635 0s0-.636-.636-.636h-1.271c-.636 0-.635 0-.635.636l-.636-.636v-.635c.636-.636 1.271-.636 3.813 0 .636.635.636 1.271.636 1.271zm5.72-2.542h-1.271-2.543c-1.271-.636-1.906-.636-1.906-.636h-.636c-.635-.635.636-4.449.636-4.449h4.449c3.177 1.271 1.906 4.449 1.271 5.085zm17.16 102.324c.635.636.635 1.271.635 1.907l-1.271-2.542c0-.636-.636-.636-.636-1.271 0 0 .636.635 1.272 1.906zm-6.356-92.791v1.271h-.636c0-.635-.635-1.271-1.271-1.907.636-1.271.636-2.542 1.907-2.542h1.271l.636.636c0 .635 0 1.271-.636 2.542-.635-.635-1.271-.635-1.271 0zm1.907 3.813s0-.635 0 0c-.636-.635-1.271-.635-1.271-.635v-.636h1.906v.636c.636 0 1.271.635 1.907.635h-2.542zm6.355 18.432c.636-.636.636-.636 0 0 .636-.636.636-.636 0 0zm6.356-6.992c-2.542-3.813-5.085-8.262-5.085-8.262-.635-1.271-1.906-1.907-3.177-1.907v-.635c0-1.271 0-1.907.635-2.542 0 0 0-.636-.635-.636h-2.543s-.635 0-.635.636h-1.271c1.271-1.271 3.177-1.907 5.084-1.907 3.178.636 6.356 2.542 7.627 6.991.635 2.542.635 5.72 0 8.262z" fill="#0D3D68"/><path d="M940.844 669.617c.636-.635.636-1.271.636-1.906-.636-.636-1.271-.636-1.907-.636-.635.636-.635 1.271-.635 1.907 0 .635 1.271.635 1.906.635zM938.943 671.524c.636 0 .636-.635 0-1.271 0-.635-.635-.635-1.271 0-.636 0-.636.636 0 1.271h1.271zM940.213 672.796c0-.636-.636-.636-1.272 0-.635 0-.635.636 0 1.271 0 .636.636.636 1.272 0 .635-.635.635-1.271 0-1.271zM939.586 678.515c-.636 0-.636.636 0 1.272 0 .635.636.635 1.271 0 .636 0 .636-.636 0-1.272h-1.271zM942.748 676.609c.635 0 .635-.636 0-1.271 0-.636-.636-.636-1.271 0-.636 0-.636.635 0 1.271h1.271zM933.225 795.458c.635-2.542 1.271-3.814 1.271-4.449l-1.271-.636-1.271-.635c-.636.635-1.272 1.271-3.178 3.813-1.907 3.178-8.898 17.16-11.44 22.245.635.635.635 1.271 2.542 1.906 1.907.636 2.542.636 3.178.636 3.178-5.085 8.898-19.702 10.169-22.88zM968.819 801.177c-1.271-1.906-1.907-3.177-2.542-3.813l-1.272.636-1.271.635c0 .636 0 1.907.636 4.449.635 3.178 5.72 19.067 7.626 24.787.636 0 1.907.635 3.178 0 1.907-.636 2.542-1.271 2.542-1.907-1.271-6.356-6.991-21.609-8.897-24.787z" fill="#0D3D68"/><path d="M1308.84 887.47s-3.5-2.795-5.6-7.687c-2.09-4.891-.69-9.084-.69-9.084l8.38 4.892c-1.4-2.097-4.19-6.29-2.09-10.482 2.09-4.892 11.18-7.687 12.57-8.386 11.18-4.193 18.17 4.193 24.46 4.892 2.8.699 3.49 0 3.49.699.7.698-.69.698-2.09 2.795-4.19 4.891-3.5 16.072-14.68 20.265-4.89 2.096-10.48 3.494-15.37.699-4.19-2.097-4.89-6.988-4.19-9.085-1.4.699-4.19 10.482-4.19 10.482z" fill="url(#paint34_linear)"/><path d="M1345.86 852.53c.7 0 1.4 0 1.4.699s0 1.397-.7 1.397-1.4 0-1.4-.698c0-.699.7-1.398.7-1.398z" fill="url(#paint35_linear)"/><path d="M1345.16 858.121c0-.699 0-.699.7-1.398.7 0 .7 0 1.4.699 0 .699 0 .699-.7 1.398-.7 0-1.4-.699-1.4-.699z" fill="url(#paint36_linear)"/><path d="M1443 791.734s-3.49-2.795-5.59-7.687c-2.1-4.891-.7-9.084-.7-9.084l8.39 4.892c-1.4-2.097-4.2-6.29-2.1-10.482 2.1-4.892 11.18-7.687 12.58-8.386 11.18-4.193 18.17 4.193 24.46 4.892 2.79.698 3.49 0 3.49.698.7.699-.7.699-2.1 2.796-4.19 4.891-3.49 15.373-14.67 20.265-4.89 2.096-10.48 3.494-15.38.698-4.19-2.096-4.89-6.987-3.49-9.084-2.79 1.398-4.89 10.482-4.89 10.482z" fill="url(#paint37_linear)"/><path d="M1480.03 756.794c.7 0 1.39 0 1.39.699s0 1.397-.69 1.397c-.7 0-1.4 0-1.4-.698 0-.699 0-1.398.7-1.398z" fill="url(#paint38_linear)"/><path d="M1479.33 762.385c0-.699 0-.699.7-1.398.7 0 .7 0 1.39.699 0 .699 0 .699-.69 1.398-.7 0-1.4 0-1.4-.699z" fill="url(#paint39_linear)"/><path d="M1533.16 834.361s-3.5-2.795-5.59-7.686c-2.1-4.892-.7-9.085-.7-9.085l8.38 4.892c-1.4-2.097-4.19-6.289-2.09-10.482 2.09-4.892 11.18-7.687 12.57-8.386 11.18-4.193 18.17 4.193 24.46 4.892 2.8.699 3.5 0 3.5.699 0 .698-.7.698-2.1 2.795-4.19 4.891-3.5 16.072-14.68 20.265-4.89 2.096-10.48 3.494-15.37.699-4.19-2.097-4.89-6.988-3.49-9.085-2.1 1.398-4.89 10.482-4.89 10.482z" fill="url(#paint40_linear)"/><path d="M1570.88 800.12c.7 0 1.4 0 1.4.699s0 1.398-.7 1.398-1.4 0-1.4-.699c-.69-.699 0-1.398.7-1.398z" fill="url(#paint41_linear)"/><path d="M1569.48 805.012c0-.699 0-.699.7-1.398.7 0 .7 0 1.4.699 0 .699 0 .699-.7 1.398-.7 0-1.4 0-1.4-.699z" fill="url(#paint42_linear)"/><path d="M1571.59 687.614s-3.49-2.795-5.59-7.687c-2.1-4.891-.7-9.084-.7-9.084l8.39 4.892c-1.4-2.097-4.2-6.289-2.1-10.482 2.1-4.892 11.18-7.687 12.58-8.386 11.18-4.193 18.17 4.193 24.45 4.892 2.8.699 3.5 0 3.5.699.7.698-.7.698-2.1 2.795-4.19 4.891-3.49 15.373-14.67 20.265-4.89 2.096-10.48 3.494-15.38.699-4.19-2.097-4.89-6.988-3.49-9.085-2.1.699-4.89 10.482-4.89 10.482z" fill="url(#paint43_linear)"/><path d="M1609.32 652.674c.7 0 1.39 0 1.39.699s0 1.397-.69 1.397c-.7 0-1.4 0-1.4-.698-.7-.699 0-1.398.7-1.398z" fill="url(#paint44_linear)"/><path d="M1607.92 658.265c0-.699 0-.699.7-1.398.7 0 .7 0 1.39.699 0 .699 0 .699-.69 1.398-.7 0-1.4-.699-1.4-.699z" fill="url(#paint45_linear)"/><path d="M229.884 171.206s-4.192-3.494-6.289-9.085c-2.096-5.59-1.397-11.18-1.397-11.18l9.783 6.289c-1.398-2.096-4.892-6.988-2.795-12.578 2.096-6.29 13.277-9.085 14.674-9.784 13.277-4.891 21.663 4.892 29.349 6.29 3.494.698 4.193 0 4.193.698.699 1.398-.699 1.398-2.795 3.494-4.892 5.591-4.193 18.868-17.47 23.759-5.59 2.097-12.578 4.193-18.168 1.398-4.892-2.795-5.591-8.386-4.892-11.181-1.397.699-4.193 11.88-4.193 11.88zM274.609 129.977c.699 0 1.398 0 2.097.698 0 .699 0 1.398-.699 2.097-.699 0-1.398 0-2.096-.699-.699-1.398 0-2.096.698-2.096zM273.211 136.266c0-.699 0-1.398.699-1.398s1.397 0 1.397.699 0 1.397-.698 1.397c-.699 0-.699 0-1.398-.698zM111.79 229.904s-4.193-3.494-6.988-9.084c-2.096-5.59-1.397-11.181-1.397-11.181l9.783 5.591c-1.398-2.097-4.892-6.988-2.795-12.579 2.096-6.289 12.578-9.783 14.674-10.482 13.277-5.59 21.663 4.193 29.349 5.591 3.494.699 4.193 0 4.193.699.699 1.397-.699 1.397-2.795 3.494-4.892 5.59-4.193 18.867-16.771 24.457-5.59 2.097-12.578 4.193-18.169 1.398-4.891-2.795-5.59-7.687-4.891-10.482-1.398 1.398-4.193 12.578-4.193 12.578zM155.816 187.277c.699 0 1.398 0 2.097.699 0 .699 0 1.398-.699 2.097-.699 0-1.398 0-2.096-.699-.699-1.398 0-2.097.698-2.097zM154.418 193.566c0-.699 0-1.397.699-1.397 1.397 1.397 1.397 2.096.699 2.096-.699 0-1.398 0-1.398-.699zM171.197 285.807s-4.193-3.494-6.289-9.084c-2.097-5.59-1.398-11.181-1.398-11.181l9.783 6.289c-1.397-2.096-4.891-6.988-2.795-12.578 2.096-6.289 13.277-9.084 14.675-9.783 13.277-4.892 21.662 4.892 29.349 6.289 2.795.699 4.192 0 4.192.699.699 1.398-.698 1.398-2.795 3.494-4.891 5.59-4.193 18.867-17.469 23.759-5.591 2.096-12.579 4.193-18.169 1.398-4.891-2.796-5.59-8.386-4.891-11.181-.699.699-4.193 11.879-4.193 11.879zM216.611 243.88c.698 0 1.397 0 2.096.699 0 .699 0 1.398-.699 2.097-.699 0-1.397 0-1.397-.699-1.398-.699-1.398-1.398 0-2.097zM215.207 250.869c0-.699 0-1.398.699-1.398s1.397 0 1.397.699 0 1.397-.698 1.397c-.699 0-1.398 0-1.398-.698zM22.356 313.759s-6.29-2.096-9.084-7.687c-2.097-5.59 0-11.879 0-11.879l15.373 3.494s11.18-20.265 27.253-27.253c23.06-10.482 37.734-4.193 39.132-1.398 2.096 4.892-3.494 20.265-28.65 29.35-13.976 4.891-37.036 1.397-37.036 1.397l-6.988 13.976zM105.508 252.266c.699 0 1.397 0 2.096.698 0 .699 0 1.398-.699 2.097-.698 0-1.397 0-2.096-.699-.699-.699 0-2.096.699-2.096zM104.109 259.254c0-.699 0-1.398.699-1.398s1.398 0 1.398.699 0 1.398-.699 1.398c0 0-.699-.699-1.398-.699zM363.359 120.893c0-.699.699-.699 1.398-.699h1.397c.699 0 .699.699.699 1.398v1.397c0 .699-.699.699-1.398.699-1.397 0-2.096-.699-2.795-1.398.699 0 .699-.698.699-1.397zM327.718 162.121c-4.193 2.097-6.988 5.591-9.084 8.386-10.482 17.47-17.47 18.168-17.47 18.168s7.687-11.18 16.771-25.156c4.891-6.988 10.482-10.482 16.771-11.181 14.674-2.795 27.252-1.397 36.337-6.289 4.192-2.096 4.192-3.494 5.59-2.795 1.398.699 0 2.096 0 6.289 3.494 18.169 9.084 27.253 0 40.53 0 .699-3.494-1.398-6.988-3.494-.699 6.289 0 14.675-2.795 18.868-1.398 2.795-15.373-4.193-20.964-8.386l5.591 14.675s-7.687 0-15.374-4.892c-6.289-4.193-9.783-11.181-9.783-11.181l16.072-1.397c-6.987-1.398-11.879-6.988-12.578-11.181-1.397-6.289 2.795-12.578 5.591-18.867 2.795-6.988-7.687-2.097-7.687-2.097zM367.545 131.374c.699-.699 2.096-1.397 2.795-.699.699.699 1.398 2.097.699 2.796-.699.698-2.096 1.397-2.795.698-1.398-.698-1.398-2.096-.699-2.795zM371.748 137.663c.699-.698 1.398-.698 2.096-.698.699.698.699 1.397.699 2.096-.699.699-1.397.699-2.096.699-1.398 0-1.398-1.398-.699-2.097z" fill="#0C508E"/><path d="M361.953 124.386c0 .699.699 1.398 1.398 1.398.699.699 1.397.699 2.795.699 0-6.988-.699-6.988-1.398-6.988-.698 0-1.397.698-2.096 1.397-.699 1.398-.699 2.097-.699 3.494 0-.699 0 0 0 0zm1.398-1.397v-1.398c0-.699.699-.699 1.397-.699h1.398c.699 0 .699.699.699 1.398v1.397c0 .699-.699.699-1.398.699-.699.699-2.096 0-2.096-1.397z" fill="#0C508E"/><path d="M250.868 756.796c-9.783-4.891-27.253-37.036-18.169-106.217 9.084-69.879 9.783-122.289 1.398-143.951 0 0 20.265 21.662 5.59 123.686-9.084 71.277 6.289 88.048 4.892 75.47 0-5.59-2.796-6.988-1.398-35.638 1.398-23.061 4.193-28.651 5.59-64.988 1.398-36.338.699-60.097 0-60.097.699-.699 7.687 43.326.699 100.627-4.193 40.53-.699 62.891 3.494 60.096 2.096-1.397 2.096-25.156 1.398-60.096-1.398-34.94 2.795-71.976 5.59-120.193 2.096-47.518-2.795-64.289-6.988-75.47-5.59-9.783 11.879 2.795 12.578 63.591-3.494 105.518-2.795 123.686-2.096 174 0 18.867 4.193 15.373 3.494.698-.699-13.976-2.097-55.205-1.398-71.277.699-16.072 6.988-36.337 6.988-36.337s-5.59 32.843-1.398 57.301c1.398 27.253 11.88 100.627 4.193 105.518-5.59 5.59-16.072 18.169-24.457 13.277z" fill="#147BA4"/><path d="M160.031 777.061c0-4.891 0-2.795 3.494-10.481 2.795-7.687-4.193-7.687-7.687-6.988-3.494.698 0 7.686-3.494 9.084-3.494 2.096-8.385-1.398-3.494-5.59 4.193-4.193 2.096-4.193-1.397-4.193-3.494-.699-16.771-4.892-15.374-8.386 1.398-3.494 10.482-.699 13.277 2.795 2.795 3.494 6.988 2.097 4.193-4.192-2.795-6.289 3.494-9.783 5.59-6.988 2.795 4.192-4.891 11.18 4.193 13.976 5.59 1.397 6.988 1.397 7.687 0 1.397-2.796 4.891-13.277 4.891-15.374 0-2.795-3.494-2.096-8.385-8.385-4.892-6.29 1.397-12.579 6.289-6.988 4.891 5.59 4.192 10.482 6.988 9.783 3.493-.699 5.59-11.181 2.795-14.675-2.795-3.494-3.494-6.289.698-6.289 4.193 0 8.386 2.795 6.988 8.385-2.096 4.892-4.192 6.988-2.096 9.085 2.096 2.096 4.891-2.097 7.687-2.097 2.795 0 2.795 5.591-2.796 6.29-5.59.698-11.879 2.795-13.975 9.783-2.097 6.988-3.494 10.482-2.795 11.18 2.795 2.097 11.18-2.795 9.783-6.988-2.097-5.59 1.397-6.987 2.795-6.289 2.795 1.398.699 4.193.699 6.988 0 2.795 4.891-1.397 6.987-.699 3.494 1.398 2.796 5.591-2.096 4.892-4.891-.699-8.385 1.398-6.289 3.494 1.398 2.096 1.398 6.988-4.193 3.494-5.59-3.494-7.686 1.398-9.084 4.892-1.398 3.493-1.398 12.578-1.398 13.975 0-.698-10.481 0-10.481-3.494zM87.343 669.447c0-4.892 0-2.795 3.494-10.482 2.795-7.687-4.193-7.687-7.687-6.988-3.494.699 0 7.687-3.494 9.084-3.493 2.097-8.385-1.397-3.493-5.59 4.192-4.193 2.096-4.193-1.398-4.892-3.494-.698-16.77-4.891-15.373-8.385 1.397-3.494 10.482-.699 13.277 2.795 2.795 3.494 6.987 2.096 4.192-4.193s3.494-9.783 5.59-6.988c2.796 4.193-4.89 11.181 4.193 13.976 5.59 1.398 6.988 1.398 7.687 0 1.398-2.795 4.891-13.277 4.891-15.373 0-2.795-3.493-2.097-8.385-8.386-4.891-6.289 1.398-12.578 6.29-6.988 4.891 5.591 4.192 10.482 7.686 9.783 3.494-.698 5.59-11.18 2.795-14.674-2.795-3.494-3.494-6.29.699-6.29 4.192 0 8.385 2.796 6.988 8.386-2.097 4.892-4.193 6.988-2.097 9.084 2.097 2.796 4.892-2.096 7.687-2.096s2.795 5.59-2.795 6.289c-5.591.699-11.88 2.795-13.976 9.783-2.096 6.988-3.494 10.482-2.795 11.181 2.795 2.096 11.18-2.795 9.783-6.988-2.096-5.59 1.397-6.988 2.795-6.289 2.795 1.397.699 4.193.699 6.988 0 2.795 4.891-1.398 6.988-.699 3.494 1.398 2.795 5.59-2.097 4.892-4.891-.699-8.385 1.397-6.289 3.494 1.398 2.096 1.398 6.988-4.192 3.494-5.591-3.494-7.687 1.397-9.085 4.891-1.397 3.494-1.397 12.578-1.397 13.976-1.398.699-11.18.699-11.18-2.795z" fill="#005179"/><path d="M122.979 636.603c2.796 4.193 1.398 2.796 3.494 10.482 2.097 8.386 7.687 3.494 10.482 1.398 2.795-2.096-4.891-5.59-2.795-9.783 2.096-3.494 7.687-3.494 6.289 2.795-1.398 5.59.699 4.891 3.494 2.795 3.494-1.398 16.771-6.289 17.47-2.096.698 4.192-7.687 6.289-11.88 5.59-4.192-.699-6.988 2.795-.699 5.59 6.29 3.494 2.796 9.784-.698 9.085-4.892-1.398-2.097-12.579-11.181-9.085-4.891 2.097-6.289 2.796-6.289 4.892 0 2.795 3.494 13.277 5.59 15.374 1.398 2.096 4.193-.001 11.88 2.096 7.686 2.096 6.289 11.181-.699 9.084-6.988-1.397-9.783-6.289-11.879-3.494-2.097 2.795 2.096 12.579 6.289 13.976 4.192 1.398 6.289 2.795 3.494 5.591-2.796 2.795-8.386 2.795-10.482-2.796-1.398-5.59-.699-7.686-3.494-8.385-3.494-.699-2.795 4.891-4.892 6.289-2.795 1.398-5.59-2.795-1.397-6.988 4.192-4.193 8.385-9.084 5.59-16.072-2.795-6.988-2.795-10.482-4.193-10.482-3.494 0-6.988 9.084-4.192 11.181 4.891 3.493 2.795 6.289 1.397 6.289-3.494.698-3.494-2.796-4.193-5.591-1.397-2.096-2.795 4.193-4.891 4.892-3.494 1.397-5.59-2.795-.699-5.59 4.892-2.796 5.59-5.591 3.494-6.29-2.795-.698-5.59-4.891 1.398-5.59 6.289-.699 5.59-5.59 4.891-9.084-.699-3.494-5.59-11.181-6.988-11.88-3.494-.699 4.193-6.988 6.289-4.193z" fill="#005179"/><path d="M363.377 928H222.921s-16.072-85.253-11.879-89.446c4.192-3.494 20.963-1.398 34.939 13.976 13.976 16.072 29.349 2.096 38.433.699 9.084-1.398-.699 25.855 4.892 32.843 4.891 6.988 30.746 15.374 30.746 15.374s4.193-9.085 9.084-4.892c4.892 3.494 1.398 6.988 3.494 12.578 2.097 5.591 11.88 6.988 11.88 6.988l4.891-4.891s4.193-2.097 6.988 1.397c2.795 3.494 1.398 9.085 3.494 11.181 2.096.699 3.494 4.193 3.494 4.193z" fill="#147BA4"/><path d="M279.516 770.772c4.193-8.385-2.096-47.518-.699-50.313.699-2.096-38.433 0-41.228-3.494-2.795-2.795-4.892-13.277-2.795-18.867 2.096-5.591 1.397-21.663.699-23.061-.699-1.397-9.085 4.892-11.88 5.591-2.795.698-11.18 6.988-15.373 4.192-4.892-3.494-2.096-15.373-3.494-17.469-.699-.699-1.398-1.398-1.398-2.097 2.796-5.59 5.591-11.879 6.29-15.373 1.397-4.892.698-9.783 0-11.88-.699-2.096-2.097-4.193-2.097-9.783 0-4.892 4.193-10.482 5.59-20.964 2.097-10.482-1.397-6.289.699-13.277 1.398-6.988 6.289-8.386 4.892-13.976-.699-6.289-.699-3.494-2.795-3.494-2.097 0-3.494-.699-4.892-2.096-2.096-1.398-6.988 3.494-8.385 2.795-1.398-.699-4.892-.699-5.591-6.988-.698-6.289 0-12.578 0-17.47.699-4.891 0-9.084-3.494-10.482-3.493-2.096-9.783-2.795-10.481-2.096-.699 0-1.398-1.398-2.097-2.097 0 0-.699-1.397-.699-2.795v-5.59c-2.795-10.482-28.65 6.289-34.939 4.193-2.096-.699-5.59 0-8.385 1.397 0-6.289-.699-11.879-.699-12.578 0-2.096-13.277-16.072-13.277-16.072s11.879-14.675 9.084-18.868c-2.795-4.193-4.891-20.964-4.891-22.361 0-1.398-13.277-9.085-20.964-13.277-2.795-4.892-5.59-7.687-8.385-9.085-18.867-6.988-34.94 142.555-34.94 142.555l-3.494 256.457 227.805 83.856L297.685 812.7c-1.398-1.398-23.759-29.349-18.169-41.928z" fill="#147BA4"/><path d="M262.045 928s13.277-13.975 9.084-21.662c-4.193-7.687-15.373-44.723-20.265-51.012-4.891-6.289-41.927 12.578-43.324 13.277-1.398.699-23.759 6.988-31.446-4.892-8.385-11.18-2.096-5.59 0-11.879 2.097-6.289-5.59-28.651-6.289-30.747-.699-2.097 8.386-22.362-2.795-26.554-11.879-4.193-16.771 0-23.759-2.796-7.686-2.795-13.277 0-17.469-6.289-4.193-6.988-6.988-26.554-2.796-36.337 4.193-9.783 4.892-39.133 4.193-41.928-1.397-2.795-15.373 4.193-20.265 4.193-4.192-.699-18.867 8.386-25.855 0-7.686-8.386-1.397-29.349-4.192-33.542-.7-1.398-1.398-2.795-2.097-4.892 4.892-9.783 9.783-19.566 11.88-25.855 2.096-8.386 2.795-17.47 1.397-22.362-.699-4.891-2.795-9.084-2.096-18.867.699-9.084 7.686-17.47 11.88-36.337 4.192-18.868-1.398-11.88 2.096-23.76 3.493-12.578 10.481-12.578 9.782-23.759-.698-11.879-.698-6.289-4.192-6.988-3.494-.698-5.59-2.096-8.386-6.289-2.795-3.494-11.88 3.494-13.277 1.398-1.397-1.398-8.385-3.494-8.385-14.675-.699-11.18 1.398-23.06 2.795-31.446 1.398-8.385.699-16.072-4.891-20.963-5.59-4.892-15.374-9.085-17.47-9.085-1.398 0-2.795-2.795-3.494-4.891-.699-1.398-.699-12.579 0-18.868.699-5.59-2.096-7.687-2.795-16.072-.699-8.386 4.891-12.578 2.795-14.675-3.494-3.494-9.084.699-13.277 4.892-4.193 4.193-4.193 0-4.892 0 0 0-2.795 2.096-4.891 4.891-2.795 2.796-4.193.699-3.494-6.988.699-7.686 5.59-13.975 7.687-25.156 1.397-10.482 6.289-9.085 2.096-11.181-3.494-2.795-9.084-.699-13.277-2.795-4.891-2.097 0-1.398-5.59-11.181S0 359.88 0 359.88V927.302h262.045V928z" fill="url(#paint46_linear)"/><path d="M60.084 756.097c6.988-10.482 4.192-5.591 20.264-18.868 15.374-13.277 3.494-19.566-3.493-22.361-6.988-2.795-9.085 15.373-18.169 15.373-8.385 0-11.88-11.879 1.398-16.072 12.578-3.494 9.084-6.289 3.494-10.482-4.892-4.193-22.361-26.554-14.675-32.843 7.687-5.591 18.169 8.385 18.867 18.867.7 9.783 9.085 11.181 12.579-4.891 3.493-16.073 18.867-16.073 18.867-9.085 0 11.181-23.759 18.169-11.88 33.542 6.988 8.386 9.783 9.784 13.277 8.386 6.289-3.494 25.855-22.362 28.651-27.952 3.493-5.59-2.796-8.385-2.796-25.855s18.868-24.458 19.566-8.386c.699 16.073-6.987 25.856-.698 27.952s24.457-17.47 25.156-27.952c.699-10.482 2.096-16.771 9.084-13.277 6.988 3.494 10.482 14.675.699 23.759s-16.072 9.783-15.373 16.771c.698 7.687 11.18.699 15.373 3.494 4.891 3.494-2.795 14.675-13.976 10.482-11.18-4.193-23.759-6.988-36.337 5.59-13.277 12.579-20.264 17.47-19.566 20.266 1.398 7.686 22.361 4.891 25.855-4.193 4.193-13.277 11.181-13.277 12.579-10.482 2.795 6.289-4.193 9.783-8.386 14.675-4.193 4.891 9.783 1.397 12.578 5.59 4.892 6.289-2.795 13.976-10.482 7.687-7.686-6.289-15.373-5.591-15.373.698 0 5.591-6.988 16.073-11.879 3.494-4.892-12.578-15.373-4.891-21.663.699-6.987 5.591-18.867 23.759-20.264 27.952-.7 4.892-18.169-4.193-13.277-12.578z" fill="#005179"/><path d="M76.858 755.398c2.096-12.579 2.096-6.988 11.18-25.157 9.085-18.169-4.192-19.566-11.18-19.566-6.988 0-2.795 18.168-11.18 20.964-7.687 3.494-15.374-6.988-4.892-15.374 10.482-8.385 6.29-9.084-.699-11.181-6.988-2.096-30.746-16.771-25.855-25.156 4.892-8.386 20.265 1.397 24.458 10.482 4.192 9.084 12.578 6.988 9.783-9.085-2.796-16.072 11.88-21.662 13.975-15.373 4.193 10.482-15.373 25.855 1.398 35.638 9.783 4.892 12.578 5.591 15.373 2.796 4.193-5.591 15.374-30.049 16.072-36.338.699-6.289-5.59-6.289-11.879-23.06-6.29-16.072 8.385-29.349 15.373-14.675 6.988 14.675 2.795 27.253 9.783 26.555 6.988-.699 16.072-25.157 12.578-34.94-2.795-9.783-4.192-16.072 3.494-15.374 7.687.699 15.374 9.783 9.783 21.663-5.59 11.879-11.18 14.675-7.686 21.663 3.494 6.988 10.482-3.494 16.072-2.097 5.59 1.398 2.795 14.675-9.084 14.675-11.88 0-24.458 2.096-31.446 18.867-6.988 16.771-11.879 23.759-10.482 26.555 4.193 6.289 23.06-4.193 22.362-13.277-.699-13.976 5.59-16.073 7.686-13.976 4.892 4.891-.699 10.482-2.096 16.771-2.096 6.289 9.783-2.097 13.976.698 6.988 4.193 2.795 13.976-6.988 11.181-9.783-2.795-16.072.699-13.976 6.289 2.096 5.591-.699 17.47-9.783 7.687-9.084-10.482-16.072.699-20.265 8.386-4.192 7.686-8.385 29.349-8.385 33.542 0 .699-19.566-.699-17.47-9.783zM197.068 901.447c3.494-11.88 1.398-6.988 1.398-27.253s12.578-15.374 18.867-12.579c6.289 2.796-5.59 17.47 0 23.759 5.591 6.289 16.771.699 11.181-11.18-5.59-11.88-1.398-11.181 5.59-9.784 6.988.699 34.939-1.397 34.241-10.481-.699-9.784-18.169-7.687-26.554-2.097-7.687 6.289-14.675.699-4.892-12.578 9.783-13.277-.698-25.157-5.59-20.265-8.385 7.687 2.096 30.048-17.47 30.747-10.481.699-13.975-.699-14.674-4.193-1.398-6.988-.699-33.542 2.096-39.831 2.097-6.289 7.687-3.494 20.964-15.374 13.277-11.879 5.59-30.048-6.988-20.265-12.578 10.482-14.675 23.06-20.265 18.868-5.59-3.494-2.795-29.35 4.193-37.037 6.988-7.686 11.18-12.578 3.494-15.373-6.988-2.795-18.169 1.398-18.169 14.675 0 13.277 3.494 18.168-2.795 22.361-6.289 4.193-7.686-7.687-13.277-9.084-5.59-1.398-9.084 11.879 1.398 16.771 10.482 5.59 20.963 12.578 20.265 31.446-.699 18.168 0 26.554-2.796 27.951-6.289 3.494-18.867-13.975-13.975-21.662 6.988-12.579 2.096-17.47-.699-16.072-6.289 2.096-4.193 9.783-5.59 16.072-1.398 6.289-7.687-6.289-12.578-5.591-7.687.699-9.085 11.181 1.397 13.278 10.482 1.397 13.976 8.385 9.783 11.879-4.193 3.494-7.687 16.072 5.59 11.181 12.579-4.892 13.976 7.687 13.976 16.771.699 9.084-5.59 30.048-7.687 34.241-1.397 2.795 16.771 9.783 19.566.699z" fill="#005179"/><path d="M187.288 888.169c7.687-9.783 4.193-6.289 11.18-25.156 6.988-18.868 17.47-9.783 22.362-4.193 4.891 5.59-11.88 13.976-8.386 22.361 2.795 8.386 15.374 6.988 14.675-6.289-.699-13.277 2.795-10.482 9.084-6.988 6.289 3.494 32.843 11.88 36.337 2.796 2.795-9.085-13.976-13.976-23.759-11.88-9.783 2.795-13.976-4.892 0-13.277 13.976-8.386 8.386-23.06 2.096-20.964-10.481 3.494-9.783 28.651-27.252 22.361-10.482-3.493-12.578-6.289-11.88-9.783 1.398-6.988 12.579-31.445 16.771-36.337 4.193-4.892 8.386 0 25.157-6.289 16.77-6.289 16.77-25.856 1.397-20.964-15.373 4.892-22.361 15.373-25.855 10.482-4.193-5.59 8.386-28.651 18.169-32.843 9.084-4.193 14.674-7.687 9.084-13.278-5.591-5.59-17.47-5.59-22.361 6.988-4.892 12.579-3.494 18.169-11.181 20.265-6.988 2.097-4.193-10.481-8.385-13.277-4.892-3.494-12.579 7.687-4.892 16.073 7.687 9.084 14.675 19.566 6.988 36.337-7.687 16.771-9.783 25.157-12.578 25.157-7.687.698-11.88-19.567-4.892-25.856 11.181-8.385 8.386-15.373 5.591-15.373-6.988-.699-7.687 7.686-11.181 12.578-3.494 5.59-4.892-8.386-9.084-9.783-7.687-2.097-12.578 6.988-3.494 12.578 9.084 5.591 9.783 12.578 4.891 14.675-5.59 1.397-12.578 11.879.699 12.578 13.976 0 9.783 12.579 6.988 20.964-2.795 8.386-16.072 25.856-19.566 28.651-6.988 2.096 6.988 15.373 13.277 7.686zM56.595 517.808c2.795-12.578 2.096-6.988 11.88-24.458 9.782-17.47-3.495-19.566-10.483-19.566-6.987-.699-3.494 18.168-11.879 20.964-8.386 2.795-15.373-6.988-4.193-15.374 10.482-7.687 6.29-9.084 0-11.181-6.289-2.795-30.048-18.168-25.156-25.855 4.892-8.386 20.265 2.096 23.759 11.181 4.192 9.084 12.578 7.686 10.481-8.386-2.096-16.072 12.579-21.662 14.675-15.373 3.494 10.482-16.072 25.855 0 35.638 9.084 5.591 12.578 6.289 15.373 2.795 4.892-5.59 16.771-29.349 17.47-35.638.699-6.289-5.59-6.988-11.18-23.06-5.59-16.771 9.782-29.35 15.373-14.675 6.289 14.675 2.096 27.253 9.084 26.554 6.988-.699 16.771-24.458 13.976-34.94-2.796-9.783-3.494-16.072 4.192-15.373 7.687.699 15.374 10.482 9.085 21.663-6.29 11.879-11.88 14.674-8.386 20.963 3.494 6.988 10.482-3.494 16.072-2.096 5.591 1.398 2.097 14.675-9.783 13.976-11.879 0-24.457 1.398-32.144 17.47-7.687 16.771-12.578 23.759-11.18 25.855 4.192 6.289 23.059-3.494 22.361-12.578-.699-13.976 6.289-16.072 8.385-13.976 4.892 4.892-.699 10.482-2.795 16.771-2.096 6.289 9.783-2.096 13.976.699 6.289 4.193 2.096 13.976-6.988 10.482-9.783-3.494-16.072 0-13.976 5.59 2.096 5.591-1.398 17.47-9.783 6.988-9.084-10.482-16.072.699-20.265 7.687-4.891 7.687-9.783 28.65-9.783 33.542-.699 5.59-20.265 2.795-18.168-6.289z" fill="#005179"/><path d="M71.978 510.821c-2.096-12.579-.699-6.988 2.096-27.254 2.796-20.265-10.481-16.771-17.47-14.674-6.987 2.096 3.495 18.168-2.794 23.759-6.29 5.59-16.771-1.398-9.784-12.578 6.988-11.181 2.796-10.482-4.192-10.482-6.988 0-34.94-5.591-32.843-14.675 2.096-9.783 19.566-5.59 26.554 1.398 6.988 6.987 14.674 2.096 6.289-11.88-8.386-13.976 3.494-24.458 7.686-19.566 6.988 8.385-5.59 30.048 13.277 32.843 10.482 1.398 13.976.699 15.374-2.795 2.096-6.988 4.192-33.542 2.795-39.831-1.398-6.29-7.687-4.193-18.867-17.47s-2.097-30.747 9.084-19.567c11.18 11.88 11.88 24.458 18.168 21.663 6.29-2.795 6.29-29.349 0-37.036-6.289-8.386-9.084-13.976-2.096-16.072 7.687-2.097 18.168 3.494 16.771 16.771-1.398 13.277-5.59 17.47 0 23.06 5.59 4.892 8.385-6.988 13.976-7.687 5.59-.699 7.686 12.579-3.494 16.771-11.181 4.193-22.362 10.482-23.76 28.651-1.397 18.169-3.493 26.554-.698 27.952 6.29 4.192 20.265-11.88 16.072-20.265-5.59-13.277-.699-17.47 2.795-16.073 6.289 2.796 3.494 10.482 3.494 16.771.699 6.29 8.386-5.59 13.277-4.192 7.687 1.397 7.687 12.578-2.795 12.578-10.482.699-14.674 6.289-11.181 10.482 4.193 4.193 5.591 16.771-6.987 10.482-11.88-6.289-14.675 6.289-16.072 14.675-1.398 8.385 2.096 30.747 3.493 34.241 2.097 4.891-16.77 9.783-18.168 0z" fill="#005179"/><path d="M54.508 621.23c5.59-11.181 3.494-6.289 17.47-20.964 13.975-14.674 1.397-19.566-5.59-21.662-6.989-2.097-7.688 16.771-16.073 17.47-8.385.698-12.578-10.482-.699-16.073 12.578-4.891 8.386-6.988 2.795-11.18-5.59-4.193-25.156-24.458-18.168-31.446 6.988-6.289 18.867 6.289 20.964 16.771 1.397 9.783 10.481 10.482 11.879-6.289 1.398-16.073 17.47-18.169 18.168-11.181 1.398 11.181-21.662 20.964-8.385 34.241 7.687 7.687 11.18 9.084 13.976 6.988 5.59-4.193 23.06-24.458 25.855-30.747 2.795-6.289-3.494-7.687-4.892-25.157-1.397-17.47 16.072-26.554 18.868-10.482 2.096 16.073-4.193 26.554 2.096 27.952 6.289 1.398 22.361-20.265 21.662-30.048 0-10.482.699-16.771 7.687-13.976 7.687 2.795 12.578 13.277 3.494 23.759-9.084 9.783-14.675 11.181-13.277 18.169 1.397 7.686 11.18-.699 16.072 2.096 4.891 2.795-1.398 14.675-12.578 11.88-11.181-2.796-24.458-4.892-35.638 9.783-11.88 13.976-18.169 19.566-17.47 22.361 2.096 6.988 23.06 2.097 25.156-6.988 2.796-13.976 9.783-13.976 11.181-11.879 3.494 5.59-3.494 10.482-6.988 15.373-3.494 5.591 9.783.699 13.277 4.193 5.59 5.59-1.398 14.675-9.783 8.386-8.385-5.591-16.072-3.494-14.674 2.096.698 5.59-5.591 16.771-11.181 4.193-6.289-12.579-15.373-3.494-21.662 2.795-6.29 6.289-16.072 25.855-17.47 30.048-2.096 5.59-20.265-2.096-16.072-10.482z" fill="#005179"/><path d="M70.57 618.434c.698-12.578 1.397-6.987 8.385-25.855 7.686-18.867-6.29-18.867-13.277-18.169-6.988.699-.699 18.169-8.386 22.362-7.686 4.193-16.072-4.892-6.289-14.675 9.783-9.084 4.892-9.783-2.096-11.181-6.988-1.397-32.144-13.277-28.65-22.361 4.193-9.084 20.265-.699 25.156 7.687 5.59 8.385 13.277 5.59 9.084-9.783-4.891-16.073 9.085-23.061 12.579-16.772 4.891 9.784-12.579 27.952 4.891 34.94 9.783 4.193 13.277 4.193 15.373.699 4.193-6.289 11.88-31.446 12.578-37.735 0-6.289-6.289-5.59-14.674-21.663-7.687-15.373 5.59-30.747 13.277-16.771 8.385 13.976 5.59 26.555 12.578 25.157 6.289-1.398 13.277-26.554 9.084-36.337-4.192-9.784-5.59-15.374 2.097-16.073 7.686 0 16.771 7.687 11.879 20.265-4.193 12.579-9.783 16.073-5.59 22.362 4.192 6.289 9.783-4.892 15.373-4.193 5.59.699 4.193 13.976-6.988 15.374-11.879 1.397-24.457 4.891-29.349 22.361-5.59 17.47-9.783 25.157-7.687 27.253 4.892 5.59 22.362-6.289 20.964-16.072-2.096-13.976 3.494-16.771 6.289-15.374 5.59 4.193.699 10.482-.699 16.771-1.397 6.289 9.085-3.494 13.976-1.397 6.988 3.494 4.193 13.976-5.59 11.879-9.783-2.096-16.072 2.795-13.277 7.687s1.397 17.47-9.084 8.385c-10.482-9.084-15.374 2.796-18.868 10.482-3.494 8.386-5.59 30.049-4.891 34.241.699 5.591-18.867 6.29-18.168-3.494z" fill="#005179"/><path d="M1771.42 784.048c-3.5 6.289-47.52-16.771-49.62-18.169-1.39-.699-8.38 0-9.08 18.169 0 2.795-11.88 5.59-16.07 4.193-4.2-1.398-17.47 18.168-18.87 18.168-.7.699 3.49 6.289 3.49 7.687 0 1.398 4.89 6.988 2.8 9.783-2.8 2.795-11.18 0-12.58.699-.7.699-.7.699-1.4.699-4.19-2.097-8.38-4.193-11.18-4.892-3.49-.699-6.99-1.397-9.08-.699-2.1 0-3.5.699-6.99.699-3.49-.699-7.69-3.494-15.37-4.891-7.69-2.097-4.2 0-9.79-1.398-4.89-1.398-5.59-4.193-10.48-4.193-4.19 0-2.09 0-2.79 1.398 0 1.397-.7 2.096-1.4 2.795-1.4.699 2.1 4.193 2.1 4.892-.7.698-.7 2.795-4.9 2.795-4.19 0-9.08-.699-12.57-1.398-3.5-.699-6.29-.699-7.69 1.398-1.4 2.096-2.1 5.59-2.1 6.289 0 .699-.7.699-1.39 1.398h-2.1c-1.4 0-2.8-.699-4.19 0-7.69 1.397-10.49 39.132-12.58 42.626-2.1 3.494 9.78 25.855 9.78 25.855l.7 29.35h123.68l118.8-18.169 53.81-114.602-89.45-31.446c-.7.699 0 13.976-3.49 20.964z" fill="#147BA4"/><path d="M1709.92 599.567s.7-.699 1.39 0c.7 0 .7 0 1.4.698 0 0 .7.699 0 1.398 0 .699 0 .699-.7 1.398 0 0-.69.698-1.39 0-.7 0-1.4-.699-1.4-2.097 0-.699.7-.699.7-1.397z" fill="url(#paint47_linear)"/><path d="M1675.67 619.133a23.268 23.268 0 00-8.38 3.494c-11.18 9.084-16.08 7.687-16.08 7.687s8.39-5.591 17.47-12.578c4.9-3.494 9.79-4.193 13.98-3.494 10.48 1.397 18.87 5.59 25.86 4.891 2.79-.699 3.49-1.397 4.19 0 .7.699 0 1.398-1.4 4.193-2.1 13.277-.7 20.265-9.78 27.952 0 0-2.1-1.398-4.2-4.193-2.09 4.193-3.49 9.783-6.28 11.879-2.1 1.398-9.09-6.289-11.88-11.18v11.18s-5.59-2.096-9.09-6.987c-4.19-4.892-4.89-10.482-4.89-10.482l11.18 2.795c-4.19-2.795-6.29-7.687-5.59-10.482.7-4.892 4.89-7.687 8.39-11.181 4.89-4.193-3.5-3.494-3.5-3.494z" fill="url(#paint48_linear)"/><path d="M1709.91 607.253c.7-.699 1.4-.699 2.1 0 .7.698.7 1.397 0 2.096-.7.699-1.4.699-2.1 0-.7 0 0-1.398 0-2.096z" fill="url(#paint49_linear)"/><path d="M1711.3 612.843c.7-.698 1.4 0 1.4 0 .7.699 0 1.398 0 1.398-.7.699-1.4 0-1.4 0-.7 0-.7-.699 0-1.398z" fill="url(#paint50_linear)"/><path d="M1708.51 601.662c0 .699 0 .699.7 1.398s.7.699 1.4.699c2.09-4.892 1.4-4.892.7-4.892s-1.4 0-2.1.699c-.7.699-.7.699-.7 2.096 0-.698 0 0 0 0zm.7-.698c0-.699 0-.699.7-1.398 0 0 .7-.699 1.4 0 .7 0 .7 0 1.39.699 0 0 .7.699 0 1.397 0 .699 0 .699-.69 1.398 0 0-.7.699-1.4 0s-1.4-1.398-1.4-2.096z" fill="url(#paint51_linear)"/><path d="M1758.83 600.265s-3.5-1.397-6.29-4.193c-2.8-3.494-3.5-6.988-3.5-6.988l8.39 1.398c-1.4-1.398-4.89-3.494-4.89-7.687 0-4.891 6.29-9.783 7.68-10.482 7.69-6.988 16.08-2.096 20.97-2.795 2.09-.699 2.79-1.397 3.49-.699.7.699 0 .699-.7 2.796-2.09 4.891 1.4 13.975-6.29 20.265-3.49 2.795-7.68 5.59-11.88 5.59-4.19-.699-5.59-4.193-5.59-6.289-2.09.699-1.39 9.084-1.39 9.084z" fill="url(#paint52_linear)"/><path d="M1779.1 561.133c.7-.699 1.4 0 1.4 0 .69.699 0 1.397 0 1.397-.7.699-.7 0-1.4 0-.7-.698-.7-1.397 0-1.397z" fill="url(#paint53_linear)"/><path d="M1779.78 566.024v-1.397h1.4v1.397h-1.4z" fill="url(#paint54_linear)"/><path d="M1707.82 556.241s-4.89 2.097-8.38 0c-4.19-2.096-5.59-6.988-5.59-6.988l9.78-4.891s-2.79-16.771 2.1-27.952c7.68-16.771 18.86-19.566 20.96-18.868 3.49 1.398 7.69 12.579-2.1 29.35-5.59 9.084-19.56 18.169-19.56 18.169l2.79 11.18z" fill="url(#paint55_linear)"/><path d="M1725.29 484.265c0-.699.69-.699 1.39-.699s.7.699.7 1.398c0 .698-.7.698-1.4.698-.69-.698-1.39-.698-.69-1.397z" fill="url(#paint56_linear)"/><path d="M1727.39 488.457c-.7 0-.7-.698-.7-.698 0-.699.7-.699.7-.699.69 0 .69.699.69 1.397h-.69z" fill="url(#paint57_linear)"/><path d="M1835.71 748.41c-6.99-16.771-11.19-34.241-11.19-34.241s0 11.181 2.8 19.566c3.49 8.386 7.69 34.94 4.89 44.024-2.1 9.085-5.59 9.085-2.79-2.096 2.79-15.374 0-25.856-4.2-39.832-4.89-13.975-11.88-30.747-34.24-55.204-30.05-27.952-53.8-26.555-43.32-24.458 9.08 3.494 23.76 9.084 42.62 30.747 17.47 21.662 25.16 40.53 30.75 60.096 4.89 20.265-.7 34.241-2.1 33.542-3.49-.698-1.39-14.674-2.79-34.939-2.1-30.747-29.35-48.916-28.65-48.217 0 0 11.18 9.783 19.56 27.253 7.69 17.47 4.2 20.265 4.9 32.144v19.567c0 1.397-.7 4.891-2.1 17.469-.7 8.386-8.39 7.687-8.39 7.687 2.8.699 20.97 5.591 23.06 6.988 4.2 2.097 9.09-2.795 12.58-18.169 4.2-15.373 2.8-33.542-1.39-41.927zM1685.47 845.542c-1.4-25.156-6.29-59.397-9.79-92.241-4.89-37.735-16.77-81.06-18.16-90.843.69-4.193 12.57 9.783 25.15 82.458 5.59 39.831 16.07 70.578 18.17 62.193 0-4.892-2.1-9.085-2.79-28.651-2.1-16.072 2.09-17.47-6.99-46.819-9.79-29.35-14.68-48.217-14.68-48.217-2.09-2.795 21.67 37.036 28.65 83.855 2.8 29.35 2.8 50.314 9.09 56.603 2.79 2.795 10.48-16.073 0-51.012-9.79-34.241-23.06-62.892-23.76-110.41 1.4-48.217 16.77-72.675 22.36-84.554 11.18-12.579-11.18 1.397-14.67 70.578 9.78 107.615 41.92 128.578 34.24 180.289-3.5 18.169 2.09 22.362 5.59 7.687 4.19-14.675-6.99-62.892-12.58-78.964-4.19-16.072-1.4-34.241-1.4-34.94 0 .699 3.49 31.446 17.47 65.687 6.99 17.47 13.28 53.109 4.89 79.663-6.29 27.253-27.25 45.421-33.54 32.843-9.08-13.277-24.46-35.638-27.25-55.205z" fill="#005179"/><path d="M1740.66 800.819c-1.4-25.157-6.29-59.398-9.78-92.241-4.89-37.735-16.77-81.06-18.17-90.844 0-4.891 12.58 9.783 25.16 82.458 5.59 39.831 16.07 70.578 18.17 62.193 0-4.892-1.4-9.084-2.8-28.651-2.1-16.072 2.1-17.47-6.99-46.819-9.78-29.349-14.67-48.217-14.67-48.217-2.1-2.795 21.66 37.036 28.65 83.856 2.79 29.349 2.79 50.313 9.08 56.602 2.8 2.795 10.48-16.072 0-51.012-9.78-34.241-23.06-62.892-23.76-110.41 1.4-48.216 16.77-72.674 22.36-84.554 11.19-12.578-11.18 1.398-14.67 70.578 9.78 107.615 41.93 128.579 34.24 180.29-3.49 18.168 2.1 22.361 5.59 7.686 4.19-14.674-6.99-62.891-12.58-78.963-4.19-16.073-1.39-34.241-1.39-34.94 0 .699 3.49 31.446 17.47 65.687 6.98 17.469 13.27 53.108 4.89 79.662-6.29 27.253-27.26 45.422-32.85 32.843-9.78-13.277-25.85-35.638-27.95-55.204z" fill="#005179"/><path d="M1894.41 752.602c-22.37-7.687-13.98 2.097-29.35-4.193-14.68-6.289-14.68-19.566-29.35-18.168-13.98 1.397-7.69 1.397-9.09 7.686-1.39 6.29-2.79 9.784-6.98 14.675-4.2 5.591 4.19 21.663 2.09 24.458-2.09 2.795-4.19 14.675-18.17 15.374-13.97.698-27.95-2.097-38.43-4.193-10.48-2.097-19.57-1.398-25.85 9.084-6.29 10.482-11.19 27.952-11.19 31.446 0 2.795-3.49 4.891-5.59 6.289-2.09 1.398-15.37 1.398-22.36 0-6.98-1.398-13.97-9.084-24.45-7.687-10.49 1.398-10.49 4.892-13.28 8.386-2.8 3.494 2.1 13.976 6.99 21.662 5.59 7.687 0 7.687 0 8.386 0 .699 2.09 4.892 6.29 9.084 3.49 4.892.69 7.687-8.39 6.289-9.08-1.397-17.47-10.481-30.05-13.975-13.27-2.796-20.26-3.494-23.76 2.795-3.49 6.289 3.5 6.289.7 14.674-2.79 8.386 4.2 2.796-8.38 12.579-11.88 9.783 34.24 30.747 34.24 30.747H1900V754.699c-2.1-.699-3.5-1.398-5.59-2.097z" fill="#005179"/><path d="M1862.96 807.807c-11.88-6.289-33.54-48.217-18.86-136.964 14.67-88.747 16.77-155.831 6.98-184.482 0 0 25.16 27.952 2.8 158.627-14.68 90.843 4.19 113.904 3.49 97.132 0-7.686-3.49-9.084-.7-45.421 2.8-29.35 6.99-37.036 9.79-83.157 3.49-46.12 2.79-77.566 2.79-77.566.7-.699 8.39 55.205-2.79 129.277-6.99 51.711-2.8 81.06 2.09 77.566 2.1-1.397 4.2-32.144 4.2-77.566 0-44.723 6.29-92.241 11.18-153.036 4.19-60.795-1.4-82.458-6.29-96.434-6.99-12.578 15.37 4.193 13.97 81.759-8.38 134.868-7.68 158.627-9.08 222.916 0 23.759 4.19 19.566 4.89.699 0-18.169-1.4-70.579.7-90.844 1.4-20.265 10.48-46.819 10.48-46.12 0 0-8.38 41.927-4.19 73.373.7 34.241 11.18 129.277 1.4 135.566-8.39 5.591-22.36 20.266-32.85 14.675z" fill="#005179"/></g><defs><linearGradient id="paint0_linear" x1="394.139" y1="-581.101" x2="1063.36" y2="676.548" gradientUnits="userSpaceOnUse"><stop offset=".065" stop-color="#91E4FF"/><stop offset="1" stop-color="#2883C0"/></linearGradient><linearGradient id="paint1_linear" x1="1739.27" y1="417.975" x2="1600.08" y2="343.129" gradientUnits="userSpaceOnUse"><stop stop-color="#005179"/><stop offset=".294" stop-color="#02537C"/><stop offset=".511" stop-color="#075A85"/><stop offset=".702" stop-color="#106595"/><stop offset=".879" stop-color="#1D75AC"/><stop offset="1" stop-color="#2883C0"/></linearGradient><linearGradient id="paint2_linear" x1="1740.4" y1="415.432" x2="1601.71" y2="340.852" gradientUnits="userSpaceOnUse"><stop stop-color="#005179"/><stop offset=".294" stop-color="#02537C"/><stop offset=".511" stop-color="#075A85"/><stop offset=".702" stop-color="#106595"/><stop offset=".879" stop-color="#1D75AC"/><stop offset="1" stop-color="#2883C0"/></linearGradient><linearGradient id="paint3_linear" x1="1740.19" y1="418.109" x2="1598.92" y2="342.135" gradientUnits="userSpaceOnUse"><stop stop-color="#005179"/><stop offset=".294" stop-color="#02537C"/><stop offset=".511" stop-color="#075A85"/><stop offset=".702" stop-color="#106595"/><stop offset=".879" stop-color="#1D75AC"/><stop offset="1" stop-color="#2883C0"/></linearGradient><linearGradient id="paint4_linear" x1="1826.31" y1="417.973" x2="1687.13" y2="343.134" gradientUnits="userSpaceOnUse"><stop stop-color="#005179"/><stop offset=".294" stop-color="#02537C"/><stop offset=".511" stop-color="#075A85"/><stop offset=".702" stop-color="#106595"/><stop offset=".879" stop-color="#1D75AC"/><stop offset="1" stop-color="#2883C0"/></linearGradient><linearGradient id="paint5_linear" x1="1827.79" y1="415.632" x2="1688.14" y2="340.539" gradientUnits="userSpaceOnUse"><stop stop-color="#005179"/><stop offset=".294" stop-color="#02537C"/><stop offset=".511" stop-color="#075A85"/><stop offset=".702" stop-color="#106595"/><stop offset=".879" stop-color="#1D75AC"/><stop offset="1" stop-color="#2883C0"/></linearGradient><linearGradient id="paint6_linear" x1="1826.82" y1="417.889" x2="1686.65" y2="342.51" gradientUnits="userSpaceOnUse"><stop stop-color="#005179"/><stop offset=".294" stop-color="#02537C"/><stop offset=".511" stop-color="#075A85"/><stop offset=".702" stop-color="#106595"/><stop offset=".879" stop-color="#1D75AC"/><stop offset="1" stop-color="#2883C0"/></linearGradient><linearGradient id="paint7_linear" x1="1530.66" y1="325.693" x2="1391.5" y2="250.861" gradientUnits="userSpaceOnUse"><stop stop-color="#005179"/><stop offset=".294" stop-color="#02537C"/><stop offset=".511" stop-color="#075A85"/><stop offset=".702" stop-color="#106595"/><stop offset=".879" stop-color="#1D75AC"/><stop offset="1" stop-color="#2883C0"/></linearGradient><linearGradient id="paint8_linear" x1="1531.45" y1="322.977" x2="1393.18" y2="248.628" gradientUnits="userSpaceOnUse"><stop stop-color="#005179"/><stop offset=".294" stop-color="#02537C"/><stop offset=".511" stop-color="#075A85"/><stop offset=".702" stop-color="#106595"/><stop offset=".879" stop-color="#1D75AC"/><stop offset="1" stop-color="#2883C0"/></linearGradient><linearGradient id="paint9_linear" x1="1531.67" y1="325.882" x2="1390.96" y2="250.216" gradientUnits="userSpaceOnUse"><stop stop-color="#005179"/><stop offset=".294" stop-color="#02537C"/><stop offset=".511" stop-color="#075A85"/><stop offset=".702" stop-color="#106595"/><stop offset=".879" stop-color="#1D75AC"/><stop offset="1" stop-color="#2883C0"/></linearGradient><linearGradient id="paint10_linear" x1="1773.76" y1="382.714" x2="1634.55" y2="307.854" gradientUnits="userSpaceOnUse"><stop stop-color="#005179"/><stop offset=".294" stop-color="#02537C"/><stop offset=".511" stop-color="#075A85"/><stop offset=".702" stop-color="#106595"/><stop offset=".879" stop-color="#1D75AC"/><stop offset="1" stop-color="#2883C0"/></linearGradient><linearGradient id="paint11_linear" x1="1775.15" y1="380.33" x2="1635.78" y2="305.392" gradientUnits="userSpaceOnUse"><stop stop-color="#005179"/><stop offset=".294" stop-color="#02537C"/><stop offset=".511" stop-color="#075A85"/><stop offset=".702" stop-color="#106595"/><stop offset=".879" stop-color="#1D75AC"/><stop offset="1" stop-color="#2883C0"/></linearGradient><linearGradient id="paint12_linear" x1="1774.09" y1="382.531" x2="1634.56" y2="307.497" gradientUnits="userSpaceOnUse"><stop stop-color="#005179"/><stop offset=".294" stop-color="#02537C"/><stop offset=".511" stop-color="#075A85"/><stop offset=".702" stop-color="#106595"/><stop offset=".879" stop-color="#1D75AC"/><stop offset="1" stop-color="#2883C0"/></linearGradient><linearGradient id="paint13_linear" x1="1696.51" y1="435.396" x2="1557.39" y2="360.591" gradientUnits="userSpaceOnUse"><stop stop-color="#005179"/><stop offset=".294" stop-color="#02537C"/><stop offset=".511" stop-color="#075A85"/><stop offset=".702" stop-color="#106595"/><stop offset=".879" stop-color="#1D75AC"/><stop offset="1" stop-color="#2883C0"/></linearGradient><linearGradient id="paint14_linear" x1="1698.13" y1="433.119" x2="1558.47" y2="358.016" gradientUnits="userSpaceOnUse"><stop stop-color="#005179"/><stop offset=".294" stop-color="#02537C"/><stop offset=".511" stop-color="#075A85"/><stop offset=".702" stop-color="#106595"/><stop offset=".879" stop-color="#1D75AC"/><stop offset="1" stop-color="#2883C0"/></linearGradient><linearGradient id="paint15_linear" x1="1697.43" y1="435.538" x2="1556.9" y2="359.977" gradientUnits="userSpaceOnUse"><stop stop-color="#005179"/><stop offset=".294" stop-color="#02537C"/><stop offset=".511" stop-color="#075A85"/><stop offset=".702" stop-color="#106595"/><stop offset=".879" stop-color="#1D75AC"/><stop offset="1" stop-color="#2883C0"/></linearGradient><linearGradient id="paint16_linear" x1="1704.45" y1="381.394" x2="1565.27" y2="306.553" gradientUnits="userSpaceOnUse"><stop stop-color="#005179"/><stop offset=".294" stop-color="#02537C"/><stop offset=".511" stop-color="#075A85"/><stop offset=".702" stop-color="#106595"/><stop offset=".879" stop-color="#1D75AC"/><stop offset="1" stop-color="#2883C0"/></linearGradient><linearGradient id="paint17_linear" x1="1706.39" y1="379.313" x2="1566.08" y2="303.859" gradientUnits="userSpaceOnUse"><stop stop-color="#005179"/><stop offset=".294" stop-color="#02537C"/><stop offset=".511" stop-color="#075A85"/><stop offset=".702" stop-color="#106595"/><stop offset=".879" stop-color="#1D75AC"/><stop offset="1" stop-color="#2883C0"/></linearGradient><linearGradient id="paint18_linear" x1="1702.57" y1="380.218" x2="1566.86" y2="307.239" gradientUnits="userSpaceOnUse"><stop stop-color="#005179"/><stop offset=".294" stop-color="#02537C"/><stop offset=".511" stop-color="#075A85"/><stop offset=".702" stop-color="#106595"/><stop offset=".879" stop-color="#1D75AC"/><stop offset="1" stop-color="#2883C0"/></linearGradient><linearGradient id="paint19_linear" x1="1670.38" y1="326.442" x2="1531.21" y2="251.608" gradientUnits="userSpaceOnUse"><stop stop-color="#005179"/><stop offset=".294" stop-color="#02537C"/><stop offset=".511" stop-color="#075A85"/><stop offset=".702" stop-color="#106595"/><stop offset=".879" stop-color="#1D75AC"/><stop offset="1" stop-color="#2883C0"/></linearGradient><linearGradient id="paint20_linear" x1="1672.06" y1="324.229" x2="1532.2" y2="249.028" gradientUnits="userSpaceOnUse"><stop stop-color="#005179"/><stop offset=".294" stop-color="#02537C"/><stop offset=".511" stop-color="#075A85"/><stop offset=".702" stop-color="#106595"/><stop offset=".879" stop-color="#1D75AC"/><stop offset="1" stop-color="#2883C0"/></linearGradient><linearGradient id="paint21_linear" x1="1670.17" y1="325.992" x2="1531.58" y2="251.476" gradientUnits="userSpaceOnUse"><stop stop-color="#005179"/><stop offset=".294" stop-color="#02537C"/><stop offset=".511" stop-color="#075A85"/><stop offset=".702" stop-color="#106595"/><stop offset=".879" stop-color="#1D75AC"/><stop offset="1" stop-color="#2883C0"/></linearGradient><linearGradient id="paint22_linear" x1="1630.66" y1="438.088" x2="1484.72" y2="377.447" gradientUnits="userSpaceOnUse"><stop stop-color="#005179"/><stop offset=".294" stop-color="#02537C"/><stop offset=".511" stop-color="#075A85"/><stop offset=".702" stop-color="#106595"/><stop offset=".879" stop-color="#1D75AC"/><stop offset="1" stop-color="#2883C0"/></linearGradient><linearGradient id="paint23_linear" x1="1631.8" y1="435.57" x2="1485.71" y2="374.869" gradientUnits="userSpaceOnUse"><stop stop-color="#005179"/><stop offset=".294" stop-color="#02537C"/><stop offset=".511" stop-color="#075A85"/><stop offset=".702" stop-color="#106595"/><stop offset=".879" stop-color="#1D75AC"/><stop offset="1" stop-color="#2883C0"/></linearGradient><linearGradient id="paint24_linear" x1="1611.15" y1="429.64" x2="1500.45" y2="383.65" gradientUnits="userSpaceOnUse"><stop stop-color="#005179"/><stop offset=".294" stop-color="#02537C"/><stop offset=".511" stop-color="#075A85"/><stop offset=".702" stop-color="#106595"/><stop offset=".879" stop-color="#1D75AC"/><stop offset="1" stop-color="#2883C0"/></linearGradient><linearGradient id="paint25_linear" x1="1631.02" y1="381.341" x2="1485.07" y2="320.699" gradientUnits="userSpaceOnUse"><stop stop-color="#005179"/><stop offset=".294" stop-color="#02537C"/><stop offset=".511" stop-color="#075A85"/><stop offset=".702" stop-color="#106595"/><stop offset=".879" stop-color="#1D75AC"/><stop offset="1" stop-color="#2883C0"/></linearGradient><linearGradient id="paint26_linear" x1="1631.52" y1="378.562" x2="1486.54" y2="318.324" gradientUnits="userSpaceOnUse"><stop stop-color="#005179"/><stop offset=".294" stop-color="#02537C"/><stop offset=".511" stop-color="#075A85"/><stop offset=".702" stop-color="#106595"/><stop offset=".879" stop-color="#1D75AC"/><stop offset="1" stop-color="#2883C0"/></linearGradient><linearGradient id="paint27_linear" x1="1631.16" y1="381.245" x2="1485.05" y2="320.535" gradientUnits="userSpaceOnUse"><stop stop-color="#005179"/><stop offset=".294" stop-color="#02537C"/><stop offset=".511" stop-color="#075A85"/><stop offset=".702" stop-color="#106595"/><stop offset=".879" stop-color="#1D75AC"/><stop offset="1" stop-color="#2883C0"/></linearGradient><linearGradient id="paint28_linear" x1="1595.67" y1="311.299" x2="1449.75" y2="250.666" gradientUnits="userSpaceOnUse"><stop stop-color="#005179"/><stop offset=".294" stop-color="#02537C"/><stop offset=".511" stop-color="#075A85"/><stop offset=".702" stop-color="#106595"/><stop offset=".879" stop-color="#1D75AC"/><stop offset="1" stop-color="#2883C0"/></linearGradient><linearGradient id="paint29_linear" x1="1596.28" y1="308.571" x2="1451.12" y2="248.257" gradientUnits="userSpaceOnUse"><stop stop-color="#005179"/><stop offset=".294" stop-color="#02537C"/><stop offset=".511" stop-color="#075A85"/><stop offset=".702" stop-color="#106595"/><stop offset=".879" stop-color="#1D75AC"/><stop offset="1" stop-color="#2883C0"/></linearGradient><linearGradient id="paint30_linear" x1="1596.47" y1="311.117" x2="1449.43" y2="250.014" gradientUnits="userSpaceOnUse"><stop stop-color="#005179"/><stop offset=".294" stop-color="#02537C"/><stop offset=".511" stop-color="#075A85"/><stop offset=".702" stop-color="#106595"/><stop offset=".879" stop-color="#1D75AC"/><stop offset="1" stop-color="#2883C0"/></linearGradient><linearGradient id="paint31_linear" x1="1558.53" y1="400.377" x2="1412.63" y2="339.757" gradientUnits="userSpaceOnUse"><stop stop-color="#005179"/><stop offset=".294" stop-color="#02537C"/><stop offset=".511" stop-color="#075A85"/><stop offset=".702" stop-color="#106595"/><stop offset=".879" stop-color="#1D75AC"/><stop offset="1" stop-color="#2883C0"/></linearGradient><linearGradient id="paint32_linear" x1="1559.59" y1="397.828" x2="1413.69" y2="337.204" gradientUnits="userSpaceOnUse"><stop stop-color="#005179"/><stop offset=".294" stop-color="#02537C"/><stop offset=".511" stop-color="#075A85"/><stop offset=".702" stop-color="#106595"/><stop offset=".879" stop-color="#1D75AC"/><stop offset="1" stop-color="#2883C0"/></linearGradient><linearGradient id="paint33_linear" x1="1559.53" y1="400.447" x2="1412.09" y2="339.181" gradientUnits="userSpaceOnUse"><stop stop-color="#005179"/><stop offset=".294" stop-color="#02537C"/><stop offset=".511" stop-color="#075A85"/><stop offset=".702" stop-color="#106595"/><stop offset=".879" stop-color="#1D75AC"/><stop offset="1" stop-color="#2883C0"/></linearGradient><linearGradient id="paint34_linear" x1="1536.19" y1="481.507" x2="1305.48" y2="903.326" gradientUnits="userSpaceOnUse"><stop stop-color="#2883C0"/><stop offset="1" stop-color="#005179"/></linearGradient><linearGradient id="paint35_linear" x1="1546.88" y1="487.347" x2="1316.17" y2="909.179" gradientUnits="userSpaceOnUse"><stop stop-color="#2883C0"/><stop offset="1" stop-color="#005179"/></linearGradient><linearGradient id="paint36_linear" x1="1548.19" y1="488.085" x2="1317.49" y2="909.897" gradientUnits="userSpaceOnUse"><stop stop-color="#2883C0"/><stop offset="1" stop-color="#005179"/></linearGradient><linearGradient id="paint37_linear" x1="1670.15" y1="386.098" x2="1439.53" y2="807.764" gradientUnits="userSpaceOnUse"><stop stop-color="#2883C0"/><stop offset="1" stop-color="#005179"/></linearGradient><linearGradient id="paint38_linear" x1="1680.29" y1="392.928" x2="1450.29" y2="813.469" gradientUnits="userSpaceOnUse"><stop stop-color="#2883C0"/><stop offset="1" stop-color="#005179"/></linearGradient><linearGradient id="paint39_linear" x1="1681.26" y1="394.316" x2="1451.67" y2="814.102" gradientUnits="userSpaceOnUse"><stop stop-color="#2883C0"/><stop offset="1" stop-color="#005179"/></linearGradient><linearGradient id="paint40_linear" x1="1760.56" y1="428.932" x2="1529.9" y2="850.658" gradientUnits="userSpaceOnUse"><stop stop-color="#2883C0"/><stop offset="1" stop-color="#005179"/></linearGradient><linearGradient id="paint41_linear" x1="1772.38" y1="432.692" x2="1540.4" y2="856.815" gradientUnits="userSpaceOnUse"><stop stop-color="#2883C0"/><stop offset="1" stop-color="#005179"/></linearGradient><linearGradient id="paint42_linear" x1="1772.51" y1="435.592" x2="1541.91" y2="857.212" gradientUnits="userSpaceOnUse"><stop stop-color="#2883C0"/><stop offset="1" stop-color="#005179"/></linearGradient><linearGradient id="paint43_linear" x1="1777.32" y1="321.252" x2="1546.58" y2="743.123" gradientUnits="userSpaceOnUse"><stop stop-color="#2883C0"/><stop offset="1" stop-color="#005179"/></linearGradient><linearGradient id="paint44_linear" x1="1788.1" y1="326.914" x2="1557.24" y2="749.027" gradientUnits="userSpaceOnUse"><stop stop-color="#2883C0"/><stop offset="1" stop-color="#005179"/></linearGradient><linearGradient id="paint45_linear" x1="1789.24" y1="327.963" x2="1558.6" y2="749.657" gradientUnits="userSpaceOnUse"><stop stop-color="#2883C0"/><stop offset="1" stop-color="#005179"/></linearGradient><linearGradient id="paint46_linear" x1="210.539" y1="345.505" x2="106.198" y2="750.695" gradientUnits="userSpaceOnUse"><stop stop-color="#2883C0"/><stop offset=".186" stop-color="#186FA4"/><stop offset=".426" stop-color="#075985"/><stop offset=".56" stop-color="#005179"/></linearGradient><linearGradient id="paint47_linear" x1="1845.28" y1="355.428" x2="1646.14" y2="719.502" gradientUnits="userSpaceOnUse"><stop stop-color="#2883C0"/><stop offset="1" stop-color="#005179"/></linearGradient><linearGradient id="paint48_linear" x1="1836.5" y1="350.983" x2="1637.59" y2="714.662" gradientUnits="userSpaceOnUse"><stop stop-color="#2883C0"/><stop offset="1" stop-color="#005179"/></linearGradient><linearGradient id="paint49_linear" x1="1848.76" y1="357.091" x2="1649.49" y2="721.426" gradientUnits="userSpaceOnUse"><stop stop-color="#2883C0"/><stop offset="1" stop-color="#005179"/></linearGradient><linearGradient id="paint50_linear" x1="1851.8" y1="358.333" x2="1652.28" y2="723.12" gradientUnits="userSpaceOnUse"><stop stop-color="#2883C0"/><stop offset="1" stop-color="#005179"/></linearGradient><linearGradient id="paint51_linear" x1="1842.04" y1="360.35" x2="1647.05" y2="716.864" gradientUnits="userSpaceOnUse"><stop stop-color="#2883C0"/><stop offset="1" stop-color="#005179"/></linearGradient><linearGradient id="paint52_linear" x1="1866.33" y1="401.524" x2="1667.36" y2="765.312" gradientUnits="userSpaceOnUse"><stop stop-color="#2883C0"/><stop offset="1" stop-color="#005179"/></linearGradient><linearGradient id="paint53_linear" x1="1867.02" y1="402.046" x2="1668.2" y2="765.57" gradientUnits="userSpaceOnUse"><stop stop-color="#2883C0"/><stop offset="1" stop-color="#005179"/></linearGradient><linearGradient id="paint54_linear" x1="1869.33" y1="402.752" x2="1669.94" y2="767.278" gradientUnits="userSpaceOnUse"><stop stop-color="#2883C0"/><stop offset="1" stop-color="#005179"/></linearGradient><linearGradient id="paint55_linear" x1="1772.64" y1="357.482" x2="1637.59" y2="749.343" gradientUnits="userSpaceOnUse"><stop stop-color="#2883C0"/><stop offset="1" stop-color="#005179"/></linearGradient><linearGradient id="paint56_linear" x1="1770.29" y1="355.823" x2="1634.44" y2="749.988" gradientUnits="userSpaceOnUse"><stop stop-color="#2883C0"/><stop offset="1" stop-color="#005179"/></linearGradient><linearGradient id="paint57_linear" x1="1772.85" y1="357.387" x2="1637.64" y2="749.661" gradientUnits="userSpaceOnUse"><stop stop-color="#2883C0"/><stop offset="1" stop-color="#005179"/></linearGradient><clipPath id="clip0"><path fill="#fff" d="M0 0h1900v928H0z"/></clipPath></defs></svg>