<svg width="26" height="25" viewBox="0 0 26 25" xmlns="http://www.w3.org/2000/svg">
<path d="M13.2271 0C6.32373 0 0.727051 5.59642 0.727051 12.5C0.727051 19.4036 6.32373 25 13.2271 25C20.1304 25 25.7271 19.4036 25.7271 12.5C25.7271 5.59642 20.1304 0 13.2271 0ZM19.5677 13.8519C20.1503 14.421 20.7667 14.9565 21.2897 15.5844C21.5214 15.8621 21.7398 16.1494 21.9061 16.4724C22.1434 16.933 21.9291 17.4381 21.5168 17.4655L18.956 17.465C18.2946 17.5197 17.7682 17.2529 17.3245 16.8008C16.9703 16.4404 16.6416 16.0555 16.3005 15.6829C16.1611 15.5299 16.0143 15.3859 15.8393 15.2726C15.4902 15.0455 15.1869 15.1151 14.9869 15.4798C14.7831 15.8509 14.7365 16.2621 14.7171 16.6752C14.6892 17.279 14.5071 17.4368 13.9012 17.4652C12.6066 17.5258 11.3782 17.3294 10.2365 16.6767C9.22935 16.101 8.44981 15.2885 7.77053 14.3685C6.44777 12.5752 5.43472 10.6069 4.52449 8.5821C4.31963 8.12609 4.46951 7.8821 4.97258 7.87263C5.80838 7.85652 6.64419 7.85857 7.47999 7.87187C7.82015 7.87724 8.04521 8.07187 8.1759 8.39284C8.62756 9.50409 9.18127 10.5614 9.87513 11.5419C10.06 11.8031 10.2488 12.0634 10.5176 12.2478C10.8143 12.4514 11.0403 12.3841 11.1802 12.0529C11.2698 11.8425 11.3084 11.6174 11.3278 11.3918C11.3943 10.6192 11.4022 9.8468 11.2872 9.07724C11.2155 8.59565 10.9447 8.28465 10.4646 8.19361C10.2201 8.14731 10.256 8.05678 10.3749 7.91714C10.5813 7.6757 10.7746 7.52634 11.1611 7.52634L14.0544 7.52583C14.5104 7.61535 14.6127 7.81995 14.6746 8.27928L14.6772 11.4946C14.6718 11.6724 14.7664 12.1992 15.0856 12.3156C15.3414 12.4 15.5102 12.1949 15.6631 12.033C16.357 11.2967 16.8513 10.4276 17.2941 9.52813C17.4895 9.13146 17.658 8.72097 17.8217 8.30972C17.9434 8.00563 18.1327 7.85601 18.4759 7.86112L21.2621 7.86445C21.3442 7.86445 21.4276 7.86522 21.5089 7.87928C21.9785 7.95959 22.1071 8.16164 21.9618 8.61969C21.7332 9.33939 21.2889 9.93887 20.8547 10.5399C20.3892 11.1834 19.8928 11.8043 19.4319 12.4506C19.0084 13.0414 19.0419 13.3389 19.5677 13.8519Z" />
</svg>
