<svg viewBox="0 0 847 102" fill="none" xmlns="http://www.w3.org/2000/svg"><path d="M41.445 100V76.5M76.426 100V76.5M111.406 100V76.5M181.367 100V76.5M216.348 100V76.5M251.328 100V76.5M321.293 100V76.5M286.309 78v22M356.273 100V76.5M391.254 100V76.5" stroke="#2C60AE" stroke-width="2" stroke-linecap="round"/><path d="M461.215 100V76.5" stroke="#2C60AE" stroke-linecap="round"/><path d="M601.137 100V76.5M741.059 100V76.5" stroke="#9DCAFF" stroke-width="2" stroke-linecap="round"/><path d="M426 100V60" stroke="#2C60AE" stroke-width="2" stroke-linecap="round"/><path d="M706 100V35M846 100V20" stroke="#9DCAFF" stroke-width="2" stroke-linecap="round"/><path d="M496.195 100V76.5" stroke="#2C60AE" stroke-linecap="round"/><path d="M636.117 100V76.5M776.039 100V76.5" stroke="#9DCAFF" stroke-width="2" stroke-linecap="round"/><path d="M531.176 100V76.5" stroke="#2C60AE" stroke-linecap="round"/><path d="M671.098 100V76.5M811.02 100V76.5" stroke="#9DCAFF" stroke-width="2" stroke-linecap="round"/><path d="M146.387 65v35M1 65v35" stroke="#2C60AE" stroke-width="2" stroke-linecap="round"/><path fill="#2C60AE" d="M1 90v-1h565.155v1z"/><path fill="#9DCAFF" d="M566.156 90v-1H846v1z"/><path d="M566 100V50" stroke="#2C60AE" stroke-width="3" stroke-linecap="round"/><g clip-path="url(#clip0)" fill="#2C60AE"><path d="M581.375 13.246s3.477-.364 3.981-1.14c.686-1.003-.687-2.143.823-4.833.778 1.277 2.334 2.462 3.386 2.964-.32 1.687-.595 3.146 1.647 4.058-.686.867-1.693.091-1.693.091l-2.608 2.736s-5.17 6.43-5.261 4.97c-.092-1.823-.275-8.846-.275-8.846zM586.684 6.452c.137-.182.32-.365.457-.547 1.968-2.143 7.092-.73 7.092 2.645 0 .228-.046.501-.091.73-2.929-1.551-3.981-1.14-4.393-.183-.64-.32-2.15-1.14-3.065-2.645z"/><path d="M568.705 18.445v.045c.366.867 1.419 2.235 3.02 3.42 1.327.958 3.432 2.098 6.085 2.098.778 0-1.418-3.74-.778-3.785 1.602-.137 2.059-3.329 7.092-.091-1.738 1.231-3.934 4.286-5.307 5.335-4.347 3.238-8.602 4.88-8.602 4.88s-7.595-7.57-5.445-9.12c.778-.548 2.929-2.235 3.935-2.782zM583.023 12.745a21.962 21.962 0 012.288.045s1.144-.638 2.608 1.916c-1.464-.548-1.784.456-1.784.456-.229.045-.412.182-.641.319-.229-.547-2.059-.183-2.288-.547-.366-.502.183-1.824-.183-2.19zM587.051 16.986l-.137.136c.137-.227.183-.227.137-.136zM583.344 16.575h.091c.229.547.366 1.186.321 1.733-.275-.502-.412-1.094-.412-1.733z"/><path d="M581.925 20.634c.961.364 1.922.775 2.745 1.14-.32.319-.686.547-1.143.775-.916-.593-1.739-1.14-2.425-1.596.32-.091.594-.228.823-.32zM570.303 17.806c.32.32 1.144 1.14 2.379 1.961 1.419.912 3.615 1.961 5.994 1.733.137 0 .275-.046.412-.046.549-.09 1.052-.182 1.464-.319.412.32-3.569-2.189-3.066-1.824.321.183 4.622 3.603 5.033 3.876-.869.365-1.418.228-2.608.32a28.63 28.63 0 01-2.104.09c-2.563 0-4.576-1.094-5.857-2.006-1.464-1.049-2.425-2.28-2.837-3.055l1.19-.73zM585.128 16.62a26.874 26.874 0 00-2.608-1.686c-.046-.046-.092-.137-.137-.183a11.94 11.94 0 00-1.602-1.687c.87-.182 1.647-.32 2.242-.365.275.183.824.73 1.419 1.642.274.41.503.866.686 1.322.183.41.366.867.457 1.277-.137-.046-.274-.182-.457-.32zM585.725 19.995c-.138.456-.321.912-.641 1.277-.824-.41-1.647-.73-2.471-1.094.687-.502 1.053-1.14 1.144-1.87.046-.593-.091-1.186-.32-1.733a2.544 2.544 0 00-.412-.775 19.532 19.532 0 012.7 2.098c.045.182.045.319.045.501.138.547.092 1.095-.045 1.596zM579.73 19.813c.504.137 1.053.364 1.648.593a2.651 2.651 0 01-.641.228 7.543 7.543 0 01-1.007-.821z"/><path d="M578.905 16.074c-.366.045.641.73.366.912-.32.182.275.137.046.456-.183.273 2.013-.091 1.922.182-.046.274-.183-.41-.137-.137.091.593-1.373 1.004-2.242 1.46-.275.136-.275.364-.275.364.183.183 1.739 1.596 2.059 1.87-.366.091-1.235 3.283-1.601 3.374-.138 0-7.413.639-7.55.684-2.242.228-.457-1.459-1.83-2.325-1.464-.958-2.517-3.147-.915-4.332l1.784-1.049c4.164-2.326 7.641-3.785 10.295-4.286.046.045 4.484.182 5.765 1.55-1.464-.73-7.183 1.186-7.687 1.277zM592.436 13.252l-.913.83.247.27.913-.83-.247-.27zM591.809 14.614c-.091.091-.137.274 0 .365l.549.593c.229.228.732.091 1.19-.274l-1.144-1.23-.595.546z"/><path d="M592.815 13.885l-.686.593-.641-.684c.321-.274.549-.456.687-.593l.64.684z"/><path d="M593 13.566c.091-.091.274-.091.366 0l.549.592c.229.229.046.73-.412 1.14l-1.144-1.23.641-.502zM590.484 10.328s-.138 0-.412-.182c-.137-.092-.046-.639.091-.821.183-.32.778-.183.641-.091-.366.228-.32 1.094-.32 1.094z"/><path d="M593.867 15.8h.137c.595.046 1.19-.137 1.51-.547.366-.41.504-.912.366-1.414-.274-.957-1.235-1.641-1.738-1.87l-1.876.32c1.418.32 2.47 1.322 2.562 1.778.046.137.046.274-.137.502-.092.137-.321.182-.595.182-.183 0-.549-.09-.824-.547l-.961.502c.366.593.915 1.003 1.556 1.094zM586.684 6.452s-.228.137-.549.82c-.32.685 1.739 3.284 1.831 3.33.091.045 1.921-2.143 1.921-2.189.046-.137-3.203-1.96-3.203-1.96zM573.461 17.898c.183-.046 10.249-4.423 10.387-4.423 0 .273 2.836.73 3.431 2.781 1.098 3.876-8.19 5.837-12.674 5.062-.595.638-1.144 1.55-5.765 4.377-1.373.867-3.157 2.828-3.66 3.284l-.961-2.098c.595-.684 2.928-3.238 3.706-4.195 1.922-2.371 4.713-4.287 5.536-4.788z"/><path d="M574.511 21.318c-2.608 4.15-7.184 4.97-9.38 7.934-.229.32.046 1.095-.091 1.505-.138.365-.824 1.413-.824 1.915 0 .228.046.502 0 .73-.046.182-.32.228-.458.136-.183-.136-.549-.638-.228-1.504.32-.775 0-.867-.275-.456-.732 1.14-1.464 2.37-1.83 2.736-.229.228-.732-.183-.549-.456.549-.958 1.373-2.098 1.281-2.235-.091-.137-.503.365-1.51 1.55-.137.137-.549.64-.64.73 0 0-.275.046-.458-.09-.183-.183-.137-.411-.137-.411.137-.137.595-.73.778-.958.732-.866 1.235-1.368 1.143-1.46-.091-.09-.274.138-.411.229a31.07 31.07 0 00-1.419 1.14c-.823.684-1.006.228-.915-.183 0 0 .092-.136 1.327-1.14.641-.547.961-.684.915-.82-.091-.137-.64.228-.732.273-.732.365-1.51.547-1.739.274 0 0 .366-.365 1.922-1.231 1.418-.776 1.601-1.87 2.745-2.007.321-.045 5.079-5.152 5.079-5.152.549-.639 6.543-1.277 6.406-1.05z"/><path d="M560.878 29.206c.183-.09.411-.045.503.137.091.183.046.41-.137.502l-2.425 1.505c-.183.09-.412.045-.504-.137-.091-.183-.045-.41.138-.502l2.425-1.505zM562.525 31.532c.091-.182.32-.228.503-.091.183.091.229.32.092.502l-1.602 2.37c-.091.183-.32.229-.503.092-.183-.091-.229-.32-.091-.502l1.601-2.37zM560.921 30.392c.138-.137.366-.091.504.046.137.137.091.365-.046.501l-2.242 1.779c-.137.137-.366.091-.503-.046-.138-.137-.092-.365.045-.501l2.242-1.779zM561.38 31.259c.137-.137.366-.137.549 0 .183.136.183.364.046.547l-1.876 2.143c-.137.137-.366.137-.549 0-.183-.137-.183-.365-.046-.547l1.876-2.143z"/><path d="M552.78 40.196c2.653-7.068 5.582-7.615 6.039-8.938.366-1.094.092-2.097 1.876-4.286 1.647-2.052 6.177-4.013 6.177-4.013l3.432 7.433c-5.72 6.338-13.04 11.4-15.969 12.631 0 0-.457-.684-.549-.638l-1.235-1.915c.091-.046.183-.183.229-.274z"/><path d="M540.515 37.825c9.746-1.231 12.72 2.052 14.139 2.097l-.321 3.147c-3.111-.41-13.36-3.1-13.36-3.1-.915-.822-.915-2.099-.458-2.144z"/><path d="M541.524 37.688s-1.372-.091-1.921-1.14c-.366-.73-2.059.41-2.334.639-8.007 6.611-15.739 5.29-16.06 5.517-.32.228-1.693 3.785-.823 6.977.183.638 7.641 1.231 16.243-8.071 1.693-1.824 5.948-1.186 5.948-1.186l-1.053-2.736zM549.989 34.177c4.164-4.788 8.785-5.335 9.609-6.475.686-.912 1.144-2.69 3.431-4.15 2.242-1.413 8.374-2.097 8.374-2.097l.091 6.338c-8.648 5.791-18.073 8.8-20.635 9.576-.092.046-.183.046-.275.091l-.869-3.01c.091-.09.183-.136.274-.273z"/><path d="M538.963 28.431c9.7 1.596 11.575 5.61 12.948 6.065l-1.327 3.01c-2.882-1.277-11.759-6.84-11.759-6.84-.686-1.095-.32-2.326.138-2.235z"/><path d="M539.923 28.614s-1.235-.091-1.51-1.642c-.274-1.368-4.301.32-4.621.41-11.576 2.964-14.047 1.004-14.413 1.14-.32.046-2.287 1.825-2.379 5.108 0 .684 11.805.82 17.158-2.69 2.059-1.369 6.04.592 6.04.592l-.275-2.918zM586.868 17.761s-2.745 7.889-10.706 10.716c-8.282 2.918-14.779 5.107-14.779 5.107l25.485-15.823zM592.723 8.14s.503.182 1.052.364c-.412-.502-1.007-.638-1.693-.502.229 0 .412.046.641.137zM591.395 11.696c-.183-.046-.366-.182-.503-.274-.183-.09-.32-.228-.457-.365-.138-.136-.275-.319-.321-.456-.091-.228-.32-.82-.046-1.732 0-.046.046-.091.092-.137-2.013 1.049-4.026 2.827-4.118 2.964-.137.274 1.785 3.42 4.21 3.466 1.189 0 2.15-1.369 2.791-2.828-.504-.136-1.053-.319-1.099-.319-.137 0-.366-.228-.549-.32zM590.388 8.55a.96.96 0 00-.275.182c.687-.365 1.373-.639 1.968-.73-.87-.091-1.373.41-1.693.547zM595.191 9.006c-.092-.046-.778-.274-1.373-.502.137.182.275.456.366.73 0 0-.046.09-.091.273.183.091.32.183.366.274.137.364-.549 2.097-.87 2.234 0 0-.137-.046-.32-.091-.046.137-.092.274-.183.365.366.09.686.182.732.182 1.144-.775 1.464-3.42 1.373-3.465z"/><path d="M591.212 10.92c-.229-.546.229-2.006 1.098-1.915.549.046 1.327.32 1.785.548.045-.183.091-.274.091-.274-.091-.32-.183-.547-.366-.73-.549-.182-1.052-.364-1.052-.364a1.621 1.621 0 00-.641-.137c-.595.091-1.281.365-1.967.73-.046.045-.046.09-.092.136-.274.912-.045 1.505.046 1.733.046.137.183.32.32.456.138.137.275.274.458.365.183.091.366.182.503.274.183.09.412.319.549.319.046 0 .641.182 1.098.319.046-.137.138-.274.183-.365-.594-.274-1.83-.73-2.013-1.094zM568.794 20.542l-3.157 2.052c-.915.593-2.379-.045-3.248-1.459-.87-1.368-.87-2.964.045-3.557l3.615-2.325c.091.684 1.281.73 1.967 1.732.641 1.095.183 3.147.778 3.557z"/><path d="M566.369 15.07l7.046-4.514c.092.684 1.51 1.14 2.196 2.189.687 1.049 1.007 2.097 1.602 2.462l-7.595 4.88c.045.41 0 .729-.183.866-.138.09-.275.09-.458 0-.046 0-.046 0-.092-.046h-.045c-.641-.273-1.51-1.186-2.288-2.417-.091-.136-.183-.319-.275-.456l-.274-.547c-.046-.137-.137-.228-.183-.365 0-.045 0-.045-.046-.09-.457-1.095-.595-1.962-.229-2.19.183-.09.458 0 .824.228zM582.109 10.191c-.458.274-.549.867-.275 1.277.275.456.869.547 1.281.274.458-.274.549-.867.275-1.277-.275-.456-.87-.547-1.281-.274zm.64.228h-.091l.045-.228h.092l-.046.228zm.366.274l-.046-.046.184-.136.045.045-.183.137zm-.229.775l.046-.046.137.183-.045.045-.138-.182zm-.411.046h.091l-.046.228h-.091l.046-.228zm-.366-.274l.045.046-.183.136-.045-.045.183-.137zm.411-.456c.092-.046.229-.046.275.046 0 .045.046.09.046.09l.595.138v.09l-.595-.136c0 .046-.046.046-.092.091-.091.046-.229.046-.274-.045-.092-.091-.046-.183.045-.274zm-.686-.046l.229.046v.091l-.229-.045v-.091zm.366-.455l.137.182-.045.046-.138-.183.046-.045z"/><path d="M579.913 5.54c-.504.32-.87.547-1.373.866-.137.137-.183.32-.092.41.412.457.778.913 1.19 1.323a.221.221 0 00.32 0c.046-.045.092-.045.092-.091l.549.866-.366.228-.275-.41-.961.638a3.025 3.025 0 00-3.523-.182l-1.555 1.003c-.366-.228-.687-.32-.87-.182l-.137.136c-.091.183-.137.41-.046.73.092.639.504 1.596 1.098 2.554.046.045.092.136.138.182.594.912 1.235 1.642 1.784 2.098.092.045.137.136.229.182.091.046.137.091.183.137.183.091.32.137.457.137h.046c.046 0 .137-.046.183-.046.183-.137.275-.456.183-.866l1.556-1.004c1.098-.73 1.601-2.052 1.281-3.283l.961-.638-.275-.41.366-.228.275.41.046.091c-.275.456-.321 1.049 0 1.505.32.456.869.684 1.372.638l2.517 2.417 1.144-.137-2.837-2.69a1.377 1.377 0 00.183-1.733c-.366-.547-1.052-.775-1.647-.547v-.046l-.275-.41.32-.182a.65.65 0 00.275-.092c.229-.136.32-.456.137-.684-.137-.228-.457-.319-.686-.136-.092.045-.137.136-.183.228l-.32.182-.549-.866c.045 0 .091-.046.091-.092.183-.09.183-.182.137-.319-.228-.547-.503-1.094-.732-1.641-.045-.092-.228-.137-.411-.046zm2.104 4.514c.504-.319 1.19-.182 1.51.32.32.501.183 1.185-.32 1.504-.503.32-1.19.183-1.51-.319-.32-.502-.183-1.185.32-1.505z"/><path d="M574.283 18.992l.733-.73c-3.203-.912-6.589-4.012-7.047-7.204-.686-4.606 2.608-8.938 7.413-9.668 2.745-.41 4.941 1.05 5.902 2.69.915 1.551.824 3.284-.275 4.698l.687.547c.32-.456.595-.912.778-1.414.183-.456.274-.957.274-1.459.046-.958-.229-1.915-.732-2.782-.595-1.048-1.601-1.96-2.745-2.508a6.794 6.794 0 00-4.027-.592 10.067 10.067 0 00-3.614 1.276 10.666 10.666 0 00-2.746 2.417 9.333 9.333 0 00-1.601 3.238c-.32 1.231-.412 2.462-.229 3.693a8.895 8.895 0 002.288 4.743c1.235 1.322 3.249 2.553 4.941 3.055z"/><path d="M583.985 10.693c1.053-.775 1.647-1.55 1.693-2.417a2.055 2.055 0 00-.595-1.596c-.366-.365-.96-.502-1.51-.41-.503.09-1.464.501-2.104 2.097l1.052.41c.32-.82.778-1.322 1.281-1.413.229-.046.412 0 .504.091.091.091.32.365.274.73-.046.501-.457 1.049-1.235 1.596l.64.912z"/><path d="M581.378 11.103c.046.684.686 1.186 1.373 1.095.686-.046 1.189-.684 1.098-1.369-.046-.684-.687-1.185-1.373-1.094-.686.046-1.19.684-1.098 1.368zM594.37 9.325s.412-3.192-3.157-4.423c-2.242-.776-7.183.684-5.673 6.292 1.555 5.837.64-5.061 8.83-1.87zM579.179 31.851c.046.092.046.183.091.274.595.137 1.007.547 1.098 1.049.092.456-.045.912-.411 1.277.045.136.091.228.091.273v.046c0 .045 0 .091.046.091a1.569 1.569 0 01-1.235 1.87 1.574 1.574 0 01-1.876-1.232v-.182c-.046-.32-.229-1.733-.412-3.01a1.414 1.414 0 01.549-1.368l.961-.228c.549.183.961.639 1.098 1.14z"/><path d="M578.175 22.914c.183-.137.366-.228.595-.32l.32.821a1.372 1.372 0 00-.366.183c-1.144.866-1.419 3.1-.595 7.524l-1.007.045c-.777-4.56-.366-7.159 1.053-8.253zM574.745 27.838s-.183 2.235.503 6.84l-1.922.183s-.503-3.694-.274-6.84c.229-2.189.915-1.961 1.693-.183z"/><path d="M579.869 21.09c-.138-1.277 6.405-7.25 6.405-7.25.092.273.458 7.706-.274 8.846-1.602 2.416-3.249 3.283-3.798 3.648-2.013 1.367-7.87 3.283-7.87 3.283-1.235-.32 5.628-7.25 5.537-8.527z"/><path d="M611.438 12.015c-1.418.137-2.013-.182-3.02.593-1.006.73-5.033 3.785-5.033 3.785-.594.274-1.189.547-1.693.775-5.856 2.736-3.935 2.098-5.444 2.69 0 0-9.426 1.505-9.746-.227-.32-1.733-4.255-2.782-4.713-2.782-.457 0-5.902 3.511-5.902 3.511l5.399 6.475 13.543-2.097c2.745-.41 5.399-2.782 8.099-4.743.732-.501 2.059-2.234 3.248-3.51.595-.183 1.281-.502 1.876-1.14 1.327-1.369.183-.958 2.791-2.007 1.556-.593 2.014-1.46.595-1.323zM604.391 11.65s4.392-2.644 5.49-3.283c1.098-.638 1.647-.273 3.066-.273 1.372 0 .823.82-.824 1.276-2.699.776-1.51.502-3.065 1.688-2.288 1.915-4.667.592-4.667.592z"/><path d="M607.226 10.693c-.686.228-3.065 1.048-4.575 1.596-6.177 2.188-5.948 2.781-6.589 2.964 0 0-13.086 1.459-14.55-.684-.869-1.323 6.131-1.505 5.674-1.46-.458.046-4.484 2.554-4.484 2.554l2.883 4.697 10.157-1.231c2.242-.548 4.759-3.01 7.687-4.697 1.189-.684 4.164-3.147 5.582-3.694l-1.785-.045z"/></g><defs><clipPath id="clip0"><path fill="#fff" transform="translate(517)" d="M0 0h97v50H0z"/></clipPath></defs></svg>