<svg viewBox="0 0 97 50" fill="none" xmlns="http://www.w3.org/2000/svg"><path d="M64.375 13.246s3.477-.364 3.98-1.14c.687-1.003-.686-2.143.824-4.833.778 1.277 2.334 2.462 3.386 2.964-.32 1.687-.595 3.146 1.647 4.058-.686.867-1.693.091-1.693.091l-2.608 2.736s-5.17 6.43-5.261 4.97c-.092-1.823-.275-8.846-.275-8.846zM69.684 6.452c.137-.182.32-.365.457-.547 1.968-2.143 7.092-.73 7.092 2.645 0 .228-.046.501-.091.73-2.929-1.551-3.981-1.14-4.393-.183-.64-.32-2.15-1.14-3.065-2.645z" fill="#2C60AE"/><path d="M51.705 18.445v.045c.366.867 1.419 2.235 3.02 3.42 1.327.958 3.431 2.098 6.085 2.098.778 0-1.418-3.74-.778-3.785 1.602-.137 2.06-3.329 7.092-.091-1.738 1.231-3.934 4.286-5.307 5.335-4.347 3.238-8.602 4.88-8.602 4.88s-7.595-7.57-5.445-9.12c.778-.548 2.928-2.235 3.935-2.782zM66.023 12.745a21.959 21.959 0 012.288.045s1.144-.638 2.608 1.916c-1.464-.548-1.784.456-1.784.456-.229.045-.412.182-.64.319-.23-.547-2.06-.183-2.288-.547-.367-.502.183-1.824-.184-2.19zM70.051 16.986l-.137.136c.137-.227.183-.227.137-.136zM66.344 16.575h.091c.229.547.366 1.186.32 1.733-.274-.502-.411-1.094-.411-1.733z" fill="#2C60AE"/><path d="M64.925 20.634c.961.364 1.922.775 2.745 1.14-.32.319-.686.547-1.143.775-.915-.593-1.74-1.14-2.425-1.596.32-.091.594-.228.823-.32zM53.303 17.806c.32.32 1.144 1.14 2.38 1.961 1.417.912 3.614 1.961 5.993 1.733.137 0 .274-.046.412-.046.549-.09 1.052-.182 1.464-.319.412.32-3.569-2.189-3.066-1.824.32.183 4.622 3.603 5.033 3.876-.869.365-1.418.228-2.608.32a28.67 28.67 0 01-2.104.09c-2.563 0-4.576-1.094-5.857-2.006-1.464-1.049-2.425-2.28-2.837-3.055l1.19-.73zM68.128 16.62a26.825 26.825 0 00-2.608-1.686c-.046-.046-.092-.137-.137-.183a11.973 11.973 0 00-1.602-1.687c.87-.182 1.647-.32 2.242-.365.275.183.824.73 1.419 1.642.274.41.503.866.686 1.322.183.41.366.867.457 1.277-.137-.046-.274-.182-.457-.32zM68.725 19.995c-.138.456-.32.912-.641 1.277-.824-.41-1.647-.73-2.47-1.094.686-.502 1.052-1.14 1.143-1.87.046-.593-.091-1.186-.32-1.733a2.532 2.532 0 00-.412-.775 19.498 19.498 0 012.7 2.098c.045.182.045.319.045.501.138.547.092 1.095-.045 1.596zM62.73 19.813c.504.137 1.053.364 1.648.593a2.652 2.652 0 01-.64.228 7.476 7.476 0 01-1.008-.821z" fill="#2C60AE"/><path d="M61.905 16.074c-.366.045.64.73.366.912-.32.182.275.137.046.456-.183.273 2.013-.091 1.922.182-.046.274-.183-.41-.137-.137.091.593-1.373 1.004-2.242 1.46-.275.136-.275.364-.275.364.183.183 1.739 1.596 2.059 1.87-.366.091-1.235 3.283-1.601 3.374-.138 0-7.413.639-7.55.684-2.242.228-.458-1.459-1.83-2.325-1.464-.958-2.517-3.147-.915-4.332l1.784-1.049c4.164-2.326 7.641-3.785 10.295-4.286.046.045 4.484.182 5.765 1.55-1.464-.73-7.183 1.186-7.687 1.277zM75.436 13.252l-.913.83.247.27.913-.83-.247-.27zM74.81 14.614c-.092.091-.138.274 0 .365l.548.593c.23.228.732.091 1.19-.274l-1.144-1.23-.595.546z" fill="#2C60AE"/><path d="M75.815 13.885l-.686.593-.64-.684c.32-.274.548-.456.686-.593l.64.684z" fill="#2C60AE"/><path d="M76 13.566a.28.28 0 01.366 0l.549.592c.229.229.046.73-.412 1.14l-1.144-1.23.64-.502zM73.484 10.328s-.138 0-.412-.182c-.138-.092-.046-.639.091-.821.183-.32.778-.183.64-.091-.365.228-.32 1.094-.32 1.094z" fill="#2C60AE"/><path d="M76.867 15.8h.137c.595.046 1.19-.137 1.51-.547.366-.41.504-.912.366-1.414-.274-.957-1.235-1.641-1.738-1.87l-1.876.32c1.418.32 2.47 1.322 2.562 1.778.046.137.046.274-.137.502-.092.137-.32.182-.595.182-.183 0-.55-.09-.824-.547l-.96.502c.365.593.915 1.003 1.555 1.094zM69.684 6.452s-.228.137-.549.82c-.32.685 1.739 3.284 1.83 3.33.092.045 1.922-2.143 1.922-2.189.046-.137-3.203-1.96-3.203-1.96zM56.461 17.898c.183-.046 10.25-4.423 10.386-4.423 0 .273 2.837.73 3.432 2.781 1.098 3.876-8.19 5.837-12.674 5.062-.595.638-1.144 1.55-5.765 4.377-1.373.867-3.157 2.828-3.66 3.284l-.961-2.098c.595-.684 2.928-3.238 3.706-4.195 1.922-2.371 4.713-4.287 5.536-4.788z" fill="#2C60AE"/><path d="M57.51 21.318c-2.607 4.15-7.183 4.97-9.379 7.934-.229.32.046 1.095-.091 1.505-.138.365-.824 1.413-.824 1.915 0 .228.046.502 0 .73-.046.182-.32.228-.458.136-.183-.136-.549-.638-.228-1.504.32-.775 0-.867-.275-.456-.732 1.14-1.464 2.37-1.83 2.736-.229.228-.732-.183-.55-.456.55-.958 1.373-2.098 1.282-2.235-.091-.137-.503.365-1.51 1.55-.137.137-.549.64-.64.73 0 0-.275.046-.458-.09-.183-.183-.137-.411-.137-.411.137-.137.595-.73.778-.958.732-.866 1.235-1.368 1.143-1.46-.091-.09-.274.138-.411.229-.366.273-1.053.82-1.419 1.14-.823.684-1.006.228-.915-.183 0 0 .092-.136 1.327-1.14.64-.547.96-.684.915-.82-.091-.137-.64.228-.732.273-.732.365-1.51.547-1.739.274 0 0 .366-.365 1.922-1.231 1.419-.776 1.602-1.87 2.745-2.007.32-.045 5.08-5.152 5.08-5.152.548-.639 6.542-1.277 6.405-1.05z" fill="#2C60AE"/><path d="M43.877 29.206c.184-.09.412-.045.504.137.091.183.046.41-.137.502l-2.425 1.505c-.183.09-.412.045-.504-.137-.091-.183-.045-.41.138-.502l2.424-1.505zM45.525 31.532c.092-.182.32-.228.503-.091.183.091.23.32.092.502l-1.602 2.37c-.091.183-.32.229-.503.092-.183-.091-.229-.32-.091-.502l1.601-2.37zM43.921 30.392c.138-.137.366-.091.504.046.137.137.091.365-.046.501l-2.242 1.779c-.137.137-.366.091-.503-.046-.138-.137-.092-.365.045-.501l2.242-1.779zM44.38 31.259c.137-.137.366-.137.55 0 .182.136.182.364.045.547l-1.876 2.143c-.137.137-.366.137-.55 0-.182-.137-.182-.365-.045-.547l1.876-2.143z" fill="#2C60AE"/><path d="M35.78 40.196c2.653-7.068 5.582-7.615 6.04-8.938.365-1.094.09-2.097 1.875-4.286 1.647-2.052 6.177-4.013 6.177-4.013l3.432 7.433c-5.72 6.338-13.04 11.4-15.969 12.631 0 0-.457-.684-.549-.638l-1.235-1.915c.091-.046.183-.183.229-.274z" fill="#2C60AE"/><path d="M23.515 37.825c9.746-1.231 12.72 2.052 14.139 2.097l-.32 3.147c-3.112-.41-13.361-3.1-13.361-3.1-.915-.822-.915-2.099-.458-2.144z" fill="#2C60AE"/><path d="M24.524 37.688s-1.372-.091-1.921-1.14c-.366-.73-2.06.41-2.334.639-8.007 6.611-15.74 5.29-16.06 5.517-.32.228-1.693 3.785-.823 6.977.183.638 7.64 1.231 16.243-8.071 1.693-1.824 5.948-1.186 5.948-1.186l-1.053-2.736zM32.99 34.177c4.163-4.788 8.784-5.335 9.608-6.475.686-.912 1.144-2.69 3.431-4.15 2.242-1.413 8.374-2.097 8.374-2.097l.091 6.338c-8.648 5.791-18.073 8.8-20.635 9.576-.092.046-.183.046-.275.091l-.87-3.01c.092-.09.184-.136.275-.273z" fill="#2C60AE"/><path d="M21.962 28.431c9.7 1.596 11.576 5.61 12.95 6.065l-1.328 3.01c-2.882-1.277-11.759-6.84-11.759-6.84-.686-1.095-.32-2.326.137-2.235z" fill="#2C60AE"/><path d="M22.923 28.614s-1.235-.091-1.51-1.642c-.274-1.368-4.3.32-4.621.41-11.576 2.964-14.047 1.004-14.413 1.14C2.06 28.569.092 30.348 0 33.63c0 .684 11.805.82 17.158-2.69 2.059-1.369 6.04.592 6.04.592l-.275-2.918zM69.868 17.761s-2.745 7.889-10.706 10.716c-8.282 2.918-14.78 5.107-14.78 5.107l25.486-15.823zM75.723 8.14s.503.182 1.052.364c-.412-.502-1.007-.638-1.693-.502.229 0 .412.046.64.137zM74.395 11.696c-.183-.046-.366-.182-.503-.274-.183-.09-.32-.228-.457-.365-.138-.136-.275-.319-.32-.456-.092-.228-.321-.82-.046-1.732 0-.046.045-.091.091-.137-2.013 1.049-4.026 2.827-4.118 2.964-.137.274 1.784 3.42 4.21 3.466 1.19 0 2.15-1.369 2.79-2.828-.503-.136-1.052-.319-1.098-.319-.137 0-.366-.228-.549-.32zM73.388 8.55c-.092.045-.183.09-.275.182.687-.365 1.373-.639 1.968-.73-.87-.091-1.373.41-1.693.547zM78.19 9.006c-.09-.046-.777-.274-1.372-.502.137.182.275.456.366.73 0 0-.046.09-.091.273.183.091.32.183.366.274.137.364-.55 2.097-.87 2.234 0 0-.137-.046-.32-.091-.046.137-.092.274-.183.365.366.09.686.182.732.182 1.144-.775 1.464-3.42 1.373-3.465z" fill="#2C60AE"/><path d="M74.212 10.92c-.229-.546.229-2.006 1.098-1.915.55.046 1.327.32 1.785.548.045-.183.091-.274.091-.274-.091-.32-.183-.547-.366-.73-.549-.182-1.052-.364-1.052-.364a1.62 1.62 0 00-.64-.137c-.596.091-1.282.365-1.968.73-.046.045-.046.09-.092.136-.274.912-.046 1.505.046 1.733.046.137.183.32.32.456.138.137.275.274.458.365.183.091.366.182.503.274.183.09.412.319.55.319.045 0 .64.182 1.097.319.046-.137.138-.274.183-.365-.594-.274-1.83-.73-2.013-1.094zM51.794 20.542l-3.157 2.052c-.915.593-2.38-.045-3.248-1.459-.87-1.368-.87-2.964.045-3.557l3.615-2.325c.092.684 1.281.73 1.967 1.732.641 1.095.183 3.147.778 3.557z" fill="#2C60AE"/><path d="M49.369 15.07l7.046-4.514c.092.684 1.51 1.14 2.196 2.189.687 1.049 1.007 2.097 1.602 2.462l-7.595 4.88c.045.41 0 .729-.183.866-.138.09-.275.09-.458 0-.046 0-.046 0-.091-.046h-.046c-.64-.273-1.51-1.186-2.288-2.417-.091-.136-.183-.319-.274-.456l-.275-.547c-.046-.137-.137-.228-.183-.365 0-.045 0-.045-.046-.09-.457-1.095-.595-1.962-.229-2.19.183-.09.458 0 .824.228zM65.109 10.191c-.458.274-.55.867-.275 1.277.275.456.87.547 1.281.274.458-.274.55-.867.275-1.277-.275-.456-.87-.547-1.281-.274zm.64.228h-.091l.046-.228h.091l-.046.228zm.366.274l-.045-.046.183-.136.045.045-.183.137zm-.228.775l.045-.046.138.183-.046.045-.138-.182zm-.412.046h.091l-.046.228h-.091l.046-.228zm-.366-.274l.045.046-.183.136-.045-.045.183-.137zm.411-.456c.092-.046.23-.046.275.046 0 .045.046.09.046.09l.595.138v.09l-.595-.136c0 .046-.046.046-.092.091-.091.046-.229.046-.274-.045-.092-.091-.046-.183.045-.274zm-.686-.046l.229.046v.091l-.229-.045v-.091zm.366-.455l.137.182-.045.046-.138-.183.046-.045z" fill="#2C60AE"/><path d="M62.913 5.54c-.504.32-.87.547-1.373.866-.137.137-.183.32-.092.41.412.457.778.913 1.19 1.323a.222.222 0 00.32 0c.046-.045.092-.045.092-.091l.549.866-.366.228-.275-.41-.96.638a3.026 3.026 0 00-3.524-.182l-1.555 1.003c-.366-.228-.687-.32-.87-.182l-.137.136c-.091.183-.137.41-.046.73.092.639.504 1.596 1.098 2.554.046.045.092.136.138.182.595.912 1.235 1.642 1.784 2.098.092.045.137.136.229.182.091.046.137.091.183.137.183.091.32.137.457.137h.046c.046 0 .137-.046.183-.046.183-.137.275-.456.183-.866l1.556-1.004c1.098-.73 1.601-2.052 1.281-3.283l.96-.638-.274-.41.366-.228.275.41.046.091c-.275.456-.32 1.049 0 1.505.32.456.869.684 1.372.638l2.517 2.417 1.144-.137-2.837-2.69a1.377 1.377 0 00.183-1.733c-.366-.547-1.052-.775-1.647-.547v-.046l-.275-.41.32-.182c.092 0 .184-.046.275-.092.229-.136.32-.456.137-.684-.137-.228-.457-.319-.686-.136-.091.045-.137.136-.183.228l-.32.182-.55-.866c.046 0 .092-.046.092-.092.183-.09.183-.182.137-.319-.228-.547-.503-1.094-.732-1.641-.045-.092-.228-.137-.411-.046zm2.104 4.514c.504-.319 1.19-.182 1.51.32.32.501.183 1.185-.32 1.504-.503.32-1.19.183-1.51-.319-.32-.502-.183-1.185.32-1.505z" fill="#2C60AE"/><path d="M57.283 18.992l.733-.73c-3.203-.912-6.59-4.012-7.047-7.204-.686-4.606 2.608-8.938 7.413-9.668 2.745-.41 4.941 1.05 5.902 2.69.915 1.551.823 3.284-.275 4.698l.687.547c.32-.456.594-.912.778-1.414.183-.456.274-.957.274-1.459.046-.958-.229-1.915-.732-2.782-.595-1.048-1.601-1.96-2.745-2.508A6.792 6.792 0 0058.244.57a10.07 10.07 0 00-3.614 1.276 10.67 10.67 0 00-2.746 2.417 9.337 9.337 0 00-1.601 3.238c-.32 1.231-.412 2.462-.229 3.693a8.888 8.888 0 002.288 4.743c1.235 1.322 3.248 2.553 4.941 3.055z" fill="#2C60AE"/><path d="M66.985 10.693c1.053-.775 1.647-1.55 1.693-2.417a2.056 2.056 0 00-.595-1.596c-.366-.365-.96-.502-1.51-.41-.503.09-1.464.501-2.104 2.097l1.052.41c.32-.82.778-1.322 1.281-1.413.229-.046.412 0 .503.091.092.091.32.365.275.73-.046.501-.457 1.049-1.235 1.596l.64.912z" fill="#2C60AE"/><path d="M64.378 11.103c.046.684.686 1.186 1.373 1.095.686-.046 1.19-.684 1.098-1.369-.046-.684-.687-1.185-1.373-1.094-.686.046-1.19.684-1.098 1.368zM77.37 9.325s.412-3.192-3.157-4.423c-2.242-.776-7.183.684-5.673 6.292 1.555 5.837.64-5.061 8.83-1.87zM62.179 31.851c.046.092.046.183.091.274.595.137 1.007.547 1.098 1.049.092.456-.045.912-.411 1.277.045.136.091.228.091.273v.046c0 .045 0 .091.046.091.183.866-.366 1.687-1.236 1.87a1.574 1.574 0 01-1.875-1.232v-.182c-.046-.32-.23-1.733-.412-3.01a1.415 1.415 0 01.549-1.368l.96-.228c.55.183.962.639 1.099 1.14z" fill="#2C60AE"/><path d="M61.175 22.914c.183-.137.366-.228.595-.32l.32.821a1.372 1.372 0 00-.366.183c-1.144.866-1.418 3.1-.595 7.524l-1.006.045c-.778-4.56-.367-7.159 1.052-8.253zM57.745 27.838s-.183 2.235.503 6.84l-1.922.183s-.503-3.694-.274-6.84c.229-2.189.915-1.961 1.693-.183z" fill="#2C60AE"/><path d="M62.869 21.09c-.138-1.277 6.405-7.25 6.405-7.25.092.273.458 7.706-.274 8.846-1.602 2.416-3.249 3.283-3.798 3.648-2.013 1.367-7.87 3.283-7.87 3.283-1.235-.32 5.628-7.25 5.537-8.527z" fill="#2C60AE"/><path d="M94.438 12.015c-1.418.137-2.013-.182-3.02.593-1.006.73-5.033 3.785-5.033 3.785-.595.274-1.19.547-1.693.775-5.856 2.736-3.934 2.098-5.444 2.69 0 0-9.426 1.505-9.746-.227-.32-1.733-4.255-2.782-4.713-2.782-.457 0-5.902 3.511-5.902 3.511l5.399 6.475 13.543-2.097c2.746-.41 5.4-2.782 8.099-4.743.732-.501 2.059-2.234 3.248-3.51.595-.183 1.281-.502 1.876-1.14 1.327-1.369.183-.958 2.791-2.007 1.556-.593 2.013-1.46.595-1.323zM87.39 11.65s4.393-2.644 5.491-3.283c1.098-.638 1.647-.273 3.066-.273 1.372 0 .823.82-.824 1.276-2.7.776-1.51.502-3.065 1.688-2.288 1.915-4.667.592-4.667.592z" fill="#2C60AE"/><path d="M90.227 10.693c-.687.228-3.066 1.048-4.576 1.596-6.177 2.188-5.948 2.781-6.589 2.964 0 0-13.085 1.459-14.55-.684-.869-1.323 6.132-1.505 5.674-1.46-.458.046-4.484 2.554-4.484 2.554l2.883 4.697 10.157-1.231c2.242-.548 4.758-3.01 7.687-4.697 1.19-.684 4.163-3.147 5.582-3.694l-1.784-.045z" fill="#2C60AE"/></svg>