<svg viewBox="0 0 1900 862" fill="none" xmlns="http://www.w3.org/2000/svg"><path d="M1665.77 101.997c-2.11-3.419-4.41-6.562-7.13-9.384-2.16-2.45-4.37-3.933-7.62-3.298-8.62 1.449-16.92 4.512-25.53 5.961-3.25.636-7 1.13-10.18-.4-3.98-1.858-3.86-6.193-5.28-9.748-1.01-2.678-2.99-4.206-6-4.815-4.02-.889-8.18-1.27-12.07-1.467-15.78-.742-31.45 2.806-46.24 8.34-15.49 5.67-30.29 13.601-43.85 22.966-15.7 10.742-29.83 23.333-42.16 37.729-.42.321-.05.968.45 1.108 4.12.151 8.29.533 12.41.685-.14.506-.29 1.013-.43 1.52-.27-.185-.46.091-.42.322 1.18 5.998-3.33 11.195-6.78 15.704-3.87 4.83-7.78 9.429-11.09 14.63-5.36 8.238-8.74 18.004-5.91 27.513.04.23.32.416.55.37 4.87-2.152 9.74-4.304 13.6-7.935 3.86-3.631 6.84-8.049 10.1-12.281 2.1-2.807 4.15-5.844 6.48-8.696 1.24 1.434 2.53 3.098 4 4.486 1.8 1.804 3.83 3.563 6.05 5.046 1.38.926 2.76 1.853 4.43 1.766 4.22-.586 5.31-7.27 6.39-10.356 2.02-5.666 4.22-11.608 6.24-17.274 1.08-3.086 2.39-6.218 3.47-9.305 17.09-1.191 33.6-7.78 50.28-11.048 12-2.591 24.83-4.626 36.42-9.293-2.43 4.789-5.32 9.668-7.47 14.641-3 6.816-4.93 14.143-7.37 21.329-2.58 7.693-4.93 15.341-7.56 22.804-.14.507.23 1.153.92 1.017 16.89-8.34 29.5-22.55 39.48-37.922 5.18-7.961 9.75-16.525 14.14-24.812 1.96-3.498 4.11-7.273 4.27-11.377-.05-.231-.09-.461.05-.968 12.74-1.298 25.03-7.3 34.1-16.264-.37-.647-.46-1.108-.74-1.294zM1276.58 158.902c-2.33-4.373-4.66-8.454-6.99-12.826-.59-.875-2.34-.875-2.63.291-.58 2.624-.87 5.247-1.75 7.871 0 0-.29-.292-.58-.292-13.71-1.457-27.7 6.996-34.99 18.365-.58.874 0 2.04 1.17 2.04 9.03-1.166 19.53-.874 27.7-5.538 3.79-2.332 6.41-5.539 7.87-9.328 2.92 1.749 5.83 2.332 9.33 1.166.87 0 1.46-.875.87-1.749z" fill="#9DCAFF"/><path d="M1900 80.727c-3.7 0-7.76 0-11.83 1.165-8.5 2.332-11.09 7.577-10.72 14.28 0 6.119-1.11 11.365-3.32 16.027 0-2.04-.37-3.788-1.48-5.537-.37-.291-.74-.291-1.11-.291-5.18 3.497-7.76 8.451-11.09 13.113 1.85-4.371 2.96-9.033 2.22-13.696 0-.583-1.11-.874-1.85-.583-8.87 5.537-12.57 16.028-16.63 24.187-1.11 2.332-2.59 4.663-3.7 6.994-.37-.583-1.11-1.165-1.48-1.457.37-.874.37-1.748.37-2.622.37-.583.37-1.166.74-1.749 3.7-7.868 11.46-15.736 11.46-24.187 0-.291-.37-.583-.74-.583-4.81 1.166-8.5 3.788-11.46 6.994 0-.583 0-1.166-.37-1.457-.74-3.497-3.7-7.577-3.7-10.782 0-.292 0-.292-.37-.292-7.76.292-4.8 11.657-4.8 15.154 0 2.04-.37 4.371-.37 6.411-2.59-3.789-5.17-7.868-8.5-11.074-.37-.291-1.11 0-1.11.292-.74 3.496-.74 6.993.37 10.49-1.11-1.165-1.85-2.04-3.33-2.914-.74-.583-2.58-.583-2.58.583 0 3.206.36 6.12.73 9.325-.37.292-1.1.583-1.47.874-1.48-3.205-3.7-6.119-6.66-7.868-.74-.291-1.85-.291-2.22.583-1.47 4.663 1.85 9.325 1.48 14.279 0 .292-.37.292-.37.583-.37.292-.74.292-1.47.583-.74-6.411-5.18-11.948-11.09-16.319-.37-.291-.37 0-.37.291.37 4.663 2.21 9.617 2.58 14.279-3.69-7.285-7.76-13.404-9.98-16.027-.37-.292-1.1 0-1.1.291 0 1.457.36 2.914.73 4.663-.74-.583-1.47-1.457-2.21-2.04s-1.85-1.166-2.96-.874c-.74 0-1.48.291-1.85.583-1.48 2.039 0 3.496 1.11 5.828.74 1.165 1.11 2.622 1.11 3.788-2.96-2.331-6.28-4.08-10.72-4.954-.37 0-.74.292-.37.292 5.17 5.245 8.87 11.365 9.98 18.067v1.166c-2.22-5.537-5.91-10.491-11.83-13.114-1.85-.874-5.17.292-4.43 2.331 1.47 3.789 3.69 7.286 5.17 10.783-4.06-4.371-7.39-9.325-11.09-13.988-.37-.291-1.11-.291-.74.291l2.22 7.868c-1.11-.874-2.59-1.457-3.7-2.331-2.21-1.165-5.17.292-5.17 2.331-.74-1.457-1.85-2.622-2.96-4.079-.37-.583-1.48-.292-1.48.291.74 4.08 2.22 7.868 4.07 11.657-2.22-3.206-4.44-6.411-7.02-9.326-.74-.874-2.22-.874-2.59.292-1.48 5.537.37 11.073 3.7 15.736-3.7-3.497-7.4-6.994-11.09-10.491-.37-.583-1.85 0-1.48.583 1.48 3.497 3.33 7.577 5.17 11.656-5.54-3.205-11.83-5.245-17.37-5.245-2.96 0-5.54 3.497-2.22 4.954 3.7 1.457 7.4 3.206 11.09 4.954-5.17-1.457-11.09-2.04-16.26.291-1.48.583-1.11 2.04 0 2.623 2.95.874 5.54 1.749 8.13 2.914-2.96-.291-6.28-.291-9.61.292-.74 0-.74.874 0 1.165 9.98 2.04 17.37 9.325 20.7 16.611-5.55-2.332-11.09-4.371-15.9-7.868-1.1-.875-2.95-.292-2.95 1.165 1.11 7.577 10.35 10.491 17.74 14.571 1.48.874 2.59 1.748 3.7 2.623 0 .291.37.582.37 1.165-2.96 2.331-5.92 4.371-11.09 3.789-6.29-.583-8.5-4.663-12.2-7.869a1.041 1.041 0 00-1.48.292c-1.48 2.331-1.48 4.954 0 6.994-3.33-1.166-7.02-1.457-10.35-.583-5.54 1.457-8.87 4.663-9.98 8.742-5.91 0-11.46 2.04-15.15 6.12-4.44 4.954-4.07 10.782-1.48 16.319-8.13.583-15.53 4.08-18.48 11.074-1.85 4.371-1.48 9.325.73 13.404 1.48 2.915 5.18 5.537 8.14 8.451-7.4-1.165-15.16.292-20.33 5.537-6.29 6.703-4.07 14.862 2.58 20.108-9.61 4.662-16.26 13.987-11.82 22.73 1.84 3.788 5.54 6.119 9.61 6.993-.37.875-.74 1.749-.74 2.915-1.11 5.245 2.95 8.451 8.13 11.073-7.02 4.08-11.83 10.782-7.76 17.776 3.69 6.411 12.2 8.743 19.96 6.994.74 2.623 2.95 4.954 7.02 5.828 8.5 1.749 14.79-4.662 19.59-9.033 1.48 1.457 2.96 2.914 4.07 4.662 3.32 3.497 2.95 7.577-1.11 11.657-1.48-1.166-5.18-.875-5.18 1.457 0 2.622-.37 12.239-5.17 9.325-1.11-.583-1.48-3.206-2.22-4.08-1.85-2.04-2.96-3.205-6.28-3.497-7.77-.874-10.72 6.12-12.2 10.491-.37.583 0 1.457.74 2.04 1.11.583 1.85.874 2.96 1.457-5.55 6.12-14.05 15.153-1.85 19.816 1.48.583 3.32 0 4.8.291 11.09 2.332 7.76 4.371 12.57 9.617.74.874 1.48 1.457 1.85 2.04-1.48.583-1.85 2.04-1.85 3.205 0 .875.37 1.749.74 2.332-.74 2.331-1.85 4.371-4.07 6.119-2.21-2.914-5.91-4.662-10.35-5.828-1.48-.291-3.32 0-3.69 1.457-1.11 3.206-2.22 6.12-4.44 8.451-.37-.874-1.48-1.457-2.59-1.457-5.17 0-7.76.583-11.82 3.205-1.48.875-1.48 2.623-.37 3.497-2.96 3.206-6.66 3.789-9.98 2.04-2.59-.874-4.81-1.457-7.4-1.748-1.48-.292-2.95.583-2.58 1.748.74 2.623 1.47 4.954 2.58 7.285-2.58.292-5.17 1.458-7.39 2.623-9.24 4.08-18.85 5.537-26.24-.583 1.11-2.04 2.21-4.079 2.58-6.411.37-1.457-2.21-2.331-3.32-1.457-4.44 3.206-7.03 7.577-10.35 11.657l-1.11-1.749c.74-.874 1.11-1.748 1.85-2.622 4.06-6.994 4.43-13.114 3.69-20.399 0-.292-.74-.292-.74 0-1.47 5.828-4.43 11.948-8.13 17.484.37-7.576-1.11-15.444-3.32-21.855-.74-2.04-4.81-1.457-4.07.582 1.48 5.537 1.85 11.074 1.48 16.611v-.292c-.74-.582-1.11-1.165-1.85-1.748.74-8.451-3.7-17.776-8.5-24.77-.37-.874-1.85-.291-1.48.583 1.48 3.205 1.85 6.119 2.22 9.325 0-.291-.74 0-.37 0 .37 1.457.74 2.623.74 3.788v3.497c-2.22-2.04-8.13-5.828-7.76-8.742 0-.291-.37-.291-.74 0-1.85 4.08.74 8.451 3.69 12.239-.37-.291-1.11-.583-1.48-.874-.37 0-.37-.291-.74-.291-2.58-7.286-7.76-13.988-13.3-18.359-.74-.583-1.48 0-1.11.583 2.59 4.371 4.8 8.45 6.65 13.113-3.32-2.04-7.02-4.08-10.72-6.12-1.48-.582-2.58.583-1.85 1.457 3.7 4.08 8.51 8.16 14.05 11.948.37 2.914 0 5.537 0 8.16-2.22-10.782-16.63-20.399-28.09-24.77-1.11-.583-1.85.874-1.11 1.748 6.65 4.371 12.57 9.325 17 15.154.74.874 1.11 1.748 1.85 2.331-1.11-.583-2.59-1.166-3.7-1.457-1.47-.874-3.32-1.457-4.43-2.331-5.92-2.623-11.46-4.954-18.11-5.829-1.48-.291-1.85 1.166-.74 1.749 5.17 3.205 10.72 6.12 16.26 9.325 1.85 1.166 4.07 2.623 5.92 3.788-1.11 0-2.22.292-3.33.583-6.65-3.497-15.9-4.08-23.29-6.994-.74-.291-1.11.583-.37.875 3.7 1.748 8.13 3.497 12.57 5.245-.37 0-.74.291-1.11.291-1.48.875-2.96 1.749-4.06 2.623-3.33-3.205-7.03-6.12-11.09-8.159-.74-.292-1.85.291-1.48.874 1.11 1.457 2.22 2.914 3.32 4.08l1.11 3.496h-.74c-.74 0-1.1.875-.37 1.166.37 0 .74.292 1.11.292.37 2.039.74 4.079.74 6.411-2.95-2.623-5.54-5.246-7.76-7.869-.74-2.331-2.22-4.371-4.44-6.411-.36-.874-1.1-2.039-1.47-2.914 0-.291-.37 0-.37 0 0 .583.37.875.37 1.457-.74-.582-1.48-1.165-2.22-1.457-.37-.291-.74.292-.37.292 1.85 1.748 3.33 3.497 4.06 5.245 0 .292.37.583.37.874 1.48 3.497.74 6.703-.74 10.2-3.69-3.497-6.65-6.994-8.87-11.074.74-5.537.74-11.365-1.47-16.61-.37-.875-2.22-1.457-3.33-.583-6.28 6.12-8.87 13.696-10.72 21.273-1.11-2.331-2.96-4.663-4.81-6.703-.37-.291-1.1 0-1.1.292.36 2.914 1.1 5.537 1.84 8.451-2.58-5.246-9.24-8.451-16.63-6.703-.74.292-.37.875.37.875 6.65-.583 11.83 4.371 12.57 9.033v1.749c-6.66-3.789-12.94-7.868-19.59-11.657-.37 0-.37 0-.37.292 5.54 5.828 12.19 11.073 19.22 16.027-.37 2.04-1.11 3.789-1.85 5.537-2.22-2.331-3.7-4.954-5.54-8.159-2.22-4.372-5.18-6.994-10.35-9.326-.37-.291-.74.292-.37.583 4.43 2.914 6.28 10.2 9.61 16.028-.37 0-.74 0-1.11-.292 0-.291-.37-.291-.37-.582-.74-3.206-1.85-6.12-3.7-8.451-.37-.583-1.85-.583-2.22-.292-.74.583-1.47 1.166-2.21 2.04-2.22-1.165-4.81-1.748-7.4-2.04v-1.165c0-4.371-7.39-5.246-9.98-1.749-1.85 2.623-3.32 5.246-4.8 7.868-1.85.583-3.7.875-5.55 1.457-.37 0 0 .583.37.583 1.48-.291 3.33-.291 4.81-.291-.37.874-.74 2.04-1.11 2.914-2.59.291-4.81.874-7.39 1.457 0-1.166-.37-2.331-.74-3.497-.74-2.623-2.59-13.696-6.66-14.862-.37-.291-1.1-.291-1.47-.583-2.22-.583-4.44.874-5.18 2.332-.74 1.748-1.11 3.497-1.11 5.245-1.85-4.371-4.06-8.451-6.28-12.531-1.11-1.457-3.7-.874-4.07.583-5.91 17.193 6.29 34.387 1.11 52.746-.74 2.331-1.48 4.662-2.59 6.702 0-10.199-.74-23.604-7.02-31.181-1.11-1.457-3.33-1.166-4.44 0-7.39 8.16-4.06 19.525-3.69 29.141-1.48-2.914-2.59-5.828-3.33-8.742-9.98-30.598 17.01-50.706 25.14-78.098.37-1.166-1.48-2.332-2.96-1.458-18.11 10.783-31.05 28.85-36.59 46.918 1.11-4.371 2.58-8.743 3.32-13.114.37-1.457-1.48-2.623-3.32-1.748-13.31 5.537-17.38 17.484-18.12 29.432-.74-3.788-1.47-7.285-1.84-11.365 1.1-2.914 2.58-6.119 4.8-9.325 7.02-10.199 21.07-23.021 18.85-35.261 0-.291-.37-.582-.74-.582-15.89 4.371-28.09 25.061-35.11 36.134-1.11 1.749-1.85 3.497-2.96 5.537-3.33-5.245-6.28-10.782-8.87-16.319-8.5-18.067-11.09-37.592-19.59-55.659-1.11-2.623-6.65-2.914-7.39.291-4.07 25.353 8.13 53.911 21.07 77.224-6.29-7.868-11.09-16.319-15.16-26.81-4.43-11.073-8.13-20.981-18.11-29.724-3.33-2.914-9.98.583-8.5 4.08 9.61 21.273 14.04 45.46 31.42 63.819 5.17 5.537 11.09 10.2 16.63 15.154-2.96-1.166-6.28-2.332-9.24-3.497-13.31-4.954-22.55-11.948-32.9-20.108-1.11-.874-2.59-.291-2.96.583-3.69 12.239 8.88 21.273 21.44 27.101.37 1.749.74 3.497 1.11 5.537-3.69-3.205-7.76-5.828-11.83-7.577-1.47-.582-3.69.292-3.32 1.749 1.48 8.159 7.39 13.113 11.09 20.399 1.84 3.497 2.58 6.702 2.95 9.325-1.11.583-1.84 1.165-2.95 1.748 1.47-11.656-8.88-24.77-17.75-33.221-1.47-1.457-5.54-1.457-6.28.583-.37-.291-.74-.874-1.48-1.457-.74-.874-.74-2.331-1.48-3.205-3.32-4.371-10.72-4.663-16.26-2.623-3.7 1.457-6.28 3.788-9.61 6.12-5.18 3.496-10.72 4.662-16.63 6.993-8.88 3.497-14.42 12.823-24.03 14.28 0-1.166.37-2.04.37-2.914.37 0 .74-.292 1.11-.583.37-.875.37-1.749.37-2.623 5.17-7.577 19.22-9.034 29.57-12.531 5.54-1.748 9.98-6.702 4.43-10.782-5.54-4.08-13.67-1.166-19.59 2.331 0-.291.37-.874.37-1.165.74-2.623 0-4.663 1.48-7.286.74-1.165 1.85-2.039 2.22-3.205 1.48-5.828-8.87-6.411-13.68-4.663-3.69 1.457-6.28 4.08-7.39 7.286-1.48 4.371 2.22 10.49-1.11 13.987-1.11-4.079-7.02-7.576-12.57-6.993-3.69.291-7.02 2.331-8.5 4.953-2.59 4.08 0 7.286 1.85 11.074 2.59 5.828 4.07 14.862 1.11 21.273-3.33-2.04-6.28-3.788-9.24-6.12l-4.07-3.205-2.22-2.623c-2.95-3.497-3.32-6.119-5.17-9.908-2.59-6.119-10.35-7.868-16.63-5.828 1.84-4.08 4.06-8.742 1.11-12.531-2.59-3.205-7.03-3.497-11.09-2.914 3.69-5.828 5.91-13.987-3.33-17.484-8.13-2.914-13.68 3.496-14.42 9.033-8.13 0-15.15 5.246-6.65 10.2 1.11.874 3.33 1.165 4.44 2.331 2.58 2.04 2.21 4.663 2.95 7.285.74 2.623 1.85 3.789 3.33 6.12 2.22 3.788 1.85 6.12-.37 9.325-1.11 2.04-.74 4.08.37 6.12 1.85 4.079 6.65 7.576 3.7 12.239 0 3.206-2.59 4.08-7.77 2.04-.74-.583-1.47-.874-2.21-1.457-1.11-.583-6.29-3.497-6.66-4.371-1.11-1.749.37-2.914.74-4.954.37-2.04-.37-4.372-1.48-6.411-4.8-6.994-17.37-5.537-20.7 1.165-5.17-.874-12.56-.874-12.56 4.663 0 6.411 13.67 10.491 20.33 12.822v.291l-.74-.583h-.37c-2.96 2.623-2.96 6.12-2.59 9.909a9.951 9.951 0 00-3.33-3.206c-2.58-1.748-6.65-1.457-10.35-.874-.74-2.04-2.21-3.789-4.06-6.12-2.22-2.623-3.33-6.411-5.55-8.742.74-.292 1.48-.292 1.85-.583 1.48-.874 1.85-2.914 2.22-4.371.74-4.08 1.11-7.285 3.33-11.365 2.58-4.663 5.91-9.034 6.65-14.279 0-.875.37-1.749.37-2.332h.37c2.22-1.165 2.59-2.04 3.69-3.788 4.07-6.411 14.42-10.199 17.01-17.485 2.96-8.742-7.76-14.57-17.74-14.57.73-4.371 0-9.325 0-13.697 0-2.622 0-5.536-.37-8.159 2.58-1.457 5.17-2.914 6.28-5.245 1.11-2.04 1.11-4.08 1.48-6.12.74-3.497 2.96-6.12 4.43-9.325 1.48-3.497.74-7.286-1.84-10.2-3.7-4.079-9.61-5.536-15.16-4.954v-.291c.74-3.206 0-6.994 0-10.199 0-2.332.37-4.954-1.11-6.994-2.22-3.497-6.65-3.206-10.72-3.206-5.17-.291-11.83-.583-14.78 3.497-2.22 3.206-.37 4.663 1.85 7.285 1.84 2.332 2.95 2.332-.37 3.497-2.22.875-5.18.292-7.77.292-2.21 0-4.06 0-5.54 1.165-8.13 6.12 4.43 19.525 10.35 24.479-3.33 0-7.02.874-9.61 2.331-6.65 4.08-6.29 9.908-4.81 15.736 2.59 9.617 5.55 19.234 9.24 28.85.74 2.04 1.48 4.08 2.22 5.828v.583c-.37 1.166-.37 2.623-.37 3.788-.37 3.789-1.11 7.577-1.85 11.074-2.95-4.08-5.91-7.868-7.39-12.822-1.48-5.245-1.11-10.199-.37-15.445.74-5.828 1.11-13.696-7.39-16.319-8.13-2.331-18.852 2.623-21.809 8.743-1.109 2.622-.74 4.954.739 7.285 2.957 5.537 7.76 10.491 10.72 16.319 2.59 5.828 4.07 11.656 3.33 18.067-.74 4.954-2.22 9.908-1.85 15.154.37 2.622.74 4.954 1.48 7.576-1.85 2.915-2.96 5.829-5.55 8.451 0-.582-.37-1.165-.37-1.748.37-.583.74-1.166.74-1.749 0-.291-.37-.582-.74-.582h-.74c-.74-2.915-1.48-5.829-1.85-9.034 1.48-3.789 2.96-7.577 1.85-11.365 1.85-6.411 3.7-13.114-.37-17.776-3.693-4.371-10.716-4.954-16.63-3.497-2.957.874-4.805 2.04-8.132 1.457-1.109-.292-2.218-.874-3.696-1.166h-2.588c-3.326.292-4.435 1.166-7.762 0-6.284-2.04-14.785-4.662-18.482 2.331-1.478 2.623-.369 4.08.74 6.703 1.109 1.748 1.478.583 1.478 2.914 0 1.457-.369 1.748-1.109 2.04.37-.874.74-2.04.74-2.914 0 0-.001-.292-.37-.292-7.023 1.166-14.046 9.908-17.742 14.28-.74.582-1.109 1.457-1.479 2.331-1.109-2.332-1.848-4.954-2.587-7.577-2.588-8.451-2.218-16.902-4.806-25.061-.369-1.166-2.957-1.457-3.326-.292-3.327 11.074 0 23.896 4.066 34.678-2.218-3.788-3.697-7.576-4.805-12.53-1.109-4.954-2.218-9.617-5.915-13.697-1.109-1.457-4.435-.291-4.066 1.457 2.957 9.617 2.957 20.399 9.241 29.433 1.848 2.623 4.066 4.954 6.284 7.285-1.109-.583-2.587-1.166-4.066-1.748-5.544-2.623-9.241-6.12-12.937-10.2a1.04 1.04 0 00-1.479.292c-2.587 5.245 2.588 9.616 7.393 12.822v2.331c-1.479-1.457-2.957-2.914-4.805-3.788-.739-.292-1.479 0-1.479.583 0 3.788 2.218 6.119 3.327 9.325.37 1.748.739 2.914.739 4.079-.369.292-1.109.583-1.478.583 1.478-4.954-2.218-11.365-5.545-15.444-.739-.875-2.957-.875-2.957.291 0 6.119 3.697 10.782 0 16.61-.369.875-1.109 1.457-1.478 2.04.369-.874.369-1.457.369-2.331 0-4.954-1.848-11.365-5.175-16.319 1.109-1.166 1.849-2.331 2.957-3.497 4.806-6.12 12.198-14.571 11.089-22.147-.369-1.457-1.848-2.332-3.696-1.749-9.241 2.332-15.524 10.491-21.069 16.319-6.284 6.703-12.937 12.531-22.917 16.028-.37 0-.37 0-.739.291 6.284-4.079 11.458-9.325 15.155-14.862 4.805-6.994 7.392-15.153 7.762-23.313.369-6.411 1.109-16.027-4.805-21.273-.74-.874-1.849-.874-2.957 0-5.915 4.663-6.284 13.114-8.132 19.234-2.218 7.868-4.806 15.736-10.72 22.147-6.283 6.994-14.046 9.616-23.656 12.822 0-.292 0-.583-.37-.874l-1.109-2.623c3.327-3.497 6.284-7.285 8.502-11.365 3.696-6.702 4.805-13.696 4.805-20.982v-4.662c.739 0 1.109 0 1.848-.292 8.502-2.331 16.634-10.491 18.112-17.484 1.479-6.994-.739-15.737-7.023-20.691-2.587-2.039-7.762-.874-8.871 1.749-2.587 5.537 1.479 11.365-1.109 16.902-.739 1.748-2.587 3.205-4.435 4.662v-.582c-.37-3.206-.74-6.703-.74-9.908 0-3.789 1.479-7.577-.739-11.074-1.848-2.914-7.023-4.954-10.719-2.623-7.023 4.663-6.654 13.697-6.284 20.399 0 6.702 1.479 13.405 1.848 20.107.37 6.994 0 13.988-3.696 20.108-.739 1.457-1.848 2.914-2.957 4.371-.37-.291-1.109-.291-1.479-.583-2.957-.874-6.283 1.457-6.283 3.788 0 1.457.369 2.623 1.108 3.789-1.108.874-1.848 2.04-2.957 2.914-.739-1.457-1.478-2.623-2.587-3.788 2.218-4.08 4.436-8.451 5.914-12.531 4.805-13.405 4.066-27.101 2.957-40.798-.739-7.868-15.524-6.702-15.155 1.166.739 13.696 1.109 27.393-4.805 40.506-2.218 4.663-4.805 9.617-7.762 13.988-.37-2.623-.74-5.537-.74-8.16 0-7.285 11.459-18.941 1.109-24.77-1.109-.582-2.587-.582-3.326 0 1.478-1.165-.74.292-.74.583-.739.874-1.478 1.457-2.217 2.331-1.849 2.04-3.327 3.789-4.436 5.829-2.957 4.371-5.914 9.325-6.653 14.279-1.109 6.12.369 12.531.739 18.65.37 4.954-.37 10.491.739 15.445 0 .291-.369.291-.369.583-1.109-3.789-2.218-7.577-4.066-11.074-.74-1.166-1.109-2.623-1.849-3.788.37-.874.74-2.04 1.109-2.914 3.697-12.531 1.479-24.479-1.478-37.01 1.478 0 2.957-.291 4.805-.874 15.155-7.868 18.851-22.147 19.59-35.552.37-6.702.74-13.696 3.327-20.107 2.957-6.994 9.611-12.822 16.264-17.776 2.218-1.749 1.848-4.954.37-6.994l-1.109-.874h-.37c-3.327-2.04-7.023-1.458-9.98.874-6.653 4.954-12.937 10.199-16.633 16.61-1.109 1.749-1.849 3.497-2.588 5.246-2.957-2.332-6.653-4.663-7.762-8.16-1.848-5.537 2.957-9.325 4.066-14.57.37-2.332-2.218-4.954-5.175-4.372-10.35 1.749-14.046 11.948-12.567 19.234 1.108 4.662 4.065 8.742 8.131 12.53 2.958 2.623 6.284 5.537 10.35 6.411 0 .874-.369 1.457-.369 2.332-1.109 11.656.369 27.101-12.938 34.969-.739-4.663-.739-9.325 0-13.696 1.109-5.829 5.915-13.114 3.697-18.942-.74-1.749-3.327-2.623-5.545-2.04-7.023 1.748-9.61 9.325-11.458 14.279a49.796 49.796 0 00-2.218 18.068c.739 8.451 3.696 16.61 5.544 24.77-1.848 4.079-3.326 8.159-3.326 12.53 0 1.749 0 3.206.369 4.954-1.109-.291-2.218-.583-2.957-.874-4.066-6.994-8.132-13.988-6.284-21.564 1.849-7.869-13.306-9.908-15.524-2.04-2.957 10.199 1.848 19.816 6.653 29.141 4.436 8.742 6.284 16.61 4.806 25.353a7573.078 7573.078 0 00-4.436 3.497c-1.479-2.332-3.327-4.372-5.914-6.412 1.109-3.788 1.478-7.868 1.478-11.947-.739-12.531-7.392-24.188-12.198-35.844v-.583c0-6.119 7.393-9.616 12.568-13.405 4.805-3.497 8.132-7.868 9.98-12.822 3.696-9.325 1.479-19.233-5.544-27.392-5.175-5.829-16.264.582-11.459 6.411 5.914 7.576 5.544 17.484-1.479 24.478-2.587 2.623-5.914 5.245-8.501 8.16v-3.789c.37-6.119 4.066-12.53 1.478-18.65-1.848-4.371-6.283-6.994-11.088-9.617 1.108-2.04 1.478-4.954 2.587-6.702 2.957-3.788 5.914-6.702 7.393-11.074 2.957-7.868.739-15.736-4.806-22.438-5.175-6.411-16.633.291-12.198 6.702 2.588 3.206 3.327 6.994 2.588 10.782-.739 4.372-4.436 7.577-6.653 11.365-.37.583-.74 1.166-1.109 2.04-1.849-2.04-3.327-4.371-4.436-6.994-1.848-3.788-1.848-7.576-4.066-11.073-1.109-1.457-3.696-2.332-5.175-.583-8.871 10.199 2.588 25.936 12.568 32.929 2.957 2.04 7.392 3.497 9.98 5.829 2.957 2.914 1.109 6.702.369 9.908-1.478 6.119-1.478 12.239 0 18.65 2.957 12.531 10.35 23.896 13.677 36.135 1.478 5.245 1.478 9.908.369 14.57-2.957 1.166-4.435 4.663-2.217 6.994-1.479 2.914-2.957 5.829-5.175 8.743-1.109-.583-2.588-.875-3.696-1.166l1.108-6.12c1.479-14.862-2.587-28.849-9.61-42.837-1.479-3.206-3.327-6.702-4.805-9.908 0-.291.369-.291.369-.583 7.023-10.782 9.241-29.141-5.174-37.3-4.436-2.332-11.829-.292-10.72 4.662.739 3.497 1.848 6.703 2.588 9.908-2.218-3.497-4.806-6.994-7.393-10.199-1.109-1.457-2.218-2.623-3.696-4.08-.37-6.702.739-13.405-1.109-20.107-2.218-7.869-6.654-15.154-11.828-22.148-2.957-4.079-11.459-.583-9.611 3.789 4.066 7.868 8.871 15.736 9.611 24.478v2.623c-1.849-1.457-3.697-2.623-5.545-4.08-4.805-3.205-8.871-6.411-12.198-10.491-3.326-4.079-6.283-8.159-9.61-12.239-5.545-6.411-17.003.583-12.198 6.702 5.544 6.994 9.61 14.571 17.003 20.399 7.762 6.12 17.373 10.491 24.396 17.485 7.392 7.577 13.306 16.319 17.742 25.644-2.218 3.206-5.175 6.411-7.762 9.325v.292c-2.218-2.623-3.697-5.537-5.175-8.451-7.762-14.279-21.808-25.644-38.072-34.095-7.762-4.08-15.525 3.788-8.871 8.742 6.283 4.663 13.306 8.742 19.22 13.696-1.848 0-3.696 0-5.913.292-4.067.583-7.393 2.04-11.089 2.914-4.436.874-6.654-.583-9.981-2.914a64.583 64.583 0 01-10.719-10.782c-2.957-3.497-4.435-6.703-9.98-7.577-2.587-.292-4.805.874-5.914 2.623-4.436 6.993 6.653 16.319 12.198 21.273 5.544 4.954 11.828 10.199 21.069 10.199 7.762 0 15.524-5.537 23.287-3.497 2.587.583 6.283 2.623 10.349 4.08 1.109 2.04 2.588 4.08 3.697 6.119a48.624 48.624 0 007.762 8.743c-1.848 3.497-3.327 6.994-3.696 10.491-.74-.583-1.849-.875-2.588-1.458-16.633-8.159-37.333-9.908-55.445-15.153-8.871-2.623-18.112-5.537-25.504-9.908-4.066-2.331-7.763-5.245-10.72-8.451-2.957-3.497-3.696-7.285-5.914-10.782-2.587-4.663-11.828-4.371-12.937.874-1.848 7.286 4.066 15.736 9.98 21.273a46.644 46.644 0 006.284 4.954h-.37c-6.653 1.749-12.937 5.828-19.96 3.497-8.501-2.331-12.937-9.616-17.003-15.153-4.066-5.537-15.894-.583-12.567 5.245 7.392 12.531 19.221 26.81 39.55 23.604 8.132-1.165 15.155-5.828 24.026-5.536 7.023.291 13.677 3.205 21.069 2.914.37 0 1.109.291 1.479.291 0 .292-.37.583-.37.874-1.109 2.623-5.544 3.789-8.132 4.663-8.501 2.914-16.633 5.828-24.765 9.617-7.762 3.788-15.524 6.993-24.765 9.033-4.066.875-15.894.875-14.786 6.411 1.479 7.577 13.677 7.286 20.7 6.12a76.42 76.42 0 0011.089-2.623c0 1.166-.37 2.623-.74 3.789-1.108 3.205-3.326 5.828-4.435 9.033-1.109 3.789 4.066 6.703 8.501 5.537 9.98-2.622 17.743-16.61 12.198-24.187 1.479-.583 2.588-1.166 4.066-1.748 12.568-5.829 35.115-10.2 37.703-22.439 7.762 1.748 15.155 3.788 22.917 5.828 13.676 4.08 24.765 12.239 29.94 22.73-4.436-3.788-9.241-6.994-14.416-10.199-4.066-2.331-9.24 2.623-5.544 5.537 6.653 5.245 13.676 9.908 18.112 16.61.369.583.739 1.166 1.109 2.04-1.848-.583-4.066-1.166-5.914-1.748-2.218-.583-4.805-1.166-6.654-2.04-.739-1.749-1.848-3.497-2.957-5.246-7.392-10.782-21.808-16.61-35.854-20.981-9.61-2.914-15.894 8.159-6.284 11.365 5.914 2.04 11.829 4.079 16.634 6.994-.37.874-.74 2.039-.74 2.914-2.587 0-5.544.291-8.132.291-4.065 0-15.154-.583-15.524 4.371-1.109 10.2 25.135 9.908 37.702 7.285 1.849 4.372 2.957 8.743 4.806 13.114-4.806 1.457-5.915 7.285 0 9.034 1.109.291 2.587.583 3.696.874-1.109.291-2.587.583-3.696 1.457v.291c4.435-.291 7.762 1.457 11.458 3.206 1.109.874 2.588 1.457 4.066 2.331-2.218 1.457-4.066 2.914-6.284 4.371-2.957 2.04-5.544 1.457-8.871.292-4.435-1.457-8.871-3.497-12.937-5.537-3.696-2.04-6.284-4.08-11.089-3.206-2.218.292-3.327 1.749-3.696 3.497-.739 6.411 12.198 11.074 18.851 13.405 6.653 2.332 13.677 4.663 20.7 2.332 3.326-1.166 5.914-3.497 8.501-5.246 0 4.663 2.587 10.2 4.805 15.154-7.392.874-14.785 1.748-22.178 2.04-8.132.291-16.263.582-24.395-.875-4.066-.874-8.132-2.04-11.829-3.788-3.696-1.749-5.914-4.663-9.24-6.994-4.066-2.914-11.089-.291-9.611 4.08 1.848 6.119 9.98 11.073 17.003 13.988 2.218.874 4.805 1.748 7.023 2.331l-.369.291c-4.436 3.206-7.393 7.868-14.046 8.16-7.763.291-14.046-4.08-19.961-7.286-5.544-3.205-12.567 3.789-7.392 7.286 11.089 7.868 26.244 15.736 41.029 7.868.739-.292 1.109-.874 1.848-1.166-4.435 6.12-7.023 12.822-12.567 18.359-14.046 13.696-29.571-3.205-45.835-.874-21.069 2.914-29.57 18.359-33.636 33.512-8.502-8.742-17.373-17.193-16.264-30.307 0-.874-1.479-1.748-2.218-.874-.739 1.166-1.478 2.04-2.218 3.206-.369-1.749-1.108-3.497-1.848-5.246 6.654-1.457 13.677-2.914 19.221-5.245 19.96-8.451 35.854-29.141 18.851-45.169-.369-.291-1.109 0-1.109.583 6.284 9.908 4.066 19.525-2.587 27.393 1.109-6.12 0-12.531-2.218-18.068-.369-.874-2.218-.583-2.218.292-.739 12.239.37 26.518-18.481 30.015-5.914 1.166-12.198 1.166-18.112 1.748l-.37-.291c-1.478-2.331-2.217-4.663-2.217-6.994 1.108-1.166 1.848-2.623 2.587-3.788 8.501.583 17.742.291 22.178-3.789 4.805-4.371 4.435-11.656 5.175-16.901 1.478-8.743 3.326-17.485 2.217-26.227 0-.583-1.108-.583-1.108 0-2.958 6.119-4.436 12.822-5.915 19.233-.739 3.497-.739 7.576-2.587 10.782.37 3.788-1.848 6.411-6.653 7.577-2.957 2.914-6.654 4.079-11.089 2.914h-1.109c-.37-.875-.74-1.457-1.109-2.332 1.478-4.371 3.327-9.033 5.175-13.404 4.066-1.166 8.132-2.623 10.349-4.663 4.066-3.788 3.697-10.199 1.849-16.319.369-.583 1.108-1.166 1.478-2.04 6.653-10.199-6.284-20.399-9.98-30.015 0-.292-.739-.292-1.109 0-4.805 7.576 6.284 16.901 6.653 23.895a144.953 144.953 0 00-4.065-8.159c-1.109-2.331-6.284-1.457-5.175 1.166 1.478 4.371 3.326 9.033 4.066 13.696-2.588 1.165-5.914 2.04-10.72 2.914-4.066.583-8.501.583-12.567.583 9.241-12.239 4.805-26.227-6.284-40.798-.37-.583-1.848 0-1.478.583 7.023 14.571 12.567 28.267.739 39.923-3.327 0-7.023 0-10.35.292 12.937-8.16 8.502-25.062 2.218-36.135-.739-1.166-2.957-.874-2.588.583 1.849 9.616 7.024 25.061-6.283 31.472-1.109.583-1.848.874-2.957 1.166 2.218-3.206 3.696-6.411 4.066-10.783.369-10.782-6.654-22.438-15.155-30.889 6.284-5.537 11.458-11.948 14.415-19.233.37-.583-.739-1.166-1.478-.583-10.35 10.491-20.7 20.399-34.746 27.975-13.676 7.286-29.2 10.783-44.725 14.571-7.393 1.748-14.416 3.788-21.069 6.411 1.479-2.623 3.327-4.954 5.175-7.285 7.392-5.828 15.155-10.2 26.983-11.657 11.089-1.457 20.33-2.622 29.201-8.451 21.808-13.696 31.049-36.426 52.857-50.705.37-.292 0-.874-.739-.583-12.567 6.994-22.917 14.279-32.158 23.896-9.98 10.49-19.221 23.313-36.224 27.684-.739.291-1.109.291-1.848.291 2.218-2.623 4.436-5.537 6.284-7.577 5.175-6.119 10.719-12.239 14.415-18.941 0-.292 0-.292-.369-.292-5.914 4.371-11.089 9.034-16.264 13.988-4.436 4.08-8.871 11.948-15.525 14.279-.369 0-.369.292-.739.583-4.436.583-8.871 1.166-13.307 2.331 9.241-9.908 19.221-19.524 26.244-30.306 10.35-6.994 25.874-7.869 32.528-18.359 6.284-10.491 1.478-21.856-3.696-31.764 0-.292-.74-.292-.74 0 1.848 6.119 3.697 11.948 3.327 18.359-.739 11.948-8.502 17.193-21.439 21.856-1.848.582-3.696 1.165-5.544 2.039.369-.582.739-1.165 1.109-2.039 9.61-20.691 4.805-42.838-3.327-63.237 0-.582-1.109-.291-1.109.292 1.848 22.147 7.393 45.751-5.914 66.442-7.023 10.782-16.264 20.107-25.874 29.723-4.805-5.828-3.697-11.947-1.109-18.358 20.699-8.16 22.917-32.639 16.633-47.792 0-.291-.739 0-.739 0 1.479 9.034 0 18.359-4.066 26.81-1.109 2.331-2.587 4.371-4.066 6.411 1.479-2.914 2.588-5.537 2.957-8.451.37-4.08-.739-8.159-2.957-11.656 1.479-4.954 2.588-9.908 1.848-15.445 0-.874-.369-2.04-.369-2.914.739 0 1.109-.583 1.109-1.166 0-9.908 9.24-18.65 6.283-28.558-3.326-10.2-12.937-20.399-18.112-30.307h-.369c3.696 11.365 17.742 26.518 13.306 38.466-1.108 3.206-3.696 6.411-5.544 9.908-2.587-7.576-6.653-15.153-11.459-22.438 11.459-14.862-8.871-33.513-17.742-46.043h-.37c4.436 7.868 8.502 15.736 12.568 23.604 2.218 4.371 3.327 8.742 2.587 13.696-.369 1.166-.369 2.04-.739 3.206-9.241-13.114-20.699-25.353-31.049-36.427 0 0-.37 0 0 0 11.828 13.405 21.808 27.685 29.94 42.546 0 .292.37.583.37.875 7.023 13.113 16.264 28.849 13.676 43.42 0 .291-.369.874-.369 1.166-3.327-3.497-7.023-6.703-11.089-9.908-.37-.292-.74 0-.37.291 2.957 4.954 7.023 9.908 9.98 15.153-3.327 9.034-9.98 18.359-16.264 26.81-.369-1.457-.739-2.622-1.109-4.08-1.478-3.788-3.696-6.993-5.544-10.782-4.066-7.868-2.218-13.405.739-21.273 2.588-6.994 3.696-13.696 1.109-20.981-3.696-9.908-13.676-16.319-21.069-24.479-.37-.291-.739 0-.37.292 4.436 7.868 11.459 14.57 15.155 22.438 4.436 9.908 0 17.193-3.326 25.936-1.479-1.749-2.957-3.497-3.327-6.12-.37-4.371 1.478-8.742.37-13.113-1.849-6.994-9.981-12.24-14.416-18.068-.37-.291-.739 0-.739.292-.37 3.496 1.109 6.119 3.326 9.033 1.848 2.332 4.066 4.663 5.175 7.286 1.479 3.497.37 6.993 0 10.49v4.372c-2.587-.292-5.175-.583-7.393-.875 0-3.788-.369-7.868-1.108-11.656-5.915-31.472-29.201-59.157-57.293-81.595 27.722 24.187 50.27 52.162 52.118 85.383v6.12c-4.805-1.457-9.241-3.206-14.046-5.828-.37-.292-.739 0-.739.291 2.587 4.663 7.762 8.16 14.046 10.199-1.849 13.405-7.393 24.77-13.307 38.175-5.175 11.365-1.848 20.399 2.218 31.473 3.326 9.908 1.108 17.193-5.175 25.935-2.218-9.033-8.502-19.233-10.72-22.73-.369-.291-.739-.291-.739.292.37 6.411 1.479 12.53 3.327 18.941 1.848 6.411 1.478 10.783-1.479 17.194-.369.582 0 1.165.37 1.457-.37 1.165-.739 2.622-.739 3.788-3.697-1.166-7.763-1.748-11.459-2.623 2.957-4.662 7.393-9.033 12.198-12.239.37-.291.37-.874-.37-.874-6.653.874-11.089 2.331-15.524 6.702-1.109.874-1.848 2.04-2.957 3.206-.74-9.034 1.478-18.068 4.805-26.519 9.241-23.895 22.547-45.46 18.851-70.521l.37-.292c2.218-6.119.369-12.239 1.478-18.358 1.109-5.829 4.436-11.366 4.806-17.194.369-9.616-9.241-16.61-18.482-21.564-.37-.292-.739 0-.37.291 4.805 4.371 10.72 8.451 12.937 13.988 2.588 6.411-.739 11.656-2.957 17.776-1.109 2.914-1.848 6.12-2.587 9.617-7.762-17.776-22.548-32.93-42.138-44.003 0 0-.37 0-.37.291 24.026 15.445 38.072 38.466 39.92 62.945.37 3.205 0 6.411-.369 9.616-1.479-1.165-2.588-2.622-3.327-4.662-1.478-2.914-1.848-5.828-2.957-8.743-2.587-5.536-6.653-10.199-11.828-14.279-14.046-10.49-32.528-13.405-50.64-15.736-.369 0-.369.291 0 .291 21.809 5.829 48.052 12.24 56.184 31.182 2.588 6.119 4.066 16.027 11.829 19.233-2.957 13.696-9.98 26.227-15.895 39.34-.739-12.531 4.806-25.644-4.435-37.592h-.37c8.132 15.445-6.653 32.638 0 48.666-.739 2.04-1.478 4.08-1.848 6.119-1.848 6.994-2.957 13.988-2.218 20.982l-11.089-1.748c4.066-7.869 6.284-16.611 4.806-25.936 0-.292-.74-.583-1.109 0-2.957 7.577-6.284 14.279-9.98 20.69-1.849-12.531 2.587-25.644 6.283-37.883 6.284-20.108 11.459-43.129-4.066-61.779 0-.292-.369 0-.369.291 18.112 24.77-1.848 51.871-8.871 76.641-1.109 4.08-1.849 8.451-2.588 12.531-5.175-4.663-4.805-11.365-5.914-17.485-.739-3.497-1.479-6.994-3.327-10.491 4.806-11.948 5.175-26.227-11.089-32.929-.369-.292-1.109.291-.739.583 6.284 6.119 10.35 13.113 9.241 21.273-.37 1.457-.739 2.914-1.479 4.371-6.283-8.16-15.524-13.114-27.722-13.405-.37 0-.37.291 0 .291 14.046 2.623 21.439 10.783 25.135 20.399v1.749c-3.696-.875-7.023-.583-11.459-.875-3.696-.291-7.392-.582-11.089-1.165-.369-.875-1.848-1.749-3.326-1.166-.37 0-.74.291-1.109.291-.739 0-1.479-.291-2.218-.291-1.479-3.205-3.696-6.12-6.653-7.577-.37-.291-1.109 0-1.109.292-.74 1.748-.37 3.788 0 5.828-.37 0-.74-.291-1.479-.291-1.848-.583-3.326-.875-5.175-1.457-.369-1.166-.369-2.04-.369-3.497 0-2.623 0-5.246-.37-7.869-1.109-5.245-4.066-9.033-8.871-12.53-.37 0-.37 0-.37.291 4.806 6.12 5.914 12.531 5.175 19.525 0 .583 0 1.457-.369 2.04-9.981-3.497-19.591-8.16-30.31-10.783 0 0-.37 0-.37.292 8.871 6.994 19.96 12.822 31.419 16.61.739.875 1.478 1.457 2.587 2.04.74.292 1.479 0 2.218-.583 1.848.583 4.066 1.166 5.914 1.749-3.696 1.748-7.762 3.497-11.458 5.245-4.806-6.994-13.307-12.822-22.178-16.027-1.849-.583-3.697 1.165-2.588 2.622 5.545 5.537 13.307 10.782 17.373 17.194-1.109.582-2.218 1.165-3.327 1.457-2.587 0-5.175.874-8.132.582-2.957-.291-5.914-.874-9.24-1.457-3.327-.582-5.915-.874-8.502-.291l-3.327-1.748-2.217-.875c0-12.822-3.327-25.935-14.416-34.386-.37-.292-1.109 0-1.109.583 2.587 8.451 5.175 19.524 6.284 31.181-4.436-.583-8.871-.583-12.568.874-2.218-3.497-4.066-7.285-5.914-11.074-5.175-9.908-8.132-20.107-10.72-30.598 0-.583-1.108-.583-1.478 0-3.326 10.782 8.502 60.905 30.31 59.156-.739 6.703-2.218 13.405-5.175 19.234-3.696 2.331-7.392 5.245-11.458 7.285-5.915 2.914-11.829.291-17.003-2.623.37-.874.37-1.457.739-2.331 3.327.874 6.284 1.748 9.24 2.04 5.915.583 11.46-.292 15.156-4.08.369-.583.369-1.166 0-1.748 0-.292-.37-.583-.74-.583-1.109-.292-1.478-.292-2.218 0 4.806-4.954 5.175-12.531 1.849-18.068-.37-.583-1.849-.583-2.218.292-1.848 6.993.74 19.233-13.307 18.067h-.74c.37-.291 1.11-.291 1.48-.583 5.544-2.331 10.719-7.285 9.61-12.53 0-.875-1.848-.875-2.218-.292-2.957 3.206-5.175 6.703-8.871 8.743 4.435-4.08 8.871-11.948 7.023-16.028h-.37c-5.914 2.04-6.283 9.034-9.98 12.822l-.74.583c0-.583.37-1.166.37-2.04.37-.874.37-1.748.74-2.623.37-1.748.739-3.205 1.109-4.954 2.587-13.988 2.957-33.221-14.416-41.672-.37-.291-1.109.001-.74.583 7.393 14.571 9.242 27.102 6.654 41.381-.74.582-1.478 1.165-1.848 2.04-1.479 1.748-1.478 5.245-4.436 5.536 4.436-4.371 6.284-11.073 5.914-16.319 0-.874-1.478-1.165-2.217-.582-4.066 5.245-3.697 12.53-10.35 16.027h-.74c3.327-3.205 4.806-7.576 5.176-11.656.37-.292.739-.875.739-1.457 0-.292 0-.583-.37-.292h-.37c0-2.04 0-4.079-.369-5.828-.37-1.457-2.957-1.166-3.696 0-1.11 2.04-1.11 4.954-1.849 7.577-1.108.583-2.217 1.165-3.696 1.748 0 0-.37 0-.37.292-1.108-6.994-13.676-5.246-19.59-5.829-1.479 0-3.327-.291-4.805-.582 4.805-2.04 7.392-4.955 9.98-8.451 5.544.291 11.089 0 14.416-2.332.37-.291.37-.582 0-.874-4.066-1.748-9.61-1.748-15.155-1.748l2.587-2.04c7.393-1.166 11.828-6.703 17.373-9.908 1.109-.583.739-2.04-.74-2.04-7.392.291-10.719 6.411-17.742 7.577-1.478.291-2.957.291-4.436.291 3.697-.291 6.654-1.166 8.502-3.206v-.582c-1.478-.583-2.957-.875-4.805-.875 1.478-1.165 2.957-2.622 4.435-3.788 2.958-2.623 7.023-5.245 8.132-9.034 0-.291-.37-.874-.739-.583-8.132 2.332-11.459 10.491-19.59 12.531-1.11.292-2.588.583-3.697.583h-.37c2.218-.583 4.436-.874 6.654-2.04 5.914-2.623 5.544-7.868.37-10.782-1.11-.583-2.588-1.166-4.066-1.457.739-1.457 1.848-2.914 3.326-4.371 2.957-2.623 5.914-4.663 9.98-6.12 2.218-.874 4.436-1.457 5.545-2.914.74-.874 1.109-2.04.74-3.206-.37-1.748-1.48-1.165-.74-3.788.37-.874 1.109-1.457 1.478-2.331.74-2.623-1.848-3.497-4.435-3.206 0-.583 0-1.457-.37-2.04.74 0 1.479-.291 2.218-.291 2.587-.583 7.023-2.04 7.393-4.663 0-1.457-.74-1.748-2.218-2.331-1.479-.874-1.109.583-3.327-1.457-.37-.291-.739-1.166-1.109-1.748-2.217-2.04-5.914-1.749-8.501-.583-1.848.874-2.957 2.331-4.436 3.497-2.587 2.04-5.175 2.914-8.132 4.371-4.435 2.04-6.653 7.285-11.458 8.451v-1.457c.37 0 .37 0 .37-.292v-1.457c2.217-4.371 9.61-5.537 14.415-7.868 2.957-1.166 4.805-3.788 1.478-5.828-3.326-2.04-7.023 0-10.35 2.04v-.583c.37-1.457-.369-2.331.37-3.788l1.11-1.749c.369-3.205-5.175-2.914-7.393-1.748-1.848.874-2.957 2.331-3.327 4.08-.37 2.331 1.848 5.245.37 7.285-.74-2.04-3.697-3.497-6.654-3.206 0-.874-1.109-1.457-1.848-.874-4.066 3.788-6.653 8.742-8.871 13.988-.37-.292-.37-.583-.37-.875 1.11-2.914 1.848-5.828 1.11-9.325-.37-1.165-2.958-1.165-3.327 0-.37 1.457-1.11 2.914-1.479 4.372-2.218-1.458-5.175-1.458-7.393-.583.74-2.332 1.479-4.663-.37-6.703-1.478-1.457-4.065-1.457-5.913-.874 1.478-3.206 2.217-7.577-2.957-9.034-4.436-1.165-7.023 2.332-7.023 5.246-4.066.291-7.763 3.497-2.588 5.828.74.291 1.848.583 2.588.874 1.478 1.166 1.478 2.331 2.217 3.788.74 1.166 1.11 2.04 2.218 3.206 1.479 1.748 1.479 3.205.74 4.954-.37 1.166 0 2.04.739 3.205 1.108 2.04 4.066 3.789 2.957 6.12 0 .874-.37 1.457-1.11 1.749h-.738c-.74 0-1.11 0-2.218-.292-.37-.291-.74-.291-1.11-.583-.369 0-.738-.291-1.478-.582v-2.04c0-.583-1.109-.583-1.848-.292-.37.292-.37.583-.74.875-.738-.875 0-1.458 0-2.623 0-1.166-.369-2.331-1.108-3.206-2.957-3.497-9.61-2.04-10.72 1.457-2.956-.291-6.653 0-6.283 2.914.37 3.497 8.132 4.954 11.459 5.829 0 .583 0 1.457.37 2.04-.37-.583-1.849-.875-2.219-.292l-1.108 1.749c-1.479-.583-3.327-.292-5.545 0-.37-1.166-1.478-2.04-2.587-2.915-1.479-1.457-2.218-3.205-3.697-4.371.37 0 .74-.291 1.11-.582.739-.583.739-1.749.739-2.332 0-2.331 0-3.788.739-6.119 1.109-2.623 2.587-4.954 2.587-7.869v-1.165c1.11-.583 1.109-1.166 1.479-2.04 1.848-3.497 7.023-5.828 7.392-9.908.74-4.663-5.175-7.285-10.35-6.994 0-2.331-.739-4.954-1.108-7.285-.37-1.457-.37-2.914-.74-4.371 1.11-.875 2.588-1.749 2.958-2.914.37-1.166.37-2.04.37-3.206 0-2.04 1.108-3.206 1.847-4.954.74-1.748 0-3.788-1.848-5.245-2.218-2.04-5.544-2.623-8.501-1.749.37-1.748-.37-3.788-.74-5.245 0-1.166-.37-2.623-1.108-3.789-1.48-1.748-3.697-1.457-5.915-1.165-2.587.291-6.283.291-7.392 2.622-1.11 1.749 0 2.332 1.478 3.789 1.11 1.165 1.848.874 0 1.748-1.109.583-2.587.292-4.066.583-1.109 0-2.218.291-2.957.874-3.696 3.497 3.697 9.908 7.023 12.531-1.848 0-3.696.874-4.805 1.749-2.957 2.331-2.587 5.536-1.109 8.45 2.218 4.954 4.436 9.908 7.023 14.571.37.874 1.109 2.04 1.479 2.914v8.16c-1.848-2.04-3.697-3.789-4.805-6.411-1.11-2.623-1.48-5.246-1.48-8.16 0-3.206-.369-7.285-5.174-8.159-4.436-.875-9.61 2.331-10.72 5.536-.369 1.457 0 2.623.74 3.789 1.848 2.914 4.805 5.245 6.653 8.159 1.849 2.914 2.957 6.12 2.957 9.325 0 2.623-.37 5.246 0 7.868 1.11 5.829 5.915 10.491 7.393 16.319 1.479 5.246.37 10.491 4.066 15.154 1.109 1.457 2.218 2.623 3.696 3.788.37 2.04.74 4.08 1.479 6.411-1.848-1.748-3.327-3.205-5.914-4.371-.37-1.166-1.11-2.623-1.848-3.788-1.849-2.332-3.697-4.954-5.545-7.286-2.587-3.497-1.848-6.119-1.848-9.908-.37-5.536-4.436-10.199-5.175-15.736-.37-4.079 2.588-10.782-1.109-14.279-2.218-2.04-5.914-2.04-8.87-.874-1.48.583-2.219 1.166-4.067 1.166-.74 0-1.109-.292-1.848-.292-.74 0-.74 0-1.479.292-1.478.291-2.217.874-4.066.291-2.587-.583-5.544-1.166-7.392-.291 0-2.332 0-4.954-.37-7.577-.739-11.948 1.848-24.187-.369-36.135 0-.874-1.479-1.457-2.218-.874-12.568 7.868-15.894 18.65-17.003 30.306-2.218-2.331-4.066-4.662-7.023-6.702-3.327-2.331-8.502-.583-10.35 2.04-5.175 8.159 3.327 19.524 12.198 23.896 1.109.582 1.848.874 2.957.874-1.848 5.828-5.175 10.491-9.241 14.862-.739-1.457-1.848-2.914-2.587-4.371-12.198-19.816-10.72-30.89-.37-49.54 3.696-2.04 6.653-4.663 8.871-6.994 4.436-4.371 10.72-9.908 8.871-16.028-.369-1.748-1.848-2.623-4.066-2.623a18.34 18.34 0 00-5.544.875c0-1.457-.37-2.914-.739-4.371-2.218-9.034-21.439-10.783-21.809-.292-.369 13.114-11.828 21.565-17.742 33.221-1.848 3.788-2.957 7.577-3.696 11.365l-1.109-.874c-.37-.292-.739-.874-1.109-1.166a6.686 6.686 0 00-2.218-3.205c-.739-2.623 0-5.537 0-8.743 0-5.245-.369-10.491-5.175-14.279-2.217-1.748-5.544-1.748-7.023.583-4.435 6.994-8.871 15.736-8.501 23.896-1.479.583-2.588.874-4.066 1.165-4.066.875-8.502 1.749-11.828 3.789-.37.291-.37.582-.37.874 1.109 4.954 8.132 7.577 14.046 8.159 3.327.292 6.653.292 9.98-.582 5.175 3.788 12.568 6.411 18.482 9.908 2.587 10.199 8.501 19.524 14.046 28.849-5.545.874-11.089 1.457-16.634 1.166 1.848-10.491-8.132-21.856-23.287-19.816-4.066.583-7.392 2.04-10.349 4.08.369-7.286-1.479-14.279-7.023-19.233-.37-.292-1.109-.583-1.479-.292-6.653 4.371-8.871 10.2-10.719 16.611-2.218 6.411-4.805 11.073-9.241 15.153.739-2.331.739-4.954-.37-7.285-.739-1.457-2.587-5.246-5.544-4.663-2.587.583-5.175 1.749-7.023 2.914l-.37-.874c3.327-1.166 5.914-3.205 8.132-5.828 1.848-2.331.74-4.663-1.478-6.411 2.587-.292 5.175-.874 7.762-1.166 2.218-.291 3.696-2.04 2.587-3.497-1.848-3.497-2.957-7.285-3.326-10.782 1.109-.291 1.848-.292 2.957-.874 6.653-2.332 7.392-8.451 2.218-12.24-1.109-.874-2.218-1.457-3.327-1.748.739-3.206 1.848-6.411 2.587-9.617.37-.582.74-1.165 1.109-1.457.739.292 1.109.583 1.848.583 0 .583.37 1.166.37 1.749.37 1.748 3.327 2.04 4.436.583.739-1.166 1.108-2.332 1.108-3.497.37.291.74.582 1.479.874 2.218 1.457 5.914 2.622 7.762.291a.75.75 0 000-1.165c-.739-.875-1.848-1.166-2.957-2.04-1.109-.875-1.848-1.749-2.587-2.623 1.848.874 4.066 1.457 5.914 2.04 1.478.291 2.957-.583 2.587-1.749-.369-1.165-1.478-2.331-2.587-2.914 1.478 0 2.957.292 4.066-.291.369 0 .739-.583.739-.874 0-.875-.739-1.749-1.478-2.332.739.292 1.478.292 2.217.583 2.588.874 4.436-1.748 2.588-3.205-.739-.583-1.479-1.166-2.218-1.457.739-1.166 1.109-2.915.37-4.372-.37-.874-1.849-1.457-3.327-1.165.37-1.166-.37-2.332-1.848-2.914-2.957-.875-5.175-.292-7.762.582-5.545 1.458-10.72 1.166-12.198-4.079 0-.292-.37-.583-.74-.875l4.436-.874c1.479-.291 2.218-2.04.739-2.914-1.478-.583-3.326-.874-5.175-.874 0-.292.37-.874.37-1.166 0-.583-1.109-4.08-1.109-3.788 0-.292 4.805 0 6.284 0 5.914.583 7.023 1.457 7.762 5.245.37 2.623 0 2.914 1.848 4.954 1.479 1.749 4.436.583 5.175-.874.37-.291.739-.583.739-.874 2.218 1.457 5.175 1.457 9.241 1.165 3.327-.291 6.284-.582 7.762-3.205 1.849-2.914-1.108-4.371-.739-6.411 0-.292 1.109-2.914 1.479-4.08v-.291h1.848c4.066 0 5.544-2.332 5.175-4.663 3.326.292 6.653-.291 9.98-1.457 2.957-1.166 1.109-4.371-1.848-4.08-3.697.583-6.654.583-9.98 0 1.108-1.165 2.587-2.04 4.435-1.748 3.327.291 3.696-3.497 1.109-4.371-3.696-1.457-7.762.291-10.35 2.622-.739.583-1.109 1.166-1.478 1.749-1.848-.583-3.696-1.166-5.545-1.166-1.109 0-2.587 0-3.696.292-.37 0-.37-.292-.739-.292h-4.066l.739-.583c4.436-2.331 4.805-2.039 9.611-1.457 5.174.583 10.349-.874 11.828-4.662v-.292c.369-.291 1.109-.291 1.848-.582 1.109-.583 1.478-1.457 1.478-2.332v-1.165c0-.292-.369-.583-.739-.583-2.218-.292-4.435 0-6.653 0 1.478-1.166 2.587-2.623 3.696-4.08 1.848-2.623-2.957-5.537-5.175-2.623-1.848 2.332-4.435 4.371-7.762 5.246.37-2.332 1.479-4.371 3.696-5.828 2.588-1.458 5.545-2.04 8.502-2.915 1.109-.291 1.109-1.748 0-2.039-2.218-.875-4.066-1.166-5.914-1.166.369-.291.739-.874 1.109-1.166 2.217-2.04-1.849-4.662-4.436-2.914-1.848 1.166-3.696 2.623-5.175 4.371.37-3.497 1.479-6.411 5.914-8.451 2.218-1.165 1.479-4.371-1.848-3.788-1.848.291-2.957.874-4.435 1.749.739-2.332.739-5.246-3.327-5.246-1.109 0-1.848.583-2.218 1.166-.37.583-.37.874 0 1.457.739.583-1.478 3.497-2.218 4.662 0-2.331-.739-4.371-2.957-6.411-1.478-1.457-5.544-.291-4.805 1.749.37.874.739 1.748.739 2.623-.739-.292-1.478-.583-2.217-.583-1.109-.292-2.218 0-3.327 0-4.066-.875-3.327-3.497-1.109-4.954 1.848 0 3.696-1.457 2.218-2.914l-1.109-.875c-.739-.583-1.479-.874-2.588-.582-4.066-2.915-9.24-2.915-12.567 1.165-.739.874 0 2.04-.37 2.914-1.109 1.749-2.957 2.623-4.435 3.497-.37-2.622-1.109-4.954-1.109-7.576 0-2.623 1.478-4.372 3.326-5.537 7.023 1.748 14.416 2.04 21.809 2.914 3.696 2.914 7.762 5.537 11.828 6.411 1.479.291 2.957-.583 2.587-2.04-.369-1.457-1.108-2.331-1.848-3.497 2.588 1.166 5.914 2.331 7.023 1.749.74-.292 1.479-1.166 1.109-1.749-.739-1.457-1.478-2.331-2.587-3.497.739-.291 1.478-.874 1.848-1.457 3.327 2.623 7.023 4.663 11.828 4.08 1.109-.292 2.218-1.166 1.848-2.04-1.109-2.623-3.696-5.245-7.023-7.577 2.957.292 6.284 0 9.241-.874 1.479-.583 1.479-2.04.37-2.914-3.697-1.749-7.763-2.623-11.829-3.497.74-.291 1.849-.874 2.218-1.749.37-.291.37-.874 0-1.457-1.478-1.748-3.696-2.331-6.283-2.622 2.587-.292 6.283-.583 6.653-2.623 0-.583 0-1.166-.37-1.748 1.848 0 3.697 0 5.545-.583 1.109-.292 1.478-1.749 1.109-2.332 0 0 0-.291-.37-.291 2.587.291 4.805-.291 7.393-1.748 6.653-3.789-1.849-13.405-4.436-16.902-2.587-3.497-5.175-6.994-7.393-10.491-.369-.291-.369-.874-.739-1.166 9.98 2.04 19.591 6.994 28.092 11.948 11.089 6.12 22.548-7.285 11.828-13.696-15.894-9.617-34.375-18.068-55.075-17.193-1.109 0-1.848 0-2.957.291.739-1.748.739-3.497-.739-5.537-1.109-1.165-2.957-1.748-4.436-.583.37-3.205 0-6.119-1.109-8.451 1.849-1.748 4.066-3.497 6.654-4.662 18.112-2.331 36.963 1.748 51.748 10.782 8.502 5.245 16.264 10.782 24.396 16.319-15.894 11.074-6.284 33.804-5.914 48.957 0 1.457 0 3.206.37 4.663-14.786.291-29.571 16.902-26.244 27.684 1.478 4.662 8.871 7.285 13.676 3.788 4.066-2.914 6.284-6.994 9.61-10.199 1.479-1.166 3.327-2.332 4.806-3.206 1.109 3.789 2.217 7.868 4.066 11.657 3.696 7.285 11.458 18.067 23.286 14.279 8.502-2.914.37-13.405-1.108-17.776-3.327-9.325-4.066-18.651-4.436-28.267 0-9.617-1.848-18.942-3.327-28.558-.739-3.206-1.848-7.869 1.109-10.783l1.109-.874c.37.292 1.109.583 1.479 1.166 4.805 6.411 13.676 10.199 18.851 16.319 6.653 7.285 4.805 16.902 8.871 25.061 9.61 20.399 38.442 20.69 61.728 18.65 10.72-.874 9.241-14.862-1.108-14.57-11.09.291-24.766 1.166-34.006-4.663-8.132-4.954-6.654-13.113-8.872-20.398v-.583c3.697.874 7.763 1.748 11.829 2.04 11.828 1.457 28.092.582 37.702-6.12 7.023-4.954 1.109-13.114-7.762-12.239-6.654.583-12.937 2.622-19.96 2.331-7.023-.291-13.307-1.457-19.59-3.497-11.83-3.788-22.179-9.908-32.528-15.736-20.33-12.239-37.703-29.433-60.62-38.466-1.109-.583-2.588-.875-3.696-1.457 4.805-2.915 8.871-6.703 12.567-10.783 5.914.875 11.828 1.166 18.112.583 4.066-.291 7.762-.583 11.828-1.166 4.436 2.623 10.35 4.663 12.937 6.412 8.132 5.536 5.545 16.027 11.089 23.021 6.284 8.16 18.112 10.199 29.57 11.656 11.09 1.458 32.528 4.954 39.551-4.079 1.849-2.332 1.849-4.954-.37-6.994-5.174-4.663-10.718-3.497-17.742-3.789-7.762 0-15.524-.582-23.286-2.039-5.545-1.166-9.61-2.04-11.09-6.703-1.478-4.08-1.847-7.868-3.696-11.948-.739-2.04-2.217-3.788-3.696-5.245 11.459 1.748 22.178 4.954 33.267 7.285 11.828 2.623 17.373-9.908 6.284-13.988-23.657-8.45-49.901-12.822-75.775-9.908-5.175.583-10.719 1.458-15.894 1.458v-.292c2.587-4.371 5.175-9.034 8.132-13.405 16.633-2.331 33.267-3.497 49.53-2.04 15.155 1.166 27.723 6.703 42.139 9.326 13.676 2.622 27.352.874 41.398.874 12.568 0 14.046-15.154 1.479-15.445-8.132-.291-16.264 0-24.026 0-8.502 0-15.525-1.457-23.657-3.497-3.326-.874-6.283-1.457-9.61-2.04 1.479-.583 2.587-1.166 3.696-1.748 12.937-5.246 27.723-6.411 42.138-8.743 7.763-1.165 7.393-11.365-1.109-11.073-13.676.291-27.352 1.457-40.29 4.954-11.088 2.914-19.96 8.742-29.94 13.113-2.957-.291-5.544-.291-8.501-.291-6.654 0-13.307 0-19.96.583 5.175-1.749 10.719-2.915 16.264-4.663 7.392-2.623 5.544-10.782-1.109-12.822-21.809-7.285-46.574 7.868-57.293 21.564 0 .292-.37.292-.37.583-3.696.583-7.393 1.166-10.719 1.749.369-1.749 1.109-3.497 1.478-5.246.37-.874-1.478-1.165-1.848-.291-.739 2.04-1.478 3.788-1.848 5.828-1.479.291-2.957.583-4.805.583-1.109 0-1.848.291-2.957.583 1.109-3.789 1.478-7.868.739-11.657 7.393-1.457 14.785-2.914 21.808-5.245 9.98-2.914 18.851-7.285 26.614-13.114 4.066-2.914 8.501-7.576 14.415-6.702 5.175.583 10.72 3.497 15.525 4.954 17.003 3.788 47.682 2.914 56.184-11.948 1.478-2.331-1.848-4.371-4.436-4.08-6.653.292-12.567 3.206-18.85 4.08-4.067.583-8.502.874-12.938.874.74-.874 1.478-1.457 2.218-2.331 4.066-4.663 5.914-9.908 11.828-13.696 4.805-3.206 11.089-5.246 17.373-5.246 12.567-.291 14.046-15.153 1.478-15.445-13.676-.291-26.244 3.497-35.854 11.365-5.175 4.372-7.023 9.326-10.35 14.28-1.478 2.331-5.544 4.662-7.762 6.993-7.023-2.331-14.046-4.371-21.808-2.914-10.72 2.04-17.003 9.617-25.875 14.28-1.848.874-3.696 1.748-5.174 2.622 2.217-4.371 3.696-9.325 5.914-13.405 5.544-11.073 19.221-18.359 34.376-18.359 11.828 0 13.306-13.987 1.108-14.57-16.633-.583-32.527 4.371-43.247 14.279-5.914 5.245-9.61 11.074-11.458 17.776-1.848 7.285-1.479 16.028-10.35 20.69-.369.292-.739.292-1.109.583-15.524 3.206-31.788 5.245-46.573 9.617.739-2.04 1.109-4.08.369-6.12 16.264-2.331 32.898-4.663 45.465-14.279 9.61-7.285-3.696-19.525-13.676-12.531-11.829 8.451-29.571 8.451-44.726 10.491-2.587.291-5.544.874-8.132 1.457 4.436-3.788 9.241-7.285 14.416-10.491 18.482-10.782 41.399-13.405 61.359-21.856 9.241-3.788 17.373-8.742 24.765-14.57 6.284-4.954 14.785-12.53 12.568-20.108-.74-2.33-3.697-4.08-7.023-3.496-9.98 1.748-17.003 11.365-24.766 16.319-6.283 4.079-12.937 6.993-19.96 9.616 2.218-17.193 25.505-26.81 41.399-35.843 1.109-.583 2.218-1.166 3.327-2.04 4.435 2.914 11.089 3.788 16.633 4.662 7.762 1.166 16.264 1.166 23.657-1.457 11.828-3.788 24.026-14.279 19.22-24.478-1.478-3.206-7.392-3.497-10.35-1.457-6.653 4.662-8.501 11.656-18.111 13.987-5.545 1.457-11.459 0-17.373-1.165 2.218-2.04 4.066-3.789 5.914-6.12 6.654-8.16 9.611-17.193 12.198-26.518 1.109-4.08-.739-7.868-5.914-9.617h-.37c-.739-.291-1.478-.291-2.218-.291-4.066 0-8.871 1.748-9.61 4.954-2.957 9.616-6.284 19.233-14.416 27.1-7.392 6.995-17.372 11.949-26.613 16.903-18.482 10.2-36.594 23.604-37.333 42.546 0 2.04.739 3.497 1.848 4.954-19.96 5.828-38.811 12.239-54.336 24.478-.369-.582-.739-1.165-1.848-1.165-4.805-.292-8.132 4.079-8.132 7.576 0 .875 0 1.749.37 2.623-5.914 6.12-11.089 12.822-14.785 19.816-.37.291-.74.291-1.109.583-2.218 1.457-4.436 2.914-6.284 4.371-1.109 0-2.587.583-3.327 1.748-.369.583-.739 1.166-.739 1.749-1.109.874-2.218 2.04-3.327 2.914 0-1.166-.369-2.331-.369-3.788v-.292c.739-2.622 4.805-3.497 7.762-4.954 2.587-1.165 4.805-2.914 6.284-4.954 2.957-3.788 3.326-8.451 1.478-12.822-1.478-3.205-7.392-1.165-5.914 1.749 1.848 3.788 0 8.159-4.066 10.782-1.478.874-3.326 2.04-5.175 2.914 0-.583.37-1.166.37-1.748 1.109-2.623 3.696-5.246 3.327-8.16 0-.583-.37-1.166-.37-1.457 1.848-2.623 3.696-5.245 5.914-7.868.739-.874 1.109-1.457 1.848-2.331 8.132-2.915 15.525-7.286 22.917-10.491 8.872-3.789 19.221-6.994 27.353-12.239 6.654-4.08 11.828-10.2 15.894-16.028 1.849-2.623 3.697-5.245 5.175-8.16.74-1.165 1.109-2.331 1.479-3.497 0 0 .739-2.914 0-.874.369-1.457-1.109-2.622-2.588-2.914-15.894-5.245-24.395 13.405-34.745 18.359-3.696 1.748-7.762 3.206-12.198 4.954 4.805-5.828 9.611-11.365 15.155-16.61 14.416-14.28 34.745-23.605 54.706-32.638 11.458-4.954 2.587-19.234-9.241-14.28-20.7 8.451-41.029 17.485-56.924 31.181-14.785 12.822-25.874 28.267-37.332 43.421 4.435-6.703 8.501-13.114 11.828-20.108 4.805-9.908 8.132-20.69 15.524-29.724 6.654-7.868 16.264-13.113 26.614-17.484 9.98-4.08 20.33-7.577 30.31-12.24 9.98-4.662 22.917-10.199 25.135-20.107 1.109-4.954-5.545-8.16-11.089-7.577-6.284.583-11.089 4.371-16.264 6.994-4.805 2.331-9.611 4.371-14.785 6.411-.37 0-.74.292-1.109.292.739-2.623 1.848-5.246 3.696-7.286 5.914-5.828 17.373-6.41 23.287-12.822 2.587-2.914 1.109-8.16-3.696-9.033-11.829-2.04-26.244 2.04-35.116 8.45-8.871 6.412-15.154 19.234-12.197 28.559 0 .583.369 1.165.739 1.748-2.218.874-4.436 2.04-7.023 3.206-10.35 4.954-19.591 11.073-26.614 18.65-7.023 7.868-11.089 17.193-15.154 26.227 0-2.914-.37-5.828-.74-8.742-1.848-10.782-4.066-20.108 1.848-30.598 5.545-9.908 14.786-17.776 24.396-25.062 7.393-5.828 19.591-12.239 22.178-20.69.37-1.166-.37-2.331-2.218-2.623-11.458-1.748-25.135 5.829-34.006 10.783-11.089 6.12-21.069 13.987-28.092 23.312-5.544 7.286-9.61 15.445-10.719 23.896v-.583c-2.218-11.073 1.848-21.273 7.023-31.472 4.435-9.034 12.198-20.399 8.871-30.307-.739-1.748-2.957-2.914-5.175-2.04-11.828 4.371-19.221 16.61-24.396 25.353-6.283 9.908-11.089 20.399-11.828 31.473-.739 10.49 2.588 21.564 8.871 30.889 5.175 7.868 14.046 13.696 19.591 21.273-4.066 17.485-15.155 33.512-20.33 50.706-.739-1.166-1.109-2.04-1.478-3.206-.74-1.748-1.109-3.497-3.327-4.371-1.109-.292-2.218 0-2.957.583-2.957 2.622.739 7.868 2.587 10.782 1.109 1.457 2.218 3.205 3.697 4.371-.37 2.331-.74 4.371-.74 6.703-1.478-.583-2.587-1.166-4.066-2.04-3.696-2.04-7.392-4.08-9.98-6.703-1.478-1.457-2.587-2.914-3.696-4.662-.739-1.749-.739-3.497-1.109-5.537-.739-2.331-4.805-2.914-5.914-.583-1.848 3.206-.37 7.577 1.478 10.491.74.874 1.479 2.04 2.218 2.914h-.369c-3.327.291-6.654 1.457-9.611 0-3.327-1.749-4.435-5.537-5.544-8.451-1.109-2.914-7.023-1.748-6.284 1.166 1.478 6.411 4.805 13.696 14.416 13.987 3.696 0 7.762-1.165 11.458-.291 3.327.874 5.914 2.623 8.871 3.205.37 0 .37.292.74.292 0 0 0 .291-.37.291-.739 1.166-2.957 1.166-4.436 1.457-4.066.583-8.132 1.166-12.567 2.04-4.066.874-8.132 1.749-12.198 1.749-1.848 0-6.284-.875-7.393.874v-.291c-2.217-17.194 1.109-38.175 3.697-53.62 0-.292-.37-.292-.37 0-4.435 16.027-7.762 31.472-8.132 47.791-1.848-2.331-3.696-4.662-5.544-6.702-8.132-11.074-4.066-21.856-13.307-32.055-.37-.292-.739 0-.739.291 7.023 11.074 0 23.313 6.283 34.387 1.849 3.496 4.806 5.828 7.393 8.45 2.218 2.332 4.066 4.372 5.914 6.703.37 6.994 0 15.736 5.545 21.564 4.435 4.663 8.871 6.994 12.937 9.326-5.175 9.325-11.828 17.193-13.307 26.227-3.327-2.332-4.805-7.577-4.066-17.777.37-5.245 4.066-8.159 2.957-13.696-2.218-13.988-16.633-27.975-26.983-39.049 0-.291-.37 0-.37.291 6.284 8.451 14.416 18.359 18.112 27.976 4.066 9.908-1.478 19.233-1.478 28.558 0 8.451 1.848 13.405 6.284 21.273.739 1.166 1.848 1.457 3.326 1.457h1.848c.37 2.04 1.109 4.08 2.218 6.12 3.327 6.702 11.459 10.491 8.871 18.359-5.544-2.623-11.089-5.537-15.524-10.2-2.588-2.622-4.066-5.245-5.545-7.576 0-2.332-.369-4.954-.369-8.16 0-6.119-1.109-11.948-2.588-17.776.74-8.159 1.848-16.61-.739-25.061-2.957-10.2-9.61-18.651-18.851-25.644-2.957-10.491-3.697-21.565-.37-32.93.37-.583-1.109-.874-1.478-.291-4.436 10.491-4.806 20.399-2.957 30.015l-4.436-2.623c-.739-.291-1.479.292-1.109.875 2.218 1.748 4.436 3.788 6.284 5.536 2.587 11.948 8.132 23.605 13.676 35.844.37.874.74 1.457 1.109 2.331 0 2.332-.369 4.663-.739 7.286-.37 2.039-.739 4.371-1.109 6.411-2.587-2.04-7.023-4.954-5.544-2.914-5.915-8.16-4.436-16.611-5.915-25.062-1.109-6.411-1.478-11.074-5.544-16.319-1.479-10.491-8.871-18.65-14.785-27.101 4.066-9.617 6.653-19.525 11.089-28.85 4.435-9.325 11.458-18.067 14.415-27.684 0-.291-.369-.291-.739-.291-9.241 7.576-14.046 18.65-18.851 27.975-3.697 7.577-7.393 15.736-9.611 23.604-5.914-9.616-7.762-20.107 4.806-34.095.369-.291-.37-.582-.37-.291-9.241 7.285-19.96 17.485-16.634 28.558 1.479 4.663 4.066 6.411 7.023 9.908 6.654 7.285 11.459 13.697 14.046 20.108-10.719-6.411-25.134-8.743-38.811-8.451-1.848 0-2.587 1.748-1.478 2.914-4.436-.874-9.611-1.457-12.938-2.623-5.174-1.748-9.24-3.497-12.567-5.828v9.034c18.112 8.159 33.637 11.365 34.006 31.763 0 4.663-.369 9.326.37 13.405-2.957.875-5.914 2.04-8.502 3.497 1.479-4.371 1.479-8.451 0-13.113-.369-1.166-1.478-2.04-2.957-1.749h-.739v-.583l-.739-.582c.369 0 .739-.292.739-.583 0-.583.739-.874.37-1.457-.74-2.914-8.132-2.914-6.284-6.703.369-.874-.37-1.748-1.479-1.748-.739 0-1.109 0-1.848-.292-.739 0-1.848.583-1.848 1.166.37-2.04-4.805-2.04-6.653-2.04v-.874c.369-.291.739-.291 1.108-.583 1.109-.583.37-2.04-.739-2.04s-1.848 0-2.587.292c0-.292.369-.583.369-.875.37-1.165.37-2.914-1.848-3.205-.369 0-.739 0-.739.291V862h2408.52V80.727h1.48zM651.753 569.132c-1.109-2.04-2.218-4.371-2.957-6.411 1.109.291 2.587.583 3.696.874-1.478 1.457-1.478 3.497-.739 5.537zm-825.018-356.396c.369 0 .739 0 1.109-.291 1.478-.292 2.587-.583 4.066-.583-.74 1.457-1.479 2.914-2.588 4.371l-3.327-.874c.37-1.166.74-1.749.74-2.623zm-3.697.583c0 .291-.369.583-.369.874-.37 0-1.109-.291-1.479-.291.739-.292 1.479-.292 1.848-.583zm-245.066-13.988c3.327 4.954 5.545 10.199 6.654 15.736l-6.654-15.736zm-19.59 28.558c.37-.291.739-.291 1.109-.582 0 0 .369 0 .369-.292.37 2.623.74 5.246 2.588 7.577 5.914 9.325 17.373 12.822 7.762 22.73.37-2.331.37-4.954-1.109-7.868-3.696-7.868-11.828-11.365-10.719-21.565zm-28.831-39.34c12.937 4.662 24.395 9.616 28.461 21.273-.739 2.914-1.848 5.828-3.326 9.034-.74 2.04-1.479 3.497-2.218 4.954-6.284.582-12.198 1.457-17.743 2.914-2.217-11.365 4.436-30.016-5.174-38.175zm15.894 78.681c-.739-1.166-1.109-2.623-1.848-4.08-3.697-10.491-2.218-21.564 5.914-29.432 0 2.622.739 5.245 1.848 9.325.37 1.748 5.544 2.04 6.284 3.788 4.066 11.074-3.697 16.611-12.198 20.399zm27.353 22.73c-3.327-1.166-6.654-2.623-9.611-4.371-2.587-6.411 5.175-11.074 8.871-14.862 4.066-4.371 8.132-7.577 11.089-10.782.37 2.622 1.109 5.245 2.218 7.868.739 2.04 1.848 4.079 2.957 6.119-2.587 6.12-6.653 10.2-15.524 16.028zm39.92 3.497c-9.98 1.166-20.33 1.166-30.31-.874-.37 0-.739-.292-1.479-.292 4.066-2.914 7.763-6.119 10.72-9.616.739-.875 1.109-1.457 1.848-2.04 3.696 3.497 7.762 6.702 12.937 9.325 2.587 1.457 4.805 2.331 6.284 3.205.369 0 .369 0 0 .292zm4.435-94.417c-1.848-1.749-3.326-3.789-5.174-5.537 1.478.291 2.587.583 4.065.583 1.849 0 3.697 0 5.175-.292-.369.583-.369 1.166-.739 1.749-1.109 1.165-2.587 2.331-3.327 3.497zm3.697 4.079c-.37-.291-.37-.582-.74-.874 4.806-.291 10.35-5.828 8.872-9.908.739-.291 1.478-.291 1.848-.583 6.653-1.457 17.003-1.457 19.96-6.702 0 0 .37 0 .37.291v6.994c-.74-.583-1.479-.874-2.218-1.457-3.697-2.04-8.502 2.331-4.436 4.663 2.588 1.457 4.805 2.914 6.654 4.954v1.165c-1.479-.291-2.958-.582-4.436-.582-1.848-.292-6.653-1.458-7.762.582-1.479 3.789 5.914 5.829 11.828 6.411 0 2.04-.37 4.372-.739 6.411-1.109 2.04-2.588 4.08-4.066 5.829-7.023-.583-8.502 1.457-25.135-17.194zm8.871 28.85c-1.479.874-3.327 1.457-5.175 2.04 1.109-2.331 1.479-3.788 1.479-5.537 1.478 1.166 2.587 2.332 3.696 3.497zm-12.937 15.736c.739-2.331 2.218-4.371 3.696-6.411 4.436.292 10.719.875 15.894 2.04 0 .292.37.874.37 1.166h-.37c-7.023 2.914-14.785 6.702-21.069 7.868.37-1.166.739-2.914 1.479-4.663zm18.851 22.439c-1.109 1.748-2.218 3.206-3.327 4.954-.739 1.166.37 2.331 1.479 2.623-.37 1.165-.37 2.04-.739 3.205-.74 2.914-1.479 6.12-1.849 9.034-.369 0-.739.291-1.109.291-.739-.291-1.478-.874-2.217-1.165 4.066-6.703 2.957-12.24-2.957-19.816-4.806-6.12-9.611-5.246-10.35-9.908 5.175-.583 10.35-1.166 15.155-2.332.739-.291 4.066-1.457 8.132-2.622.369 5.245-.739 10.491-2.218 15.736zm39.551.291c-1.109 5.537-10.35 9.617-18.852 12.531-2.217-.874-4.805-1.457-7.392-1.457-2.218 0-4.436.583-5.914 1.748.369-3.205 1.848-6.411 2.957-10.782 1.109-.583 2.217-1.165 3.696-1.748 4.436 2.914 10.719 3.788 16.633.583 2.957-1.749 5.915-2.04 9.241-1.166-.369 0-.369 0-.369.291zm22.547-77.224c.37-.874.37-1.457.739-2.331v1.749c-.369 0-.369.291-.739.582zm10.35 24.77c.739-.874 1.478-2.039 2.218-2.914 0 .583 0 1.166.369 1.749-.739.291-1.478.874-2.587 1.165zm71.708 181.258c1.849 0 3.327.292 5.175.292.37.291.74.291 1.109.291-4.435 1.748-3.696 2.914-9.61 3.788-1.109-.874-2.218-2.04-3.327-3.205 2.218-.874 4.436-1.457 6.653-1.166zm-17.742 11.074c4.436-.874 6.653-.874 11.089-.583 1.848.291 2.957.291 4.436 0 1.478.583 3.326.874 4.805.874-1.848.292-3.696.583-5.914.874-4.805.583-8.502 1.166-13.307-.582-.739-.292-1.479-.583-1.848-.875l.739.292zm-9.61-19.233c0-.292 0-.292 0 0 2.587-1.457 4.435-2.914 7.023-3.789 2.957-.874 2.587 1.749 1.109 2.914-1.109.875-2.588 1.749-3.697 2.332-1.109.582-2.218 1.457-3.326 2.04-.37.291-.74.291-.74.291-.369-1.166-.369-2.04-.739-3.206.37-.291.37-.291.37-.582zm27.352-89.464c1.109 2.04 2.218 4.372 3.697 6.703-4.436 1.165-9.241.874-13.307 2.04 1.848-1.457 3.696-2.623 4.805-4.08 0-.291.37-.583.37-.874.739-.292 1.478-.874 2.587-1.166 1.479-.291 2.218-1.457 1.848-2.623zm32.898-71.395c-1.479 1.457-2.588 2.622-4.066 3.788-10.35.874-21.809-1.166-32.528-2.331.37-.292 1.109-.292 1.479-.583 8.132-2.331 14.046-2.914 20.329-6.12 4.806 1.749 9.98 2.914 15.155 4.08.37.583 0 .874-.369 1.166zm-40.29-24.187a20.056 20.056 0 006.653-9.617v-.291c1.109-.292 1.848-.583 2.957-.875 12.198-3.497 25.135-5.536 38.072-7.868 0 4.08-1.478 8.16-3.696 12.239-9.98 1.749-19.96 4.08-29.571 6.994 1.479-1.457 2.218-2.914 2.588-4.371 0-.583-.739-1.165-1.479-1.165-4.435.291-8.501 3.497-11.828 5.536-3.696 2.332-7.762 4.663-12.567 5.246h-.37c3.696-1.749 6.653-3.789 9.241-5.828zm-7.762-23.896l1.108-4.371c1.109-.292 1.849-.292 2.957-.583-.369 1.165-.369 2.623-1.478 3.497-.739.874-1.848 1.165-2.587 1.748v-.291zm2.217 18.942l-2.217 1.748c-1.479.874-2.588 1.457-4.066 2.04 1.848-1.166 4.066-2.623 6.283-3.788zm-11.089 18.65c-4.066 2.331-8.132 4.954-11.458 7.577-1.109-.292-2.588-.583-3.327-.875 2.218-3.497 4.805-6.994 7.393-10.199 2.587.583 4.805 1.748 7.762 2.04.739 0 1.478.291 2.218.291-1.109.292-1.848.583-2.588 1.166zm-9.24-24.479c3.326-4.371 4.805-9.325 6.283-14.279 1.479-.291 2.588-.874 4.066-1.165-.739 2.914-1.109 5.828-1.848 8.45-.37.875-.37 1.749-.739 2.332-3.327 1.748-6.284 3.788-8.871 5.828.369 0 .739-.583 1.109-1.166zm-12.568.875c.739-2.623 5.914-6.12 5.175-9.326 1.478-.874 3.327-1.748 5.175-2.622-1.109 3.497-2.957 6.702-5.545 9.616-1.848 2.04-3.696 3.789-5.544 5.828.369-1.165.369-2.331.739-3.496zm4.436 224.386c2.587-2.04 4.805-4.371 8.132-6.12 1.848-.291 3.696-.582 5.914-.582 2.217 0 4.066.583 6.283 1.165-5.914 1.166-11.458 3.206-15.155 6.411-1.848-.582-3.696-.582-5.174-.874zm159.311 102.868c0 .583.37 1.166.739 1.749-1.848-.583-3.696-1.166-5.544-1.457-2.588-.583-5.175-.875-7.393-1.166.37-.874 1.109-1.457 1.479-2.331 2.587-3.789 4.066-7.286 5.175-10.782.369 1.165 1.478 2.039 2.587 2.622 4.066 2.331 8.502 3.497 8.132 7.868-2.957 0-5.545 1.166-5.175 3.497zm15.155 32.347c.74-4.663 1.848-9.908 1.478-14.571 1.11 1.166 1.849 2.04 2.957 3.206 1.849 2.331 2.588 5.245 4.436 7.285 1.109 1.166 1.479 2.331 2.218 3.206-3.696.291-7.393.291-11.09.874zm55.075-29.724c-.74 1.457-1.478 2.623-2.587 3.788 0-.583-.37-.874-.74-1.457.37-1.457.74-2.914.37-4.371v-.291c.37.583 1.109 1.165 1.848 1.748.37.292.74.292 1.109.583zm3.327 5.537c-.74.291-1.11.583-1.848.874.37-.583.739-.874 1.108-1.457.74-1.457 1.479-2.914 1.849-4.663.739 0 1.848-.291 2.587-.582l.37.291c-.37 2.04-1.479 4.08-4.066 5.537zm21.069-6.411c0-.292 0-.292-.37-.583 0-.291 0-.874-.37-1.166-1.108-1.748-1.848-2.914-2.217-4.954-.37-1.457-.74-2.622-1.479-4.079-.37-.583-1.848-2.332-1.478-2.915 1.108 0 2.217-.291 3.326-.291 0 .291.37.583.37.874.74.583 1.109 1.457 1.848 2.332l.74.582c-.37 1.749-.37 3.206-.37 4.954 0 2.332.739 4.371 1.109 6.411-.74-.291-1.11-.874-1.11-1.165zm49.9 50.122h2.587c2.958 0 5.915.583 8.502 2.04.74.292 1.478.292 2.218.292-5.545 2.331-11.09 2.04-17.373.291-3.696-1.166-7.393-2.623-11.089-4.08 1.109.292 1.848.583 2.957.583 4.066.583 7.762.583 12.198.874zm-24.396-56.242c1.11-1.166 2.588-2.04 4.436-2.623 1.479-.582 2.957-.582 4.066-1.748.37-.583.37-1.457.74-1.748 1.478-2.04 2.956-1.458 4.804-2.04 1.848-.583 2.957-1.749 4.066-2.623 1.479-1.166 2.957-2.04 4.806-2.331l-.74.582c-1.478 1.457-2.218 2.332-4.805 3.206-2.218.583-3.327 1.748-4.436 3.497-.739 1.457-1.478 2.623-2.217 4.08-4.436.874-8.502 2.331-12.568 4.662.74-1.748 1.109-2.331 1.848-2.914zm-2.587 15.445c.74-.583 1.848-.874 2.587-1.749 1.849-1.457 2.588-3.205 1.849-4.954 0-.582-.74-.874-1.479-.582-.74-.292-1.109-.583-1.479-1.166 2.958-2.04 6.654-3.497 9.98-5.245-.37 1.165-1.108 2.622-1.848 3.788-2.957 2.04-4.435 4.954-5.914 7.577a6.68 6.68 0 00-2.218 3.205c-.739 1.166-1.848 2.331-3.326 3.497-.74.583-1.11.874-1.848 1.166 1.478-1.749 2.957-3.789 3.696-5.537zm-9.98-21.564c-.37-.292-.74-.875-1.109-1.166 1.109-2.914 2.218-5.828 3.696-8.743 0 .292.37.292.37.583 1.848 2.914 3.327 8.16 1.848 11.657-.74.291-1.848.874-2.587 1.165-.74-1.165-1.11-2.331-2.218-3.496zm60.99 102.285c-19.222-8.16-38.812-16.319-58.033-24.479 1.478.292 2.587.874 4.066 1.166 13.676 2.623 26.244 2.914 38.442 8.742 5.544 2.623 10.719 5.537 16.263 7.285 0 2.332-.37 4.663-.739 7.286zm199.6-9.325c2.957.582 5.545 1.165 8.502 1.748-2.957.292-5.545 0-8.871-.291 0-.583 0-.875.369-1.457zm-34.006 3.788c2.218 3.497 4.805 6.702 7.762 9.908-3.326 0-6.653.291-10.349-.291h-.37c1.479-.875 2.588-1.458 3.697-2.332 1.108-.874-.001-2.04-1.109-1.748-2.218.583-4.436.874-6.654 1.457 2.588-2.04 4.805-4.663 7.023-6.994zm0 20.69c1.479.292 2.957.874 3.697 1.166-3.327.874-7.023 1.457-10.72 2.331-3.326-2.04-7.392-3.497-11.828-3.788-.37 0-.739.583-.37.874 2.218 1.457 4.806 2.914 7.023 4.371-2.957.874-5.914 2.04-8.501 3.206-.739.291-1.479.874-1.848 1.165a64.725 64.725 0 00-7.393-5.828c4.436-2.914 9.241-6.12 13.307-9.617 1.109-.291 2.218-.582 3.696-.874 8.502 2.914 17.742 4.372 24.765.292l3.327 3.497c.37.582.739.874 1.479 1.457l-7.763 1.748c-1.848-2.04-5.174-2.914-9.24-1.457-.74.292-.74 1.166.369 1.457zm-47.682-10.491c-1.109.583-1.848 1.166-2.588 1.749 0 0 0 .291-.369.291-4.436-2.04-9.241-4.08-14.046-5.828-.37 0-.37-.291-.74-.291v-.583c6.284.291 11.829 2.622 17.743 4.662zm-9.611-8.451c.37 0 .74 0 1.109-.291 1.848.583 3.327 1.166 4.805 1.749-1.848-.292-3.696-.875-5.914-1.458zm12.937 11.365c1.109-.582 2.218-.874 3.327-.874 1.479.292 2.957.583 4.066.874.37 0 .739 0 1.109.292 1.848.874 4.066 1.748 6.284 2.04h.739l-.739.583-6.654 4.371c-3.326-2.04-6.653-4.08-10.349-5.829 1.108-.874 1.478-1.165 2.217-1.457zm-.739-14.279c2.588-.874 5.175-1.748 7.762-2.914 2.957 4.08 6.284 7.868 10.72 11.074.369.291.739.291.739.583-1.848 0-4.066.291-5.914.291-1.479-.583-2.957-1.457-4.805-2.623-2.588-2.331-5.175-4.662-8.502-6.411zm11.459 30.016c-.74 0-1.848-.292-2.588-.292.37-.291.74-.583 1.109-.583.37.292.739.583 1.479.875zm-7.763-5.246c-2.587 1.749-5.174 3.206-8.132 4.954a73.039 73.039 0 00-11.088 1.749c4.066-3.497 6.653-7.868 9.98-11.657 3.326 1.457 6.283 3.206 9.24 4.954zm-13.306-7.285c-3.697 4.371-6.284 9.617-7.763 14.279-4.066-3.497-4.435-11.073-3.326-18.942 3.696 1.457 7.392 2.915 11.089 4.663zm-9.98 20.982c-6.654 4.079-12.937 8.159-18.852 12.53-.369-2.04-.739-4.08-1.108-6.411 6.653-1.748 13.306-4.079 19.96-6.119zm-18.482 21.855c9.98-8.45 21.808-15.736 33.267-22.438l4.435-2.623c1.849 0 4.066 0 5.915.292 4.066.582 7.762 1.165 11.089 2.331-.37 1.165-.74 2.04-.74 3.205-1.848 0-3.696 0-5.544.292-5.545.583-10.35 1.457-15.525 3.205-.739 0-1.478 0-2.587.292-1.848.582-3.327 1.457-4.805 2.331-4.806 2.04-9.241 4.371-13.307 7.285-4.436 2.914-8.871 5.828-13.307 9.034.739-.874.739-2.04 1.109-3.206zm78.732-67.898c0 .291.369.583.369.874-3.326 4.662-7.392 9.034-12.198 13.405-3.696-2.04-7.023-4.371-9.98-6.994-1.848-1.749-3.696-3.788-5.175-5.828 4.066-2.914 6.654-6.12 8.502-9.325 5.175 2.914 11.459 4.954 18.112 6.411.37.582.37.874.37 1.457zm-45.096-36.427c.37-1.457.37-3.497.37-5.537 9.241 2.04 19.96 3.206 28.462.583.369.292.739.583 1.109.583.739 2.914 1.109 6.12 1.478 9.034.74 7.285 2.218 14.57 10.72 18.65.369.292.739.292 1.109.292 0 1.748.369 3.496.369 5.245-5.544-1.457-10.719-3.206-15.155-5.828 1.479-6.703.739-13.697 1.848-21.273.37-2.332-3.696-3.206-5.174-1.166-3.697 5.828-3.697 11.948-4.436 17.485-3.696-2.914-6.284-6.411-8.502-10.782-.369-.292-1.109-.292-1.109.291.74 6.411 3.697 11.656 8.132 15.445-1.108 2.914-2.587 5.537-5.544 7.868-1.848-2.914-4.066-5.828-6.284-8.742-4.805-5.537-11.089-9.617-18.481-11.366 5.914-1.457 9.98-5.828 11.088-10.782zm-7.762-1.748c-1.109 3.497-4.066 6.702-8.501 7.868l-1.109-3.497c3.327-1.166 6.653-2.623 9.61-4.371zm-8.871 18.067c.37-.874.37-1.748.739-2.622 12.198 3.205 18.112 11.947 24.026 21.273-.369.291-1.108.291-1.478.582-6.284 2.623-12.937 4.08-19.96 5.246 1.109-4.954 2.218-9.034 2.587-10.782.37-1.457-2.218-1.749-2.957-.583-2.957 4.08-5.175 8.451-7.023 13.113-3.327.875-6.653 1.749-9.61 2.914-2.588-1.165-4.805-2.331-7.023-3.788 6.283-8.742 17.003-15.153 20.699-25.353zm-8.871-10.199c.37 1.457.739 2.914.37 4.662-1.849.292-3.327.583-5.175 1.166-.37 0 0 .583 0 .583h4.805c0 .874-.37 1.457-.739 2.331-1.848 4.954-5.914 8.743-9.98 12.531-.74-.583-1.849-.874-3.327-.874-3.327.291-5.914-9.908-8.132-14.571 8.132-1.166 15.155-3.205 22.178-5.828zm-12.568 41.38c-1.108.292-2.587.875-3.696 1.166.37-.874.739-2.04 1.109-2.914 1.109.874 1.848 1.457 2.587 1.748zm-5.174-40.214c-1.849.582-4.066.874-5.914 1.165l-3.327-3.497c2.957.583 6.284 1.457 9.241 2.332zm-19.221-.875c1.848.875 3.326 2.332 4.805 3.789-1.848.291-3.696.582-5.175.582 0-1.457.37-2.914.37-4.371zm-.739 6.411h7.762c.739 1.166 1.478 2.623 1.848 4.08 2.218 6.411 2.218 14.862 11.089 16.028-.739.583-1.109 1.165-1.848 1.748-.37.292-.74.874-1.109 1.166-7.023-5.828-12.937-12.531-18.851-18.942.739-1.165 1.109-2.623 1.109-4.08zm-16.264 60.031c3.696 2.623 8.501 4.08 13.306 4.663 8.502 1.165 14.046.874 19.221 5.536.37.875.37 1.458.74 2.332-9.611 1.457-18.852 1.165-28.832-2.04-10.719-3.497-20.7-8.743-30.31-14.279-.37-.583-.37-1.166-.739-2.04.74-1.457 1.479-2.914 2.588-4.371 5.544-1.166 10.35-3.206 14.785-5.829-.74 6.12 3.696 11.948 9.241 16.028zm-2.218-72.561c3.696.874 7.393 1.748 10.719 2.622v5.246c-4.435-2.04-7.762-4.08-10.719-7.868zm17.003 22.147c.37-1.457.37-2.623.739-4.08 4.436 7.868 9.241 15.445 16.264 21.856-5.175 8.742-5.544 18.068-3.327 27.684.37 1.749.74 3.497 1.479 5.245-.739-.291-1.479-.291-1.848-.582-6.654-1.457-13.677-.292-20.33-2.623-8.132-2.914-10.72-8.451-12.937-14.862 11.089-8.16 17.372-20.399 19.96-32.638zm-41.768 23.021c1.478.292 3.326.292 4.805.292.37 0 1.109 0 1.478-.292 6.284 1.749 12.198.583 17.373-2.04-5.175 5.537-11.828 9.908-21.069 12.24-1.109-.583-2.218-.874-3.327-1.457 0-2.623.37-5.537.74-8.743zm11.458 56.243c-7.392-5.537-12.198-13.405-12.937-21.565 5.914 7.868 14.416 15.154 22.178 22.73-3.327.292-6.284-.291-9.24-1.165zm31.789-8.743c-3.327 2.915-7.024 5.537-10.35 8.451-.739 0-1.479.292-2.218.292-8.871-7.868-18.482-15.445-24.765-24.77-1.11-1.749-2.218-3.497-2.957-5.246 12.567 9.617 26.243 18.651 44.355 20.399-1.848-.291-2.957 0-4.065.874zm19.59 10.491c-3.696 3.497-7.023 7.286-9.98 11.074-4.805-4.08-7.393-9.617-5.175-15.154 4.066-3.205 8.502-5.828 14.416-7.868.739 4.08 1.109 7.868.739 11.948zm12.937-50.122c0 .582-.37.874-.37 1.457 0 .582.74.582 1.109.291 1.109-.874 2.218-1.749 3.327-2.331.739.291 1.848.582 2.587.874-.739 4.954-.739 9.617 0 14.279.74 2.914 1.849 6.411 4.066 9.325-3.696 1.166-7.762 2.332-11.458 3.789-1.848.582-3.696 1.165-5.175 1.748-2.957-9.034-6.284-18.067-6.284-27.393 4.066 0 8.132-.874 12.198-2.039zm11.828 58.865c-3.326 2.039-6.653 4.371-9.61 6.119-3.327 1.749-7.393 2.332-11.089 2.04.37-.874 1.109-2.04 1.478-2.914 7.393-4.954 14.786-10.199 22.548-14.571-1.479 2.623-2.587 5.829-3.327 9.326zm10.72-4.954c-1.109.291-1.849.582-2.588.874 1.109-2.623 2.218-5.537 4.066-8.16.739-1.165 1.479-2.04 2.588-2.914l4.435-1.748c.739-.292 1.479-.583 2.218-.583.739 0 1.479-.292 2.587-.583-3.326 2.331-6.283 5.245-8.501 8.16-1.848 1.748-3.327 3.497-4.805 4.954zm5.914 46.334c.369-2.331 1.478-4.954 2.957-7.868 1.109 1.165 2.218 2.04 3.326 2.622-2.217 1.749-4.435 3.497-6.283 5.246zm16.633-40.798c-1.478-1.748-3.696-2.331-5.914-2.04-1.848-1.165-4.066-2.331-7.393-3.205 1.479-2.04 3.327-4.08 5.175-5.828 0 0 .37 0 .37.291 5.544 1.166 7.762 7.285 10.719 12.531 0 .874 0 1.457.37 2.331-1.109-1.457-2.218-2.623-3.327-4.08zm25.505-9.325c-2.218-2.331-7.023-1.748-8.132.874-1.479 2.915-1.109 5.829 0 9.034-2.218-1.457-4.805-2.914-7.762-3.788-2.957-5.246-4.436-10.782-10.72-12.822 3.697-2.04 7.393-3.789 12.198-4.371 1.109 0 2.218-.292 3.327-.292 2.587.292 5.175.874 7.762 1.749 3.696 1.165 6.653 2.622 8.871 4.371 0 2.623 1.479 4.662 2.218 7.285.739 2.623.739 5.245.739 7.868-2.587-3.205-5.175-6.994-8.501-9.908zm9.61-12.822c-4.435-3.788-9.61-7.577-15.524-10.491 2.587-1.748 5.914-3.205 9.61-4.079 0 .291.37.291.37.291 1.848 2.04 3.326 5.537 5.544 7.868 0 2.04-.369 4.08 0 6.411zm3.327-12.239c-1.109-1.457-2.218-2.623-3.327-3.789 1.848-.582 3.697-.874 5.914-1.457-.739 1.749-1.848 3.497-2.587 5.246zm8.871 24.478c0-.291 0-.291 0 0v-.582c1.109 1.165 2.218 2.331 2.957 3.788-.739-1.166-1.848-2.331-2.957-3.206zm15.525-2.914c-.37.875-1.109 1.749-1.479 2.914-1.109-.291-2.587-.291-4.066.292-1.478.583-2.957 1.165-4.435 2.04-1.849-1.457-3.697-2.623-5.915-3.497v-.875c2.218.583 4.436 1.166 6.654 1.458 1.109.291 1.478-1.166.369-1.458-2.957-1.165-5.544-2.622-8.501-4.079-1.109-2.914-3.327-5.246-3.327-8.451 0-4.08 2.588-7.577 3.697-11.365.369-1.749.369-3.497 0-5.537 2.957-.874 5.914-1.748 8.871-2.914 9.241 9.325 14.415 19.233 8.132 31.472zm12.937-16.902c-1.479-6.702-5.914-12.822-11.089-18.358 1.478-.583 2.587-1.166 4.066-2.04.369-.292 0-.583-.37-.583-1.848 0-3.696.291-5.544.583l-1.109-.875c-7.393-7.576-15.155-14.862-19.96-23.312 4.066 3.788 10.349 6.702 16.633 8.742 2.587 5.828 6.284 11.365 12.198 16.319 2.218 1.748 4.435 3.497 6.284 5.245-.37 3.206 0 6.703 0 9.908-.37 1.166-.74 2.623-1.109 4.371zm2.957-24.77c-2.957-2.622-5.545-5.245-7.762-8.159-.37-.291-.37-.583-.37-.874 4.066.291 7.762 0 11.458-.583-1.478 3.205-2.587 6.411-3.326 9.616zm204.406 2.04c-2.957-1.165-6.653-1.748-9.241-2.622-1.478-.583-2.957-.875-4.435-1.457 3.696-1.166 8.501-1.749 11.828-2.914 2.218-.583 4.805-1.166 7.393-1.749-2.218 2.914-4.066 5.828-5.545 8.742zm-13.307-23.313c9.98 0 21.069.875 29.571-2.622 0 1.457-.739 3.205-2.218 4.662-.369 3.497-2.587 5.537-7.023 5.537-2.957 1.166-6.284 1.749-9.241 2.331-6.283 1.749-14.785 2.915-20.699 6.12-3.327-.874-6.284-2.04-9.61-2.914 4.066-2.623 8.501-5.245 12.567-7.868 2.218-1.749 4.805-3.497 6.653-5.246zm-9.61.583c-5.544 3.497-11.459 6.994-17.003 10.2-.739-.292-1.479-.292-2.218-.583 2.588-4.663 8.132-8.16 19.221-9.617zm-22.917-41.38c5.544 8.451 10.719 17.485 7.023 26.81-.739 2.04-2.218 4.079-3.696 5.828-1.109-.291-2.218-.583-2.957-.874 2.957-10.2 3.326-20.69-.37-31.764zm-4.066-5.537c.739.874 1.109 2.04 1.848 2.914-.739 0-1.848.583-1.848 1.166 0 10.782 0 20.69-2.957 30.307-.739-.292-1.479-.583-1.848-.875-3.697-8.159-11.089-15.153-21.069-18.941 9.61-3.789 18.481-8.743 25.874-14.571zm-123.457-37.592c4.066-8.742 6.284-17.776 6.653-27.101 2.588.291 5.545 0 8.132-.583 1.109 4.08 3.327 8.16 7.393 9.908-.37 3.788.369 7.577 2.218 11.656 4.066 8.743 8.131 14.862 5.914 24.77v.875c-8.871 13.113-19.591 25.061-30.31 37.3.739-2.331.739-4.371.739-6.702-.37-3.497-1.478-6.994-2.957-10.2 3.327-2.914 5.914-6.993 8.132-11.073 3.696-.874 6.653-3.789 9.241-5.828 4.435-3.497 7.392-7.286 9.98-11.948 0-.292-.37-.292-.37-.292-4.435 3.206-8.501 6.703-13.307 9.908-.739.583-1.848 1.166-2.957 1.749 2.588-6.994 3.697-14.571 4.066-20.399 0-.874-1.109-1.166-1.478-.291-3.327 6.993-6.654 13.696-9.98 20.69-1.848 3.497-4.436 6.994-6.284 10.491-.37-.875-.739-1.458-.739-2.332-3.327-11.656 1.109-20.399 5.914-30.598zm-3.696 81.887c-2.218.582-4.436 1.457-6.654 2.331 9.98-13.988 23.287-26.519 34.006-39.923 11.089-13.405 19.591-27.976 27.723-42.838 2.217-3.788 4.066-7.868 6.283-11.656v.582c-.369 8.451-7.762 15.737-11.458 23.313-4.066 8.743-4.436 17.485 3.327 24.77-6.654 6.703-12.568 13.697-17.743 20.982-2.218 3.497-4.435 6.994-6.284 10.491-12.567 6.411-24.026 14.279-34.375 23.313-1.479-.875-2.957-1.749-4.805-2.332 4.065-2.04 7.392-4.954 10.719-7.868.369-.874 0-1.457-.739-1.165zm-16.264 60.322c0-1.749-.37-3.206-.37-4.954l-1.109-10.491c2.957 4.08 4.805 8.742 4.436 14.279-.739.291-1.848.583-2.957 1.166zm12.937-7.286c-.37-2.622-1.109-5.245-2.218-7.868-2.218-4.954-5.914-8.742-10.35-12.239 1.109-1.457 1.849-2.623 2.957-4.08v.292c5.545 7.285 9.981 14.862 12.198 22.438-.739.292-1.848.875-2.587 1.457zm14.046-3.205c-3.327-10.782-11.089-18.942-17.003-28.558.739-.875 1.478-1.457 2.218-2.332 1.848 1.166 3.696 2.623 5.174 4.08.74.874 1.479 1.749 2.588 2.331 3.327 3.206 6.284 6.703 9.241 10.2-.74 4.954-1.479 9.616-2.218 14.279zm4.805-26.519c-1.848-.291-3.696-.582-5.544-1.165 0-.292-.37-.292-.37-.583-1.479-1.748-3.327-3.206-5.175-4.371 0-.583.37-1.166 1.109-1.749.37-.582-.37-.874-.739-.582-.37.582-1.109.874-1.479 1.457-.739-.583-1.478-.875-2.218-1.457 1.479-1.457 2.958-2.623 4.806-4.08 2.217-2.04 4.805-3.789 7.392-5.537-.739 4.954.74 9.908 3.697 13.988-.74 1.165-1.109 2.622-1.479 4.079zm0-20.398l8.871-6.12c-2.218 4.663-4.066 9.325-5.544 13.988-1.109-2.331-2.218-4.954-3.327-7.868zm12.937 42.546c0 .291-.369.291-.369.583-1.479-2.915-3.327-5.829-5.175-8.743l1.109-6.994c2.957.292 5.544.292 7.392.292 1.109 1.165 1.848 2.622 2.218 5.828.739 7.868-.37 4.663-5.175 9.034zm21.809-2.623c-2.218.583-4.436.874-6.654 1.457 4.066-3.497 6.653-6.702 2.218-12.531a9.242 9.242 0 00-1.848-2.039c4.805-.583 9.241-1.749 13.676-3.497-2.957 5.536-5.914 10.782-7.392 16.61zm27.722-13.405c-7.393 2.914-14.046 6.12-18.112 11.365-.37 0-.739 0-1.109.292 2.218-6.411 6.653-12.531 8.871-19.234l5.545-2.622c2.217 1.748 4.435 4.08 6.653 6.119-1.109 1.166-1.478 2.332-1.848 4.08zm6.284-9.908c-1.109-1.166-2.218-2.331-3.697-3.497 2.218-.874 4.806-1.457 7.023-2.04-.739 1.749-1.848 3.497-3.326 5.537zm-11.089-8.742c-1.479-.874-3.327-1.457-4.806-2.04-1.848-9.034-9.24-16.902-20.699-20.69-.739-.292-1.478.583-.739 1.165 7.392 4.954 11.828 11.074 13.676 17.194-10.35-1.749-21.438 0-30.31 5.245-.369.291 0 .583.37.583 12.568-3.788 22.548-3.206 30.679-.292 0 1.749 0 3.206-.369 4.954-6.654 3.497-13.677 6.12-22.178 6.994h-4.066c-1.109-.582-2.218-.874-2.957-1.457-1.848-1.165-3.696-2.331-5.175-3.497 2.957-10.199 7.023-20.398 12.568-30.015 2.587-1.166 5.544-2.331 8.501-3.497 8.502-2.914 17.373-4.954 26.244-6.994a38.33 38.33 0 005.544 8.743c-6.653-.292-13.676-1.166-20.699-2.332-1.109-.291-1.478 1.166-.37 1.457 7.763 3.497 16.264 5.246 24.766 5.828 2.957 3.789 5.175 7.869 5.914 12.531v.583c-5.914 1.748-11.089 3.497-15.894 5.537zm34.006 4.662c-1.848 1.749-4.066 3.789-6.284 5.537-1.848 1.166-4.436 2.04-7.393 2.914-1.478.583-3.326 1.166-4.805 1.749v-.292c1.109-.874 1.848-2.039 2.588-2.914 1.478-2.914 3.326-5.245 4.066-8.451 0-.582 0-.874.369-1.457 3.697-.291 7.762 0 12.198.583 0 .583-.37 1.457-.739 2.331zm-15.894-22.147h3.326c2.218 2.914 5.175 5.537 8.132 7.868 1.479.874 2.588 1.749 3.697 2.623 0 .291.369.291.369.583.37.583.37 1.165.37 1.457-2.957-.292-5.914-.583-8.502-.583h-2.587c-.739-4.08-2.588-8.16-4.805-11.948zm7.762-5.537c-2.588-2.914-4.066-6.702-4.066-11.656 0-.291-.739-.583-.739-.292-3.697 3.789-4.066 8.16-2.588 12.24h-4.435c-3.697-3.789-7.763-6.994-12.568-9.325 5.545-1.166 11.089-2.623 16.264-4.08 2.218-.583 4.066-1.457 6.284-2.04 6.653 3.497 12.198 7.868 15.894 13.405-4.805.583-9.241 1.166-14.046 1.748zm14.785 12.24c-.369-1.457-.369-2.623 0-3.789.739.292 1.479.292 2.218-.583.37-.291.37-.582.739-.874.37 2.623.37 5.246.37 7.868-1.479-.874-2.588-1.748-3.327-2.622zm4.066 26.809c0-3.788.739-7.576 2.588-11.365 1.108 1.457 2.957 2.623 4.805 3.789v1.748c-1.848 1.457-3.697 2.623-5.545 4.08-.739.583-1.109 1.166-1.848 1.748zm12.198 11.074c-2.218-2.04-4.805-3.205-7.393-4.371 1.848 0 4.066.291 5.914.291.37 1.457 1.109 2.914 1.479 4.08zm-2.218-27.684c-.369-.874-.739-1.457-1.109-2.331.74-.583 1.479-1.457 2.218-2.04 2.218-1.749 4.436-3.206 6.654-4.954h2.587c-.739.291-1.479.874-2.218 1.165-3.696 2.623-6.284 5.246-8.132 8.16zm6.654 13.988c3.326 1.748 6.653 3.497 9.24 5.245-2.587-.291-5.544-.291-8.131-.583-.37-1.457-.74-3.205-1.109-4.662zm3.326 10.199c2.957.292 5.545.292 8.502.583 0 1.166.369 2.623 0 3.788 0 3.789-1.109 7.286-2.957 10.782-1.479-4.954-3.697-9.907-5.545-15.153zm12.568 31.764l-5.545-6.12c5.175-4.954 8.502-10.782 9.241-17.776v.292c2.587 7.868 0 15.736-3.696 23.604zm4.066-37.301c.369-.874.739-1.748 1.478-2.622 4.436 1.165 12.568 2.914 16.264 4.954-5.175-.292-10.719-.583-16.264-.875-.739-.291-1.109-.874-1.478-1.457zm16.633 11.948c-2.957 4.08-6.284 8.16-7.393 10.2l-1.108 2.622c1.109-6.119.739-11.948-2.588-17.776 1.848 0 3.696.292 5.545.292 1.848 0 3.696.291 6.283.582-.369.875-.369 2.04-.739 2.914v1.166zm-11.828 32.93l-1.109-.875c1.109-2.04 2.218-4.079 3.696-5.828 1.109-.874 2.218-1.748 3.327-2.331 1.479 2.331 2.957 4.662 4.436 7.285 2.217 3.789 4.065 7.868 5.174 12.239-5.544-3.205-10.719-6.411-15.524-10.49zm22.917 5.828c-.739-1.749-1.478-3.497-2.218-5.537-1.848-4.371-5.175-8.451-7.023-13.113 2.588-.875 5.175-1.458 7.763-2.332 1.108 2.04 2.217 4.08 2.587 6.12 1.479 6.12.739 10.782-1.109 14.862zm2.218 9.325c1.478-1.749 2.957-3.497 4.066-5.245 1.478-2.332 2.218-4.663 2.957-7.286 1.478 3.497 3.696 6.703 5.914 9.617 2.957 3.497 6.284 6.702 9.61 10.199-8.132-1.748-15.524-4.371-22.547-7.285zM654.71 564.178c1.479.291 2.957.874 4.436 1.166-.37 2.622-.37 4.953 0 7.285-2.218-2.914-4.436-5.829-4.436-8.451zm6.654 61.196c-2.218 4.371-4.066 2.914-7.023 1.166 0-.583-.001-1.166-.37-1.749 2.587-.291 5.175-.291 7.762-.583-.369.292-.369.875-.369 1.166zm17.003-128.804c.369.875.739 1.457 1.108 2.332.37 1.165 1.109 2.622 1.479 3.788-1.848-1.166-3.327-2.04-5.175-3.205.739-1.166 1.479-2.04 2.588-2.915zm3.696 58.283c-2.218 1.165-3.327 3.205-2.218 5.245-.37.874-1.109 2.04-1.478 2.914-.37 0-.37-.291-.74-.291.37-4.371.74-8.743.37-13.114l4.436 4.371s-.001.583-.37.875zm2.218-22.148c-5.175-4.954-11.828-10.199-15.155-16.027-1.109-2.04-1.109-4.08-.74-6.12a42.173 42.173 0 006.284 4.08c0 1.457.739 3.205 2.588 4.371 3.326 1.749 5.544 4.663 6.653 7.868.739 1.749.739 3.789.37 5.828zm28.092 44.004c-.74-1.166-1.109-2.332-1.479-3.497.37.582.74.874 1.109 1.457a9.198 9.198 0 011.848 2.04h-1.478zm5.544-11.365c-.739-.875-1.109-1.749-1.478-2.915-.37-.291-.37-.874-.37-1.165.739-.292 1.109-.292 1.848-.583l2.218-.874c-.739 1.748-1.479 3.788-2.218 5.537zm-.369-16.902l2.217-3.497c.37.583.74 1.165.74 1.748-1.109.583-1.849 1.166-2.957 1.749zm39.181 0c-1.849-2.332-3.327-4.954-4.806-7.577 0-.292 0-.874.37-1.166v-.874l5.544-6.994c1.849 5.828 2.588 11.657-1.108 16.611zm37.332 21.855c-.739 0-1.848 0-2.587.292-.37-.874-1.109-1.457-1.479-2.331-.369-.875-.739-1.458-1.109-2.623 1.849-1.457 3.327-2.914 4.806-4.371.369 2.914.369 5.828.369 9.033zm-.739-44.003c1.109-2.331 2.588-4.079 3.696-6.119 0 .291.37.583.37.874-1.109 1.748-2.587 3.497-4.066 5.245zm18.482 42.546c-1.479 0-2.588.292-4.066.292 0-4.371 0-8.742-.74-13.114-.369-2.04-.739-4.079-1.478-6.119 2.218-2.332 4.435-4.371 6.653-6.411 1.848 3.788 3.327 7.576 2.957 11.947-.369 4.372-1.848 9.034-3.326 13.405zm19.59-1.748c-1.109 0-2.218.291-3.696.291 1.109-3.205 1.848-6.119 2.218-9.325 2.587 1.166 5.175 2.04 7.762 3.206-1.848 2.04-4.066 3.788-6.284 5.828zm12.568-15.736c-.37 1.457-.74 2.623-1.479 3.788-4.066-.291-7.762-.291-11.828-.583h-.37v-.291c0-6.12-2.217-11.948-5.175-17.485 0-.291-.369-.291-.369-.583 6.284.292 12.567 1.457 19.221 1.457.739 4.372 1.109 9.034 0 13.697zm24.395-14.862c-1.478-.292-2.587-.292-3.696 0-1.109.291-2.218 1.165-1.479 2.331 1.109 1.457 2.218 2.04 3.697 2.623 0 .583-.37.874-.37 1.457-.739 0-1.478-.292-2.218-.292-1.848-.582-3.326-1.165-4.805-1.748-.369-1.457-.739-3.206-1.109-4.663 2.218-.582 4.436-1.165 6.284-1.748 1.109.291 2.218 1.166 3.696 2.04 0-.292 0-.292 0 0zm18.112 17.193c-1.478.292-3.326.291-4.805.583-1.109-.874-1.848-1.749-2.957-2.623.37-.874.37-2.04.739-2.914h4.436c1.109.583 2.218 1.166 3.696 1.749.74 1.165 1.479 2.039 2.218 2.914-1.109 0-2.218.291-3.327.291zm3.327-19.233c-.739-3.206-1.848-6.411-3.696-9.325-.74-1.166-3.327-.874-3.327.583-.37 2.914-.37 6.993.37 11.073-.37-.291-1.109-.583-1.479-.874 0-3.206-.739-6.12-2.587-8.451 3.696-2.331 7.023-5.245 9.98-8.159.739 2.622 1.478 4.954 1.848 7.576 0 2.623-.37 5.246-1.109 7.577zm52.488-31.181c.739-1.749 1.848-3.788 2.218-5.537.369-.583-.37-1.166-1.479-.874-6.284 1.748-8.871 6.994-9.98 11.948v-4.954c.739-1.166 1.478-2.623 2.957-3.789 2.218-2.331 5.544-5.245 7.762-8.159v.291c-.369 2.04.37 4.08 1.848 5.829-1.478 1.457-2.587 3.496-3.326 5.245zm14.415 13.405l-2.217.874c0-2.914-.37-5.537-1.479-7.577-.37-.582-1.478-.582-1.848 0-3.696 3.206-2.957 8.451-3.696 12.531-.37-1.457-.74-2.623-.74-3.788-1.109-6.411 1.109-11.365 4.436-16.319 2.218 1.457 4.436 2.914 6.284 4.079-.74 3.206-.37 6.703-.74 10.2zm55.441 2.331c1.11 2.331 1.85 4.663 2.96 7.285-2.96.875-6.28 1.749-9.24 2.914 0-.874-.37-2.039-.37-2.914 2.96-2.04 4.81-4.662 6.65-7.285zm-7.39 27.393c1.85-3.497 2.59-6.994 2.96-10.782 3.33-.875 6.28-2.04 9.24-3.497.37 1.165.37 2.331.74 3.497.37 3.496.37 6.993.37 10.199-3.33 1.166-6.66 2.623-9.24 3.205-.74.292-1.85.583-2.96.583-.74-1.165-1.11-2.04-1.11-3.205zm9.98 10.199c-2.22-.583-4.43-.874-6.65-1.457v-.291c3.32-.875 6.28-1.749 9.24-2.914 0 0 .37 0 .37-.292 0 1.457.37 2.914.37 4.371-1.11.292-2.22.583-3.33.583zm70.23-13.405c-.74-.291-1.11-.291-1.85-.583 0-1.748 0-3.205-.37-4.662.74.583 1.85.874 2.96 1.166-.37 1.457-.74 2.914-.74 4.079zm10.35 7.286s-.37 0-.37.291c-1.11-1.166-2.22-2.331-3.69-3.497.36-2.331.37-4.954-.74-7.285h2.95c1.85 3.497 2.96 7.285 1.85 10.491zm9.98-1.166h-.74c-.74.291-1.48.583-1.48 1.166l-.37.291c.37-2.331.74-4.371 0-6.703.74.292 1.85.875 2.96.875-.74 1.457-.74 2.914-.37 4.371zm36.6-12.239c-1.48 3.788-1.85 7.576-1.11 11.073 0 .292-.37.292-.37.583-.37-.583-.74-1.166-1.48-2.04-1.11-.874-2.96-.583-3.33.292-1.11-.583-1.85-1.457-2.96-2.04-2.95-2.04-2.95-2.332-3.69-5.537 0-.583 0-1.457-.37-2.04-1.48-3.497-2.96-5.828-3.33-9.908 0-2.914-.74-4.954-2.22-7.577-.74-1.165-2.58-4.662-1.84-5.828h6.28c0 .583.37 1.166.37 1.749 1.11 1.457 1.48 3.205 2.96 4.371 2.58 2.331 5.91 4.08 8.13 6.702 2.22 2.623 2.96 5.537 5.54 7.868-1.11.583-2.22 1.166-2.58 2.332zm22.91 34.386c-.37 0-.37.292-.74.292-.37.291-.74.582-.74.874-.74-.583-1.47-1.166-1.47-1.749 0-.291.36-.583.36-.874 1.11.583 1.85 1.166 2.59 1.457.37 0 0 0 0 0zm1.85 1.457v-.874c.37.291.74.291 1.48.583-.74.291-1.11.291-1.48.291zm75.41-33.221c0 .875-.37 2.04-.37 2.914-.37-.874-.74-1.457-1.11-2.331.74-.291 1.11-.583 1.48-.583zm-15.16 9.034c-1.48-.583-3.33-1.457-4.8-2.04 1.1-.583 2.58-1.165 3.69-1.748.37 1.165.74 2.622 1.11 3.788zm-41.77 3.788c-1.11.583-1.85 1.166-2.22 2.04-2.58 2.332-5.91 4.371-7.76 6.994-.37 0-.74.292-.74.583-.74-.291-1.11-.583-1.85-.874 1.11-.583 2.59-1.166 3.7-2.04 3.7-2.623 5.55-5.537 5.18-9.325 0-.875-1.11-2.04-2.59-1.457-4.07-2.623-5.92-5.246-5.55-7.577.37.291 1.11.583 1.48.583 4.44 2.04 9.24 4.371 14.42 6.702-1.48 1.457-2.96 2.914-4.07 4.371zm20.7-29.724c-4.06 4.663-6.65 9.617-9.61 14.862-2.96-1.165-5.91-2.331-8.87-3.497-1.85-.874-3.7-1.748-5.54-2.622 2.21-1.166 4.43-2.332 7.02-2.914 2.96-.583 5.91-.583 8.13-2.914 1.11-.875 1.11-2.332 1.85-3.497 3.33-3.497 6.28-2.332 9.98-3.206 3.33-.874 5.91-2.914 8.5-4.662 3.33-2.04 6.28-3.206 9.98-3.789-.37.292-1.11.583-1.48 1.166-3.33 2.622-5.17 4.08-10.35 5.245-4.8 1.166-7.02 2.623-9.61 5.828zm20.33 101.411c1.11-.582 2.22-1.165 2.96-1.748 1.48 1.166 2.96 2.623 4.43 3.788-2.58-.874-5.17-1.457-7.39-2.04zm14.05-28.558c-1.48-.874-2.59-1.748-3.7-2.622 1.11 0 2.22-1.166 1.11-1.749-.74-.583-1.48-.874-2.22-1.166.37 0 .74-.291 1.11-.291 1.48-.583 2.96-2.04 1.48-3.205-.37-.292-.37-.292-.74-.292-.74.291-1.11.583-1.85.874-.74.292-1.48.583-2.22.583l2.59-2.04c.37-.583 0-1.457-.74-1.457s-1.85.292-2.59.583c.37-.583.74-1.166.74-1.748 0-.292-.37-.583-.37-.583-.73-.292-1.47 0-1.84.291.37-.291.74-.583.74-.874 1.1-.874-.37-2.331-1.85-1.749-.74.292-1.11.292-1.48.875-.74-.583-1.85-.875-2.96-.875-.74 0-1.48.583-1.48 1.166-.74-.291-1.84-.291-2.21.291-.74-.582-1.85-1.457-2.96-2.039.37-.292.74-.875.74-1.457 0-.292.37-.583.37-.875 2.22-.291 4.06-.583 6.28-.874 2.96-.583 5.55-.583 8.13-.874 2.96 1.166 5.92 2.04 8.87 2.914 3.7 4.371 7.77 8.16 12.2 11.074.37 1.165.74 2.622 1.11 3.788-5.91.291-11.09 1.166-16.26 2.331zm20.7-61.779c-.74 1.749-1.48 3.497-2.59 4.954.37-1.748.37-3.497 0-5.537-1.11-7.576-4.44-16.027-9.24-24.187 2.96-.291 6.28-1.166 8.87-2.623 3.7 8.743 7.76 17.194 2.96 27.393zm149.33-53.328v-3.206c.74-.291 1.48-.874 2.22-1.165-.37 1.165-1.11 2.622-2.22 4.371zm5.54-9.908c-.37.583-.74 1.457-1.11 2.04-1.48.874-2.95 1.748-4.06 2.622 0-1.457 0-2.914-.37-4.371 1.85-.583 4.06-.874 5.91-1.165 0 .291-.37.582-.37.874zm11.83 8.742h1.85l-1.11.874c-.37.292-.74.583-1.48.875.37-.583.74-1.166.74-1.749zm-4.07 11.657c.74-1.457 1.11-2.914 1.85-4.663 1.85-.874 3.7-1.748 5.55-2.914-2.22 2.914-4.44 5.245-7.4 7.577zm11.09-16.611c-2.21.292-3.69.292-5.54.583 0-.583.37-.874.37-1.457 1.85 0 3.7.291 5.17.874 0-.291 0 0 0 0zm-2.58-8.159c0-.292.37-.875.37-1.166 1.1.291 2.21.874 3.32 1.457-1.11 0-2.58-.291-3.69-.291zm6.65-3.789c-1.85-.874-3.7-1.457-5.18-1.748 0-.583.37-1.166.37-2.04 1.85.583 4.07 1.748 5.55 2.623-.37.583-.37.874-.74 1.165zm2.59 31.473c1.11-1.166 1.85-2.332 2.58-3.497h1.11c.37.874.37 1.457.74 2.331-1.48.291-2.95.874-4.43 1.166zm9.24-7.868c-1.48-.292-2.96-.292-4.44-.292.37-.874.74-2.04 1.11-2.914 1.11 1.166 2.22 2.04 3.7 2.914l-.37.292zm4.43-13.114c-1.11-.583-2.21-1.165-3.32-1.748 0-.583-.37-1.166-.37-1.749.74.292 1.48.874 2.21 1.166.74.583 1.11 1.457 1.85 2.04-.37 0-.37.291-.37.291zm9.61-6.702c-.37 1.748-.74 3.497-1.47 5.245l-1.11-.874c.37-.874.37-1.457.74-2.331.37-1.166.73-2.332 1.1-3.206l.74.583v.583zm14.05 1.457c.37-1.749.74-3.206 1.11-4.954 0-.583.37-1.457.37-2.04.37 2.331.74 4.954 1.48 7.285-1.11.292-2.22 0-2.96-.291zm92.41 44.586c.37 0 1.11-.292 1.48-.292.74 1.457 1.47 3.206 2.58 4.663-1.11 1.165-2.21 2.331-2.95 3.788-.37.583.74 1.457 1.11.583.73-.874 1.84-1.748 2.95-2.623 0 .292.37.583.37.875-3.69 4.079-7.02 9.033-9.61 13.987-.74-.291-1.48-.291-2.22-.583 4.81-5.828 6.66-13.113 6.29-20.398zm-21.81 34.969c1.11-.291 1.85-.583 2.96-.874-1.11 2.04-2.59 4.08-4.44 5.828.74-1.457 1.48-3.206 1.48-4.954zm-23.66-9.325c.74 1.748 1.11 3.205 1.48 4.954-1.85.874-3.69 1.748-5.54 2.623 1.85-2.332 3.32-4.955 4.06-7.577zm-17.74-85.675c.37.291.37.583.74.874-.37.292-.74.583-.74 1.166 0-.583-.37-1.457-.37-2.04-.37-.291 0-.291.37 0zm2.59 92.669c1.11-.292 1.85-.583 2.96-.875-1.11 2.04-2.22 4.08-4.07 6.12-.37.583-1.11 1.166-1.85 1.457-1.85.583-3.7 1.166-5.17 1.749 3.32-2.332 6.28-5.246 8.13-8.451zm-12.57-89.464l1.11 1.749c1.11 1.457 2.59 2.623 3.7 4.08-.74 1.165-1.11 2.622-1.85 3.788l-4.44-3.497c1.11-2.04 1.48-4.08 1.48-6.12zm-8.13 5.829c-.37.583-.74 1.165-1.48 2.04-.37-2.332-1.48-4.663-2.22-6.411-.37-.583-.74-1.458-1.11-2.04 1.85 2.04 2.96 4.371 4.81 6.411zm-7.39-11.657v-.874c.37 1.166 1.1 2.623 1.47 3.788 0-.874-.73-2.04-1.47-2.914zm2.21 97.623c1.85-3.497 2.96-7.285 4.07-11.074 1.48-1.165 2.59-2.622 3.7-4.079-1.11 4.662-2.59 9.033-5.18 13.405-.74.582-1.85 1.165-2.59 1.748zm38.08 19.233c-9.98 1.457-20.33 2.04-31.05 2.623 2.95-.583 5.91-1.457 8.87-2.04 9.61-2.331 17.74-5.245 26.24-9.034-.74 2.914-2.22 5.537-3.69 8.16l-.37.291zm6.28-.874c-1.11.291-2.59.291-3.7.583 3.7-3.206 6.29-7.286 8.14-11.074.73-.291 1.1-.583 1.84-.874l6.66-3.497c1.11-.583 1.85-1.166 2.95-1.457 0 2.04 0 4.371-.74 6.411-.36 1.166 1.48 1.748 2.22.583.37-.874 1.11-1.749 1.48-2.623h.37c4.81-1.748 8.13-4.663 10.35-8.451 1.48-.291 2.59-.291 4.07-.291-1.11 2.622-1.85 5.245-2.59 7.576-.37.875 1.48 1.749 2.22.875 2.21-2.914 4.43-5.829 6.65-9.034 1.85-.583 2.96-.874 4.81-1.749-10.35 13.405-24.77 19.816-44.73 23.022zm49.53-34.387c-.37 0-.74.292-1.11.292-.74.291-.37 1.165.37 1.165-.37.875-.37 2.04-.37 3.206l-1.11 1.748c-.37.292-.37.583-.74.875-.74-.875-1.85-1.457-2.58-2.04 1.1-2.04 2.58-3.789 3.69-5.828.74-.875 1.11-1.749 1.85-2.623.74.583 1.85.291 2.22-.292v-.582s0 .291.37.291c-.74 1.166-1.85 2.331-2.59 3.788zm18.48-10.49c0-1.166-.37-2.332-.37-3.497 2.59-.292 5.18-.292 8.13-.583h.37c.37.583.37 1.457.74 2.04-3.32.291-6.28 1.165-8.87 2.04zm5.18 9.033h3.69c-1.11.583-1.84 1.166-2.58 1.749l-1.11-1.749zm2.21 4.663c1.85-.874 3.7-2.04 5.55-2.914.37 1.748 1.11 3.497 1.48 5.245l-5.55 1.749c-.37-1.457-.74-2.914-1.48-4.08zm5.92 21.564c-.74 0-1.48.292-2.22.292v-1.749c.74 0 1.85-.291 2.96-.291-.37.874-.37 1.165-.74 1.748zm1.48-4.371c-1.11.292-2.59.583-3.7.874 0-2.622-.37-5.245-.74-7.868 1.48.583 3.33.875 5.18 1.457 0 1.749-.37 3.497-.74 5.537zm15.15-23.604c-.74-.292-1.48-.292-1.85-.583 0-.583-.37-1.166-.74-1.457.74 0 1.11 0 1.85.291h1.11c-.37.583-.37 1.166-.37 1.749zm127.89-379.709c2.22 2.623 4.44 5.246 5.92 8.16-2.22-2.623-4.07-5.537-5.92-8.16zm70.97-11.073c0-1.458 0-2.915-.37-4.08.37.583.74 1.165 1.11 1.457 0 0 0 .291.37.291-.74.874-1.11 1.457-1.11 2.332z" fill="#9DCAFF"/><path d="M1024.65 311.939c-2.05-10.785-4.38-22.154-4.96-33.231 0-1.457-2.63-2.04-2.63-.291-.58 4.081-2.62 6.121-4.95 7.87 0-.874.29-1.749.29-2.623 1.17-5.539 5.83-13.118.29-18.073-4.08-3.79-12.54-2.624-17.203-1.166-6.707 1.749-12.83 5.538-17.204 11.077-5.248 6.704-7.289 15.158-11.372 22.154-.874 1.749-2.332 3.498-1.458 5.538a5.724 5.724 0 002.625 2.624c2.332 4.664 4.665 9.911 8.456 12.826 1.749 1.457 4.082 2.04 6.415 2.915 4.374 1.457 8.164 2.915 11.663 6.121 1.167.875 2.625-.291 2.041-1.457-1.166-2.332-2.332-4.373-4.082-6.122 5.249 1.458 10.499 5.83 15.749 5.247 6.41-.583 7.87-6.413 7.29-11.951-.29-3.207-.88-6.122-1.75-9.328 3.2 2.04 5.83 5.247 7.87 9.036.87 1.749 3.21.583 2.92-1.166zM870.69 340.798c-.291-.292-.291-.583-.583-.875 0 0 0-.291-.292-.291-6.706-10.494-16.329-19.822-28.867-23.029-5.832-1.457-11.955-1.749-17.787 0-9.622 2.915-17.204 9.62-27.701 6.996-1.166-.291-2.333 1.166-1.166 2.041a27.87 27.87 0 016.706 7.579c2.916 6.121-.583 3.789-4.374 2.623-7.289-2.332-13.704-6.121-19.536-10.494-1.166-.583-2.624.875-1.458 1.749 0 0 .292 0 .292.292l.583.583c.583.291.874.583 1.458 1.166 4.957 3.498 9.331 7.87 9.331 14.575 0 6.996-5.541 11.077-11.081 15.158-1.166.874 0 2.623 1.166 1.749 8.165-5.83 17.204-11.369 27.118-12.535-4.957 2.915-8.164 7.871-8.456 14.284 0 .874.875 1.457 1.458 1.166 20.12-4.956 51.028 3.498 65.608-14.284 1.166-.874 2.333-1.749 3.207-2.623.875-1.166 2.042-2.332 2.625-3.498 1.458-.583 2.332-1.458 1.749-2.332zM913.259 183.096c-1.458 4.373-3.207 8.454-5.832 12.243-4.082-10.494-11.08-16.615-23.618-17.198-10.789-.583-21.286 4.664-25.952 14.283-1.749 2.041-3.499 4.664-6.123 5.83-1.458.583-.584 2.915.874 2.915.584 0 2.916 5.83 3.5 6.705 1.457 1.749 3.207 2.623 4.956 3.498 6.415 3.206 13.414 5.538 20.12 7.579 4.374 1.166 11.955 4.081 16.621 2.04 4.665-1.749 4.957-9.328 5.54-13.992 2.624 1.166 4.374 3.207 4.957 6.122.292 1.457 2.333 1.166 2.624-.292.292-9.911 1.75-19.53 4.666-28.858.583-1.749-1.75-2.332-2.333-.875zM614.678 249.558c0-4.081.875-7.87 2.625-10.785.583 2.915 1.458 5.538 2.624 8.453 1.75 4.664 5.54 9.037 11.372 6.996 4.665-1.749 7.29-7.579 11.08-10.785-.583 2.04-.874 4.372-.874 6.704 0 1.458 1.749 1.749 2.332.583 1.75-4.081 4.083-6.996 7.29-9.911 1.458-1.457 3.208-2.915 4.082-4.955 1.75-4.081 1.75-9.328 1.75-14.284.583-1.166 1.166-2.04 1.166-3.206 0-2.041-2.041-2.915-3.499-4.081-6.706-4.373-11.663-10.494-18.953-13.992-5.832-2.624-12.539-3.207-18.954-2.041-4.665.875-11.955 3.498-13.996 8.162-2.624 6.413 4.666 10.786 7.873 14.867.583.583.875 1.457 1.458 2.04-2.624-.291-5.249-1.166-7.581-4.372-.875-1.166-2.625.291-2.041 1.457 4.082 9.62 6.998 19.822 9.914 30.025 0 .874 2.332.874 2.332-.875zM1300.2 241.105c0-4.372-.58-8.745-3.21-10.202-2.91-9.911-5.83-19.822-8.16-30.025-.29-1.457-2.63-1.166-2.34.292.3 6.704.3 13.117-.58 19.53-3.21-2.623-4.96-6.121-5.25-10.494 0-1.166-1.16-1.457-2.04-1.166-7 3.79-14.29 7.288-21.28 11.077-2.63 1.458-4.67 2.624-6.42 4.956-2.04 2.915-3.5 5.83-5.54 8.745-6.71 11.077-13.41 23.028-12.54 36.437h-.29c-1.75 0-1.75 2.624 0 2.624 6.71.583 13.71 0 20.41-1.458 2.63-.583 4.67-1.749 7.29-.291 1.17.583 2.33 1.749 3.21 2.623 3.21 2.624 6.71 4.956 9.91 7.579.88.583 2.63-.583 2.04-1.457-2.04-4.956-3.79-9.911-5.83-14.867 2.04-.874 3.5-2.623 4.67-4.664.87-1.457 1.75-3.206 3.21-4.372 3.2-2.915 6.99 0 9.62 2.332.87.874 2.04.291 2.33-.875.88-6.413 1.46-12.826 2.33-19.53-.29-2.041.59-2.915 2.63-2.624.58-.291.87-.583 1.46-.874.29 1.166.58 2.332.87 3.789.29.875.58 2.041.88 2.915 0 3.207-.3 6.413-1.17 9.62-.29 1.166 1.16 2.332 2.04 1.166 2.92-2.624 2.92-6.705 1.75-10.786zM1192.89 255.68c-16.03-8.453-35.57-8.162-51.9-.583-8.16 3.79-14.87 9.328-20.41 16.324-3.79 4.664-7 9.62-12.54 12.243-5.25 2.624-11.08 3.498-16.62 3.79-14 .583-27.99-1.166-41.99-1.749h-.29c-.29 0-.58 0-1.17-.292-.58 0-.87.583-.29.875 10.79 5.247 26.54 3.498 33.53 14.866 8.17 12.826.59 27.693-7.58 38.187-1.16 1.457.59 3.206 2.04 2.04 6.13-5.247 10.79-11.66 13.42-18.947 2.91-7.579 4.08-20.405 13.7-23.029 4.67-1.166 9.92.875 14.87.875 4.09 0 8.17-.583 12.25-1.458 8.16-1.749 16.04-4.955 23.62-8.453-1.17 2.623-3.21 4.664-5.54 6.704-1.46 1.166-.29 3.207 1.46 2.332 8.45-4.081 14.87-11.077 21.28-18.073 7.58-7.87 14.87-16.032 22.45-23.903.3-.291.3-1.457-.29-1.749zM1404.01 269.672c-6.41 4.372-15.16 9.328-21.58 1.749-4.66-5.539-8.75-11.952-13.12-17.782-2.91-3.789-5.83-8.453-10.79-9.911-3.79-1.166-7.87-.291-9.91 3.207-2.33 4.081-.88 9.328.58 13.409 1.75 5.247 4.08 10.202 7.58 14.283 3.21 3.79 7.88 6.705 12.83 7.579 3.5.583 7.58.292 11.08.583 1.75 1.458 3.21 3.207 4.38 5.539 2.62 4.664 4.37 9.911 5.83 15.158.58 2.332 1.17 4.372 2.04 6.413.58 1.457 2.92.291 2.62-1.166-.87-2.041-1.45-4.373-2.04-6.705-2.33-11.368 2.04-23.903 11.67-30.607 1.45-.583.29-2.624-1.17-1.749z" fill="#9DCAFF"/></svg>