<svg width="610" height="53" viewBox="0 0 610 53" fill="none" xmlns="http://www.w3.org/2000/svg">
<path d="M39.5156 51.5L39.5156 28" stroke="#2C60AE" stroke-width="2" stroke-linecap="round"/>
<path d="M78.0312 51.5L78.0312 28" stroke="#2C60AE" stroke-width="2" stroke-linecap="round"/>
<path d="M116.547 51.5L116.547 28" stroke="#2C60AE" stroke-width="2" stroke-linecap="round"/>
<path d="M190.828 51.5L190.828 28" stroke="#2C60AE" stroke-width="2" stroke-linecap="round"/>
<path d="M229.344 51.5L229.344 28" stroke="#2C60AE" stroke-width="2" stroke-linecap="round"/>
<path d="M267.859 51.5L267.859 28" stroke="#2C60AE" stroke-width="2" stroke-linecap="round"/>
<path d="M342.141 51.5L342.141 28" stroke="#2C60AE" stroke-linecap="round"/>
<path d="M493.453 51.5L493.453 28" stroke="#9DCAFF" stroke-width="2" stroke-linecap="round"/>
<path d="M306 51L306 1" stroke="#2C60AE" stroke-width="2" stroke-linecap="round"/>
<path d="M609 51.5L609 1.5" stroke="#9DCAFF" stroke-width="2" stroke-linecap="round"/>
<path d="M457.688 51.5L457.687 1.5" stroke="#9DCAFF" stroke-width="2" stroke-linecap="round"/>
<path d="M380.656 51.5L380.656 28" stroke="#2C60AE" stroke-linecap="round"/>
<path d="M531.969 51.5L531.969 28" stroke="#9DCAFF" stroke-width="2" stroke-linecap="round"/>
<path d="M419.172 51.5L419.172 28" stroke="#2C60AE" stroke-linecap="round"/>
<path d="M570.484 51.5L570.484 28" stroke="#9DCAFF" stroke-width="2" stroke-linecap="round"/>
<path d="M155 1L155 51" stroke="#2C60AE" stroke-width="2" stroke-linecap="round"/>
<path d="M1 1L1 51" stroke="#2C60AE" stroke-width="2" stroke-linecap="round"/>
<rect x="1" y="41.4998" width="1" height="453.937" transform="rotate(-90 1 41.4998)" fill="#2C60AE"/>
<rect x="455" y="42" width="2" height="154" transform="rotate(-90 455 42)" fill="#9DCAFF"/>
</svg>
