<svg viewBox="0 0 882 220" fill="none" xmlns="http://www.w3.org/2000/svg"><g clip-path="url(#clip0)" fill="#9DCAFF"><path d="M406.772 127.3c.1.8-.4 1.5-1.2 1.7-.8.1-1.5-.4-1.7-1.2-.1-.8.4-1.5 1.2-1.7.9-.1 1.6.4 1.7 1.2zM409.672 131.3c.1.6-.3 1.2-.9 1.3-.6.1-1.2-.3-1.3-.9-.1-.6.3-1.2.9-1.3.6-.1 1.2.3 1.3.9zM404.173 120.5c-.3-.2-.8-.3-1.2-.3-.4.1-.8.3-1 .6-.2.3-.3.8-.3 1.2.1.4.3.8.6 1 .3.2.8.3 1.2.3.4-.1.8-.3 1-.6.6-.8.4-1.7-.3-2.2zM402.173 102.252c-.3-.2-.8-.3-1.2-.3-.4.1-.8.3-1 .6-.2.3-.3.8-.3 1.2.1.4.3.8.6 1 .3.2.8.3 1.2.3.4-.1.8-.3 1-.6.6-.8.4-1.7-.3-2.2zM407.476 116.1c-.3.7-1.1 1.1-1.8.9-.7-.3-1.1-1.1-.9-1.8.3-.7 1.1-1.1 1.8-.9.7.2 1.1 1.1.9 1.8zM410.324 96.852c-.3.7-1.1 1.1-1.8.9-.7-.3-1.1-1.1-.9-1.8.3-.7 1.1-1.1 1.8-.9.7.2 1.1 1.1.9 1.8zM407.876 121c-.2.6-.8.9-1.4.7-.6-.2-.9-.8-.7-1.4.2-.6.8-.9 1.4-.7.6.2.9.9.7 1.4zM408.478 108.9c-.2-.4-.5-.7-.9-.8-.4-.1-.8-.1-1.2.1-.4.2-.7.5-.8.9-.1.4-.1.8.1 1.2.2.4.5.7.9.8.4.1.8.1 1.2-.1.7-.4 1-1.4.7-2.1zM440.676 139.4s-7.6-.8-8.7-2.5c-1.5-2.2 1.5-4.7-1.8-10.6-1.7 2.8-5.1 5.4-7.4 6.5.7 3.7 1.3 6.9-3.6 8.9 1.5 1.9 3.7.2 3.7.2l5.7 6s11.3 14.1 11.5 10.9c.2-4 .6-19.4.6-19.4zM429.074 124.5c-.3-.4-.7-.8-1-1.2-4.3-4.7-15.5-1.6-15.5 5.8 0 .5.1 1.1.2 1.6 6.4-3.4 8.7-2.5 9.6-.4 1.4-.7 4.7-2.5 6.7-5.8z"/><path d="M468.374 150.8v.1c-.8 1.9-3.1 4.9-6.6 7.5-2.9 2.1-7.5 4.6-13.3 4.6-1.7 0 3.1-8.2 1.7-8.3-3.5-.3-4.5-7.3-15.5-.2 3.8 2.7 8.6 9.4 11.6 11.7 9.5 7.1 18.8 10.7 18.8 10.7s16.6-16.6 11.9-20c-1.7-1.2-6.4-4.9-8.6-6.1zM437.074 138.3c-2.5-.1-5 .1-5 .1s-2.5-1.4-5.7 4.2c3.2-1.2 3.9 1 3.9 1 .5.1.9.4 1.4.7.5-1.2 4.5-.4 5-1.2.8-1.1-.4-4 .4-4.8zM428.274 147.6l.3.3c-.3-.5-.4-.5-.3-.3zM436.375 146.7h-.2c-.5 1.2-.8 2.6-.7 3.8.6-1.1.9-2.4.9-3.8z"/><path d="M439.473 155.6c-2.1.8-4.2 1.7-6 2.5.7.7 1.5 1.2 2.5 1.7 2-1.3 3.8-2.5 5.3-3.5-.7-.2-1.3-.5-1.8-.7zM464.877 149.4c-.7.7-2.5 2.5-5.2 4.3-3.1 2-7.9 4.3-13.1 3.8-.3 0-.6-.1-.9-.1-1.2-.2-2.3-.4-3.2-.7-.9.7 7.8-4.8 6.7-4-.7.4-10.1 7.9-11 8.5 1.9.8 3.1.5 5.7.7 1.4.1 2.9.2 4.6.2 5.6 0 10-2.4 12.8-4.4 3.2-2.3 5.3-5 6.2-6.7l-2.6-1.6zM432.477 146.8c2.2-1.6 4.1-2.8 5.7-3.7.1-.1.2-.3.3-.4 1.3-1.7 2.8-3.1 3.5-3.7-1.9-.4-3.6-.7-4.9-.8-.6.4-1.8 1.6-3.1 3.6-.6.9-1.1 1.9-1.5 2.9-.4.9-.8 1.9-1 2.8.3-.1.6-.4 1-.7zM431.177 154.2c.3 1 .7 2 1.4 2.8 1.8-.9 3.6-1.6 5.4-2.4-1.5-1.1-2.3-2.5-2.5-4.1-.1-1.3.2-2.6.7-3.8.2-.6.5-1.2.9-1.7-2 1.3-4.1 2.9-5.9 4.6-.1.4-.1.7-.1 1.1-.3 1.2-.2 2.4.1 3.5zM444.273 153.8c-1.1.3-2.3.8-3.6 1.3.4.2.9.4 1.4.5 1-.7 1.7-1.3 2.2-1.8z"/><path d="M446.073 145.6c.8.1-1.4 1.6-.8 2 .7.4-.6.3-.1 1 .4.6-4.4-.2-4.2.4.1.6.4-.9.3-.3-.2 1.3 3 2.2 4.9 3.2.6.3.6.8.6.8-.4.4-3.8 3.5-4.5 4.1.8.2 2.7 7.2 3.5 7.4.3 0 16.2 1.4 16.5 1.5 4.9.5 1-3.2 4-5.1 3.2-2.1 5.5-6.9 2-9.5l-3.9-2.3c-9.1-5.1-16.7-8.3-22.5-9.4-.1.1-9.8.4-12.6 3.4 3.2-1.6 15.7 2.6 16.8 2.8zM416.497 139.412l1.995 1.819-.539.592-1.995-1.82.539-.591zM417.873 142.4c.2.2.3.6 0 .8l-1.2 1.3c-.5.5-1.6.2-2.6-.6l2.5-2.7 1.3 1.2z"/><path d="M415.674 140.8l1.5 1.3 1.4-1.5c-.7-.6-1.2-1-1.5-1.3l-1.4 1.5z"/><path d="M415.276 140.1c-.2-.2-.6-.2-.8 0l-1.2 1.3c-.5.5-.1 1.6.9 2.5l2.5-2.7-1.4-1.1zM420.776 133s.3 0 .9-.4c.3-.2.1-1.4-.2-1.8-.4-.7-1.7-.4-1.4-.2.8.5.7 2.4.7 2.4z"/><path d="M413.375 145h-.3c-1.3.1-2.6-.3-3.3-1.2-.8-.9-1.1-2-.8-3.1.6-2.1 2.7-3.6 3.8-4.1l4.1.7c-3.1.7-5.4 2.9-5.6 3.9-.1.3-.1.6.3 1.1.2.3.7.4 1.3.4.4 0 1.2-.2 1.8-1.2l2.1 1.1c-.8 1.3-2 2.2-3.4 2.4zM429.074 124.5s.5.3 1.2 1.8-3.8 7.2-4 7.3c-.2.1-4.2-4.7-4.2-4.8-.1-.3 7-4.3 7-4.3zM457.976 149.6c-.4-.1-22.4-9.7-22.7-9.7 0 .6-6.2 1.6-7.5 6.1-2.4 8.5 17.9 12.8 27.7 11.1 1.3 1.4 2.5 3.4 12.6 9.6 3 1.9 6.9 6.2 8 7.2l2.1-4.6c-1.3-1.5-6.4-7.1-8.1-9.2-4.2-5.2-10.3-9.4-12.1-10.5z"/><path d="M455.677 157.1c5.7 9.1 15.7 10.9 20.5 17.4.5.7-.1 2.4.2 3.3.3.8 1.8 3.1 1.8 4.2 0 .5-.1 1.1 0 1.6.1.4.7.5 1 .3.4-.3 1.2-1.4.5-3.3-.7-1.7 0-1.9.6-1 1.6 2.5 3.2 5.2 4 6 .5.5 1.6-.4 1.2-1-1.2-2.1-3-4.6-2.8-4.9.2-.3 1.1.8 3.3 3.4.3.3 1.2 1.4 1.4 1.6 0 0 .6.1 1-.2.4-.4.3-.9.3-.9-.3-.3-1.3-1.6-1.7-2.1-1.6-1.9-2.7-3-2.5-3.2.2-.2.6.3.9.5.8.6 2.3 1.8 3.1 2.5 1.8 1.5 2.2.5 2-.4 0 0-.2-.3-2.9-2.5-1.4-1.2-2.1-1.5-2-1.8.2-.3 1.4.5 1.6.6 1.6.8 3.3 1.2 3.8.6 0 0-.8-.8-4.2-2.7-3.1-1.7-3.5-4.1-6-4.4-.7-.1-11.1-11.3-11.1-11.3-1.2-1.4-14.3-2.8-14-2.3z"/><path d="M485.476 174.4c-.4-.2-.9-.1-1.1.3-.2.4-.1.9.3 1.1l5.3 3.3c.4.2.9.1 1.1-.3.2-.4.1-.9-.3-1.1l-5.3-3.3zM481.876 179.5c-.2-.4-.7-.5-1.1-.2-.4.2-.5.7-.2 1.1l3.5 5.2c.2.4.7.5 1.1.2.4-.2.5-.7.2-1.1l-3.5-5.2zM485.377 177c-.3-.3-.8-.2-1.1.1-.3.3-.2.8.1 1.1l4.9 3.9c.3.3.8.2 1.1-.1.3-.3.2-.8-.1-1.1l-4.9-3.9zM484.378 178.9c-.3-.3-.8-.3-1.2 0-.4.3-.4.8-.1 1.2l4.1 4.7c.3.3.8.3 1.2 0 .4-.3.4-.8.1-1.2l-4.1-4.7z"/><path d="M503.176 198.5c-5.8-15.5-12.2-16.7-13.2-19.6-.8-2.4-.2-4.6-4.1-9.4-3.6-4.5-13.5-8.8-13.5-8.8l-7.5 16.3c12.5 13.9 28.5 25 34.9 27.7 0 0 1-1.5 1.2-1.4l2.7-4.2c-.2-.1-.4-.4-.5-.6z"/><path d="M529.976 193.3c-21.3-2.7-27.8 4.5-30.9 4.6l.7 6.9c6.8-.9 29.2-6.8 29.2-6.8 2-1.8 2-4.6 1-4.7z"/><path d="M527.777 193s3-.2 4.2-2.5c.8-1.6 4.5.9 5.1 1.4 17.5 14.5 34.4 11.6 35.1 12.1.7.5 3.7 8.3 1.8 15.3-.4 1.4-16.7 2.7-35.5-17.7-3.7-4-13-2.6-13-2.6l2.3-6zM509.275 185.3c-9.1-10.5-19.2-11.7-21-14.2-1.5-2-2.5-5.9-7.5-9.1-4.9-3.1-18.3-4.6-18.3-4.6l-.2 13.9c18.9 12.7 39.5 19.3 45.1 21 .2.1.4.1.6.2l1.9-6.6c-.2-.2-.4-.3-.6-.6z"/><path d="M533.373 172.7c-21.2 3.5-25.3 12.3-28.3 13.3l2.9 6.6c6.3-2.8 25.7-15 25.7-15 1.5-2.4.7-5.1-.3-4.9z"/><path d="M531.275 173.1s2.7-.2 3.3-3.6c.6-3 9.4.7 10.1.9 25.3 6.5 30.7 2.2 31.5 2.5.7.1 5 4 5.2 11.2 0 1.5-25.8 1.8-37.5-5.9-4.5-3-13.2 1.3-13.2 1.3l.6-6.4zM428.675 149.3s6 17.3 23.4 23.5c18.1 6.4 32.3 11.2 32.3 11.2l-55.7-34.7zM415.873 128.2s-1.1.4-2.3.8c.9-1.1 2.2-1.4 3.7-1.1-.5 0-.9.1-1.4.3zM418.773 136c.4-.1.8-.4 1.1-.6.4-.2.7-.5 1-.8.3-.3.6-.7.7-1 .2-.5.7-1.8.1-3.8 0-.1-.1-.2-.2-.3 4.4 2.3 8.8 6.2 9 6.5.3.6-3.9 7.5-9.2 7.6-2.6 0-4.7-3-6.1-6.2 1.1-.3 2.3-.7 2.4-.7.3 0 .8-.5 1.2-.7zM420.974 129.1c.2.1.4.2.6.4-1.5-.8-3-1.4-4.3-1.6 1.9-.2 3 .9 3.7 1.2zM410.474 130.1c.2-.1 1.7-.6 3-1.1-.3.4-.6 1-.8 1.6 0 0 .1.2.2.6-.4.2-.7.4-.8.6-.3.8 1.2 4.6 1.9 4.9 0 0 .3-.1.7-.2.1.3.2.6.4.8-.8.2-1.5.4-1.6.4-2.5-1.7-3.2-7.5-3-7.6z"/><path d="M419.171 134.3c.5-1.2-.5-4.4-2.4-4.2-1.2.1-2.9.7-3.9 1.2-.1-.4-.2-.6-.2-.6.2-.7.4-1.2.8-1.6 1.2-.4 2.3-.8 2.3-.8.5-.2.9-.3 1.4-.3 1.3.2 2.8.8 4.3 1.6.1.1.1.2.2.3.6 2 .1 3.3-.1 3.8-.1.3-.4.7-.7 1-.3.3-.6.6-1 .8-.4.2-.8.4-1.1.6-.4.2-.9.7-1.2.7-.1 0-1.4.4-2.4.7-.1-.3-.3-.6-.4-.8 1.3-.6 4-1.6 4.4-2.4zM468.173 155.4l6.9 4.5c2 1.3 5.2-.1 7.1-3.2 1.9-3 1.9-6.5-.1-7.8l-7.9-5.1c-.2 1.5-2.8 1.6-4.3 3.8-1.4 2.4-.4 6.9-1.7 7.8z"/><path d="M473.473 143.4l-15.4-9.9c-.2 1.5-3.3 2.5-4.8 4.8s-2.2 4.6-3.5 5.4l16.6 10.7c-.1.9 0 1.6.4 1.9.3.2.6.2 1 0 .1 0 .1 0 .2-.1h.1c1.4-.6 3.3-2.6 5-5.3.2-.3.4-.7.6-1l.6-1.2c.1-.3.3-.5.4-.8 0-.1 0-.1.1-.2 1-2.4 1.3-4.3.5-4.8-.4-.2-1 0-1.8.5zM439.074 132.7c1 .6 1.2 1.9.6 2.8-.6 1-1.9 1.2-2.8.6-1-.6-1.2-1.9-.6-2.8.6-1 1.9-1.2 2.8-.6zm-1.4.5h.2l-.1-.5h-.2l.1.5zm-.8.6l.1-.1-.4-.3-.1.1.4.3zm.5 1.7l-.1-.1-.3.4.1.1.3-.4zm.9.1h-.2l.1.5h.2l-.1-.5zm.8-.6l-.1.1.4.3.1-.1-.4-.3zm-.9-1c-.2-.1-.5-.1-.6.1 0 .1-.1.2-.1.2l-1.3.3v.2l1.3-.3c0 .1.1.1.2.2.2.1.5.1.6-.1.2-.2.1-.4-.1-.6zm1.5-.1l-.5.1v.2l.5-.1v-.2zm-.8-1l-.3.4.1.1.3-.4-.1-.1z"/><path d="M443.874 122.5c1.1.7 1.9 1.2 3 1.9.3.3.4.7.2.9-.9 1-1.7 2-2.6 2.9-.2.2-.5.2-.7 0-.1-.1-.2-.1-.2-.2l-1.2 1.9.8.5.6-.9 2.1 1.4c2.1-1.7 5.2-2 7.7-.4l3.4 2.2c.8-.5 1.5-.7 1.9-.4l.3.3c.2.4.3.9.1 1.6-.2 1.4-1.1 3.5-2.4 5.6-.1.1-.2.3-.3.4-1.3 2-2.7 3.6-3.9 4.6-.2.1-.3.3-.5.4-.2.1-.3.2-.4.3-.4.2-.7.3-1 .3h-.1c-.1 0-.3-.1-.4-.1-.4-.3-.6-1-.4-1.9l-3.4-2.2c-2.4-1.6-3.5-4.5-2.8-7.2l-2.1-1.4.6-.9-.8-.5-.6.9-.1.2c.6 1 .7 2.3 0 3.3s-1.9 1.5-3 1.4l-5.5 5.3-2.5-.3 6.2-5.9c-1-1-1.2-2.6-.4-3.8.8-1.2 2.3-1.7 3.6-1.2v-.1l.6-.9-.7-.4c-.2 0-.4-.1-.6-.2-.5-.3-.7-1-.3-1.5.3-.5 1-.7 1.5-.3.2.1.3.3.4.5l.7.4 1.2-1.9c-.1 0-.2-.1-.2-.2-.4-.2-.4-.4-.3-.7.5-1.2 1.1-2.4 1.6-3.6.1-.2.5-.3.9-.1zm-4.6 9.9c-1.1-.7-2.6-.4-3.3.7-.7 1.1-.4 2.6.7 3.3 1.1.7 2.6.4 3.3-.7.7-1.1.4-2.6-.7-3.3z"/><path d="M456.172 152l-1.6-1.6c7-2 14.4-8.8 15.4-15.8 1.5-10.1-5.7-19.6-16.2-21.2-6-.9-10.8 2.3-12.9 5.9-2 3.4-1.8 7.2.6 10.3l-1.5 1.2c-.7-1-1.3-2-1.7-3.1-.4-1-.6-2.1-.6-3.2-.1-2.1.5-4.2 1.6-6.1 1.3-2.3 3.5-4.3 6-5.5 2.7-1.3 5.8-1.8 8.8-1.3 2.8.4 5.5 1.4 7.9 2.8 2.3 1.4 4.3 3.2 6 5.3 1.6 2.1 2.8 4.5 3.5 7.1.7 2.7.9 5.4.5 8.1-.6 3.9-2.3 7.5-5 10.4-2.7 2.9-7.1 5.6-10.8 6.7z"/><path d="M434.973 133.8c-2.3-1.7-3.6-3.4-3.7-5.3-.1-1.3.4-2.6 1.3-3.5.8-.8 2.1-1.1 3.3-.9 1.1.2 3.2 1.1 4.6 4.6l-2.3.9c-.7-1.8-1.7-2.9-2.8-3.1-.5-.1-.9 0-1.1.2-.2.2-.7.8-.6 1.6.1 1.1 1 2.3 2.7 3.5l-1.4 2z"/><path d="M440.672 134.7c-.1 1.5-1.5 2.6-3 2.4-1.5-.1-2.6-1.5-2.4-3 .1-1.5 1.5-2.6 3-2.4 1.5.1 2.6 1.5 2.4 3zM412.275 130.8s-.9-7 6.9-9.7c4.9-1.7 15.7 1.5 12.4 13.8-3.4 12.8-1.4-11.1-19.3-4.1zM445.475 180.2c-.1.2-.1.4-.2.6-1.3.3-2.2 1.2-2.4 2.3-.2 1 .1 2 .9 2.8-.1.3-.2.5-.2.6v.1c0 .1 0 .2-.1.2-.4 1.9.8 3.7 2.7 4.1 1.9.4 3.7-.8 4.1-2.7v-.4c.1-.7.5-3.8.9-6.6.2-1.2-.3-2.3-1.2-3l-2.1-.5c-1.2.4-2.1 1.4-2.4 2.5z"/><path d="M447.676 160.6c-.4-.3-.8-.5-1.3-.7l-.7 1.8c.3.1.5.2.8.4 2.5 1.9 3.1 6.8 1.3 16.5l2.2.1c1.7-10 .8-15.7-2.3-18.1zM455.174 171.4s.4 4.9-1.1 15l4.2.4s1.1-8.1.6-15c-.5-4.8-2-4.3-3.7-.4z"/><path d="M443.973 156.6c.3-2.8-14-15.9-14-15.9-.2.6-1 16.9.6 19.4 3.5 5.3 7.1 7.2 8.3 8 4.4 3 17.2 7.2 17.2 7.2 2.7-.7-12.3-15.9-12.1-18.7z"/><path d="M374.976 136.7c3.1.3 4.4-.4 6.6 1.3 2.2 1.6 11 8.3 11 8.3 1.3.6 2.6 1.2 3.7 1.7 12.8 6 8.6 4.6 11.9 5.9 0 0 20.6 3.3 21.3-.5.7-3.8 9.3-6.1 10.3-6.1s12.9 7.7 12.9 7.7l-11.8 14.2-29.6-4.6c-6-.9-11.8-6.1-17.7-10.4-1.6-1.1-4.5-4.9-7.1-7.7-1.3-.4-2.8-1.1-4.1-2.5-2.9-3-.4-2.1-6.1-4.4-3.4-1.3-4.4-3.2-1.3-2.9zM390.375 135.9s-9.6-5.8-12-7.2c-2.4-1.4-3.6-.6-6.7-.6-3 0-1.8 1.8 1.8 2.8 5.9 1.7 3.3 1.1 6.7 3.7 5 4.2 10.2 1.3 10.2 1.3z"/><path d="M384.175 133.8c1.5.5 6.7 2.3 10 3.5 13.5 4.8 13 6.1 14.4 6.5 0 0 28.6 3.2 31.8-1.5 1.9-2.9-13.399-3.3-12.399-3.2 1 .1 9.799 5.6 9.799 5.6l-6.299 10.3-22.201-2.7c-4.9-1.2-10.4-6.6-16.8-10.3-2.6-1.5-9.1-6.9-12.2-8.1l3.9-.1z"/></g><g clip-path="url(#clip1)" fill="#9DCAFF"><path d="M29.705 187.155c.211-.074.31-.061.496.064.185.125.271.237.357.35.087.112.06.31.035.508-.125.186-.237.272-.35.358-.21.073-.31.06-.495-.065-.384-.15-.431-.56-.28-.944-.087-.112.138-.284.237-.271zM13.417 189.872c-1.375-.28-2.703-.151-3.76.216-5.815 2.065-7.669.815-7.669.815s4.087-1.181 8.907-2.57c2.522-.781 4.38-.337 6.075.59 3.945 2.229 6.622 4.897 9.757 5.608 1.276.268 1.612.009 1.845.543.134.522-.263.47-1.1 1.471-2.767 4.984-3.18 8.157-7.815 9.671-.112.086-.479-.97-.931-2.139-1.384 1.333-2.871 3.458-4.238 3.885-.944.28-2.82-3.897-3.243-6.07l-1.612 4.631s-1.815-1.548-2.695-4.083c-.88-2.535-.272-4.876-.272-4.876l3.98 2.737c-1.406-1.595-1.393-4.013-.854-5.053.84-1.806 3.026-2.328 4.78-3.41 2.165-1.13-1.155-1.966-1.155-1.966zM28.697 190.25c.31-.06.694.091.755.401.06.311-.091.694-.401.755-.31.06-.694-.091-.755-.401-.06-.311.09-.694.401-.755zM28.398 192.531c.211-.073.496.064.57.276.072.211-.066.496-.277.569a.482.482 0 01-.569-.276c-.172-.224-.047-.41.276-.569z"/><path d="M28.848 187.547c-.026.198-.052.397.021.608.074.211.246.435.53.573l.2.026.297.039c.099.013.198.026.21-.073l.1.013c.112-.087.323-.16.435-.246 0 0 .013-.099.113-.086 0 0 .012-.1.112-.087l.012-.099c.026-.198.04-.297.065-.496l.013-.099s.013-.099-.086-.112c-.06-.31-.246-.435-.53-.573-.285-.138-.582-.177-.794-.104 0 0-.099-.013-.112.087-.211.073-.435.245-.474.543-.1-.013-.1-.013-.112.086zm.521-.134c.125-.185.238-.271.35-.357.21-.074.31-.061.495.064.186.125.272.237.358.349.074.212.048.41.022.608a1.37 1.37 0 01-.35.358c-.21.073-.31.061-.495-.065-.483-.163-.53-.573-.38-.957z"/></g><g clip-path="url(#clip2)" fill="#9DCAFF"><path d="M125.647 17.813c.217.053.293.118.38.324.088.206.099.346.11.487.012.141-.118.294-.248.446a1.383 1.383 0 01-.488.11c-.217-.054-.293-.119-.38-.324-.24-.336-.057-.705.279-.945-.011-.14.271-.163.347-.099zM110.507 11.221c-1.001-.984-2.185-1.598-3.27-1.866-6.003-1.435-6.877-3.493-6.877-3.493s4.071 1.235 8.87 2.695c2.54.719 3.857 2.103 4.773 3.803 2.095 4.018 2.888 7.714 5.129 10.017.925.92 1.348.886 1.252 1.46-.172.511-.477.252-1.723.635-5.035 2.673-7.11 5.11-11.821 3.855-.141.011.126-1.075.383-2.301-1.886.364-4.291 1.337-5.67.95-.944-.279-.243-4.804.586-6.857l-3.873 3.006s-.68-2.287-.037-4.892c.642-2.605 2.427-4.237 2.427-4.237l1.847 4.463c-.31-2.104 1.018-4.125 2.035-4.703 1.689-1.057 3.807-.305 5.868-.257 2.43.231.101-2.278.101-2.278zM123.115 19.86c.294.118.533.453.415.747-.119.293-.454.533-.747.414-.293-.118-.533-.454-.415-.747.119-.293.454-.533.747-.415zM121.624 21.61c.217.054.381.325.327.542-.054.217-.324.38-.541.327-.217-.054-.381-.325-.327-.542-.023-.282.183-.369.541-.327z"/><path d="M124.714 17.674c-.13.153-.26.305-.313.522-.054.217-.031.499.132.77.077.064.077.064.153.13l.228.194c.076.065.152.13.217.053l.076.065c.141-.01.358.043.499.031 0 0 .065-.076.141-.01 0 0 .065-.077.141-.012l.065-.076.324-.381.065-.076s.065-.076-.011-.141c.118-.293.031-.5-.133-.77-.163-.27-.392-.465-.609-.518 0 0-.076-.065-.141.01-.217-.053-.499-.03-.693.198-.076-.065-.076-.065-.141.011zm.51.172c.206-.087.347-.098.488-.11.217.054.293.119.381.325.087.205.098.346.11.487-.054.218-.184.37-.313.522a1.383 1.383 0 01-.488.11c-.217-.054-.293-.119-.381-.324-.316-.4-.132-.77.203-1.01z"/></g><g clip-path="url(#clip3)" fill="#9DCAFF"><path d="M775.322 74.915c-.223.014-.31.064-.432.251a1.368 1.368 0 00-.195.46c-.037.138.064.31.164.483.187.123.324.16.461.195.223-.014.309-.064.432-.25.296-.288.181-.684-.106-.98.036-.137-.238-.21-.324-.159zM791.396 71.124c1.16-.79 2.434-1.184 3.55-1.254 6.162-.343 7.389-2.213 7.389-2.213s-4.226.49-9.208 1.073c-2.628.255-4.17 1.383-5.374 2.893-2.777 3.58-4.215 7.076-6.83 8.944-1.074.74-1.484.631-1.492 1.214.078.533.424.332 1.582.931 4.479 3.527 6.087 6.293 10.947 5.897.136.037.066-1.08.032-2.332 1.791.694 3.985 2.08 5.41 1.945.979-.107 1.094-4.684.644-6.852l3.277 3.647s1.075-2.129.907-4.807c-.169-2.678-1.635-4.602-1.635-4.602l-2.611 4.063c.679-2.014-.268-4.24-1.166-4.99-1.474-1.34-3.691-.977-5.728-1.297-2.433-.205.306-2.26.306-2.26zM777.45 77.38c-.31.065-.605.352-.541.662.064.31.352.605.661.54.31-.064.605-.351.541-.66-.064-.31-.352-.606-.661-.542zM778.605 79.369a.481.481 0 00-.419.474c.014.223.252.432.475.418a.481.481 0 00.418-.474c.072-.274-.115-.396-.474-.418z"/><path d="M776.268 74.945c.1.173.201.346.215.57.014.223-.058.496-.267.733l-.173.1-.26.151c-.086.05-.173.101-.223.015l-.086.05c-.137-.036-.36-.022-.497-.058 0 0-.05-.087-.137-.037 0 0-.05-.086-.136-.036l-.051-.086-.251-.433-.05-.086s-.05-.087.036-.137c-.064-.31.058-.496.267-.734.21-.237.469-.388.692-.402 0 0 .087-.05.137.036.223-.013.496.059.647.318.087-.05.087-.05.137.036zm-.533.079c-.187-.123-.324-.159-.46-.195-.223.014-.31.064-.433.251-.122.187-.158.324-.195.46.014.224.115.396.215.57.187.122.324.158.461.195.223-.015.309-.065.432-.252.382-.338.268-.734-.02-1.03z"/></g><path d="M815.497 101.883c1.16-.79 2.435-1.184 3.551-1.254 6.162-.344 7.388-2.213 7.388-2.213s-4.226.49-9.208 1.073c-2.627.255-4.169 1.383-5.374 2.892-2.776 3.581-4.214 7.077-6.83 8.945-1.074.74-1.484.631-1.492 1.214.079.533.424.332 1.582.931 4.48 3.527 6.088 6.293 10.947 5.897.137.037.067-1.079.032-2.332 1.792.694 3.985 2.079 5.411 1.945.979-.107 1.094-4.685.643-6.852l3.277 3.647s1.076-2.129.907-4.807c-.169-2.678-1.634-4.602-1.634-4.602l-2.612 4.063c.68-2.014-.267-4.24-1.166-4.99-1.473-1.341-3.691-.977-5.727-1.297-2.433-.205.305-2.26.305-2.26zM862.611 73.336c1.16-.79 2.434-1.184 3.55-1.254 6.162-.343 7.389-2.213 7.389-2.213s-4.226.49-9.208 1.073c-2.628.255-4.17 1.383-5.374 2.893-2.777 3.58-4.215 7.076-6.831 8.944-1.073.74-1.483.631-1.491 1.214.078.533.424.332 1.582.931 4.479 3.527 6.087 6.293 10.946 5.897.137.037.067-1.08.033-2.332 1.791.694 3.984 2.08 5.41 1.945.979-.107 1.094-4.685.644-6.852l3.276 3.647s1.076-2.129.907-4.807c-.168-2.678-1.634-4.602-1.634-4.602l-2.612 4.063c.68-2.014-.267-4.24-1.165-4.99-1.474-1.341-3.692-.977-5.728-1.297-2.433-.205.306-2.26.306-2.26z" fill="#9DCAFF"/><defs><clipPath id="clip0"><path fill="#fff" transform="matrix(-1 0 0 1 581.375 95)" d="M0 0h212v125H0z"/></clipPath><clipPath id="clip1"><path fill="#fff" transform="rotate(7.427 -1410.386 114.625)" d="M0 0h28.3v23.1H0z"/></clipPath><clipPath id="clip2"><path fill="#fff" transform="rotate(40.425 52.676 143.074)" d="M0 0h28.3v23.1H0z"/></clipPath><clipPath id="clip3"><path fill="#fff" transform="scale(-1 1) rotate(30.17 -512.388 -1450.657)" d="M0 0h28.3v23.1H0z"/></clipPath></defs></svg>