<svg viewBox="0 0 36 36" fill="none" xmlns="http://www.w3.org/2000/svg"><rect width="36" height="36" rx="18" fill="#9DCAFF"/><path d="M17.13 22.187c.014-.907.114-1.623.3-2.15.184-.525.561-1.108 1.131-1.748l1.454-1.544c.621-.724.932-1.501.932-2.332 0-.8-.203-1.425-.61-1.875-.407-.457-1-.686-1.776-.686-.755 0-1.361.206-1.82.617-.459.412-.688.965-.688 1.658H14c.015-1.235.44-2.23 1.276-2.984.844-.762 1.939-1.143 3.285-1.143 1.398 0 2.486.389 3.263 1.166.784.77 1.176 1.83 1.176 3.178 0 1.334-.6 2.649-1.798 3.944l-1.21 1.235c-.54.618-.81 1.506-.81 2.664H17.13zm-.09 3.624c0-.343.1-.629.3-.857.207-.237.51-.355.91-.355s.703.118.91.355c.207.228.311.514.311.857 0 .343-.104.629-.31.858-.208.22-.511.331-.91.331-.4 0-.704-.11-.91-.331-.2-.23-.3-.515-.3-.858z" fill="#CCD8EA"/></svg>