<svg width="847" height="83" viewBox="0 0 847 83" fill="none" xmlns="http://www.w3.org/2000/svg">
<path d="M41.4453 81.0002L41.4453 57.5002" stroke="#2C60AE" stroke-width="2" stroke-linecap="round"/>
<path d="M76.4258 81.0002L76.4258 57.5002" stroke="#2C60AE" stroke-width="2" stroke-linecap="round"/>
<path d="M111.406 81.0002L111.406 57.5002" stroke="#2C60AE" stroke-width="2" stroke-linecap="round"/>
<path d="M181.367 81.0002L181.367 57.5002" stroke="#2C60AE" stroke-width="2" stroke-linecap="round"/>
<path d="M216.348 81.0002L216.348 57.5002" stroke="#2C60AE" stroke-width="2" stroke-linecap="round"/>
<path d="M251.328 81.0002L251.328 57.5002" stroke="#2C60AE" stroke-width="2" stroke-linecap="round"/>
<path d="M321.293 81.0002L321.293 57.5002" stroke="#2C60AE" stroke-width="2" stroke-linecap="round"/>
<path d="M286.309 59L286.309 81" stroke="#2C60AE" stroke-width="2" stroke-linecap="round"/>
<path d="M356.273 81.0002L356.273 57.5002" stroke="#2C60AE" stroke-width="2" stroke-linecap="round"/>
<path d="M391.254 81.0002L391.254 57.5002" stroke="#2C60AE" stroke-width="2" stroke-linecap="round"/>
<path d="M461.215 81.0002L461.215 57.5002" stroke="#2C60AE" stroke-linecap="round"/>
<path d="M601.137 81.0002L601.137 57.5002" stroke="#9DCAFF" stroke-width="2" stroke-linecap="round"/>
<path d="M741.059 81.0002L741.059 57.5002" stroke="#9DCAFF" stroke-width="2" stroke-linecap="round"/>
<path d="M426 81.0002L426 41.0002" stroke="#2C60AE" stroke-width="2" stroke-linecap="round"/>
<path d="M706 81.0002L706 16.0002" stroke="#9DCAFF" stroke-width="2" stroke-linecap="round"/>
<path d="M846 81.0002L846 1.00024" stroke="#9DCAFF" stroke-width="2" stroke-linecap="round"/>
<path d="M496.195 81.0002L496.195 57.5002" stroke="#2C60AE" stroke-linecap="round"/>
<path d="M636.117 81.0002L636.117 57.5002" stroke="#9DCAFF" stroke-width="2" stroke-linecap="round"/>
<path d="M776.039 81.0002L776.039 57.5002" stroke="#9DCAFF" stroke-width="2" stroke-linecap="round"/>
<path d="M531.176 81.0002L531.176 57.5002" stroke="#2C60AE" stroke-linecap="round"/>
<path d="M671.098 81.0002L671.098 57.5002" stroke="#9DCAFF" stroke-width="2" stroke-linecap="round"/>
<path d="M811.02 81.0002L811.02 57.5002" stroke="#9DCAFF" stroke-width="2" stroke-linecap="round"/>
<path d="M146.387 46L146.387 81" stroke="#2C60AE" stroke-width="2" stroke-linecap="round"/>
<path d="M1 46L1 81" stroke="#2C60AE" stroke-width="2" stroke-linecap="round"/>
<rect x="1" y="71.0002" width="0.999977" height="565.155" transform="rotate(-90 1 71.0002)" fill="#2C60AE"/>
<rect x="566.156" y="71.0002" width="0.999989" height="279.845" transform="rotate(-90 566.156 71.0002)" fill="#9DCAFF"/>
<path d="M566 81.0002L566 31.0002" stroke="#2C60AE" stroke-width="3" stroke-linecap="round"/>
</svg>
