<svg xmlns="http://www.w3.org/2000/svg" xmlns:xlink="http://www.w3.org/1999/xlink"><defs><clipPath id="clip0"><path fill="#fff" d="M0 0h20v20H0z"/></clipPath><clipPath id="clip0"><path fill="#fff" d="M0 0h46.553v61H0z"/></clipPath></defs><symbol id="arrow-angle-down" viewBox="0 0 8 4"><path d="M0 0l4 4 4-4H0z"/></symbol><symbol id="arrow-angle" viewBox="0 0 5 10"><path d="M0 10l5-5-5-5v10z"/></symbol><symbol id="arrow-down" viewBox="0 0 16 16"><path d="M16 8l-1.41-1.41L9 12.17V0H7v12.17L1.42 6.58 0 8l8 8 8-8z"/></symbol><symbol id="arrow-thin" viewBox="0 0 9 18"><path d="M1 1l7 8-7 8" fill="none" stroke="#262C36"/></symbol><symbol id="back" viewBox="0 0 512 512"><path d="M492 236H68.442l70.164-69.824c7.829-7.792 7.859-20.455.067-28.284-7.792-7.83-20.456-7.859-28.285-.068l-104.504 104-.018.019c-7.809 7.792-7.834 20.496-.002 28.314l.018.019 104.504 104c7.828 7.79 20.492 7.763 28.285-.068 7.792-7.829 7.762-20.492-.067-28.284L68.442 276H492c11.046 0 20-8.954 20-20s-8.954-20-20-20z"/></symbol><symbol id="box" viewBox="0 0 20 20"><g clip-path="url(#clip0)" fill="#262C36"><path d="M4.346 2.771L.738 4.686c-.061.033-.12.07-.175.11l9.226 4.81 3.864-1.91L4.346 2.77zm15.652 3.093l-4.616 2.283v2.572a.586.586 0 01-1.171 0V8.726l-3.843 1.901v9.309l.036-.017 8.835-4.477c.47-.234.76-.706.76-1.23V5.863zm-.758-1.179L10.407.21l-.004-.002a1.38 1.38 0 00-1.25.012L5.597 2.108l9.35 4.948 4.513-2.233a1.393 1.393 0 00-.22-.138zM.003 5.825a1.388 1.388 0 00-.003.08v8.316c0 .515.283.982.738 1.22l8.412 4.464.004.002.042.021v-9.31L.003 5.826zm6.315 6.95l-2.332 1.37c-.003 0-.006.002-.01.004l-.003.003-.011.005a.682.682 0 01-.035.017l-.018.008-.018.007-.018.006-.019.006-.017.005-.02.005c-.006 0-.011.002-.016.003l-.023.004-.014.002a.515.515 0 01-.028.003h-.009a.66.66 0 01-.037.002l-.021-.001h-.017l-.02-.002-.018-.002-.018-.003-.02-.003-.016-.004-.02-.005-.016-.005-.02-.006-.016-.006a.504.504 0 01-.02-.007l-.016-.007-.02-.009-.014-.007-.02-.01-.014-.01-.018-.01-.014-.01-.017-.013-.014-.011-.016-.013-.014-.013-.014-.013-.014-.015-.013-.013-.013-.017-.012-.014-.013-.017a.765.765 0 01-.022-.034l-.006-.01-.002-.004-.006-.01-.671-1.216a.586.586 0 011.026-.566l.38.69 1.814-1.064a.586.586 0 01.593 1.01z"/></g></symbol><symbol id="buoy" viewBox="0 0 26 20"><path d="M19.36 14.848c-.451-1.584-1.393-2.972-2.653-3.907a.384.384 0 00-.458.617c1.125.835 1.967 2.078 2.373 3.5a.384.384 0 10.738-.21zm-3.855-4.616a6.2 6.2 0 00-2.575-.558c-1.47 0-2.867.508-4.04 1.47-1.141.938-1.969 2.219-2.392 3.704a.384.384 0 10.739.21c.374-1.315 1.135-2.494 2.141-3.32 1.033-.848 2.261-1.296 3.551-1.296.782 0 1.542.164 2.259.49a.384.384 0 00.317-.7zm2.76-8.228l-5.2-1.959a.384.384 0 00-.52.36v6.938a1.616 1.616 0 00-1.229 1.567v.126a.384.384 0 10.768 0V8.91a.846.846 0 011.69 0v.126a.384.384 0 10.768 0V8.91c0-.758-.524-1.394-1.229-1.567V4.588l4.952-1.865a.384.384 0 000-.72zm-4.952 1.763V.96l3.727 1.403-3.727 1.404zm6.029 11.936h-7.459a.384.384 0 100 .768h7.46c.317 0 .575.259.575.576v.399a.384.384 0 10.768 0v-.399c0-.74-.603-1.344-1.344-1.344zm-8.739 0H6.516c-.741 0-1.344.603-1.344 1.345v1.23c0 .137.02.273.062.405a.384.384 0 10.733-.23.59.59 0 01-.027-.175v-1.23c0-.318.258-.576.576-.576h4.087a.384.384 0 100-.769z"/><path d="M25.475 19.211c-1.173 0-1.745-.257-2.352-.53-.654-.293-1.33-.596-2.667-.596l-.161.001c-1.232.024-1.879.314-2.505.596-.607.272-1.18.529-2.352.529s-1.745-.257-2.352-.53c-.654-.293-1.33-.597-2.666-.597-1.337 0-2.013.304-2.667.597-.581.261-1.13.508-2.205.528a6.99 6.99 0 01-.146.002c-1.172 0-1.745-.257-2.352-.53-.653-.293-1.33-.597-2.666-.597a.384.384 0 100 .769c1.172 0 1.745.257 2.352.53.653.293 1.33.596 2.666.596.055 0 .109 0 .161-.002 1.231-.023 1.879-.314 2.505-.595.607-.272 1.18-.53 2.352-.53s1.745.258 2.352.53c.653.294 1.33.597 2.666.597 1.337 0 2.013-.303 2.666-.597.582-.26 1.131-.507 2.206-.528a6.96 6.96 0 01.146-.001c1.173 0 1.746.257 2.352.53.654.293 1.33.596 2.667.596a.384.384 0 100-.768z"/></symbol><symbol id="burger" viewBox="0 0 17 11"><path d="M1.5 1.75h13.75M1.5 5.5h13.75M1.5 5.5h13.75M1.5 9.25h13.75"/></symbol><symbol id="cart" viewBox="0 0 20 20"><path d="M6 16c-1.1 0-1.99.9-1.99 2S4.9 20 6 20s2-.9 2-2-.9-2-2-2zM0 0v2h2l3.6 7.59-1.35 2.45c-.16.28-.25.61-.25.96 0 1.1.9 2 2 2h12v-2H6.42c-.14 0-.25-.11-.25-.25l.03-.12.9-1.63h7.45c.75 0 1.41-.41 1.75-1.03l3.58-6.49A1.003 1.003 0 0019 2H4.21l-.94-2H0zm16 16c-1.1 0-1.99.9-1.99 2s.89 2 1.99 2 2-.9 2-2-.9-2-2-2z"/></symbol><symbol id="checked" viewBox="0 0 515.556 515.556"><path d="M0 274.226l176.549 176.886L515.556 112.44l-48.67-47.997-290.337 290L47.996 225.891z"/></symbol><symbol id="chevron-down" viewBox="0 0 330 330"><path d="M325.607 79.393c-5.857-5.857-15.355-5.858-21.213.001l-139.39 139.393L25.607 79.393c-5.857-5.857-15.355-5.858-21.213.001-5.858 5.858-5.858 15.355 0 21.213l150.004 150a14.999 14.999 0 0021.212-.001l149.996-150c5.859-5.857 5.859-15.355.001-21.213z"/></symbol><symbol id="chevron-left" viewBox="0 0 7 11"><path d="M7 .974L5.947 0 0 5.5 5.947 11 7 10.027 2.105 5.5 7 .973z"/></symbol><symbol id="chevron-right" viewBox="0 0 7 11"><path d="M0 10.027L1.053 11 7 5.5 1.053 0 0 .974 4.895 5.5 0 10.027z"/></symbol><symbol id="chevron-up" viewBox="0 0 240.835 240.835"><path d="M129.007 57.819c-4.68-4.68-12.499-4.68-17.191 0L3.555 165.803c-4.74 4.74-4.74 12.427 0 17.155 4.74 4.74 12.439 4.74 17.179 0l99.683-99.406 99.671 99.418c4.752 4.74 12.439 4.74 17.191 0 4.74-4.74 4.74-12.427 0-17.155L129.007 57.819z"/></symbol><symbol id="climb" viewBox="0 0 17 20"><path d="M9.253 13.354a.805.805 0 00-.857.078 1.602 1.602 0 01-.086-.184c-.114-.286-.204-.576-.3-.885a17.734 17.734 0 00-.2-.62c-.198-.569-.442-1.155-.875-1.583a1.579 1.579 0 00-.68-.396.295.295 0 00-.059-.01.853.853 0 00-.05-1.077.855.855 0 00.217-.57.865.865 0 00-.63-.828c.022-.093.046-.186.073-.277l.802-2.71a3.334 3.334 0 00-.592-3.022A3.366 3.366 0 003.37 0 3.366 3.366 0 00.723 1.27a3.338 3.338 0 00-.592 3.023l.802 2.709c.027.09.051.184.073.277a.865.865 0 00-.63.829.86.86 0 00.218.57.855.855 0 000 1.138.855.855 0 000 1.14.855.855 0 00-.217.569c0 .418.3.767.699.846a5.123 5.123 0 01-.143.627l-.19.64a.293.293 0 00.284.375.295.295 0 00.283-.21l.19-.64c.074-.253.132-.514.171-.776h.605a346.8 346.8 0 01-1.055 3.638 2.212 2.212 0 00.393 2.005 2.234 2.234 0 001.755.843c.689 0 1.329-.307 1.756-.843.45-.565.598-1.314.393-2.005a363.73 363.73 0 01-1.055-3.637h.605c.039.261.097.522.172.776l.801 2.708a2.75 2.75 0 01-.488 2.494 2.777 2.777 0 01-2.184 1.048 2.777 2.777 0 01-2.183-1.048 2.75 2.75 0 01-.488-2.494l.28-.943a.296.296 0 00-.567-.165l-.28.943a3.334 3.334 0 00.592 3.023A3.367 3.367 0 003.37 20a3.366 3.366 0 002.646-1.27c.679-.851.9-1.981.592-3.023l-.802-2.709a5.113 5.113 0 01-.142-.627.87.87 0 00.563-.384c.107.268.192.547.281.838.047.152.094.308.145.462.173.523.41 1.24 1.033 1.614a1.436 1.436 0 001.126.137c.35-.103.624-.329.774-.637a.784.784 0 00-.333-1.046zM.967 10.386c0-.153.125-.277.279-.277h4.247c.154 0 .28.124.28.277a.278.278 0 01-.28.277H1.246a.278.278 0 01-.279-.277zm0-1.14c0-.152.125-.276.279-.276h4.247c.154 0 .28.124.28.277a.278.278 0 01-.28.276H1.246a.278.278 0 01-.279-.276zm-.27-5.118a2.75 2.75 0 01.49-2.494A2.777 2.777 0 013.37.586c.856 0 1.651.382 2.183 1.048a2.75 2.75 0 01.488 2.494L5.24 6.837c-.04.134-.075.271-.105.408h-.57c.275-.96.946-3.245.953-3.27a2.212 2.212 0 00-.393-2.005 2.233 2.233 0 00-1.755-.843c-.689 0-1.329.307-1.756.843a2.211 2.211 0 00-.393 2.005c.007.024.678 2.311.952 3.27h-.57a5.719 5.719 0 00-.104-.409L.698 4.128zm2.09 3.117l-.004-.012a571.47 571.47 0 00-.996-3.423 1.629 1.629 0 01.29-1.477c.314-.394.786-.62 1.293-.62.507 0 .978.226 1.292.62.332.416.44.968.29 1.478-.008.026-.763 2.596-1 3.434H2.786zm-1.541.586h4.247c.154 0 .28.124.28.277a.278.278 0 01-.28.276H1.246a.278.278 0 01-.279-.276c0-.153.125-.277.279-.277zm3.706 8.359a1.64 1.64 0 01-1.582 2.097c-.507 0-.979-.226-1.293-.62a1.629 1.629 0 01-.29-1.478c1.082-3.68 1.082-3.721 1.082-3.776v-.026H3.87v.026c0 .055 0 .095 1.082 3.777zm.541-4.389H1.246a.278.278 0 01-.279-.276c0-.152.125-.277.279-.277h4.247a.28.28 0 01.28.277.278.278 0 01-.28.277zm3.561 2.345a.646.646 0 01-.41.33.832.832 0 01-.652-.077c-.436-.261-.618-.81-.778-1.294-.049-.148-.095-.301-.14-.45-.117-.38-.238-.775-.413-1.151-.06-.13-.197-.32-.296-.443a2.492 2.492 0 00-.16-.181.853.853 0 00.155-.432c.057.037.11.08.158.127.348.344.559.857.735 1.36.069.197.132.402.193.6.094.306.192.622.316.93.073.182.178.402.353.544a.294.294 0 00.142.088.298.298 0 00.415-.068.292.292 0 00.086-.135.215.215 0 01.219-.021c.104.054.12.184.077.273zm5.28-7.15V.883a.867.867 0 00-.868-.862c-.48 0-.87.386-.87.862v3.16c0 .162.133.293.296.293a.294.294 0 00.295-.293V.883a.279.279 0 01.557 0v6.04l-.03-.001h-.527V5.215a.294.294 0 00-.295-.293.294.294 0 00-.295.293v1.749c0 .01 0 .022.002.033a2.583 2.583 0 00-1.35.827 2.54 2.54 0 00-.616 1.598.58.58 0 00-.249.555l.37 2.706a.574.574 0 00.455.488c.192.756.71 1.365 1.39 1.686a.289.289 0 00-.002.037v4.232c0 .475.39.862.869.862s.869-.387.869-.862V15.03a2.574 2.574 0 001.965-2.49V9.487a2.573 2.573 0 00-1.966-2.49zm-3.364 2.91c.005 0 .01 0 .015-.002l1.108-.15.368 2.691-1.123.152-.368-2.69zm2.077 2.468l-.37-2.705a.574.574 0 00-.224-.383l-.02-.014a.807.807 0 01.784-.593h.498c.449 0 .813.363.813.808v3.053a.811.811 0 01-.813.807.809.809 0 01-.773-.556.57.57 0 00.105-.417zm.697 6.752a.278.278 0 01-.278.276.278.278 0 01-.279-.276V15.05c.17.035.347.054.528.054h.03v4.02zm1.965-6.586a1.99 1.99 0 01-1.994 1.98c-.89 0-1.652-.573-1.906-1.395l.597-.08c.205.528.717.888 1.309.888a1.4 1.4 0 001.404-1.393V9.487a1.4 1.4 0 00-1.404-1.394h-.498c-.412 0-.802.18-1.07.49a1.389 1.389 0 00-.303.614l-.61.082c.04-.394.2-.768.464-1.075.38-.443.933-.697 1.519-.697h.498c1.1 0 1.994.888 1.994 1.98v3.053z"/></symbol><symbol id="close" viewBox="0 0 311 311.077"><path d="M16.035 311.078c-4.097 0-8.195-1.558-11.308-4.695-6.25-6.25-6.25-16.383 0-22.633L283.789 4.687c6.25-6.25 16.383-6.25 22.633 0s6.25 16.383 0 22.637L27.363 306.383a16.045 16.045 0 01-11.328 4.695zm0 0"/><path d="M295.117 311.078a15.879 15.879 0 01-11.308-4.695L4.727 27.324c-6.25-6.254-6.25-16.386 0-22.636s16.382-6.25 22.636 0L306.422 283.75c6.25 6.25 6.25 16.383 0 22.633-3.137 3.117-7.23 4.695-11.305 4.695zm0 0"/></symbol><symbol id="coupon" viewBox="0 0 20 20"><path d="M8.726 14.517a.585.585 0 10-.828.827.585.585 0 00.828-.827zm-.831-5.8a.585.585 0 10-.829.828.598.598 0 00.828 0 .585.585 0 000-.828zm11.583-1.634l-.958-.957a3.514 3.514 0 00-.664-4.05 3.512 3.512 0 00-4.05-.664l-.898-.899a1.76 1.76 0 00-2.486.001l-.378.378 1.183 1.184a.586.586 0 11-.828.829L9.215 1.72 7.602 3.378l9.055 9.055 1.613-1.657-1.242-1.243a.586.586 0 11.828-.828L19.1 9.947l.379-.378a1.76 1.76 0 000-2.486zM13.713 5.39a.586.586 0 01-.828 0l-.83-.828a.586.586 0 11.83-.829l.829.829c.228.228.228.6 0 .828zM16.2 7.876a.586.586 0 01-.829 0l-.828-.829a.586.586 0 11.829-.828l.828.829c.229.228.229.6 0 .828z"/><path d="M6.772 4.207l-6.25 6.25a1.76 1.76 0 000 2.486l.924.924a3.54 3.54 0 00.71 3.952 3.54 3.54 0 003.965.704l1.012.983a1.765 1.765 0 002.468-.018l6.226-6.226-9.055-9.055zm-.533 3.681c.664-.664 1.823-.663 2.486 0a1.757 1.757 0 11-2.486 0zm3.314 8.286a1.76 1.76 0 01-2.485.001 1.76 1.76 0 010-2.487c.664-.664 1.823-.663 2.486 0a1.76 1.76 0 010 2.486zM11.69 12.2l-7.458.828a.586.586 0 11-.129-1.165l7.457-.828a.586.586 0 01.13 1.165z"/></symbol><symbol id="date" viewBox="0 0 20 20"><path d="M10 0C4.486 0 0 4.486 0 10s4.486 10 10 10 10-4.486 10-10S15.514 0 10 0zm4.756 15.172a.831.831 0 01-1.178 0L9.41 11.006a.83.83 0 01-.244-.59V5a.833.833 0 111.666 0v5.072l3.923 3.922a.833.833 0 010 1.178z"/></symbol><symbol id="diving-goggles" viewBox="0 0 25 20"><path d="M7.304 6.363l.565-.573 4.392 4.455-.565.573-4.392-4.455zm3.594 1.215l.565-.573 1.996 2.025-.564.573-1.997-2.025zm-4.393.404l.565-.572.799.81-.565.572-.799-.81z"/><path d="M22.666 4.104C21.709 2.054 19.08 0 12.38 0c-1.054 0-2.047.052-2.952.154-4.563.514-6.525 2.251-7.324 3.948L0 4.529v5.525l.799.162v1.53c0 7.402 3.503 8.507 5.591 8.507 1.777 0 3.097-.675 4.061-1.167.87-.445 1.134-.548 1.47-.492.59.1 1.12.317 1.735.57 1.379.564 3.094 1.267 5.484.575 4.823-1.398 4.823-6.188 4.823-7.992v-1.531l.799-.162V4.529l-2.096-.425zm1.297 2.377v1.62h-.799v-1.62h.8zM14.594.896L14.09 2.43h-3.418L10.168.896A27.313 27.313 0 0112.38.81c.8 0 1.534.03 2.213.086zm-4.498 2.345h4.57l.249-.759c2.414.262 5.853 1.127 5.853 3.931V8.17c0 3.466-5.255 3.983-8.387 3.983-3.132 0-8.387-.517-8.387-3.983V6.414c0-2.804 3.439-3.67 5.853-3.931l.25.758zM9.353.98l.236.717c-4.13.481-6.394 2.14-6.394 4.716V8.17c0 3.09 3.262 4.793 9.186 4.793 5.924 0 9.186-1.703 9.186-4.793V6.414c0-2.576-2.264-4.236-6.394-4.717L15.41.98c5.972.724 6.957 3.625 6.957 5.45v1.722c0 2.099-1.298 5.62-9.985 5.62s-9.985-3.521-9.985-5.62V6.43c0-2.11 1.215-4.755 6.957-5.45zm11.394 11.703c-.086 1.76-.518 3.37-2.485 3.94-1.333.386-2.25.01-3.411-.465-.688-.282-1.468-.602-2.405-.76-1.412-.239-2.439.287-3.433.794-.825.422-1.605.82-2.623.82-1.44 0-2.235-1.458-2.372-4.327 1.593 1.098 4.186 1.897 8.363 1.897 4.18 0 6.773-.8 8.366-1.9zM.8 8.1V6.48h.799V8.1h-.8zm0-2.908l.981-.2c-.06.233-.104.46-.133.678H.8v-.478zm.847 3.718c.029.22.071.446.13.677L.8 9.389v-.478h.847zm21.518 2.836c0 1.636 0 5.983-4.244 7.213-2.124.616-3.634-.003-4.967-.549-.657-.269-1.223-.501-1.9-.615-.611-.105-1.068.11-1.961.567-.893.455-2.115 1.08-3.702 1.08-4.17 0-4.792-4.822-4.792-7.696v-1.37l.498.102c.245.524.598 1.05 1.102 1.54.063 4.786 1.762 5.804 3.192 5.804 1.208 0 2.11-.462 2.983-.908.959-.49 1.787-.913 2.942-.718.85.144 1.555.433 2.236.712 1.2.491 2.333.956 3.93.493 2.927-.848 3.077-3.677 3.085-5.386a5.214 5.214 0 001.1-1.537l.498-.101v1.369zm.8-2.358l-.979.199c.06-.23.102-.457.13-.677h.848v.478zm-.848-3.718a5.54 5.54 0 00-.13-.677l.977.199v.478h-.847z"/></symbol><symbol id="file" viewBox="0 0 24 30">&gt;<path d="M16.312.173a.736.736 0 00-.526-.232H3.973c-2.18 0-3.98 1.776-3.98 3.935v22.13c0 2.16 1.8 3.936 3.98 3.936h16.033c2.18 0 3.979-1.776 3.979-3.936V8.434a.776.776 0 00-.212-.507L16.313.173zm.212 2.326l4.996 5.196h-3.247a1.734 1.734 0 01-1.749-1.725V2.5zm3.482 25.993H3.973c-1.368 0-2.516-1.123-2.516-2.486V3.877c0-1.355 1.14-2.485 2.516-2.485H15.06v4.58c0 1.76 1.434 3.173 3.212 3.173h4.25v16.863c0 1.362-1.142 2.485-2.517 2.485z"/><path d="M18.01 23.492H5.97a.73.73 0 00-.732.725c0 .398.33.725.732.725h12.047a.73.73 0 00.731-.725.732.732 0 00-.739-.725zm-6.555-2.602a.74.74 0 00.534.233.74.74 0 00.534-.232l4.287-4.558a.717.717 0 00-.037-1.022.734.734 0 00-1.031.036l-3.021 3.21v-7.913a.73.73 0 00-.732-.724.73.73 0 00-.731.724v7.913l-3.014-3.21a.734.734 0 00-1.031-.036.718.718 0 00-.037 1.022l4.28 4.558z"/></symbol><symbol id="filter" viewBox="0 0 511.999 511.999"><path d="M510.078 35.509a20.68 20.68 0 00-18.761-11.977H20.682A20.681 20.681 0 004.89 57.569l183.364 216.828v146.324a20.684 20.684 0 0011.433 18.499l94.127 47.063a20.663 20.663 0 009.249 2.183 20.685 20.685 0 0020.683-20.683V274.397L507.11 57.569a20.686 20.686 0 002.968-22.06zM287.27 253.469a20.686 20.686 0 00-4.889 13.355V434.32l-52.763-26.381V266.825c0-4.89-1.733-9.621-4.89-13.355L65.259 64.896h381.482L287.27 253.469z"/></symbol><symbol id="flippers" viewBox="0 0 20 20"><path d="M9.152.573L8.288.86A3.623 3.623 0 015.02.331L4.58 0l-.442.33A3.62 3.62 0 01.869.861L.004.573l.584 3.793c.317 2.063.537 4.152.66 6.244l-1.168.876v2.186l.643.963v1.51A3.86 3.86 0 004.578 20a3.86 3.86 0 003.856-3.855v-1.51l.642-.963v-2.186l-1.168-.876a67.2 67.2 0 01.661-6.244L9.152.573zM.722 11.807l.565-.423c.045.945.07 1.89.075 2.833h-.146l-.493-.74v-1.67zm7.07 4.338a3.216 3.216 0 01-3.214 3.212 3.216 3.216 0 01-3.213-3.212v-1.286h6.426v1.286zm-5.546-1.928l1.643-2.818a.8.8 0 01.69-.395.8.8 0 01.688.396l1.643 2.817H2.247zm6.188-2.41v1.67l-.493.74h-.147c.005-.943.03-1.888.075-2.833l.565.423zm-.5-7.54a67.81 67.81 0 00-.774 9.102l-1.338-2.293a1.445 1.445 0 00-1.244-.715c-.51 0-.987.274-1.244.715l-1.337 2.293a67.76 67.76 0 00-.775-9.101L.8 1.513c.6.178 1.235.209 1.852.111v5.203h.642V1.471c.44-.14.86-.348 1.23-.627l.055-.04.055.04c.46.346.994.582 1.552.714v5.27h.642V1.662a4.176 4.176 0 001.53-.15l-.423 2.755z"/><path d="M4.578 18.715a2.573 2.573 0 002.57-2.57v-.643h-5.14v.643a2.573 2.573 0 002.57 2.57zm1.928-2.57a1.93 1.93 0 01-1.928 1.927 1.93 1.93 0 01-1.927-1.927h3.855zm-2.249-3.213h-.642v.642h.642v-.642zm1.285 0H4.9v.642h.642v-.642zm13.629-8.566l.584-3.793-.864.288a3.623 3.623 0 01-3.27-.53L15.181 0l-.441.33a3.622 3.622 0 01-3.27.531l-.864-.288.584 3.793c.317 2.063.537 4.152.66 6.244l-1.167.876v2.186l.642.963v1.51A3.86 3.86 0 0015.181 20a3.86 3.86 0 003.855-3.855v-1.51l.643-.963v-2.186l-1.168-.876a67.18 67.18 0 01.66-6.244zm-7.77-2.853a4.21 4.21 0 001.852.11v5.204h.643V1.471c.44-.14.858-.348 1.23-.627l.055-.04.055.04c.46.346.993.582 1.551.714v5.27h.643V1.662a4.176 4.176 0 001.53-.15l-.424 2.755a67.804 67.804 0 00-.774 9.101l-1.337-2.293a1.445 1.445 0 00-1.244-.715c-.51 0-.987.274-1.244.715l-1.338 2.293a67.76 67.76 0 00-.774-9.101L11.4 1.513zm6.112 12.704h-4.665l1.644-2.818a.8.8 0 01.689-.395.8.8 0 01.689.396l1.643 2.817zm-6.188-2.41l.565-.423c.044.945.07 1.89.075 2.833h-.147l-.493-.74v-1.67zm7.069 4.338a3.216 3.216 0 01-3.213 3.212 3.217 3.217 0 01-3.213-3.212v-1.286h6.425v1.286zm.642-4.338v1.67l-.493.74h-.146c.004-.943.03-1.888.075-2.833l.564.423z"/><path d="M15.18 18.715a2.573 2.573 0 002.57-2.57v-.643h-5.14v.643a2.573 2.573 0 002.57 2.57zm1.928-2.57a1.93 1.93 0 01-1.927 1.927 1.93 1.93 0 01-1.928-1.927h3.855zm-2.248-3.213h-.643v.642h.642v-.642zm1.285 0h-.643v.642h.643v-.642z"/></symbol><symbol id="info" viewBox="0 0 20 20"><path d="M9 5h2v2H9V5zm0 4h2v6H9V9zm1-9C4.48 0 0 4.48 0 10s4.48 10 10 10 10-4.48 10-10S15.52 0 10 0zm0 18c-4.41 0-8-3.59-8-8s3.59-8 8-8 8 3.59 8 8-3.59 8-8 8z"/></symbol><symbol id="logo-sdi" viewBox="105.28 182.063 237.759 65" preserveAspectRatio="xMinYMin"><path fill="#fff" d="M-79.43-10.43l.05-.14h6.65q0 3.05 1.87 4.46 1.86 1.42 5.19 1.42 2.79 0 4.26-1.15 1.48-1.14 1.48-3.07 0-1.97-1.39-3.16-1.4-1.2-4.89-2.25-6.09-1.76-9.21-4.17-3.12-2.42-3.12-6.61 0-4.2 3.58-6.86 3.57-2.66 9.12-2.66 5.63-.02 9.17 2.98 3.42 2.88 3.42 7.1v.28l-.05.14h-6.63q0-2.36-1.58-3.83-1.58-1.46-4.44-1.46-2.75 0-4.25 1.21-1.5 1.22-1.5 3.12 0 1.74 1.61 2.85t5.54 2.35q5.65 1.58 8.56 4.15 2.9 2.58 2.9 6.78 0 4.38-3.45 6.91Q-60 .49-65.67.49q-5.58-.02-9.73-2.88-4.03-2.79-4.03-7.76v-.28zm29.63 3.28q0-3.73 2.87-5.78 2.87-2.05 8.38-2.05h3.82v-2.01q0-1.83-.97-2.84-.96-1.01-2.83-1.01-1.67 0-2.57.81-.9.81-.9 2.24l-6.61-.02-.02-.14v-.33q0-3 2.79-5.2 2.95-2.35 7.75-2.35 4.55 0 7.39 2.31 2.83 2.31 2.83 6.57v10.48q0 1.78.27 3.35t.86 3.12h-6.85q-.37-.87-.64-1.83-.27-.96-.39-1.97-1.05 1.85-2.77 3.07Q-39.12.49-41.51.49q-3.98 0-6.14-2.05-2.15-2.05-2.15-5.59m6.82-.23q0 1.26.84 2.04.84.77 2.3.77 1.8 0 3.21-.89 1.4-.89 1.9-2.06v-3.59h-3.82q-2.18 0-3.31 1.09-1.12 1.09-1.12 2.64zM-22.69 0v-25.36h6.35l.29 3.35q1.21-1.83 3.05-2.82 1.84-1 4.26-1 2.44 0 4.17 1.08t2.62 3.26q1.18-2.04 3.05-3.19 1.88-1.15 4.41-1.15 3.75 0 5.92 2.59 2.16 2.59 2.16 7.89V0H6.75v-15.38q0-2.88-.94-4-.93-1.13-2.79-1.13-1.45 0-2.52.65-1.06.64-1.7 1.79 0 .44.03.76.02.32.02.65V0h-6.82v-15.38q0-2.81-.94-3.97-.93-1.16-2.81-1.16-1.38 0-2.42.53-1.05.53-1.73 1.49V0h-6.82zm41.53 9.75v-35.11h6.17l.4 3q1.12-1.66 2.7-2.57 1.59-.9 3.69-.9 4.72 0 7.32 3.68 2.6 3.68 2.6 9.68v.49q0 5.63-2.6 9.05Q36.52.49 31.85.49q-1.99 0-3.54-.74-1.54-.73-2.65-2.16V9.75h-6.82m6.82-16.71q.64 1.08 1.73 1.64 1.09.56 2.68.56 2.48 0 3.64-1.94 1.17-1.95 1.17-5.28v-.49q0-3.58-1.2-5.81-1.2-2.23-3.66-2.23-1.54 0-2.63.63-1.09.64-1.73 1.81v11.11zM46.29 0v-36.56h6.84V0h-6.84zm11.65-11.95v-.94q.02-5.65 3.11-9.31 3.1-3.63 8.25-3.63h.08q5.13 0 7.96 3.1 2.84 3.09 2.84 8.36v3.73H65.04l-.05.14q.19 2.51 1.68 4.12 1.49 1.62 4.04 1.62 2.27 0 3.77-.45 1.5-.46 3.29-1.45l1.85 4.22q-1.55 1.27-4.06 2.1-2.51.83-5.58.83-5.48 0-8.76-3.51-3.28-3.52-3.28-8.93m7.08-3.33l.07.12h8.39v-.61q0-2.18-1.02-3.48-1.02-1.3-3.08-1.3-1.9 0-3 1.45-1.11 1.45-1.36 3.82z" transform="translate(261.5 233.063)" style="-webkit-tap-highlight-color:transparent"/><path fill="#fff" d="M.4 50L30 10h100l30 40-79.6 100L.4 50z" stroke-width="0" transform="matrix(.4 0 0 .4 105.12 187)" style="-webkit-tap-highlight-color:transparent"/></symbol><symbol id="logo-tdi" viewBox="105.28 182.063 237.759 65" preserveAspectRatio="xMinYMin"><path fill="#fff" d="M-79.43-10.43l.05-.14h6.65q0 3.05 1.87 4.46 1.86 1.42 5.19 1.42 2.79 0 4.26-1.15 1.48-1.14 1.48-3.07 0-1.97-1.39-3.16-1.4-1.2-4.89-2.25-6.09-1.76-9.21-4.17-3.12-2.42-3.12-6.61 0-4.2 3.58-6.86 3.57-2.66 9.12-2.66 5.63-.02 9.17 2.98 3.42 2.88 3.42 7.1v.28l-.05.14h-6.63q0-2.36-1.58-3.83-1.58-1.46-4.44-1.46-2.75 0-4.25 1.21-1.5 1.22-1.5 3.12 0 1.74 1.61 2.85t5.54 2.35q5.65 1.58 8.56 4.15 2.9 2.58 2.9 6.78 0 4.38-3.45 6.91Q-60 .49-65.67.49q-5.58-.02-9.73-2.88-4.03-2.79-4.03-7.76v-.28zm29.63 3.28q0-3.73 2.87-5.78 2.87-2.05 8.38-2.05h3.82v-2.01q0-1.83-.97-2.84-.96-1.01-2.83-1.01-1.67 0-2.57.81-.9.81-.9 2.24l-6.61-.02-.02-.14v-.33q0-3 2.79-5.2 2.95-2.35 7.75-2.35 4.55 0 7.39 2.31 2.83 2.31 2.83 6.57v10.48q0 1.78.27 3.35t.86 3.12h-6.85q-.37-.87-.64-1.83-.27-.96-.39-1.97-1.05 1.85-2.77 3.07Q-39.12.49-41.51.49q-3.98 0-6.14-2.05-2.15-2.05-2.15-5.59m6.82-.23q0 1.26.84 2.04.84.77 2.3.77 1.8 0 3.21-.89 1.4-.89 1.9-2.06v-3.59h-3.82q-2.18 0-3.31 1.09-1.12 1.09-1.12 2.64zM-22.69 0v-25.36h6.35l.29 3.35q1.21-1.83 3.05-2.82 1.84-1 4.26-1 2.44 0 4.17 1.08t2.62 3.26q1.18-2.04 3.05-3.19 1.88-1.15 4.41-1.15 3.75 0 5.92 2.59 2.16 2.59 2.16 7.89V0H6.75v-15.38q0-2.88-.94-4-.93-1.13-2.79-1.13-1.45 0-2.52.65-1.06.64-1.7 1.79 0 .44.03.76.02.32.02.65V0h-6.82v-15.38q0-2.81-.94-3.97-.93-1.16-2.81-1.16-1.38 0-2.42.53-1.05.53-1.73 1.49V0h-6.82zm41.53 9.75v-35.11h6.17l.4 3q1.12-1.66 2.7-2.57 1.59-.9 3.69-.9 4.72 0 7.32 3.68 2.6 3.68 2.6 9.68v.49q0 5.63-2.6 9.05Q36.52.49 31.85.49q-1.99 0-3.54-.74-1.54-.73-2.65-2.16V9.75h-6.82m6.82-16.71q.64 1.08 1.73 1.64 1.09.56 2.68.56 2.48 0 3.64-1.94 1.17-1.95 1.17-5.28v-.49q0-3.58-1.2-5.81-1.2-2.23-3.66-2.23-1.54 0-2.63.63-1.09.64-1.73 1.81v11.11zM46.29 0v-36.56h6.84V0h-6.84zm11.65-11.95v-.94q.02-5.65 3.11-9.31 3.1-3.63 8.25-3.63h.08q5.13 0 7.96 3.1 2.84 3.09 2.84 8.36v3.73H65.04l-.05.14q.19 2.51 1.68 4.12 1.49 1.62 4.04 1.62 2.27 0 3.77-.45 1.5-.46 3.29-1.45l1.85 4.22q-1.55 1.27-4.06 2.1-2.51.83-5.58.83-5.48 0-8.76-3.51-3.28-3.52-3.28-8.93m7.08-3.33l.07.12h8.39v-.61q0-2.18-1.02-3.48-1.02-1.3-3.08-1.3-1.9 0-3 1.45-1.11 1.45-1.36 3.82z" transform="translate(261.5 233.063)" style="-webkit-tap-highlight-color:transparent"/><path fill="#fff" d="M.4 50L30 10h100l30 40-79.6 100L.4 50z" stroke-width="0" transform="matrix(.4 0 0 .4 105.12 187)" style="-webkit-tap-highlight-color:transparent"/></symbol><symbol id="logout" viewBox="0 0 20 20"><path d="M9.167 12.5a2.503 2.503 0 01-2.5-2.5c0-1.378 1.121-2.5 2.5-2.5h4.166V2.292A2.294 2.294 0 0011.042 0h-8.75A2.294 2.294 0 000 2.292v15.416A2.294 2.294 0 002.292 20h8.75a2.294 2.294 0 002.291-2.292V12.5H9.167z"/><path d="M15.513 14.103a.835.835 0 01-.514-.77v-2.5H9.165a.834.834 0 010-1.666H15v-2.5a.835.835 0 011.422-.59l3.334 3.334a.832.832 0 010 1.178l-3.334 3.334a.833.833 0 01-.908.18z"/></symbol><symbol id="minus" viewBox="0 0 7 3"><path d="M0 .416h6.456v1.992H0V.416z"/></symbol><symbol id="mortarboard" viewBox="0 0 71 61"><path d="M69.612 12.307L36.192.19a2.026 2.026 0 00-1.384 0L1.388 12.307A2.135 2.135 0 000 14.321a2.135 2.135 0 001.383 2.017l33.42 12.21a2.028 2.028 0 001.394 0l33.42-12.21A2.135 2.135 0 0071 14.32a2.135 2.135 0 00-1.388-2.014zm-3.607 28.537V22.196l-4.16 1.52v17.128a4.313 4.313 0 00-2.098 3.722c0 1.593.844 2.982 2.097 3.723v10.506c0 1.181.932 2.138 2.08 2.138 1.15 0 2.08-.957 2.08-2.138V48.29a4.313 4.313 0 002.098-3.722 4.313 4.313 0 00-2.097-3.723z" fill="#1B498E"/><path d="M35.5 32.948a6.072 6.072 0 01-2.09-.37l-18.788-6.865v9.408c0 2.301 2.336 4.248 6.944 5.785 4.016 1.34 8.965 2.077 13.934 2.077 4.97 0 9.918-.738 13.934-2.077 4.608-1.537 6.944-3.484 6.944-5.785v-9.408L37.59 32.577a6.073 6.073 0 01-2.09.371z" fill="#1B498E"/></symbol><symbol id="next" viewBox="0 0 11 22"><path d="M.75 1L9.5 11 .75 21" stroke="#262C36"/></symbol><symbol id="open-book" viewBox="0 0 78 61"><path d="M11.932.013h-.007a2.72 2.72 0 00-1.955.83c-.53.54-.822 1.26-.822 2.026v42.825c0 1.57 1.254 2.851 2.795 2.855 6.497.016 17.382 1.402 24.89 9.442V13.174a2.78 2.78 0 00-.383-1.446C30.287 1.572 18.444.029 11.932.013zm56.92 45.681V2.87c0-.766-.292-1.486-.822-2.027a2.72 2.72 0 00-1.955-.83h-.007c-6.51.017-18.354 1.56-24.518 11.715-.25.414-.383.914-.383 1.447V57.99c7.509-8.04 18.394-9.426 24.89-9.442 1.541-.004 2.795-1.285 2.795-2.855z" fill="#1B498E"/><path d="M75.209 9.89h-2.024v35.804c0 4.01-3.193 7.28-7.118 7.29-5.51.013-14.597 1.115-21.032 7.347 11.13-2.788 22.862-.975 29.549.584a2.737 2.737 0 002.366-.552 2.865 2.865 0 001.05-2.23V12.744c0-1.575-1.253-2.856-2.791-2.856zM4.814 45.694V9.89H2.791C1.252 9.89 0 11.17 0 12.745V58.13c0 .874.382 1.687 1.049 2.23.668.546 1.53.748 2.366.553 6.687-1.56 18.42-3.372 29.549-.584-6.435-6.231-15.521-7.334-21.032-7.347-3.925-.01-7.118-3.28-7.118-7.289z" fill="#1B498E"/></symbol><symbol id="oxygen-tank" viewBox="0 0 16 20"><path d="M5.703 11.563h-3.75v4.374h3.75v-4.374zm-.625 3.75h-2.5v-3.126h2.5v3.126z"/><path d="M4.453 12.813h-1.25v.624h1.25v-.624zm0 1.25h-1.25v.624h1.25v-.624zm8.125-2.5h-3.75v4.374h3.75v-4.374zm-.625 3.75h-2.5v-3.126h2.5v3.126z"/><path d="M11.328 12.813h-1.25v.624h1.25v-.624zm0 1.25h-1.25v.624h1.25v-.624z"/><path d="M12.496 3.75h2.582v-2.5h-2.582A2.184 2.184 0 009.175.937H6.641v.625H3.828a.939.939 0 00-.937.938v2.813h-.625A2.19 2.19 0 00.078 7.5v10a2.19 2.19 0 002.188 2.188H5.39c.796 0 1.492-.43 1.875-1.067a2.187 2.187 0 001.875 1.067h3.125a2.19 2.19 0 002.187-2.188v-10a2.19 2.19 0 00-2.187-2.188h-.625v-.839c.343-.164.638-.413.855-.723zm1.957-1.875v1.25h-1.655a2.173 2.173 0 000-1.25h1.655zm-3.75-.938c.862 0 1.563.701 1.563 1.563s-.701 1.563-1.563 1.563a1.563 1.563 0 010-3.126zm1.875 6.44v1.686h-3.75V7.377c0-.572.273-1.102.73-1.44h2.291c.457.338.73.868.73 1.44zm-9.895-1.44h2.291c.457.338.73.868.73 1.44v1.686h-3.75V7.377c0-.572.272-1.102.729-1.44zm5.52 3.125h-.625V7.5a1.56 1.56 0 011.034-1.464 2.413 2.413 0 00-.409 1.34v1.686zm-1.25 0h-.625V7.377c0-.486-.147-.95-.408-1.341.6.218 1.033.789 1.033 1.464v1.563zm0 .626v.624H.703v-.624h6.25zm.625 0h6.25v.624h-6.25v-.624zm1.563-4.376c-.797 0-1.493.43-1.875 1.067A2.187 2.187 0 005.39 5.313h-.625V3.438H6.64v.624h2.534c.172.168.371.307.59.411v.84H9.14zm-1.875-3.75H8.73a2.168 2.168 0 000 1.875H7.266V1.563zm-.625 1.25h-.625v-.624h.625v.624zM3.516 2.5c0-.172.14-.313.312-.313h1.563v.626H4.14v2.5h-.625V2.5zm-1.78 3.536a2.413 2.413 0 00-.408 1.34v1.686H.703V7.5a1.56 1.56 0 011.034-1.464zm3.655 13.027H2.266A1.565 1.565 0 01.703 17.5v-.313h4.375v-.625H.703v-5.625h6.25v5.626h-1.25v.625h1.25v.312c0 .862-.7 1.563-1.562 1.563zm6.875 0H9.14A1.565 1.565 0 017.577 17.5v-.313h4.375v-.625H7.578v-5.625h6.25v5.626h-1.25v.625h1.25v.312c0 .862-.7 1.563-1.562 1.563zM13.828 7.5v1.563h-.625V7.377c0-.486-.147-.95-.408-1.341.6.218 1.033.789 1.033 1.464zm-2.812-2.188h-.625v-.65c.102.015.206.026.312.026.106 0 .21-.01.313-.026v.65z"/><path d="M11.64 2.188h-.624v-.626h-.625v1.25h1.25v-.624z"/></symbol><symbol id="plus" viewBox="0 0 12 11"><path d="M11.207 6.56H6.84v4.296H4.823V6.56H.455V4.664h4.368V.344H6.84v4.32h4.368V6.56z"/></symbol><symbol id="prev" viewBox="0 0 11 22"><path d="M10 21L1.25 11 10 1" stroke="#262C36"/></symbol><symbol id="profile" viewBox="0 0 20 20"><path d="M10 10c2.762 0 5-2.237 5-5s-2.238-5-5-5C7.237 0 5 2.237 5 5s2.237 5 5 5zm0 2.5c-3.338 0-10 1.675-10 5V20h20v-2.5c0-3.325-6.662-5-10-5z"/></symbol><symbol id="remove" viewBox="0 0 17 17"><path d="M1 1l15 15m0-15L1 16"/></symbol><symbol id="sand-clock" viewBox="0 0 13 20"><path d="M10.67 13.856l-4.435-3.374-4.348 3.372a1.474 1.474 0 00-.575 1.169v1.862h9.946v-1.851a1.492 1.492 0 00-.588-1.178zM.083 0h12.238c.046 0 .083.037.083.083v2.184a.083.083 0 01-.083.083H.083A.083.083 0 010 2.267V.083C0 .037.037 0 .083 0zm0 17.65h12.238c.046 0 .083.038.083.083v2.184a.083.083 0 01-.083.083H.083A.083.083 0 010 19.917v-2.184c0-.046.037-.083.083-.083zM1.258 4.825c0 .45.205.876.558 1.156l4.413 3.53 4.416-3.53c.352-.28.558-.705.558-1.156v-1.71H1.258v1.71z"/></symbol><symbol id="scale" viewBox="0 0 164 810"><path d="M38 37h23.5M38 69h23.5M38 101h23.5M38 165h23.5M38 197h23.5M38 229h23.5M38 293h23.5M88 261H38m0 64h23.5M38 357h23.5M38 421h23.5M38 549h23.5M38 677h23.5M38 389h65M38 517h82M38 645h110M38 773h125M38 453h23.5M38 581h23.5M38 709h23.5M38 485h23.5M38 613h23.5M38 741h23.5M73 133H38" stroke="#C6D2E4" stroke-linecap="square"/><path fill="#C6D2E4" d="M48 0h1v810h-1z"/><path d="M16.928 137.04v.96H9.564v-.765l4.364-4.275c.55-.54.92-1.005 1.11-1.395.2-.4.3-.8.3-1.2 0-.62-.214-1.1-.644-1.44-.42-.35-1.026-.525-1.816-.525-1.23 0-2.184.39-2.864 1.17l-.765-.66c.41-.48.93-.85 1.56-1.11.64-.26 1.36-.39 2.16-.39 1.07 0 1.915.255 2.535.765.63.5.944 1.19.944 2.07 0 .54-.12 1.06-.36 1.56s-.695 1.075-1.365 1.725l-3.57 3.51h5.775zm4.116-5.235c1.52 0 2.625.275 3.315.825.7.54 1.05 1.3 1.05 2.28a3.1 3.1 0 01-.435 1.635c-.28.48-.705.86-1.275 1.14-.57.27-1.27.405-2.1.405-.75 0-1.465-.12-2.145-.36-.67-.25-1.21-.58-1.62-.99l.525-.855c.35.36.81.655 1.38.885.57.22 1.185.33 1.845.33.87 0 1.54-.195 2.01-.585.48-.39.72-.91.72-1.56 0-.72-.27-1.265-.81-1.635-.53-.37-1.43-.555-2.7-.555h-2.235l.54-5.265h5.745v.96h-4.8l-.36 3.345h1.35zm-9.932 128c1.52 0 2.625.275 3.315.825.7.54 1.05 1.3 1.05 2.28a3.1 3.1 0 01-.435 1.635c-.28.48-.705.86-1.275 1.14-.57.27-1.27.405-2.1.405-.75 0-1.465-.12-2.145-.36-.67-.25-1.21-.58-1.62-.99l.525-.855c.35.36.81.655 1.38.885.57.22 1.185.33 1.845.33.87 0 1.54-.195 2.01-.585.48-.39.72-.91.72-1.56 0-.72-.27-1.265-.81-1.635-.53-.37-1.43-.555-2.7-.555H8.637l.54-5.265h5.745v.96h-4.8l-.36 3.345h1.35zm9.921 6.285a3.81 3.81 0 01-2.175-.645c-.63-.43-1.125-1.045-1.485-1.845-.35-.81-.525-1.76-.525-2.85s.175-2.035.525-2.835c.36-.81.855-1.43 1.485-1.86a3.81 3.81 0 012.175-.645c.81 0 1.53.215 2.16.645.64.43 1.14 1.05 1.5 1.86.36.8.54 1.745.54 2.835 0 1.09-.18 2.04-.54 2.85-.36.8-.86 1.415-1.5 1.845-.63.43-1.35.645-2.16.645zm0-.99c.61 0 1.145-.17 1.605-.51.47-.34.835-.835 1.095-1.485.26-.65.39-1.435.39-2.355 0-.92-.13-1.705-.39-2.355-.26-.65-.625-1.145-1.095-1.485-.46-.34-.995-.51-1.605-.51s-1.15.17-1.62.51c-.46.34-.82.835-1.08 1.485-.26.65-.39 1.435-.39 2.355 0 .92.13 1.705.39 2.355.26.65.62 1.145 1.08 1.485.47.34 1.01.51 1.62.51zM17.14 383.5v.765L12.743 394h-1.17l4.32-9.54h-5.4v1.965H9.43V383.5h7.71zm3.904 4.305c1.52 0 2.625.275 3.315.825.7.54 1.05 1.3 1.05 2.28a3.1 3.1 0 01-.435 1.635c-.28.48-.705.86-1.275 1.14-.57.27-1.27.405-2.1.405-.75 0-1.465-.12-2.145-.36-.67-.25-1.21-.58-1.62-.99l.525-.855c.35.36.81.655 1.38.885.57.22 1.185.33 1.845.33.87 0 1.54-.195 2.01-.585.48-.39.72-.91.72-1.56 0-.72-.27-1.265-.81-1.635-.53-.37-1.43-.555-2.7-.555h-2.235l.54-5.265h5.745v.96h-4.8l-.36 3.345h1.35zM4.407 511.5V522h-1.08v-9.54H.852v-.96h3.555zm6.695 10.59a3.81 3.81 0 01-2.175-.645c-.63-.43-1.125-1.045-1.485-1.845-.35-.81-.525-1.76-.525-2.85s.175-2.035.525-2.835c.36-.81.855-1.43 1.485-1.86a3.81 3.81 0 012.175-.645c.81 0 1.53.215 2.16.645.64.43 1.14 1.05 1.5 1.86.36.8.54 1.745.54 2.835 0 1.09-.18 2.04-.54 2.85-.36.8-.86 1.415-1.5 1.845-.63.43-1.35.645-2.16.645zm0-.99c.61 0 1.145-.17 1.605-.51.47-.34.835-.835 1.095-1.485.26-.65.39-1.435.39-2.355 0-.92-.13-1.705-.39-2.355-.26-.65-.625-1.145-1.095-1.485-.46-.34-.995-.51-1.605-.51s-1.15.17-1.62.51c-.46.34-.82.835-1.08 1.485-.26.65-.39 1.435-.39 2.355 0 .92.13 1.705.39 2.355.26.65.62 1.145 1.08 1.485.47.34 1.01.51 1.62.51zm9.931.99a3.81 3.81 0 01-2.175-.645c-.63-.43-1.125-1.045-1.485-1.845-.35-.81-.525-1.76-.525-2.85s.175-2.035.525-2.835c.36-.81.855-1.43 1.485-1.86a3.81 3.81 0 012.175-.645c.81 0 1.53.215 2.16.645.64.43 1.14 1.05 1.5 1.86.36.8.54 1.745.54 2.835 0 1.09-.18 2.04-.54 2.85-.36.8-.86 1.415-1.5 1.845-.63.43-1.35.645-2.16.645zm0-.99c.61 0 1.145-.17 1.605-.51.47-.34.835-.835 1.095-1.485.26-.65.39-1.435.39-2.355 0-.92-.13-1.705-.39-2.355-.26-.65-.625-1.145-1.095-1.485-.46-.34-.995-.51-1.605-.51s-1.15.17-1.62.51c-.46.34-.82.835-1.08 1.485-.26.65-.39 1.435-.39 2.355 0 .92.13 1.705.39 2.355.26.65.62 1.145 1.08 1.485.47.34 1.01.51 1.62.51zM9.249 639.5V650h-1.08v-9.54H5.694v-.96h3.555zm9.68 9.54v.96h-7.365v-.765l4.364-4.275c.55-.54.92-1.005 1.11-1.395.2-.4.3-.8.3-1.2 0-.62-.215-1.1-.645-1.44-.42-.35-1.025-.525-1.815-.525-1.23 0-2.184.39-2.864 1.17l-.765-.66c.41-.48.93-.85 1.56-1.11.64-.26 1.36-.39 2.16-.39 1.07 0 1.915.255 2.534.765.63.5.945 1.19.945 2.07 0 .54-.12 1.06-.36 1.56s-.695 1.075-1.364 1.725l-3.57 3.51h5.774zm4.115-5.235c1.52 0 2.625.275 3.315.825.7.54 1.05 1.3 1.05 2.28a3.1 3.1 0 01-.435 1.635c-.28.48-.705.86-1.275 1.14-.57.27-1.27.405-2.1.405-.75 0-1.465-.12-2.145-.36-.67-.25-1.21-.58-1.62-.99l.525-.855c.35.36.81.655 1.38.885.57.22 1.185.33 1.845.33.87 0 1.54-.195 2.01-.585.48-.39.72-.91.72-1.56 0-.72-.27-1.265-.81-1.635-.53-.37-1.43-.555-2.7-.555h-2.235l.54-5.265h5.745v.96h-4.8l-.36 3.345h1.35zM7.842 767.5V778h-1.08v-9.54H4.287v-.96h3.555zm5.27 4.305c1.52 0 2.625.275 3.315.825.7.54 1.05 1.3 1.05 2.28a3.1 3.1 0 01-.435 1.635c-.28.48-.705.86-1.275 1.14-.57.27-1.27.405-2.1.405-.75 0-1.465-.12-2.145-.36-.67-.25-1.21-.58-1.62-.99l.525-.855c.35.36.81.655 1.38.885.57.22 1.185.33 1.845.33.87 0 1.54-.195 2.01-.585.48-.39.72-.91.72-1.56 0-.72-.27-1.265-.81-1.635-.53-.37-1.43-.555-2.7-.555h-2.235l.54-5.265h5.745v.96h-4.8l-.36 3.345h1.35zm9.921 6.285a3.81 3.81 0 01-2.175-.645c-.63-.43-1.125-1.045-1.485-1.845-.35-.81-.525-1.76-.525-2.85s.175-2.035.525-2.835c.36-.81.855-1.43 1.485-1.86a3.81 3.81 0 012.175-.645c.81 0 1.53.215 2.16.645.64.43 1.14 1.05 1.5 1.86.36.8.54 1.745.54 2.835 0 1.09-.18 2.04-.54 2.85-.36.8-.86 1.415-1.5 1.845-.63.43-1.35.645-2.16.645zm0-.99c.61 0 1.145-.17 1.605-.51.47-.34.835-.835 1.095-1.485.26-.65.39-1.435.39-2.355 0-.92-.13-1.705-.39-2.355-.26-.65-.625-1.145-1.095-1.485-.46-.34-.995-.51-1.605-.51s-1.15.17-1.62.51c-.46.34-.82.835-1.08 1.485-.26.65-.39 1.435-.39 2.355 0 .92.13 1.705.39 2.355.26.65.62 1.145 1.08 1.485.47.34 1.01.51 1.62.51z" fill="#fff"/></symbol><symbol id="scuba-diver" viewBox="0 0 17 20"><path d="M13.427 13.003v-1.698c0-.895-.618-1.648-1.455-1.87.094-.33.147-.678.147-1.037V7.182a2.552 2.552 0 00.322-3.723C12.391 1.544 10.801 0 8.85 0H7.541C5.589 0 3.999 1.544 3.949 3.46a2.552 2.552 0 00.322 3.722v1.216c0 1.293.647 2.437 1.635 3.142v.798l-2.557.561c-1.96.43-3.33 2.116-3.33 4.1v3.027H16.37v-3.028c0-1.85-1.191-3.44-2.943-3.995zm-.654-1.698v1.535l-2.289-.502v-.798a3.908 3.908 0 001.259-1.496c.588.126 1.03.643 1.03 1.26zM7.541.646h1.308a2.94 2.94 0 012.862 2.241 2.624 2.624 0 00-1.227-.303H5.906c-.443 0-.861.11-1.227.303A2.939 2.939 0 017.54.646zM3.944 5.168c0-1.069.88-1.938 1.962-1.938h4.578c1.082 0 1.962.87 1.962 1.938 0 1.069-.88 1.938-1.962 1.938h-.391a.78.78 0 01-.645-.34 1.431 1.431 0 00-1.189-.63H8.13a1.43 1.43 0 00-1.188.63.775.775 0 01-.645.34h-.391c-1.082 0-1.962-.87-1.962-1.938zm.98 3.23v-.836c.304.121.635.19.982.19h.391c.48 0 .923-.235 1.19-.628a.776.776 0 01.644-.341h.129c.26 0 .5.127.644.34.266.394.71.629 1.189.629h.391c.347 0 .678-.069.981-.19v.836c0 .337-.053.663-.15.969H9.783a1.303 1.303 0 00-1.262-.97h-.654c-.721 0-1.308.58-1.308 1.293 0 .712.587 1.292 1.308 1.292h.654c.608 0 1.115-.413 1.262-.97h1.239a3.276 3.276 0 01-2.828 1.616c-1.803 0-3.27-1.449-3.27-3.23zM9.177 9.69a.65.65 0 01-.654.646h-.654a.65.65 0 01-.654-.646.65.65 0 01.654-.646h.654c.36 0 .654.29.654.646zM.674 16.998c0-1.678 1.158-3.104 2.816-3.468l1.435-.315v1.643a.65.65 0 01-.654.646h-.654c-.722 0-1.308.58-1.308 1.292a.65.65 0 01-.654.646H.674v-.444zm15.042 2.382H13.1v-1.292h-.654v1.292H3.944v-1.292H3.29v1.292H.674v-1.292h.98c.722 0 1.309-.58 1.309-1.292a.65.65 0 01.654-.646h.654c.721 0 1.308-.58 1.308-1.292V13.07l.98-.215v-.939a3.938 3.938 0 001.636.357c.584 0 1.137-.13 1.635-.357v.939l.981.215v1.787c0 .712.587 1.292 1.308 1.292h.654c.36 0 .654.29.654.646 0 .712.587 1.292 1.308 1.292h.981v1.292zm0-1.938h-.98a.65.65 0 01-.655-.646 1.3 1.3 0 00-1.308-1.292h-.654a.65.65 0 01-.654-.646v-1.643l1.435.315c1.658.364 2.816 1.79 2.816 3.468v.444z"/><path d="M9.503 3.553H5.579v.646h3.924v-.646zm1.308 0h-.654v.646h.654v-.646z"/></symbol><symbol id="scuba-diving" viewBox="0 0 61 61"><path d="M34.074 43.129c-4.927 0-8.935 4.009-8.935 8.936 0 4.926 4.008 8.935 8.935 8.935 4.927 0 8.936-4.009 8.936-8.935 0-4.927-4.009-8.936-8.936-8.936zm1.787 10.723h-3.574v-3.575h3.574v3.575zM43.01 0H28.712c-6.31 0-11.99 3.853-14.637 9.495 2.16-1.31 4.783-2.108 7.488-2.108h28.594c2.705 0 5.328.798 7.488 2.108C54.999 3.853 49.319 0 43.009 0zm7.148 10.96H21.564c-5.912 0-10.841 4.81-10.841 10.724 0 5.912 4.929 10.722 10.841 10.722h3.575c3.783 0 7.216-1.979 9.186-5.295l1.536-2.588 1.536 2.588c1.97 3.316 5.403 5.295 9.187 5.295h3.574c5.913 0 10.842-4.81 10.842-10.722 0-5.913-4.929-10.723-10.842-10.723z" fill="#1B498E"/><path d="M35.862 31.071a14.095 14.095 0 01-7.351 4.475c1.637 2.446 4.326 4.009 7.35 4.009 3.025 0 5.714-1.563 7.352-4.009a14.09 14.09 0 01-7.351-4.475zM22.148 48.49h-2.37c-6.91 0-12.63-5.6-12.63-12.51v-3.574H0v3.575c0 10.856 8.92 19.658 19.777 19.658h2.37c-.342-1.14-.582-2.324-.582-3.575 0-1.25.24-2.434.583-3.574zm-15-23.232H0v3.574h7.148v-3.574zM7.148 0H0v21.684h7.148V0z" fill="#1B498E"/></symbol><symbol id="share" viewBox="-21 0 512 512"><path d="M453.332 85.332c0 38.293-31.039 69.336-69.332 69.336s-69.332-31.043-69.332-69.336C314.668 47.043 345.707 16 384 16s69.332 31.043 69.332 69.332zm0 0"/><path d="M384 170.668c-47.063 0-85.332-38.273-85.332-85.336C298.668 38.273 336.938 0 384 0s85.332 38.273 85.332 85.332c0 47.063-38.27 85.336-85.332 85.336zM384 32c-29.418 0-53.332 23.938-53.332 53.332 0 29.398 23.914 53.336 53.332 53.336s53.332-23.938 53.332-53.336C437.332 55.938 413.418 32 384 32zm69.332 394.668C453.332 464.957 422.293 496 384 496s-69.332-31.043-69.332-69.332c0-38.293 31.039-69.336 69.332-69.336s69.332 31.043 69.332 69.336zm0 0"/><path d="M384 512c-47.063 0-85.332-38.273-85.332-85.332 0-47.063 38.27-85.336 85.332-85.336s85.332 38.273 85.332 85.336c0 47.059-38.27 85.332-85.332 85.332zm0-138.668c-29.418 0-53.332 23.938-53.332 53.336C330.668 456.063 354.582 480 384 480s53.332-23.938 53.332-53.332c0-29.398-23.914-53.336-53.332-53.336zM154.668 256c0 38.293-31.043 69.332-69.336 69.332C47.043 325.332 16 294.293 16 256s31.043-69.332 69.332-69.332c38.293 0 69.336 31.039 69.336 69.332zm0 0"/><path d="M85.332 341.332C38.273 341.332 0 303.062 0 256s38.273-85.332 85.332-85.332c47.063 0 85.336 38.27 85.336 85.332s-38.273 85.332-85.336 85.332zm0-138.664C55.914 202.668 32 226.602 32 256s23.914 53.332 53.332 53.332c29.422 0 53.336-23.934 53.336-53.332s-23.914-53.332-53.336-53.332zm0 0"/><path d="M135.703 245.762c-7.426 0-14.637-3.864-18.562-10.774-5.825-10.218-2.239-23.254 7.98-29.101l197.95-112.852c10.218-5.867 23.253-2.281 29.1 7.977 5.825 10.218 2.24 23.254-7.98 29.101L146.238 242.965a21.195 21.195 0 01-10.535 2.797zm197.93 176c-3.586 0-7.211-.899-10.54-2.797L125.142 306.113c-10.22-5.824-13.801-18.86-7.977-29.101 5.8-10.239 18.856-13.844 29.098-7.977l197.953 112.852c10.219 5.824 13.8 18.86 7.976 29.101-3.945 6.91-11.156 10.774-18.558 10.774zm0 0"/></symbol><symbol id="sidemount" viewBox="0 0 20 20"><path d="M19.701 5.653l-1.314-1.576V1.935h-.645V0H13.87v.645h-2.903V0H9.032v.88a2.573 2.573 0 00-4.328.74A4.195 4.195 0 00.645 5.806v5.484H0v2.904a1.614 1.614 0 003.226 0V11.29H2.58V5.806c0-1.2.943-2.183 2.127-2.251a2.573 2.573 0 004.324.727v.88h1.936v-.646h1.892l-.948 1.137a1.294 1.294 0 00-.3.826v11.908c0 .89.724 1.613 1.614 1.613h5.161c.89 0 1.613-.724 1.613-1.613V6.48c0-.301-.106-.594-.299-.826zm-.349.799l.003.027v10.295h-7.097V6.48l.003-.027h5.158v-.646h-4.795l1.075-1.29h4.214l1.075 1.29h-.924v.646h1.288zm-1.288 12.903h-.645v-1.936h.645v1.936zm-4.516-1.936h.646v1.936h-.646v-1.936zm1.29 0h1.936v1.936H14.84v-1.936zm2.904-14.838v1.29H13.87v-1.29h3.87zM17.097.645v1.29h-2.58V.645h2.58zM2.58 11.935v.646H.645v-.646h1.936zm-.646 1.936v-.645h.646v.645h-.646zm-1.29 0v-.645h.645v.645H.645zm.968 1.29a.966.966 0 01-.908-.645H2.52a.966.966 0 01-.908.645zm.322-9.355v5.484H1.29V5.806a3.552 3.552 0 013.246-3.533c-.012.101-.02.203-.02.308 0 .114.01.227.025.337a2.907 2.907 0 00-2.606 2.888zM7.42 4.487v-.939h-.645v.94A1.938 1.938 0 015.19 2.902h.939v-.645H5.19A1.938 1.938 0 016.774.674v.939h.645V.674a1.938 1.938 0 011.584 1.584h-.938v.645h.938A1.939 1.939 0 017.42 4.487zm2.904.03h-.646V.644h.646v3.871zm.645-3.227h2.903v.645h-.645v1.936h-2.258v-2.58zm1.29 17.097v-.968h.645v1.877a.967.967 0 01-.645-.909zm6.452.909v-1.877h.645v.968c0 .42-.27.775-.645.909z"/></symbol><symbol id="star-empty" viewBox="0 0 15 15"><path d="M11.643 14.697a.798.798 0 00.777-.975l-.966-4.251 3.273-2.87a.797.797 0 00-.452-1.395l-4.33-.393L8.233.806a.797.797 0 00-1.466 0L5.055 4.813l-4.33.393A.796.796 0 00.272 6.6l3.273 2.87-.965 4.25a.797.797 0 001.186.861l3.734-2.23 3.734 2.232a.799.799 0 00.409.114zM7.5 11.39a.8.8 0 00-.409.113L3.567 13.61l.91-4.012a.797.797 0 00-.252-.777l-3.09-2.71 4.089-.37a.796.796 0 00.662-.484L7.5 1.477l1.616 3.78c.113.27.366.455.66.482l4.089.371-3.09 2.71a.795.795 0 00-.253.778l.91 4.012-3.523-2.107a.8.8 0 00-.41-.113zm2.478-6.5v.001-.001zm-4.955-.002v.001z" fill="#4F5764"/></symbol><symbol id="star" viewBox="0 0 16 15"><path d="M.29 5.753a.796.796 0 01.685-.547l4.33-.393L7.016.806a.797.797 0 011.467 0l1.711 4.007 4.331.393a.799.799 0 01.453 1.395l-3.273 2.87.965 4.25a.797.797 0 01-1.186.863L7.75 12.35l-3.733 2.232a.797.797 0 01-1.187-.861l.965-4.251L.522 6.6a.798.798 0 01-.233-.848z" fill="#2C60AE"/></symbol><symbol id="textbook" viewBox="0 0 47 61"><g clip-path="url(#clip0)" fill="#1B498E"><path d="M-.05 49.862v.002c0 3.293 2.712 5.973 6.046 5.973h3.34v-5.973c0-1.001.82-1.811 1.833-1.811h35.435v-4.164H5.996c-3.334 0-6.047 2.68-6.047 5.973z"/><path d="M25.046 55.837h20.947c.337 0 .61-.27.61-.604v-3.558H25.047v4.162zM7.344 40.268V0H5.996C2.662 0-.051 2.68-.051 5.975v36.384c2.57-2.029 4.79-2.091 7.395-2.091zM11.01 0v40.268h35.594V.604A.607.607 0 0045.993 0H11.01zm29.337 16.751c0 1-.821 1.811-1.833 1.811H19.1a1.822 1.822 0 01-1.833-1.81v-8.93c0-.999.82-1.81 1.833-1.81h19.413c1.012 0 1.833.811 1.833 1.81v8.93zM13.002 60.395c0 .51.602.79 1 .466l2.022-1.65a1.848 1.848 0 012.334 0l2.022 1.65c.399.325 1 .045 1-.466v-8.72h-8.378v8.72z"/><path d="M20.934 9.634H36.68v5.306H20.934V9.634z"/></g></symbol><symbol id="torch" viewBox="0 0 20 20"><path d="M14.933 2.495c.14.076.32.025.397-.119L16.377.432a.293.293 0 10-.515-.278l-1.048 1.944a.293.293 0 00.119.397zm5.032 1.246a.293.293 0 00-.397-.119L17.623 4.67a.293.293 0 00.278.516l1.945-1.048a.293.293 0 00.119-.397zM6.72 14.68a.501.501 0 00.356-.148l.598-.598a.505.505 0 000-.713l-.896-.897a.5.5 0 00-.714 0l-.598.598a.501.501 0 000 .713l.897.897a.5.5 0 00.357.148zm-.3-1.884l.782.782-.482.482-.782-.781.483-.483zm9.79-9.006c.114.114.3.114.414 0l1.496-1.496a.293.293 0 00-.414-.415L16.21 3.375a.293.293 0 000 .415zm-3.403-2.37a.57.57 0 00-.801 0l-.442.442a.57.57 0 00-.01.79L9.31 4.893a.323.323 0 00-.062.087L7.751 8.247.456 15.542a1.568 1.568 0 000 2.208l1.794 1.794a1.564 1.564 0 002.208 0l3.675-3.676a.293.293 0 10-.414-.414l-3.676 3.675a.976.976 0 01-1.379 0L.87 17.335a.981.981 0 010-1.379l7.126-7.125 3.172 3.173-2.476 2.477a.293.293 0 00.414.414l2.647-2.647 3.266-1.498c.028-.016.045-.02.087-.061l2.243-2.243c.222.21.572.207.789-.01l.442-.442a.571.571 0 000-.801L12.807 1.42zm-1.161 10.233l-3.3-3.3 1.26-2.745 4.786 4.785-2.746 1.26zm6.091-3.645l-3.932-3.933a.293.293 0 00-.414.415l3.543 3.543-2.037 2.036L9.93 5.103l2.037-2.037.46.46a.293.293 0 00.413-.415l-.848-.849.414-.414 5.746 5.745-.415.415zM4.628 13.97a.501.501 0 00-.356.148l-.598.598a.505.505 0 000 .713l.897.897a.501.501 0 00.713 0l.598-.598a.505.505 0 000-.713l-.897-.897a.501.501 0 00-.357-.148zm.3 1.884l-.782-.782.482-.482.782.781-.483.483z"/></symbol><symbol id="underwater" viewBox="0 0 24 20"><path d="M14.44 15.201h.8v.8h-.8v-.8zm-2.401-8.002a3.194 3.194 0 00-3.19 3.19c0 1.76 1.43 3.192 3.19 3.192s3.19-1.432 3.19-3.191c0-1.76-1.43-3.191-3.19-3.191zm0 5.581a2.393 2.393 0 01-2.39-2.39A2.393 2.393 0 0112.038 8a2.393 2.393 0 012.39 2.39 2.393 2.393 0 01-2.39 2.39z"/><path d="M11.248 9.59h-.783v.806h.8v-.805h.783v-.8h-.8v.8zm-4.784-2.4h.8v.8h-.8v-.8zm0 1.6h.8v3.201h-.8v-3.2z"/><path d="M23.565-.02h-4v2.418h.835v6.39h-1.133V6.221L17.803 4.79h-.937V3.198h-5l-1.2 1.592H9.648V3.198H7.246V4.79H6.27L4.864 6.227v2.56H3.6v-6.39h.765V-.02H.364v2.419H1.2v13.594H2V2.398h.8v15.23H2v-.836h-.8v3.228h2.4v-2.4h16.8v2.4h2.4V3.99H22v13.639h-.8V2.398h.8v.791h.8v-.791h.765V-.021zM20.4 15.2h-1.784l.65-.642V11.2H20.4v4.002zm0-5.613v.811h-1.133v-.811H20.4zM8.047 3.998h.801v.792h-.801v-.792zM3.6 11.2h1.264v3.355l.628.647H3.6V11.2zm1.264-1.611v.811H3.6v-.811h1.264zM1.2 1.598h-.036V.78h2.4v.818H1.2zM2 19.22v-.791h.8v.791H2zm1.6-2.4V16h10.04v-.8H6.607l-.942-.971V6.553l.94-.962h6.261v-.8h-1.198l.597-.793h3.801v.792H13.64v.8h3.837l.99.968v7.667l-.991.976H16.04v.8h4.36v.818H3.6zM22 18.428v.791h-.8v-.791h.8zm-1.6-16.83h-.036V.78h2.4v.818H20.4z"/></symbol><symbol id="views" viewBox="0 0 34 20"><path d="M16.995-.02C10.5-.02 4.612 3.492.266 9.197a1.318 1.318 0 000 1.587c4.346 5.712 10.235 9.224 16.729 9.224s12.383-3.512 16.729-9.217a1.318 1.318 0 000-1.587C29.378 3.492 23.489-.02 16.994-.02zm.466 17.066c-4.311.268-7.871-3.244-7.6-7.513.223-3.518 3.108-6.37 6.668-6.59 4.31-.269 7.87 3.243 7.6 7.511-.23 3.512-3.115 6.365-6.668 6.591zm-.216-3.258c-2.322.144-4.241-1.746-4.088-4.041.118-1.897 1.675-3.43 3.594-3.554 2.323-.144 4.242 1.746 4.089 4.042-.125 1.903-1.683 3.436-3.595 3.553z"/></symbol><symbol id="fb" viewBox="0 0 512 512"><path d="M504 256C504 119 393 8 256 8S8 119 8 256c0 123.78 90.69 226.38 209.25 245V327.69h-63V256h63v-54.64c0-62.15 37-96.48 93.67-96.48 27.14 0 55.52 4.84 55.52 4.84v61h-31.28c-30.8 0-40.41 19.12-40.41 38.73V256h68.78l-11 71.69h-57.78V501C413.31 482.38 504 379.78 504 256z"/></symbol><symbol id="insta-fill" viewBox="0 0 25 25"><rect width="25" height="25" rx="7"/><rect x="7" y="8" width="11" height="11" rx="5.5" fill="#fff"/><rect x="17" y="6" width="3" height="3" rx="1.5" fill="#fff"/></symbol><symbol id="insta" viewBox="0 0 448 512"><path d="M224.1 141c-63.6 0-114.9 51.3-114.9 114.9s51.3 114.9 114.9 114.9S339 319.5 339 255.9 287.7 141 224.1 141zm0 189.6c-41.1 0-74.7-33.5-74.7-74.7s33.5-74.7 74.7-74.7 74.7 33.5 74.7 74.7-33.6 74.7-74.7 74.7zm146.4-194.3c0 14.9-12 26.8-26.8 26.8-14.9 0-26.8-12-26.8-26.8s12-26.8 26.8-26.8 26.8 12 26.8 26.8zm76.1 27.2c-1.7-35.9-9.9-67.7-36.2-93.9-26.2-26.2-58-34.4-93.9-36.2-37-2.1-147.9-2.1-184.9 0-35.8 1.7-67.6 9.9-93.9 36.1s-34.4 58-36.2 93.9c-2.1 37-2.1 147.9 0 184.9 1.7 35.9 9.9 67.7 36.2 93.9s58 34.4 93.9 36.2c37 2.1 147.9 2.1 184.9 0 35.9-1.7 67.7-9.9 93.9-36.2 26.2-26.2 34.4-58 36.2-93.9 2.1-37 2.1-147.8 0-184.8zM398.8 388c-7.8 19.6-22.9 34.7-42.6 42.6-29.5 11.7-99.5 9-132.1 9s-102.7 2.6-132.1-9c-19.6-7.8-34.7-22.9-42.6-42.6-11.7-29.5-9-99.5-9-132.1s-2.6-102.7 9-132.1c7.8-19.6 22.9-34.7 42.6-42.6 29.5-11.7 99.5-9 132.1-9s102.7-2.6 132.1 9c19.6 7.8 34.7 22.9 42.6 42.6 11.7 29.5 9 99.5 9 132.1s2.7 102.7-9 132.1z"/></symbol><symbol id="tiktok" viewBox="0 0 448 512"><path d="M448 209.91a210.06 210.06 0 01-122.77-39.25v178.72A162.55 162.55 0 11185 188.31v89.89a74.62 74.62 0 1052.23 71.18V0h88a121.18 121.18 0 001.86 22.17A122.18 122.18 0 00381 102.39a121.43 121.43 0 0067 20.14z"/></symbol><symbol id="vk-fill" viewBox="0 0 26 25"><path d="M13.227 0C6.324 0 .727 5.596.727 12.5S6.324 25 13.227 25s12.5-5.596 12.5-12.5S20.13 0 13.227 0zm6.34 13.852c.583.569 1.2 1.104 1.723 1.732.231.278.45.565.616.888.237.461.023.966-.39.993h-2.56c-.661.055-1.188-.212-1.631-.664-.355-.36-.683-.745-1.024-1.118a2.392 2.392 0 00-.462-.41c-.349-.227-.652-.158-.852.207-.204.37-.25.782-.27 1.195-.028.604-.21.762-.816.79-1.294.06-2.523-.136-3.665-.788-1.007-.576-1.786-1.388-2.465-2.309-1.323-1.793-2.336-3.761-3.247-5.786-.204-.456-.054-.7.449-.71a71.264 71.264 0 012.507 0c.34.005.565.2.696.52a15.558 15.558 0 001.7 3.15c.184.261.373.521.642.706.296.203.522.136.662-.195.09-.21.128-.436.148-.661.066-.773.074-1.545-.04-2.315-.072-.481-.343-.792-.823-.883-.245-.047-.209-.137-.09-.277.206-.241.4-.39.786-.39l2.893-.001c.456.09.559.294.62.753l.003 3.216c-.005.177.09.704.409.82.255.085.424-.12.577-.282.694-.736 1.188-1.605 1.631-2.505.195-.397.364-.807.528-1.218.121-.304.31-.454.654-.449l2.786.003c.082 0 .166.001.247.015.47.08.598.283.453.74-.229.72-.673 1.32-1.107 1.92-.466.644-.962 1.265-1.423 1.912-.424.59-.39.888.136 1.4z"/></symbol><symbol id="vk" viewBox="0 0 576 512"><path d="M545 117.7c3.7-12.5 0-21.7-17.8-21.7h-58.9c-15 0-21.9 7.9-25.6 16.7 0 0-30 73.1-72.4 120.5-13.7 13.7-20 18.1-27.5 18.1-3.7 0-9.4-4.4-9.4-16.9V117.7c0-15-4.2-21.7-16.6-21.7h-92.6c-9.4 0-15 7-15 13.5 0 14.2 21.2 17.5 23.4 57.5v86.8c0 19-3.4 22.5-10.9 22.5-20 0-68.6-73.4-97.4-157.4-5.8-16.3-11.5-22.9-26.6-22.9H38.8c-16.8 0-20.2 7.9-20.2 16.7 0 15.6 20 93.1 93.1 195.5C160.4 378.1 229 416 291.4 416c37.5 0 42.1-8.4 42.1-22.9 0-66.8-3.4-73.1 15.4-73.1 8.7 0 23.7 4.4 58.7 38.1 40 40 46.6 57.9 69 57.9h58.9c16.8 0 25.3-8.4 20.4-25-11.2-34.9-86.9-106.7-90.3-111.5-8.7-11.2-6.2-16.2 0-26.2.1-.1 72-101.3 79.4-135.6z"/></symbol></svg>